<svg width="24" height="24" viewBox="0 0 24 24" fill="none" xmlns="http://www.w3.org/2000/svg">
<path d="M12 2C16.6945 2 20.5 5.8055 20.5 10.5C20.5035 12.5052 19.7947 14.4464 18.5 15.9775L18.489 15.9905L18.481 16H18.5L13.4555 21.3545C13.2685 21.5529 13.043 21.711 12.7927 21.819C12.5424 21.9271 12.2726 21.9828 12 21.9828C11.7274 21.9828 11.4576 21.9271 11.2073 21.819C10.9571 21.711 10.7315 21.5529 10.5445 21.3545L5.50001 16H5.51901L5.51051 15.99L5.50001 15.9775C4.20528 14.4464 3.49649 12.5052 3.50001 10.5C3.50001 5.8055 7.30551 2 12 2ZM12 3.25C7.99601 3.25 4.75001 6.496 4.75001 10.5C4.75001 12.29 5.39701 13.926 6.47151 15.191L6.62551 15.372L11.454 20.4975C11.5241 20.572 11.6087 20.6313 11.7026 20.6718C11.7965 20.7124 11.8977 20.7333 12 20.7333C12.1023 20.7333 12.2035 20.7124 12.2974 20.6718C12.3913 20.6313 12.4759 20.572 12.546 20.4975L17.3745 15.3725L17.5285 15.191C18.6428 13.8823 19.2533 12.2188 19.25 10.5C19.25 6.496 16.004 3.25 12 3.25ZM12 7C12.9283 7 13.8185 7.36875 14.4749 8.02513C15.1313 8.6815 15.5 9.57174 15.5 10.5C15.5 11.4283 15.1313 12.3185 14.4749 12.9749C13.8185 13.6313 12.9283 14 12 14C11.0718 14 10.1815 13.6313 9.52514 12.9749C8.86876 12.3185 8.50001 11.4283 8.50001 10.5C8.50001 9.57174 8.86876 8.6815 9.52514 8.02513C10.1815 7.36875 11.0718 7 12 7ZM12 8.25C11.7045 8.25 11.412 8.3082 11.139 8.42127C10.866 8.53434 10.618 8.70008 10.409 8.90901C10.2001 9.11794 10.0344 9.36598 9.92128 9.63896C9.80821 9.91194 9.75001 10.2045 9.75001 10.5C9.75001 10.7955 9.80821 11.0881 9.92128 11.361C10.0344 11.634 10.2001 11.8821 10.409 12.091C10.618 12.2999 10.866 12.4657 11.139 12.5787C11.412 12.6918 11.7045 12.75 12 12.75C12.5968 12.75 13.169 12.5129 13.591 12.091C14.013 11.669 14.25 11.0967 14.25 10.5C14.25 9.90326 14.013 9.33097 13.591 8.90901C13.169 8.48705 12.5968 8.25 12 8.25Z" fill="#EF7955"/>
</svg>
