<?xml version="1.0" encoding="UTF-8"?>
<svg width="800px" height="800px" viewBox="0 -5 30 30" version="1.1" xmlns="http://www.w3.org/2000/svg" xmlns:xlink="http://www.w3.org/1999/xlink">
    <title>menu</title>
    <linearGradient id="ng-gradient">
        <stop offset="0%" stop-color="#ef4444" />
        <stop offset="50%" stop-color="#ec4899" />
        <stop offset="100%" stop-color="#a855f7" />
    </linearGradient>
    <g id="icons" stroke="none" stroke-width="1" fill="none" fill-rule="evenodd">
        <g id="ui-gambling-website-lined-icnos-casinoshunter" transform="translate(-995.000000, -160.000000)" fill="url(#ng-gradient)" fill-rule="nonzero">
            <g id="square-filled" transform="translate(50.000000, 120.000000)">
                <path d="M974,58 C974.552285,58 975,58.4477153 975,59 C975,59.5522847 974.552285,60 974,60 L946,60 C945.447715,60 945,59.5522847 945,59 C945,58.4477153 945.447715,58 946,58 L974,58 Z M974,49 C974.552285,49 975,49.4477153 975,50 C975,50.5522847 974.552285,51 974,51 L946,51 C945.447715,51 945,50.5522847 945,50 C945,49.4477153 945.447715,49 946,49 L974,49 Z M974,40 C974.552285,40 975,40.4477153 975,41 C975,41.5522847 974.552285,42 974,42 L946,42 C945.447715,42 945,41.5522847 945,41 C945,40.4477153 945.447715,40 946,40 L974,40 Z" id="menu">
                </path>
            </g>
        </g>
    </g>
</svg>
