<?xml version="1.0" encoding="UTF-8"?>
<svg xmlns="http://www.w3.org/2000/svg" xmlns:xlink="http://www.w3.org/1999/xlink" width="186px" height="200px" viewBox="0 0 186 199" version="1.1">
<g id="surface1">
<path style=" stroke:none;fill-rule:nonzero;fill:rgb(86.666667%,0%,19.215686%);fill-opacity:1;" d="M 92.984375 0.539062 L 0.632812 33.394531 L 14.71875 155.222656 L 92.984375 198.46875 L 171.25 155.222656 L 185.335938 33.394531 Z M 92.984375 0.539062 "/>
<path style=" stroke:none;fill-rule:nonzero;fill:rgb(76.470588%,0%,18.431373%);fill-opacity:1;" d="M 92.984375 0.539062 L 92.984375 22.511719 L 92.984375 22.410156 L 92.984375 198.46875 L 171.25 155.222656 L 185.335938 33.394531 Z M 92.984375 0.539062 "/>
<path style=" stroke:none;fill-rule:nonzero;fill:rgb(100%,100%,100%);fill-opacity:1;" d="M 95.550781 24.75 C 95.160156 24.847656 94.277344 25.160156 93.621094 25.453125 C 92.960938 25.742188 92.300781 25.984375 92.128906 25.984375 C 91.691406 25.984375 90.957031 26.882812 91.152344 27.222656 C 91.25 27.367188 91.371094 29.5 91.398438 31.945312 C 91.445312 36.234375 91.46875 36.40625 92.007812 36.839844 C 92.472656 37.203125 92.519531 37.421875 92.398438 38.246094 C 92.179688 39.457031 91.496094 40.597656 90.6875 41.128906 C 90.347656 41.347656 89.222656 41.90625 88.171875 42.339844 C 86.292969 43.140625 86.269531 43.164062 85.339844 44.859375 C 84.804688 45.878906 84.316406 46.507812 84.117188 46.433594 C 83.972656 46.363281 83.335938 45.5625 82.726562 44.617188 C 80.945312 41.832031 80.015625 41.324219 78.769531 42.390625 C 78.378906 42.726562 78.257812 42.703125 77.476562 42 C 76.058594 40.789062 75.082031 41.082031 74.449219 42.921875 C 74.105469 43.964844 74.082031 43.914062 74.691406 43.914062 C 75.15625 43.914062 75.179688 44.011719 75.035156 45.199219 C 74.886719 46.339844 74.9375 46.605469 75.496094 47.429688 C 76.011719 48.15625 76.132812 48.617188 76.109375 49.707031 C 76.082031 51.574219 75.839844 52.226562 75.132812 52.566406 C 74.714844 52.761719 74.398438 53.21875 74.203125 53.875 C 74.03125 54.40625 73.933594 54.914062 73.984375 54.941406 C 74.03125 54.988281 75.546875 55.109375 77.355469 55.207031 L 80.652344 55.351562 L 82.238281 56.878906 C 84.410156 58.9375 85.683594 59.808594 87.125 60.148438 C 88.222656 60.417969 88.34375 60.511719 88.34375 61.117188 C 88.34375 61.507812 88.464844 61.894531 88.613281 61.992188 C 89.101562 62.28125 88.417969 68.4375 87.585938 71.296875 C 86.757812 74.035156 86.5625 76.042969 86.757812 79.535156 C 86.953125 82.925781 86.976562 85.253906 86.878906 87.53125 C 86.855469 88.257812 86.902344 89.46875 87 90.21875 C 87.125 91.238281 87.050781 92.0625 86.660156 93.613281 C 86.316406 95.015625 86.074219 97.125 85.902344 100.371094 C 85.632812 105.679688 85.558594 106.355469 85 108.683594 C 84.65625 110.160156 84.535156 110.378906 83.605469 111.007812 C 83.070312 111.371094 82.09375 111.855469 81.457031 112.074219 C 80.359375 112.4375 78.085938 113.796875 78.085938 114.109375 C 78.085938 114.183594 78.257812 114.375 78.476562 114.523438 C 78.792969 114.765625 78.820312 115.226562 78.671875 117.792969 C 78.527344 120.578125 78.476562 120.773438 77.941406 120.96875 C 77.648438 121.089844 75.644531 121.402344 73.519531 121.695312 C 68.097656 122.398438 65.410156 122.90625 64.996094 123.316406 C 64.726562 123.585938 64.652344 124.382812 64.652344 126.660156 L 64.652344 129.664062 L 65.460938 129.8125 C 65.875 129.882812 67.828125 130.152344 69.78125 130.417969 C 71.710938 130.660156 73.347656 131 73.398438 131.144531 C 73.445312 131.289062 74.375 132.574219 75.449219 134.003906 C 76.523438 135.433594 77.574219 136.984375 77.769531 137.445312 C 78.085938 138.171875 78.136719 139.648438 77.988281 147.984375 C 77.914062 153.3125 77.769531 159.273438 77.695312 161.238281 L 77.523438 164.824219 L 107.933594 164.824219 L 107.785156 163.175781 C 107.515625 160.171875 107.101562 140.789062 107.273438 139.210938 C 107.417969 137.710938 107.515625 137.539062 109.714844 134.65625 C 110.984375 132.984375 112.058594 131.433594 112.15625 131.167969 C 112.328125 130.609375 112.71875 130.515625 116.554688 130.175781 C 118.164062 130.003906 119.875 129.8125 120.339844 129.714844 L 121.195312 129.542969 L 121.265625 126.128906 L 121.339844 122.710938 L 120.65625 122.566406 C 120.265625 122.492188 118.777344 122.324219 117.285156 122.179688 C 114.332031 121.886719 108.003906 121.039062 107.347656 120.820312 C 106.957031 120.699219 106.90625 120.363281 106.90625 118.203125 L 106.90625 115.710938 L 105.585938 114.230469 L 104.292969 112.777344 L 104.121094 110.160156 C 103.949219 107.640625 104 107.351562 104.878906 103.765625 C 105.710938 100.324219 105.78125 99.71875 105.78125 96.617188 C 105.78125 93.25 105.78125 93.199219 104.855469 90.921875 C 103.242188 86.972656 103.167969 86.535156 103.363281 83.410156 C 103.585938 80.117188 103.585938 79.921875 103.363281 76.625 C 103.195312 74.25 103.21875 73.984375 103.828125 72.410156 C 104.171875 71.515625 104.464844 70.421875 104.464844 70.011719 C 104.464844 69.429688 103.632812 65.988281 102.851562 63.25 C 102.753906 62.9375 103.097656 62.644531 104.195312 62.089844 C 105 61.699219 105.855469 61.09375 106.074219 60.753906 C 106.589844 59.980469 107.394531 53.460938 107.445312 49.683594 C 107.445312 48.082031 103.925781 42.605469 101.558594 40.574219 C 99.40625 38.730469 99.238281 38.269531 99.40625 35.3125 C 99.507812 33.714844 99.773438 32.308594 100.164062 31.148438 C 101.140625 28.335938 101.117188 27.074219 100.066406 25.914062 C 99.066406 24.75 97.332031 24.3125 95.550781 24.75 Z M 83.898438 48.640625 L 84.804688 49.246094 L 84.804688 51.257812 C 84.804688 52.347656 84.902344 53.535156 85.023438 53.898438 C 85.195312 54.480469 85.144531 54.578125 84.730469 54.578125 C 84.484375 54.578125 83.875 54.308594 83.410156 53.996094 C 82.921875 53.679688 82.042969 53.125 81.40625 52.761719 C 80.796875 52.394531 80.285156 51.960938 80.285156 51.765625 C 80.285156 51.28125 80.625 51.355469 81.140625 51.910156 C 81.554688 52.371094 82.703125 52.566406 83.042969 52.25 C 83.117188 52.179688 82.847656 51.597656 82.457031 50.941406 C 81.628906 49.585938 81.601562 49.464844 82.238281 49.054688 C 82.507812 48.882812 82.726562 48.59375 82.726562 48.398438 C 82.726562 47.914062 82.847656 47.9375 83.898438 48.640625 Z M 79.308594 51.207031 C 79.453125 51.453125 79.550781 51.742188 79.550781 51.863281 C 79.550781 52.179688 78.207031 52.636719 77.304688 52.636719 C 76.277344 52.636719 76.179688 52.03125 77.085938 51.207031 C 77.5 50.820312 77.84375 50.386719 77.84375 50.238281 C 77.84375 49.875 79.015625 50.628906 79.308594 51.207031 Z M 94.058594 90.316406 C 94.230469 94.191406 95.109375 105.4375 95.425781 107.835938 C 95.84375 110.816406 95.84375 110.765625 94.523438 110.71875 C 93.863281 110.71875 92.203125 110.789062 90.8125 110.910156 L 88.269531 111.105469 L 88.441406 109.871094 C 88.6875 108.050781 91.152344 100.6875 91.859375 99.667969 C 92.617188 98.578125 92.667969 98.140625 92.398438 94.023438 C 92.226562 91.238281 92.277344 90.535156 92.59375 89.660156 C 92.789062 89.082031 93.082031 88.136719 93.253906 87.53125 C 93.667969 85.90625 93.890625 86.707031 94.058594 90.316406 Z M 97.96875 88.113281 C 98.1875 88.8125 98.527344 89.539062 98.722656 89.710938 C 99.480469 90.339844 99.703125 91.089844 99.96875 94.3125 C 100.140625 96.105469 100.457031 98.410156 100.679688 99.402344 C 101.265625 101.945312 101.070312 106.015625 100.214844 108.925781 C 99.898438 110.113281 99.554688 111.128906 99.480469 111.203125 C 99.433594 111.273438 99.042969 111.25 98.625 111.152344 L 97.871094 110.984375 L 97.871094 106.574219 C 97.871094 104.128906 97.773438 100.785156 97.648438 99.136719 C 97.503906 97.488281 97.332031 93.976562 97.257812 91.308594 C 97.089844 86.269531 97.234375 85.589844 97.96875 88.113281 Z M 97.96875 88.113281 "/>
</g>
</svg>
