<svg width="1289" height="1372" xmlns="http://www.w3.org/2000/svg" version="1.1" xml:space="preserve">
 <metadata id="metadata8">image/svg+xml</metadata>
 <defs id="defs6">
  <clipPath clipPathUnits="userSpaceOnUse" id="clipPath26">
   <path d="m-304.49577,1724.58779l1574.702,0l0,-1500l-1574.702,0l0,1500z" id="path24"/>
  </clipPath>
 </defs>
 <g>
  <title>Layer 1</title>
  <g id="g10" transform="matrix(1.33333 0 0 -1.33333 0 2000)">
   <g id="g12">
    <path fill-rule="evenodd" fill="#ffffff" d="m476.57961,1497.35683l0,-1023.354l409.784,226.674l79.004,629.812l-488.788,166.868z" id="path14"/>
   </g>
   <g id="g16">
    <path fill-rule="evenodd" fill="#e23237" d="m0.34322,1327.53603l476.236,169.821l29.475,-10.063l1.546,-996.132l-31.021,-17.159l-403.139,223.72l-73.097,629.813z" id="path18"/>
   </g>
   <g id="g20">
    <g id="g22" clip-path="url(#clipPath26)">
     <g id="g28">
      <path fill-rule="evenodd" fill="#b52e31" d="m808.15962,1384.15859c-0.806,-23.644 -1.443,-47.038 -1.932,-70.135c30.864,-9.019 52.149,-24.082 53.988,-40.004l0,0c0.142,-1.238 0.174,-2.481 0.078,-3.727c-0.088,-1.126 -0.275,-2.234 -0.555,-3.323l-1.945,-28.821c-1.245,-16.011 -22.364,-28.449 -52.822,-33.732c-0.523,-259.343 16.129,-465.762 22.627,-536.247l58.765,32.507l79.004,629.813l0,0l-157.208,53.669z" id="path30"/>
     </g>
     <g id="g32">
      <path fill-rule="evenodd" fill="#b52e31" d="m697.47414,596.19128c7.298,105.713 32.445,412.701 32.445,412.701c-20.433,-163.473 -64.891,-430.649 -64.891,-430.649l32.446,17.948z" id="path34"/>
     </g>
     <g id="g36">
      <path fill-rule="evenodd" fill="#b52e31" d="m654.6772,1253.94717l2.5,32.144c1.38,17.739 27.151,31.096 62.995,35.19c3.73,34.349 6.859,64.706 9.357,89.721l-252.95,86.355l0,-1023.354l110.708,61.238c53.078,170.004 94.613,460.056 120.28,675.324c-32.611,9.768 -54.217,26.316 -52.89,43.382" id="path38"/>
     </g>
     <g id="g40">
      <path fill-rule="evenodd" fill="#ffffff" d="m390.19191,956.14541l87.864,209.692l100.415,-209.692l-188.279,0zm239.861,-119.408c8.993,44.094 19.979,102.877 26.855,156.965l-179.59,384.041l0,0.001l-296.817,-660.086l110.753,2.216l59.805,149.146l265.069,0l13.925,-32.283z" id="path42"/>
     </g>
    </g>
   </g>
  </g>
 </g>
</svg>