<svg width="511" height="629" viewBox="0 0 511 629" fill="none" xmlns="http://www.w3.org/2000/svg">
<path d="M474.739 508.948L256.301 627.858V628.344L255.815 628.102L255.33 628.344V627.858L36.8916 508.948L14.5625 301.946L68.9287 487.593V486.379L192.711 567.676V491.476L171.838 466.966L137.131 461.869V433.719L194.167 423.041V398.531L200.428 390.104H311.384L317.464 398.288V422.799L374.501 433.477V461.627L339.793 466.723L318.92 491.232V567.19L442.702 486.379L497.312 298.792L474.739 508.948ZM37.377 195.655L69.4141 448.522L0.242188 171.63L0 168.718L173.294 108.535L37.377 195.655ZM510.903 168.718L442.459 448.279L473.769 195.897L338.094 108.777L510.903 168.718ZM298.469 9.20703L301.377 23.2598L285.383 46.0352V62.5107L310.586 89.6475L306.709 127.929C300.408 137.136 288.582 157.586 291.684 165.727C291.729 165.773 303.864 178.254 306.709 188.502C309.189 197.437 310.375 203.729 306.709 212.246C304.214 218.043 296.564 224.815 296.53 224.845L301.862 240.352L310.586 298.017C310.586 298.017 314.941 316.451 315.434 322.73C316.878 341.144 304.77 361.497 308.647 380.88L310.586 390.087H270.842V386.21L289.745 378.457C288.13 357.136 285.577 312.361 288.291 303.832C284.413 300.117 276.464 288.809 275.688 273.303C275.042 271.849 272.974 269.814 269.872 273.303C269.872 287.356 269.485 316.915 267.934 322.73C266.803 329.515 261.342 347.444 248.546 364.889C247.577 366.343 246.996 370.51 252.424 375.55C252.909 379.588 253.587 388.149 252.424 390.087H199.593V386.695C209.448 382.657 229.351 373.806 230.128 370.704C231.42 367.312 234.684 359.655 237.398 356.166C238.735 354.446 238.944 339.337 239.654 318.899L229.689 179.994H212.68C211.87 180.641 210.056 181.548 209.278 179.994C208.501 178.44 208.63 171.578 208.792 168.342C209.117 167.209 210.349 165.624 212.68 168.342H226.907C223.626 162.686 222.724 156.184 222.891 151.989C222.728 150.513 224.543 149.729 227.113 149.363L226.248 140.957C224.43 141.117 223.252 139.514 223.253 137.59C223.253 136.268 223.075 134.127 226.248 133.742C226.909 132.78 228.132 131.337 229.719 131.337C230.711 131.337 234.775 131.722 235.172 133.261C236.825 133.421 239.116 133.742 239.612 136.628C240.108 138.071 239.734 139.803 238.147 140.957L238.565 149.494C238.694 149.509 238.821 149.521 238.944 149.536C241.669 149.536 243.323 152.153 243.81 153.461L248.899 152.728C246.843 145.516 244.934 137.294 243.646 128.877L223.664 115.153L191.878 112.43L196.419 102.439H198.008L201.868 96.7627L203.003 83.5947L196.419 57.2578H190.516L195.511 53.3975L198.916 47.04L204.593 45.4512L215.036 50.2188L225.708 47.04L242.963 70.6533L245.233 86.0918L237.968 79.0537L232.064 86.0918L237.968 100.169L224.8 96.082L223.664 97.8984L241.989 109.576C241.856 92.1595 246.106 76.6536 259.209 70.749V49.9121H245.153V46.0352L248.062 36.8281H239.822L245.153 23.2598V9.20703L242.245 0H285.383L298.469 9.20703ZM243.97 256.726C245.842 241.706 248.518 227.471 252.424 216.123V179.994H241.837L243.97 256.726ZM204.365 98.5791L206.182 100.168L219.351 97.6709L220.259 95.1729L212.539 88.1348L204.365 98.5791Z" fill="url(#paint0_linear_908_9)"/>
<defs>
<linearGradient id="paint0_linear_908_9" x1="-91.993" y1="-56.0494" x2="649.837" y2="167.684" gradientUnits="userSpaceOnUse">
<stop stop-color="#A86344"/>
<stop offset="0.181906" stop-color="#F18347"/>
<stop offset="0.655" stop-color="#DE4A98"/>
<stop offset="1" stop-color="#AB6A95"/>
</linearGradient>
</defs>
</svg>
