<svg width="532" height="628" xmlns="http://www.w3.org/2000/svg" xml:space="preserve" version="1.1">
 <defs>
  <linearGradient y2="0.72599" x2="0.98025" y1="0.24515" x1="-0.00378" id="XMLID_3_">
   <stop stop-color="#DC2626" offset="0"/>
   <stop stop-color="#EC4899" offset="0.5484"/>
   <stop stop-color="#9333EA" offset="1"/>
  </linearGradient>
 </defs>
 <g>
  <title>Layer 1</title>
  <path fill="url(#XMLID_3_)" d="m331.80001,564.7l0,-79l21.7,-25.4l36.1,-5.2l0,-29.2l-59.2,-11.1l0,-25.5l-6.6,-8.8l-2.3,0l-1.8,-7.4l7.2,-46.6l-3.7,-30.5l-6.2,-25.1l0.4,-58.5l2.6,-18.4l-4.5,-19.4l0,-7.4l13.1,-10l4.8,-45.8l-1,-12.5l-30.6,-33.3l-4.7,-13l8.4,-35.5l-8.4,-17.1l-38.5,8.9l4.5,4.4l1.3,36.2l3.3,6.1l-3.5,13.4l-23.4,14.5l-4.9,49l-20,-12.6l1,-1.6l11.7,4.2l-4.7,-12.5l5,-6.8l6.9,6.6l-2.4,-14.1l-15.3,-21l-9.8,2.7l-9.1,-4.3l-5,1.2l-3.4,5.7l-4.5,3.5l5,-0.1l3.4,14.3l3.1,9.6l-1.9,11.5l-3.4,5.1l-1.4,0.3l-4.3,9.1l28,2.2l37.7,25.9l-9.3,74.9l0.3,63.5l-7.9,70.4l-14.4,10.3l-13,0l-6.6,8.8l0,25.5l-59.2,11.1l0,29.2l36.1,5.2l21.7,25.4l0,79.3l-128.9,-84.6l0,1.2l-56.4,-193l23.2,215.2l227.1,123.7l0,0.6l0.6,-0.3l0.6,0.3l0,-0.6l227.1,-123.7l23.6,-218.6l-56.9,195.2l-128.4,84.3zm-119.1,-444.8l-12.5,2.4l-1,-1.7l7.2,-9.5l7.2,6.4l-0.9,2.4zm89.3,196.1l3.1,28.7l-4.4,34.7l0,1.1l-7,0l-4.6,-105.8l12.9,41.3zm-51.2,57l17.5,-53.8l5.3,-45.3l7.6,106.5l-15.3,0l-15.4,0l0.3,-7.4zm242,-194.4l-141,-90.5l179.8,62.4l-71.1,290.8l32.3,-262.7zm-420.6,262.7l-71.9,-287.8l-0.3,-3l180,-62.5l-141.3,90.6l33.5,262.7z" class="st0" id="XMLID_8_"/>
 </g>
</svg>