<svg width="1669" height="460" xmlns="http://www.w3.org/2000/svg" preserveAspectRatio="xMidYMid meet" version="1.0">

 <g>
  <title>Layer 1</title>
  <g id="svg_1" fill="white" transform="translate(0 497) scale(0.1 -0.1)">
   <path id="svg_2" d="m2072.59919,4887.56871c-679,-65 -1289,-433 -1667,-1004c-184,-278 -302,-587 -354,-925c-24,-157 -24,-473 0,-625c65,-408 200,-730 442,-1051c321,-424 799,-724 1337,-840c112,-24 148,-27 403,-31c249,-4 294,-2 405,16c1002,165 1765,964 1881,1970c15,139 7,496 -16,616c-120,651 -464,1173 -1003,1526c-408,266 -939,396 -1428,348zm571,-148c691,-122 1266,-549 1570,-1165c218,-443 273,-954 154,-1436c-191,-770 -804,-1372 -1588,-1559c-47,-11 -86,-19 -88,-17c-2,2 -6,48 -10,103l-6,100l73,79l73,79l111,12c61,6 115,12 119,12c4,1 7,36 5,78l-3,78l-180,17c-99,10 -186,20 -192,23c-8,3 -13,24 -13,58c0,50 -3,57 -34,81c-30,22 -35,33 -41,84c-6,49 -2,74 20,143c40,125 39,194 -7,294l-36,80l2,140c1,88 6,148 14,162c17,31 15,71 -8,138c-25,73 -25,72 8,80c48,11 63,30 78,101c7,37 13,81 12,98c-1,17 2,42 6,56c12,41 -57,131 -183,241c-42,37 -42,37 -35,90c4,30 15,76 26,103c15,40 17,55 8,76c-23,56 -106,69 -210,32l-55,-19l3,-84c6,-132 6,-133 21,-145c12,-10 13,-16 1,-43c-14,-35 -36,-49 -117,-75c-29,-10 -53,-21 -53,-25c0,-5 -9,-20 -21,-35l-21,-26l-45,50c-45,50 -77,62 -100,39c-8,-8 -20,-5 -42,12c-36,26 -57,20 -78,-22c-10,-20 -10,-25 2,-27c10,-2 13,-11 9,-27c-4,-16 1,-33 15,-51c29,-37 26,-68 -9,-104c-16,-17 -30,-37 -30,-45c0,-15 9,-16 141,-20c38,-1 54,-8 89,-38c36,-31 86,-55 147,-73c31,-8 23,-118 -22,-274c-17,-63 -20,-150 -5,-200c8,-25 7,-47 -1,-77c-8,-31 -8,-50 0,-75c9,-27 8,-43 -4,-77c-8,-23 -19,-99 -25,-168c-14,-172 -24,-201 -74,-224c-23,-10 -48,-19 -56,-19c-8,0 -30,-9 -48,-20c-28,-17 -32,-23 -22,-35c8,-10 10,-33 5,-75c-4,-33 -8,-60 -8,-60c-26,0 -351,-41 -358,-45c-5,-4 -9,-39 -9,-79l0,-72l111,-11c133,-13 156,-28 161,-101c3,-41 5,-45 32,-48c61,-6 64,-16 50,-153c-8,-74 -6,-74 -160,-30c-1082,304 -1747,1372 -1528,2457c80,399 266,756 547,1048c360,375 832,603 1362,658c107,11 434,-3 550,-23zm-603,-2043c19,-15 31,-118 14,-118c-6,1 -27,9 -46,20c-30,16 -32,19 -12,20c26,0 27,8 7,38c-13,18 -14,24 -3,37c16,18 20,18 40,3zm-133,-75c-12,-14 -51,-18 -62,-6c-4,3 3,17 15,30c20,21 23,22 40,6c14,-12 15,-19 7,-30zm416,-963c8,-102 19,-209 24,-238c4,-29 5,-54 2,-56c-3,-1 -37,-4 -76,-5c-38,-1 -78,-4 -87,-7c-14,-4 -18,0 -18,19c0,30 70,200 93,225c20,22 21,66 6,143c-10,50 -9,58 12,94c14,23 25,33 26,25c1,-8 9,-98 18,-200zm95,186c0,-7 11,-23 25,-36c20,-18 25,-33 25,-70c0,-25 7,-72 15,-103c30,-115 6,-282 -41,-282c-18,0 -19,11 -26,215c-4,118 -9,234 -11,257c-3,24 -1,40 4,37c5,-3 9,-11 9,-18z"/>
   <path id="svg_3" d="m2415.59919,4181.56871c-99,-37 -156,-111 -157,-205c0,-124 53,-168 265,-218c69,-16 138,-36 153,-44c102,-53 103,-161 1,-221c-27,-16 -52,-20 -119,-20c-129,0 -192,41 -219,143c-12,42 -12,42 -58,42l-46,0l5,-50c15,-154 187,-253 382,-221c147,25 230,106 231,225c0,131 -61,183 -280,236c-74,18 -150,42 -168,54c-69,47 -54,150 28,190c56,28 147,26 203,-3c45,-23 79,-66 89,-113c5,-26 9,-28 55,-28l50,0l-7,43c-14,81 -60,144 -135,183c-51,26 -209,30 -273,7z"/>
   <path id="svg_4" d="m2008.59919,3891.56871c0,-167 -4,-314 -10,-334c-16,-58 -52,-84 -116,-84c-47,0 -58,4 -85,31c-26,26 -32,41 -36,93l-6,61l-49,0l-50,0l4,-73c6,-135 76,-197 219,-197c118,1 194,48 219,138c6,22 10,165 10,350l0,312l-50,0l-50,0l0,-297z"/>
   <path id="svg_5" d="m15658.59919,4088.56871l0,-30l80,0l80,0l0,-210l0,-210l30,0l30,0l0,210l0,210l80,0l80,0l0,30l0,30l-190,0l-190,0l0,-30z"/>
   <path id="svg_6" d="m16098.59919,3879.56871l0,-241l30,0l30,0l0,187c0,106 4,183 9,178c4,-6 37,-90 72,-187l63,-178l31,0l30,0l70,188l70,187l3,-187l2,-188l30,0l30,0l0,241l0,240l-42,-3l-41,-3l-73,-193c-40,-107 -74,-196 -76,-198c-3,-2 -38,85 -79,194l-74,197l-42,3l-43,3l0,-240z"/>
   <path id="svg_7" d="m6588.59919,3883.56871c-283,-46 -525,-184 -690,-390c-205,-258 -301,-588 -287,-987c6,-182 23,-294 68,-447c155,-533 579,-825 1158,-797c254,12 423,62 596,179c152,103 298,307 370,516c28,85 55,215 55,272l0,39l-164,0l-165,0l-6,-47c-12,-85 -34,-172 -63,-246c-78,-202 -251,-356 -462,-414c-90,-25 -329,-25 -418,0c-344,94 -540,337 -619,762c-26,141 -23,400 5,543c79,394 283,638 607,723c114,30 318,30 429,0c160,-43 301,-131 379,-239c48,-65 94,-159 109,-222l11,-50l169,0c128,0 168,3 168,13c0,40 -46,192 -80,264c-126,269 -360,445 -685,514c-121,26 -369,34 -485,14z"/>
   <path id="svg_8" d="m14423.59919,3883.56871c-352,-56 -583,-221 -680,-485c-36,-98 -47,-289 -21,-388c46,-180 163,-305 370,-397c83,-36 293,-94 564,-155c348,-77 463,-122 563,-220c73,-71 99,-138 99,-251c0,-134 -53,-243 -156,-322c-195,-149 -631,-168 -894,-40c-95,47 -222,170 -263,255c-34,72 -57,159 -57,220l0,48l-160,0l-160,0l0,-47c0,-120 37,-259 103,-388c54,-104 177,-229 294,-299c318,-188 856,-207 1207,-42c208,98 348,256 402,456c24,88 24,271 1,360c-39,148 -123,264 -254,350c-139,91 -303,146 -700,235c-356,79 -450,114 -545,203c-59,55 -75,84 -89,156c-21,117 28,264 116,345c97,90 240,133 445,134c150,1 230,-16 348,-74c138,-69 236,-204 263,-364l13,-75l159,0l159,0l-7,73c-35,352 -246,601 -581,686c-168,42 -375,52 -539,26z"/>
   <path id="svg_9" d="m8248.59919,3653.56871l0,-185l150,0l150,0l0,185l0,185l-150,0l-150,0l0,-185z"/>
   <path id="svg_10" d="m12888.59919,2876.56871c0,-1062 1,-1041 -63,-1167c-61,-120 -152,-165 -337,-166c-128,0 -198,19 -267,73c-92,73 -130,182 -140,400l-6,132l-165,0l-164,0l5,-177c5,-198 16,-254 72,-370c82,-168 247,-284 465,-329c111,-22 327,-15 448,15c254,64 417,229 466,473c14,67 16,211 16,1078l0,1000l-165,0l-165,0l0,-962z"/>
   <path id="svg_11" d="m9128.59919,3413.56871l0,-275l-155,0l-155,0l0,-130l0,-130l154,0l155,0l4,-647c4,-703 4,-707 60,-791c64,-95 162,-122 442,-122l165,0l0,128l0,129l-139,6c-149,6 -189,18 -213,60c-10,17 -13,154 -13,627l0,605l183,3l182,2l0,130l0,130l-182,2l-183,3l-3,273l-2,272l-150,0l-150,0l0,-275z"/>
   <path id="svg_12" d="m8248.59919,2228.56871l0,-910l150,0l150,0l0,910l0,910l-150,0l-150,0l0,-910z"/>
   <path id="svg_13" d="m9949.59919,3086.56871c11,-29 173,-436 360,-904c186,-468 339,-855 339,-860c0,-17 -130,-326 -152,-362c-27,-44 -96,-88 -162,-102c-50,-12 -90,-6 -204,26l-23,6l3,-138l3,-139l55,-12c80,-16 201,-15 281,3c137,31 234,125 328,318c27,55 226,562 441,1126c216,564 398,1040 406,1058l13,32l-161,-2l-162,-3l-96,-280c-53,-154 -167,-488 -254,-743c-88,-255 -162,-459 -166,-455c-5,6 -373,1030 -522,1456l-10,27l-169,0l-169,0l21,-52z"/>
  </g>
  <line id="svg_14" y2="464.21092" x2="1861.84383" y1="-21.49594" x1="-63.12675" fill="none"/>
  <line stroke="null" id="svg_15" y2="389.21208" x2="1115.42667" y1="-192.92189" x1="-155.98247" fill="none"/>
 </g>
</svg>
