<svg width="1440" height="764" viewBox="0 0 1440 764" fill="none" xmlns="http://www.w3.org/2000/svg">
<g clip-path="url(#clip0_905_231)">
<path opacity="0.5" d="M1419.5 665H1438V762H1V636.5H25V577H34.5V561.5H62V577H71V647H82.5V595H97V567.5H131.5V603.5H207V520L246.5 509.5V714.5H355.5V509.5H365.5V501.5H393V509.5H402.5V731.5H443V612H503V738.5H520V554H528V546.5H554V554H562V726H581.5V637.5L615.5 652V685.5H641.5V672.5H690V703.5H720.5V694.5H730.5V656.5H776V703.5H790V575.5H859V635H885.5V709.5H900V649.5H907V510H917V483L961.5 499.5V518.5H968.5V603H1048.5V562.5L1101 565.5V645.5H1183.5V612.5H1225.5V540.5L1271 537.5V612.5H1316.5V537.5H1356.5V597.5H1380.5V635.5H1395.5V622.5H1419.5V665Z" fill="url(#paint0_linear_905_231)"/>
<path d="M1183.67 414.393H1197.85V419.578H1207.3L1223.05 424.115H1223.06V717.642L1246 709.892V545.393H1256.31V556.846H1295.25V530.504H1290.66V521.342H1297.54V512.18H1299.83V495H1302.12V512.18H1305.55V521.342H1312.42V530.504H1307.84V539.666H1320.44V531.648H1330.75V543.102H1369.69V531.648H1380V683.5H1398.5V694H1430.5V718H1439.5V765H1223.06V767.653H1139.58V765H1081.5V766H775V765H300.146V766.999H293.516V767H274.73V766.999H265.891V766.998H257.051V767H246V765H245.998V766.999H190.746V765H180.804V767.001H126.656V765H113.398V766.999H58.1465V765H58.1445V767H47.0938V766.998H38.2568V765H38.2539V766.999H29.4141V767H10.6289V766.999H3.99902V765H-3.5V722.5H9V679H10.6289V665.336H29.4131V633.289H38.2539V712.5H38.2568V600.137H47.0938V569.197H58.1445V668.5H58.1465V520.574H103.453V558.146H113.398V641H126.656V520.576H180.804V640.468L190.746 634.846V558.146H200.691V520.574H245.998V603.603L246 603.602V569.197H257.051V597.353L318.027 562.872V453C318.027 445.82 323.848 440 331.027 440H367.027C374.207 440 380.027 445.82 380.027 453V527.812L449.702 488.414L380.027 529.331V535.922L450.797 494.975L380.027 537.594V543.804L450.796 501.533L380.027 545.646V552.717L450.798 509.186L380.027 554.759V563.187L450.796 519.025L380.027 565.436V572.019L451.072 525.736L454.076 422H456.809L458.687 490.897L744.998 693.125H756V670L796.5 658.251V652L814 642.5V621.5H815.347C818.504 617.09 823.382 613.998 829 613.203V610H831V594.742C829.936 594.177 829.147 592.739 829.019 591H823V589H829.174C829.475 587.722 830.148 586.709 831 586.257V580H833V586.257C833.852 586.709 834.525 587.722 834.826 589H842V591H834.981C834.853 592.739 834.064 594.177 833 594.742V610H835V613.239C840.508 614.091 845.285 617.158 848.394 621.5H849.5V600H852V572H854.896C870.692 548.479 897.538 533 928 533C958.462 533 985.308 548.479 1001.1 572H1004V600H1007V621.5H1007.35C1010.5 617.09 1015.38 613.998 1021 613.203V610H1023V594.742C1021.94 594.177 1021.15 592.739 1021.02 591H1015V589H1021.17C1021.48 587.722 1022.15 586.709 1023 586.257V580H1025V586.257C1025.85 586.709 1026.52 587.722 1026.83 589H1034V591H1026.98C1026.85 592.739 1026.06 594.177 1025 594.742V610H1027V613.239C1032.51 614.091 1037.29 617.158 1040.39 621.5H1042.5V642.5L1060 652V682H1061.18C1063.34 678.974 1066.87 677 1070.87 677C1072.32 677 1073.7 677.26 1074.99 677.734L1085.1 650.371H1085.1V519.168H1105.79V650.371L1132.37 710.5H1139.58V424.115H1138L1154.54 419.578H1163.99V414.393H1178.95V386.521H1183.67V414.393ZM464.803 714.5H490V744H498V701.871H464.458L464.803 714.5ZM646.5 712.5V735.5H663V728H693.5V744H756V701.871H640.933L646.5 712.5ZM604.5 739.5H621.5V712.5L628.586 701.871H604.5V739.5ZM1305.55 732H1320.44V556.846H1305.55V732ZM552 728H566.5V701.871H552V728ZM417 714.5H445.611L445.977 701.871H417V714.5ZM1103.61 710.5H1121.56L1103.61 677.592V710.5ZM1081.5 693.177V694H1090V677.592L1081.5 693.177ZM185.323 693.125H190.746V689.568L185.323 693.125ZM304.806 693.125H305.026V692.918L304.806 693.125ZM380.027 601.964V606.812L447.517 551.822L380.027 611.396V617.441L445.33 561.662L380.027 622.753V626.089C380.161 626.825 380.319 627.594 380.497 628.388L445.332 568.223L381.854 633.641C382.248 635.012 382.676 636.411 383.122 637.81L443.143 572.596L385.112 643.72C385.825 645.735 386.539 647.662 387.208 649.408L443.146 573.688L389.887 656.567C390.511 658.579 391.02 660.574 391.433 662.5H391.984L443.144 576.969L399.165 662.5H405.043L443.144 579.154L409 669.849V675.5H417V693.125H446.229L450.545 543.989L380.027 601.964ZM464.219 693.125H494.604L461.15 580.88L464.219 693.125ZM552 693.125H556.374L552 687.546V693.125ZM460.275 548.978L610.557 693.125H616.112L460.096 542.407L460.275 548.978ZM460.089 542.17L626.769 693.125H633.37L459.905 535.454L460.089 542.17ZM459.899 535.261L644.074 693.125H649.578L459.764 530.308L459.899 535.261ZM459.756 530L660.284 693.125H667.137L459.554 522.626L459.756 530ZM459.549 522.448L677.931 693.125H683.203L459.301 513.379L459.549 522.448ZM459.296 513.188L693.951 693.125H700.589L459.084 505.424L459.296 513.188ZM459.079 505.259L711.327 693.125H717.919L458.896 498.594L459.079 505.259ZM458.893 498.449L728.688 693.125H734.246L458.688 490.995L458.893 498.449ZM550 673.37L566.5 692.32V686.955L550 667.627V673.37ZM293.516 687.761V691.337L305.026 681.505V678C305.021 677.877 305.018 677.747 305.015 677.61L293.516 687.761ZM180.804 683.051V687.508L190.746 681.304V676.648L180.804 683.051ZM245.998 680.1V685.373L246 685.371V680.099L245.998 680.1ZM461.142 580.551L498 682.396V682H500.5V674.263L461.072 578.038L461.142 580.551ZM460.439 554.977L578.612 675.896L587.158 680.058L460.289 549.502L460.439 554.977ZM293.516 673.088V677.304L305.751 667.334C305.987 665.729 306.288 664.029 306.67 662.273L293.516 673.088ZM460.655 562.854L566.5 676.061V672.81L460.447 555.247L460.655 562.854ZM180.804 669.828V675.26L190.746 669.145V663.631L180.804 669.828ZM245.998 666.676V671.667L246 671.666V666.674L245.998 666.676ZM284.819 665.336H292.015L310.018 651.54C310.904 649.299 311.918 646.611 312.933 643.744L284.819 665.336ZM274.731 659.229V664.684L315.759 635.144C316.495 632.682 317.142 630.275 317.625 628.075L274.731 659.229ZM180.804 657.572V662.802L190.746 656.863V651.585L180.804 657.572ZM461.068 577.879L501.402 662.5H506.57L460.971 574.338L461.068 577.879ZM460.969 574.249L513.442 662.5H519.881L460.936 573.051L460.969 574.249ZM460.934 572.997L527.467 662.5H532.363L460.888 571.333L460.934 572.997ZM460.879 571.014L540.535 662.5H545.623L460.659 562.971L460.879 571.014ZM245.998 653.333V659.333L246 659.331V653.332L245.998 653.333ZM274.731 646.938V651.986L318.027 622.331V617.196L274.731 646.938ZM180.804 646.327V651.195L190.746 645.442V640.488L180.804 646.327ZM245.998 641.068V646.825L246 646.824V641.067L245.998 641.068ZM274.731 634.489V640.614L318.027 612.409V606.096L274.731 634.489ZM245.998 629.19V635.159L246 635.157V629.188L245.998 629.19ZM265.892 628.258V633.289H267.689L318.027 601.877V594.685L265.892 628.258ZM245.998 618.31V623.86L246 623.859V618.309L245.998 618.31ZM265.892 616.79V622.922L318.027 590.854V584.292L265.892 616.79ZM245.998 608.041V613.473L246 613.472V608.04L245.998 608.041ZM265.892 606.329V611.978L318.027 580.837V574.932L265.892 606.329ZM259.458 600.137H265.892V601.962L318.027 571.796V565.741L259.458 600.137ZM380.027 574.606V579.866L449.702 532.145L380.027 582.75V588.872L449.704 538.705L380.027 592.216V597.892L450.549 543.851L451.07 525.806L380.027 574.606ZM929 499.481C929.761 499.998 930.37 500.895 930.708 502H940V505H930.93C930.708 506.558 929.979 507.853 929 508.518V528H931V533H924V528H926V508.518C925.021 507.853 924.292 506.558 924.07 505H916V502H924.292C924.63 500.895 925.239 499.998 926 499.481V491H929V499.481ZM141.023 520.575H139.918V504H141.023V520.575ZM160.914 520.575H159.809V508.42H160.914V520.575ZM1104.7 505.012H1112.32V513.178L1106.33 519.166H1085.1L1078.57 513.178V505.012H1086.19V497.391H1104.7V505.012ZM1104.7 462.549H1102.52V469.08H1107.97L1111.78 492.49L1107.97 497.39H1082.92L1078.02 492.49L1082.92 469.08H1088.37V462.549H1085.1V458.193H1104.7V462.549ZM1098.17 447.305H1102.52V449.482H1100.34V458.191H1090.54V449.482H1088.37V447.305H1092.72V389.598H1098.17V447.305ZM1097.08 386.33H1101.43V389.597H1089.46V386.33H1093.81V321H1097.08V386.33ZM1182.1 386.521H1180.53V358H1182.1V386.521ZM271.478 237.004C289.208 237.775 301.51 246.276 305.204 250.452C331.801 279.748 308.898 313.733 294.122 327.063C288.726 332.46 286.734 336.7 286.413 338.146H286.188L282.728 353.234H284.426V358.732H284.101C283.615 359.38 282.646 360.867 282.646 361.643V366.494C282.645 367.465 281.869 369.404 278.765 369.404H271.488V358.732H271.487V369.404H264.397C261.373 369.404 260.616 367.464 260.616 366.494V361.643C260.616 360.866 259.67 359.379 259.197 358.732H258.553V353.234H260.856L257.139 338.146H257.022C256.701 336.7 254.71 332.46 249.313 327.063C234.537 313.733 211.635 279.748 238.231 250.452C241.926 246.276 253.747 237.771 271.478 237V237.004ZM264.472 353.234H267.155L265.318 338.146H261.01L264.472 353.234ZM270.667 353.234H272.066L273.903 338.146H268.829L270.667 353.234ZM275.578 353.234H279.151L282.613 338.146H277.415L275.578 353.234Z" fill="url(#paint1_linear_905_231)"/>
<rect width="12.1555" height="8.84034" transform="matrix(-1 0 0 1 97.1992 573.781)" fill="#F4996B"/>
<rect width="12.1555" height="8.84034" transform="matrix(-1 0 0 1 97.1992 613.562)" fill="#F4996B"/>
<rect width="12.1555" height="8.84034" transform="matrix(-1 0 0 1 97.1992 653.344)" fill="#F4996B"/>
<rect width="12.1555" height="8.84034" transform="matrix(-1 0 0 1 97.1992 693.125)" fill="#F4996B"/>
<rect width="12.1555" height="8.84034" transform="matrix(-1 0 0 1 97.1992 587.041)" fill="#F4996B"/>
<rect width="12.1555" height="8.84034" transform="matrix(-1 0 0 1 97.1992 626.822)" fill="#F4996B"/>
<rect width="12.1555" height="8.84034" transform="matrix(-1 0 0 1 97.1992 666.604)" fill="#F4996B"/>
<rect width="12.1555" height="8.84034" transform="matrix(-1 0 0 1 97.1992 706.387)" fill="#F4996B"/>
<rect width="12.1555" height="8.84034" transform="matrix(-1 0 0 1 97.1992 560.52)" fill="#F4996B"/>
<rect width="12.1555" height="8.84034" transform="matrix(-1 0 0 1 96.8398 547)" fill="#F4996B"/>
<rect width="12.1555" height="8.84034" transform="matrix(-1 0 0 1 96.8398 534)" fill="#F4996B"/>
<rect width="12.1555" height="8.84034" transform="matrix(-1 0 0 1 97.1992 600.303)" fill="#F4996B"/>
<rect width="12.1555" height="8.84034" transform="matrix(-1 0 0 1 97.1992 640.084)" fill="#F4996B"/>
<rect width="12.1555" height="8.84034" transform="matrix(-1 0 0 1 97.1992 679.865)" fill="#F4996B"/>
<rect width="12.1555" height="8.84034" transform="matrix(-1 0 0 1 97.1992 719.646)" fill="#F4996B"/>
<rect width="12.1555" height="8.84034" transform="matrix(-1 0 0 1 79.5156 573.781)" fill="#F4996B"/>
<rect width="12.1555" height="8.84034" transform="matrix(-1 0 0 1 79.5156 613.562)" fill="#F4996B"/>
<rect width="12.1555" height="8.84034" transform="matrix(-1 0 0 1 61.8359 613.562)" fill="#F4996B"/>
<rect width="12.1555" height="8.84034" transform="matrix(-1 0 0 1 79.5156 653.344)" fill="#F4996B"/>
<rect width="12.1555" height="8.84034" transform="matrix(-1 0 0 1 61.8359 653.344)" fill="#F4996B"/>
<rect width="12.1555" height="8.84034" transform="matrix(-1 0 0 1 79.5156 693.125)" fill="#F4996B"/>
<rect width="12.1555" height="8.84034" transform="matrix(-1 0 0 1 61.8359 693.125)" fill="#F4996B"/>
<rect width="12.1555" height="8.84034" transform="matrix(-1 0 0 1 44.1562 693.125)" fill="#F4996B"/>
<rect width="12.1555" height="8.84034" transform="matrix(-1 0 0 1 79.5156 587.041)" fill="#F4996B"/>
<rect width="12.1555" height="8.84034" transform="matrix(-1 0 0 1 79.5156 626.822)" fill="#F4996B"/>
<rect width="12.1555" height="8.84034" transform="matrix(-1 0 0 1 61.8359 626.822)" fill="#F4996B"/>
<rect width="12.1555" height="8.84034" transform="matrix(-1 0 0 1 79.5156 666.604)" fill="#F4996B"/>
<rect width="12.1555" height="8.84034" transform="matrix(-1 0 0 1 61.8359 666.604)" fill="#F4996B"/>
<rect width="12.1555" height="8.84034" transform="matrix(-1 0 0 1 79.5156 706.387)" fill="#F4996B"/>
<rect width="12.1555" height="8.84034" transform="matrix(-1 0 0 1 61.8359 706.387)" fill="#F4996B"/>
<rect width="12.1555" height="8.84034" transform="matrix(-1 0 0 1 44.1562 706.387)" fill="#F4996B"/>
<rect width="12.1555" height="8.84034" transform="matrix(-1 0 0 1 79.5156 560.52)" fill="#F4996B"/>
<rect width="12.1555" height="8.84034" transform="matrix(-1 0 0 1 79.1562 547)" fill="#F4996B"/>
<rect width="12.1555" height="8.84034" transform="matrix(-1 0 0 1 79.1562 534)" fill="#F4996B"/>
<rect width="12.1555" height="8.84034" transform="matrix(-1 0 0 1 79.5156 600.303)" fill="#F4996B"/>
<rect width="12.1555" height="8.84034" transform="matrix(-1 0 0 1 79.5156 640.084)" fill="#F4996B"/>
<rect width="12.1555" height="8.84034" transform="matrix(-1 0 0 1 61.8359 640.084)" fill="#F4996B"/>
<rect width="12.1555" height="8.84034" transform="matrix(-1 0 0 1 79.5156 679.865)" fill="#F4996B"/>
<rect width="12.1555" height="8.84034" transform="matrix(-1 0 0 1 61.8359 679.865)" fill="#F4996B"/>
<rect width="12.1555" height="8.84034" transform="matrix(-1 0 0 1 44.1562 679.865)" fill="#F4996B"/>
<rect width="12.1555" height="8.84034" transform="matrix(-1 0 0 1 79.5156 719.646)" fill="#F4996B"/>
<rect width="12.1555" height="8.84034" transform="matrix(-1 0 0 1 61.8359 719.646)" fill="#F4996B"/>
<rect width="12.1555" height="8.84034" transform="matrix(-1 0 0 1 44.1562 719.646)" fill="#F4996B"/>
<rect x="208" y="573.781" width="12.1555" height="8.84034" fill="#F4996B"/>
<rect x="208" y="613.562" width="12.1555" height="8.84034" fill="#F4996B"/>
<rect x="208" y="653.344" width="12.1555" height="8.84034" fill="#F4996B"/>
<rect x="208" y="693.125" width="12.1555" height="8.84034" fill="#F4996B"/>
<rect x="208.043" y="547" width="12.1555" height="8.84034" fill="#F4996B"/>
<rect x="208" y="534" width="12.1555" height="8.84034" fill="#F4996B"/>
<rect x="208" y="587.041" width="12.1555" height="8.84034" fill="#F4996B"/>
<rect x="208" y="626.822" width="12.1555" height="8.84034" fill="#F4996B"/>
<rect x="208" y="666.604" width="12.1555" height="8.84034" fill="#F4996B"/>
<rect x="208" y="706.387" width="12.1555" height="8.84034" fill="#F4996B"/>
<rect x="208" y="560.52" width="12.1555" height="8.84034" fill="#F4996B"/>
<rect x="208" y="600.303" width="12.1555" height="8.84034" fill="#F4996B"/>
<rect x="208" y="640.084" width="12.1555" height="8.84034" fill="#F4996B"/>
<rect x="208" y="679.865" width="12.1555" height="8.84034" fill="#F4996B"/>
<rect x="208" y="719.646" width="12.1555" height="8.84034" fill="#F4996B"/>
<rect x="225.684" y="573.781" width="12.1555" height="8.84034" fill="#F4996B"/>
<rect x="225.684" y="613.562" width="12.1555" height="8.84034" fill="#F4996B"/>
<rect x="243.363" y="613.562" width="12.1555" height="8.84034" fill="#F4996B"/>
<rect x="225.684" y="653.344" width="12.1555" height="8.84034" fill="#F4996B"/>
<rect x="243.363" y="653.344" width="12.1555" height="8.84034" fill="#F4996B"/>
<rect x="225.684" y="693.125" width="12.1555" height="8.84034" fill="#F4996B"/>
<rect x="243.363" y="693.125" width="12.1555" height="8.84034" fill="#F4996B"/>
<rect x="261.043" y="693.125" width="12.1555" height="8.84034" fill="#F4996B"/>
<rect x="226.043" y="547" width="12.1555" height="8.84034" fill="#F4996B"/>
<rect x="226" y="534" width="12.1555" height="8.84034" fill="#F4996B"/>
<rect x="225.684" y="587.041" width="12.1555" height="8.84034" fill="#F4996B"/>
<rect x="225.684" y="626.822" width="12.1555" height="8.84034" fill="#F4996B"/>
<rect x="243.363" y="626.822" width="12.1555" height="8.84034" fill="#F4996B"/>
<rect x="225.684" y="666.604" width="12.1555" height="8.84034" fill="#F4996B"/>
<rect x="243.363" y="666.604" width="12.1555" height="8.84034" fill="#F4996B"/>
<rect x="225.684" y="706.387" width="12.1555" height="8.84034" fill="#F4996B"/>
<rect x="243.363" y="706.387" width="12.1555" height="8.84034" fill="#F4996B"/>
<rect x="261.043" y="706.387" width="12.1555" height="8.84034" fill="#F4996B"/>
<rect x="225.684" y="560.52" width="12.1555" height="8.84034" fill="#F4996B"/>
<rect x="225.684" y="600.303" width="12.1555" height="8.84034" fill="#F4996B"/>
<rect x="225.684" y="640.084" width="12.1555" height="8.84034" fill="#F4996B"/>
<rect x="243.363" y="640.084" width="12.1555" height="8.84034" fill="#F4996B"/>
<rect x="225.684" y="679.865" width="12.1555" height="8.84034" fill="#F4996B"/>
<rect x="243.363" y="679.865" width="12.1555" height="8.84034" fill="#F4996B"/>
<rect x="261.043" y="679.865" width="12.1555" height="8.84034" fill="#F4996B"/>
<rect x="225.684" y="719.646" width="12.1555" height="8.84034" fill="#F4996B"/>
<rect x="243.363" y="719.646" width="12.1555" height="8.84034" fill="#F4996B"/>
<rect x="261.043" y="719.646" width="12.1555" height="8.84034" fill="#F4996B"/>
<rect x="134.391" y="544" width="16.6094" height="4.42017" fill="#F4996B"/>
<rect x="134.391" y="579.361" width="16.6094" height="4.42017" fill="#F4996B"/>
<rect x="134.391" y="614.723" width="16.6094" height="4.42017" fill="#F4996B"/>
<rect x="134.391" y="650.084" width="16.6094" height="4.42017" fill="#F4996B"/>
<rect x="134.391" y="685.445" width="16.6094" height="4.42017" fill="#F4996B"/>
<rect x="134.391" y="552.84" width="16.6094" height="4.42017" fill="#F4996B"/>
<rect x="134.391" y="588.201" width="16.6094" height="4.42017" fill="#F4996B"/>
<rect x="134.391" y="623.562" width="16.6094" height="4.42017" fill="#F4996B"/>
<rect x="134.391" y="658.924" width="16.6094" height="4.42017" fill="#F4996B"/>
<rect x="134.391" y="694.285" width="16.6094" height="4.42017" fill="#F4996B"/>
<rect x="134.391" y="561.68" width="16.6094" height="4.42017" fill="#F4996B"/>
<rect x="134.391" y="597.041" width="16.6094" height="4.42017" fill="#F4996B"/>
<rect x="134.391" y="632.402" width="16.6094" height="4.42017" fill="#F4996B"/>
<rect x="134.391" y="667.764" width="16.6094" height="4.42017" fill="#F4996B"/>
<rect x="134.391" y="703.125" width="16.6094" height="4.42017" fill="#F4996B"/>
<rect x="134.391" y="570.521" width="16.6094" height="4.42017" fill="#F4996B"/>
<rect x="134.391" y="605.883" width="16.6094" height="4.42017" fill="#F4996B"/>
<rect x="134.391" y="641.244" width="16.6094" height="4.42017" fill="#F4996B"/>
<rect x="134.391" y="676.605" width="16.6094" height="4.42017" fill="#F4996B"/>
<rect x="134.391" y="711.967" width="16.6094" height="4.42017" fill="#F4996B"/>
<rect x="157" y="544" width="16.6094" height="4.42017" fill="#F4996B"/>
<rect x="157" y="579.361" width="16.6094" height="4.42017" fill="#F4996B"/>
<rect x="157" y="614.723" width="16.6094" height="4.42017" fill="#F4996B"/>
<rect x="157" y="650.084" width="16.6094" height="4.42017" fill="#F4996B"/>
<rect x="157" y="685.445" width="16.6094" height="4.42017" fill="#F4996B"/>
<rect x="157" y="552.84" width="16.6094" height="4.42017" fill="#F4996B"/>
<rect x="157" y="588.201" width="16.6094" height="4.42017" fill="#F4996B"/>
<rect x="157" y="623.562" width="16.6094" height="4.42017" fill="#F4996B"/>
<rect x="157" y="658.924" width="16.6094" height="4.42017" fill="#F4996B"/>
<rect x="157" y="694.285" width="16.6094" height="4.42017" fill="#F4996B"/>
<rect x="157" y="561.68" width="16.6094" height="4.42017" fill="#F4996B"/>
<rect x="157" y="597.041" width="16.6094" height="4.42017" fill="#F4996B"/>
<rect x="157" y="632.402" width="16.6094" height="4.42017" fill="#F4996B"/>
<rect x="157" y="667.764" width="16.6094" height="4.42017" fill="#F4996B"/>
<rect x="157" y="703.125" width="16.6094" height="4.42017" fill="#F4996B"/>
<rect x="157" y="570.521" width="16.6094" height="4.42017" fill="#F4996B"/>
<rect x="157" y="605.883" width="16.6094" height="4.42017" fill="#F4996B"/>
<rect x="157" y="641.244" width="16.6094" height="4.42017" fill="#F4996B"/>
<rect x="157" y="676.605" width="16.6094" height="4.42017" fill="#F4996B"/>
<rect x="157" y="711.967" width="16.6094" height="4.42017" fill="#F4996B"/>
<rect x="318.027" y="476" width="15" height="3" fill="#F4996B"/>
<rect x="365.027" y="476" width="15" height="3" fill="#F4996B"/>
<rect x="318.027" y="548" width="15" height="3" fill="#F4996B"/>
<rect x="365.027" y="548" width="15" height="3" fill="#F4996B"/>
<rect x="318.027" y="500" width="15" height="3" fill="#F4996B"/>
<rect x="365.027" y="500" width="15" height="3" fill="#F4996B"/>
<rect x="318.027" y="572" width="15" height="3" fill="#F4996B"/>
<rect x="365.027" y="572" width="15" height="3" fill="#F4996B"/>
<rect x="318.027" y="524" width="15" height="3" fill="#F4996B"/>
<rect x="365.027" y="524" width="15" height="3" fill="#F4996B"/>
<rect x="318.027" y="596" width="15" height="3" fill="#F4996B"/>
<rect x="365.027" y="596" width="15" height="3" fill="#F4996B"/>
<rect x="318.027" y="488" width="15" height="3" fill="#F4996B"/>
<rect x="365.027" y="488" width="15" height="3" fill="#F4996B"/>
<rect x="318.027" y="560" width="15" height="3" fill="#F4996B"/>
<rect x="365.027" y="560" width="15" height="3" fill="#F4996B"/>
<rect x="318.027" y="512" width="15" height="3" fill="#F4996B"/>
<rect x="365.027" y="512" width="15" height="3" fill="#F4996B"/>
<rect x="318.027" y="584" width="15" height="3" fill="#F4996B"/>
<rect x="365.027" y="584" width="15" height="3" fill="#F4996B"/>
<rect x="318.027" y="536" width="15" height="3" fill="#F4996B"/>
<rect x="365.027" y="536" width="15" height="3" fill="#F4996B"/>
<rect x="318.027" y="608" width="15" height="3" fill="#F4996B"/>
<rect x="365.027" y="608" width="15" height="3" fill="#F4996B"/>
<rect x="318.027" y="482" width="15" height="3" fill="#F4996B"/>
<rect x="365.027" y="482" width="15" height="3" fill="#F4996B"/>
<rect x="318.027" y="554" width="15" height="3" fill="#F4996B"/>
<rect x="365.027" y="554" width="15" height="3" fill="#F4996B"/>
<rect x="318.027" y="506" width="15" height="3" fill="#F4996B"/>
<rect x="365.027" y="506" width="15" height="3" fill="#F4996B"/>
<rect x="318.027" y="578" width="15" height="3" fill="#F4996B"/>
<rect x="365.027" y="578" width="15" height="3" fill="#F4996B"/>
<rect x="318.027" y="530" width="15" height="3" fill="#F4996B"/>
<rect x="365.027" y="530" width="15" height="3" fill="#F4996B"/>
<rect x="318.027" y="602" width="15" height="3" fill="#F4996B"/>
<rect x="365.027" y="602" width="15" height="3" fill="#F4996B"/>
<rect x="318.027" y="494" width="15" height="3" fill="#F4996B"/>
<rect x="365.027" y="494" width="15" height="3" fill="#F4996B"/>
<rect x="318.027" y="566" width="15" height="3" fill="#F4996B"/>
<rect x="365.027" y="566" width="15" height="3" fill="#F4996B"/>
<rect x="318.027" y="518" width="15" height="3" fill="#F4996B"/>
<rect x="365.027" y="518" width="15" height="3" fill="#F4996B"/>
<rect x="318.027" y="590" width="15" height="3" fill="#F4996B"/>
<rect x="365.027" y="590" width="15" height="3" fill="#F4996B"/>
<rect x="318.027" y="542" width="15" height="3" fill="#F4996B"/>
<rect x="365.027" y="542" width="15" height="3" fill="#F4996B"/>
<path d="M832 626C836.283 626 839.865 628.992 840.774 633H841V647H823V633H823.226C824.135 628.992 827.717 626 832 626Z" fill="#D16887"/>
<path d="M867 575C869.379 575 871.37 577.849 871.875 581.666H872V594.999H862V581.666H862.125C862.63 577.849 864.621 575 867 575Z" fill="#D16887"/>
<path d="M805.5 657C807.641 657 809.432 659.422 809.887 662.666H810V673.999H801V662.666H801.113C801.568 659.422 803.359 657 805.5 657Z" fill="#D16887"/>
<path d="M1051.5 657C1053.64 657 1055.43 659.422 1055.89 662.666H1056V673.999H1047V662.666H1047.11C1047.57 659.422 1049.36 657 1051.5 657Z" fill="#D16887"/>
<path d="M884 575C886.379 575 888.37 577.849 888.875 581.666H889V594.999H879V581.666H879.125C879.63 577.849 881.621 575 884 575Z" fill="#D16887"/>
<path d="M903 575C905.379 575 907.37 577.849 907.875 581.666H908V594.999H898V581.666H898.125C898.63 577.849 900.621 575 903 575Z" fill="#D16887"/>
<path d="M902.5 659C904.642 659 906.432 661.137 906.887 664H907V674H898V664H898.113C898.568 661.137 900.358 659 902.5 659Z" fill="#D16887"/>
<path d="M919.5 659C921.642 659 923.432 661.137 923.887 664H924V674H915V664H915.113C915.568 661.137 917.358 659 919.5 659Z" fill="#D16887"/>
<path d="M937.5 659C939.642 659 941.432 661.137 941.887 664H942V674H933V664H933.113C933.568 661.137 935.358 659 937.5 659Z" fill="#D16887"/>
<path d="M954.5 659C956.642 659 958.432 661.137 958.887 664H959V674H950V664H950.113C950.568 661.137 952.358 659 954.5 659Z" fill="#D16887"/>
<path d="M920 575C922.379 575 924.37 577.849 924.875 581.666H925V594.999H915V581.666H915.125C915.63 577.849 917.621 575 920 575Z" fill="#D16887"/>
<path d="M937 575C939.379 575 941.37 577.849 941.875 581.666H942V594.999H932V581.666H932.125C932.63 577.849 934.621 575 937 575Z" fill="#D16887"/>
<path d="M954 575C956.379 575 958.37 577.849 958.875 581.666H959V594.999H949V581.666H949.125C949.63 577.849 951.621 575 954 575Z" fill="#D16887"/>
<path d="M971 575C973.379 575 975.37 577.849 975.875 581.666H976V594.999H966V581.666H966.125C966.63 577.849 968.621 575 971 575Z" fill="#D16887"/>
<path d="M988 575C990.379 575 992.37 577.849 992.875 581.666H993V594.999H983V581.666H983.125C983.63 577.849 985.621 575 988 575Z" fill="#D16887"/>
<path d="M1025 626C1029.28 626 1032.86 628.992 1033.77 633H1034V647H1016V633H1016.23C1017.14 628.992 1020.72 626 1025 626Z" fill="#D16887"/>
<path d="M832 668C833.105 668 834 668.895 834 670V735C834 736.105 833.105 737 832 737C830.895 737 830 736.105 830 735V670C830 668.895 830.895 668 832 668Z" fill="#D16887"/>
<path d="M1025 668C1026.1 668 1027 668.895 1027 670V735C1027 736.105 1026.1 737 1025 737C1023.9 737 1023 736.105 1023 735V670C1023 668.895 1023.9 668 1025 668Z" fill="#D16887"/>
<circle cx="929" cy="690" r="6" fill="#D16887"/>
<rect x="783" y="690" width="6" height="11" fill="#D16887"/>
<rect x="1068" y="690" width="6" height="11" fill="#D16887"/>
<path d="M928 709C934.075 709 939 713.925 939 720C939 720.683 938.934 721.351 938.814 722C937.874 716.88 933.392 713 928 713C922.608 713 918.125 716.88 917.185 722C917.065 721.351 917 720.683 917 720C917 713.925 921.925 709 928 709Z" fill="#D16887"/>
<path d="M957 717.182C961.97 717.182 966 721.211 966 726.182C966 726.741 965.946 727.288 965.849 727.818C965.079 723.63 961.411 720.455 957 720.455C952.588 720.455 948.92 723.629 948.15 727.818C948.053 727.288 948 726.741 948 726.182C948 721.211 952.03 717.182 957 717.182Z" fill="#D16887"/>
<path d="M900 717.182C904.97 717.182 909 721.211 909 726.182C909 726.741 908.946 727.288 908.849 727.818C908.079 723.63 904.411 720.455 900 720.455C895.588 720.455 891.92 723.629 891.15 727.818C891.053 727.288 891 726.741 891 726.182C891 721.211 895.03 717.182 900 717.182Z" fill="#D16887"/>
<rect x="1147.45" y="437" width="12.6007" height="7.77823" fill="#D46586"/>
<rect x="1147.45" y="472.002" width="12.6007" height="7.77823" fill="#D46586"/>
<rect x="1147.45" y="507.004" width="12.6007" height="7.77823" fill="#D46586"/>
<rect x="1147.45" y="542.006" width="12.6007" height="7.77823" fill="#D46586"/>
<rect x="1147.45" y="577.008" width="12.6007" height="7.77823" fill="#D46586"/>
<rect x="1147.45" y="448.666" width="12.6007" height="7.77823" fill="#D46586"/>
<rect x="1147.45" y="483.668" width="12.6007" height="7.77823" fill="#D46586"/>
<rect x="1147.45" y="518.67" width="12.6007" height="7.77823" fill="#D46586"/>
<rect x="1147.45" y="553.672" width="12.6007" height="7.77823" fill="#D46586"/>
<rect x="1147.45" y="588.674" width="12.6007" height="7.77823" fill="#D46586"/>
<rect x="1147.45" y="460.334" width="12.6007" height="7.77823" fill="#D46586"/>
<rect x="1147.45" y="495.336" width="12.6007" height="7.77823" fill="#D46586"/>
<rect x="1147.45" y="530.338" width="12.6007" height="7.77823" fill="#D46586"/>
<rect x="1147.45" y="565.34" width="12.6007" height="7.77823" fill="#D46586"/>
<rect x="1147.45" y="600.342" width="12.6007" height="7.77823" fill="#D46586"/>
<rect x="1163.2" y="437" width="12.6007" height="7.77823" fill="#D46586"/>
<rect x="1163.2" y="472.002" width="12.6007" height="7.77823" fill="#D46586"/>
<rect x="1163.2" y="507.004" width="12.6007" height="7.77823" fill="#D46586"/>
<rect x="1163.2" y="542.006" width="12.6007" height="7.77823" fill="#D46586"/>
<rect x="1163.2" y="577.008" width="12.6007" height="7.77823" fill="#D46586"/>
<rect x="1163.2" y="448.666" width="12.6007" height="7.77823" fill="#D46586"/>
<rect x="1163.2" y="483.668" width="12.6007" height="7.77823" fill="#D46586"/>
<rect x="1163.2" y="518.67" width="12.6007" height="7.77823" fill="#D46586"/>
<rect x="1163.2" y="553.672" width="12.6007" height="7.77823" fill="#D46586"/>
<rect x="1163.2" y="588.674" width="12.6007" height="7.77823" fill="#D46586"/>
<rect x="1163.2" y="460.334" width="12.6007" height="7.77823" fill="#D46586"/>
<rect x="1163.2" y="495.336" width="12.6007" height="7.77823" fill="#D46586"/>
<rect x="1163.2" y="530.338" width="12.6007" height="7.77823" fill="#D46586"/>
<rect x="1163.2" y="565.34" width="12.6007" height="7.77823" fill="#D46586"/>
<rect x="1163.2" y="600.342" width="12.6007" height="7.77823" fill="#D46586"/>
<rect x="1147.45" y="612.01" width="12.6007" height="7.77823" fill="#D46586"/>
<rect x="1147.45" y="647.012" width="12.6007" height="7.77823" fill="#D46586"/>
<rect x="1147.45" y="623.676" width="12.6007" height="7.77823" fill="#D46586"/>
<rect x="1147.45" y="658.678" width="12.6007" height="7.77823" fill="#D46586"/>
<rect x="1147.45" y="635.344" width="12.6007" height="7.77823" fill="#D46586"/>
<rect x="1163.2" y="612.01" width="12.6007" height="7.77823" fill="#D46586"/>
<rect x="1163.2" y="647.012" width="12.6007" height="7.77823" fill="#D46586"/>
<rect x="1163.2" y="623.676" width="12.6007" height="7.77823" fill="#D46586"/>
<rect x="1163.2" y="658.678" width="12.6007" height="7.77823" fill="#D46586"/>
<rect x="1163.2" y="635.344" width="12.6007" height="7.77823" fill="#D46586"/>
<path d="M1217 439.42V714.92L1187 712.42V437.42L1217 439.42Z" fill="#D46586" fill-opacity="0.5"/>
<rect x="1256.31" y="579.453" width="17.1795" height="9.16239" fill="#CA638C"/>
<rect x="1256.31" y="606.939" width="17.1795" height="9.16239" fill="#CA638C"/>
<rect x="1256.31" y="634.426" width="17.1795" height="9.16239" fill="#CA638C"/>
<rect x="1256.31" y="661.912" width="17.1795" height="9.16239" fill="#CA638C"/>
<rect x="1256.31" y="689.398" width="17.1795" height="9.16239" fill="#CA638C"/>
<rect x="1256.31" y="593.195" width="17.1795" height="9.16239" fill="#CA638C"/>
<rect x="1256.31" y="620.682" width="17.1795" height="9.16239" fill="#CA638C"/>
<rect x="1256.31" y="648.168" width="17.1795" height="9.16239" fill="#CA638C"/>
<rect x="1256.31" y="675.654" width="17.1795" height="9.16239" fill="#CA638C"/>
<rect x="1256.31" y="703.141" width="17.1795" height="9.16239" fill="#CA638C"/>
<rect x="1278.07" y="579.453" width="17.1795" height="9.16239" fill="#CA638C"/>
<rect x="1278.07" y="606.939" width="17.1795" height="9.16239" fill="#CA638C"/>
<rect x="1278.07" y="634.426" width="17.1795" height="9.16239" fill="#CA638C"/>
<rect x="1278.07" y="661.912" width="17.1795" height="9.16239" fill="#CA638C"/>
<rect x="1278.07" y="689.398" width="17.1795" height="9.16239" fill="#CA638C"/>
<rect x="1278.07" y="593.195" width="17.1795" height="9.16239" fill="#CA638C"/>
<rect x="1278.07" y="620.682" width="17.1795" height="9.16239" fill="#CA638C"/>
<rect x="1278.07" y="648.168" width="17.1795" height="9.16239" fill="#CA638C"/>
<rect x="1278.07" y="675.654" width="17.1795" height="9.16239" fill="#CA638C"/>
<rect x="1278.07" y="703.141" width="17.1795" height="9.16239" fill="#CA638C"/>
<rect x="1330.75" y="568" width="17.1795" height="9.16239" fill="#CA638C"/>
<rect x="1330.75" y="595.486" width="17.1795" height="9.16239" fill="#CA638C"/>
<rect x="1330.75" y="622.973" width="17.1795" height="9.16239" fill="#CA638C"/>
<rect x="1330.75" y="650.459" width="17.1795" height="9.16239" fill="#CA638C"/>
<rect x="1330.75" y="677.945" width="17.1795" height="9.16239" fill="#CA638C"/>
<rect x="1330.75" y="581.742" width="17.1795" height="9.16239" fill="#CA638C"/>
<rect x="1330.75" y="609.229" width="17.1795" height="9.16239" fill="#CA638C"/>
<rect x="1330.75" y="636.717" width="17.1795" height="9.16239" fill="#CA638C"/>
<rect x="1330.75" y="664.203" width="17.1795" height="9.16239" fill="#CA638C"/>
<rect x="1330.75" y="691.689" width="17.1795" height="9.16239" fill="#CA638C"/>
<rect x="1352.51" y="568" width="17.1795" height="9.16239" fill="#CA638C"/>
<rect x="1352.51" y="595.486" width="17.1795" height="9.16239" fill="#CA638C"/>
<rect x="1352.51" y="622.973" width="17.1795" height="9.16239" fill="#CA638C"/>
<rect x="1352.51" y="650.459" width="17.1795" height="9.16239" fill="#CA638C"/>
<rect x="1352.51" y="677.945" width="17.1795" height="9.16239" fill="#CA638C"/>
<rect x="1352.51" y="581.742" width="17.1795" height="9.16239" fill="#CA638C"/>
<rect x="1352.51" y="609.229" width="17.1795" height="9.16239" fill="#CA638C"/>
<rect x="1352.51" y="636.717" width="17.1795" height="9.16239" fill="#CA638C"/>
<rect x="1352.51" y="664.203" width="17.1795" height="9.16239" fill="#CA638C"/>
<rect x="1352.51" y="691.689" width="17.1795" height="9.16239" fill="#CA638C"/>
<rect x="1079" y="507" width="33" height="2" fill="#D46586"/>
<rect x="1083" y="474" width="25" height="2" fill="#D46586"/>
<rect x="1082" y="478" width="27" height="2" fill="#D46586"/>
<path d="M277.32 259.701L293.336 294.166L295 267.878L277.32 259.701Z" fill="#F8C3A9"/>
<path d="M281.451 295.918H262.179L259.719 301.88L271.815 308.777L283.911 301.88L281.451 295.918Z" fill="#F8C3A9"/>
<path d="M265.48 288.185H278.154L271.814 272.779L265.48 288.185Z" fill="#F8C3A9"/>
<path d="M266.309 259.701L248.629 267.878L250.293 294.166L266.309 259.701Z" fill="#F8C3A9"/>
<path d="M1124 223C1136.7 223 1147 233.297 1147 246C1147 247.404 1146.87 248.778 1146.63 250.112C1147.24 250.039 1147.87 250 1148.5 250C1157.06 250 1164 256.94 1164 265.5C1164 274.06 1157.06 281 1148.5 281C1148.33 281 1148.17 280.995 1148 280.99V281H1090V280.945C1079.38 280.177 1071 271.317 1071 260.5C1071 249.178 1080.18 240 1091.5 240C1095.04 240 1098.36 240.896 1101.27 242.473C1102.97 231.445 1112.5 223 1124 223Z" fill="#F4C7DB"/>
<path d="M1310.48 346.451C1318.27 346.451 1324.58 352.763 1324.58 360.549C1324.58 361.41 1324.5 362.252 1324.35 363.07C1324.73 363.025 1325.11 363 1325.5 363C1330.75 363 1335 367.253 1335 372.5C1335 377.747 1330.75 382 1325.5 382C1325.4 382 1325.3 381.994 1325.19 381.991V382H1289.65V381.753C1288.96 381.912 1288.24 382 1287.5 382C1282.25 382 1278 377.747 1278 372.5C1278 368.434 1280.55 364.966 1284.15 363.61C1284.05 363.088 1284 362.55 1284 362C1284 357.029 1288.03 353 1293 353C1294.77 353 1296.41 353.51 1297.8 354.389C1300.09 349.69 1304.91 346.451 1310.48 346.451Z" fill="#F4C7DB"/>
<path d="M96.5 361.549C102.425 361.549 107.458 365.366 109.275 370.676C111.383 369.12 114.022 368.193 116.887 368.193C122.907 368.193 127.932 372.279 129.12 377.72C131.068 376.353 133.44 375.549 136 375.549C142.627 375.549 148 380.921 148 387.549C148 394.176 142.627 399.549 136 399.549C135.832 399.549 135.665 399.544 135.499 399.537L135.501 399.549L97.6455 398.999V398.974C97.4322 398.989 97.2171 399 97 399C92.0294 399 88 394.971 88 390C88 388.632 88.3062 387.335 88.8525 386.174C85.3179 383.739 83 379.665 83 375.049C83 367.593 89.0442 361.549 96.5 361.549Z" fill="#F3BA99"/>
<path d="M371.134 198.969C375.898 198.969 379.842 202.476 380.527 207.049C381.383 206.746 382.304 206.58 383.264 206.58C387.798 206.58 391.474 210.256 391.475 214.79C391.475 219.325 387.798 223.001 383.264 223.001C383.005 223.001 382.749 222.987 382.496 222.964L382.501 222.999L357.021 222.625V222.607C356.875 222.618 356.728 222.625 356.58 222.625C353.179 222.625 350.422 219.869 350.422 216.468C350.422 213.444 352.601 210.931 355.475 210.41C355.509 207.678 357.733 205.474 360.474 205.474C361.02 205.474 361.545 205.562 362.037 205.724C363.215 201.815 366.842 198.969 371.134 198.969Z" fill="#F3BA99"/>
</g>
<defs>
<linearGradient id="paint0_linear_905_231" x1="-12.9418" y1="696.853" x2="636.32" y2="1419.13" gradientUnits="userSpaceOnUse">
<stop stop-color="#EE7E3D"/>
<stop offset="0.254808" stop-color="#DF6265"/>
<stop offset="0.485577" stop-color="#CD4181"/>
<stop offset="0.716346" stop-color="#A43A72"/>
<stop offset="1" stop-color="#81427E"/>
</linearGradient>
<linearGradient id="paint1_linear_905_231" x1="-17.5" y1="643.745" x2="1067.16" y2="1280.8" gradientUnits="userSpaceOnUse">
<stop stop-color="#EE7E3D"/>
<stop offset="0.254808" stop-color="#DF6265"/>
<stop offset="0.485577" stop-color="#CD4181"/>
<stop offset="0.716346" stop-color="#A43A72"/>
<stop offset="1" stop-color="#81427E"/>
</linearGradient>
<clipPath id="clip0_905_231">
<rect width="1440" height="764" fill="white"/>
</clipPath>
</defs>
</svg>
