<?xml version="1.0" encoding="utf-8"?>
<!-- Generator: Adobe Illustrator 19.0.0, SVG Export Plug-In . SVG Version: 6.00 Build 0)  -->
<svg version="1.1" id="Layer_1" xmlns="http://www.w3.org/2000/svg" xmlns:xlink="http://www.w3.org/1999/xlink" x="0px" y="0px"
	 viewBox="0 0 2500 1327" style="enable-background:new 0 0 2500 1327;" xml:space="preserve">
<style type="text/css">
	.st0{opacity:0.35;}
	.st1{fill:#E50DE7;}
	.st2{fill:none;stroke:#E50DE7;stroke-width:6;stroke-miterlimit:10;}
	.st3{fill:#DC387F;}
	.st4{opacity:0.52;fill:none;stroke:#F11653;stroke-width:6;stroke-miterlimit:10;}
	.st5{fill:none;stroke:#F11653;stroke-width:6;stroke-miterlimit:10;}
	.st6{opacity:0.52;fill:none;stroke:#DC387F;stroke-width:6;stroke-miterlimit:10;}
	.st7{opacity:0.13;fill:none;stroke:#DC387F;stroke-width:6;stroke-miterlimit:10;}
	.st8{opacity:0.39;fill:none;stroke:#E50DE7;stroke-width:6;stroke-miterlimit:10;}
	.st9{opacity:0.39;fill:none;stroke:#DC387F;stroke-width:6;stroke-miterlimit:10;}
	.st10{opacity:0.13;fill:none;stroke:#5286F5;stroke-width:6;stroke-miterlimit:10;}
	.st11{opacity:0.39;fill:none;stroke:#F11653;stroke-width:6;stroke-miterlimit:10;}
	.st12{opacity:0.52;fill:none;stroke:#492E76;stroke-width:6;stroke-miterlimit:10;}
	.st13{opacity:0.52;fill:none;stroke:#E50DE7;stroke-width:6;stroke-miterlimit:10;}
	.st14{opacity:0.61;fill:none;stroke:#E50DE7;stroke-width:6;stroke-miterlimit:10;}
	.st15{opacity:0.39;fill:none;stroke:#5286F5;stroke-width:6;stroke-miterlimit:10;}
	.st16{fill:url(#XMLID_2_);}
	.st17{fill:#48DFF1;}
	.st18{fill:url(#XMLID_3_);}
	.st19{fill:#5286F5;}
	.st20{fill:none;stroke:#492E76;stroke-width:6;stroke-miterlimit:10;}
	.st21{opacity:0.29;fill:none;stroke:#E50DE7;stroke-width:6;stroke-miterlimit:10;}
	.st22{fill:url(#XMLID_4_);}
	.st23{fill:url(#XMLID_5_);}
	.st24{fill:url(#XMLID_6_);}
	.st25{fill:url(#XMLID_7_);}
</style>
<g id="XMLID_720_" class="st0">
	<polygon id="XMLID_765_" class="st1" points="238.8,880 174.5,768.7 110.3,880 	"/>
	<polygon id="XMLID_764_" class="st2" points="303.4,771 239.2,659.7 174.9,771 	"/>
	<polygon id="XMLID_763_" class="st3" points="238.8,880 174.5,991.3 110.3,880 	"/>
	<polygon id="XMLID_762_" class="st4" points="368.1,659 303.8,547.7 239.6,659 	"/>
	<polygon id="XMLID_761_" class="st5" points="238.8,659 174.5,547.7 110.3,659 	"/>
	<polygon id="XMLID_760_" class="st6" points="238.8,437 174.5,325.7 110.3,437 	"/>
	<polygon id="XMLID_759_" class="st7" points="238.8,214 174.5,102.7 110.3,214 	"/>
	<polygon id="XMLID_758_" class="st2" points="495.9,882 431.6,770.7 367.4,882 	"/>
	<polygon id="XMLID_757_" class="st8" points="754.5,882 690.3,770.7 626,882 	"/>
	<polygon id="XMLID_756_" class="st9" points="819.2,993 754.9,881.7 690.7,993 	"/>
	<polygon id="XMLID_755_" class="st10" points="624.6,548 560.4,436.7 496.1,548 	"/>
	<polygon id="XMLID_754_" class="st11" points="882.3,882 818.1,770.7 753.8,882 	"/>
	<polygon id="XMLID_753_" class="st12" points="689.9,993 625.6,881.7 561.4,993 	"/>
	<polygon id="XMLID_752_" class="st9" points="689.9,771 625.6,659.7 561.4,771 	"/>
	<polygon id="XMLID_751_" class="st13" points="560.5,771 496.3,659.7 432.1,771 	"/>
	<polygon id="XMLID_750_" class="st7" points="368.1,659 303.8,770.3 239.6,659 	"/>
	<polygon id="XMLID_749_" class="st14" points="303.4,548 239.2,659.3 174.9,548 	"/>
	<polygon id="XMLID_748_" class="st13" points="368.1,437 303.8,548.3 239.6,437 	"/>
	<polygon id="XMLID_747_" class="st15" points="368.1,214 303.8,325.3 239.6,214 	"/>
	<polygon id="XMLID_746_" class="st4" points="431.2,771 367,882.3 302.7,771 	"/>
	<polygon id="XMLID_745_" class="st3" points="238.8,1102 174.5,990.7 110.3,1102 	"/>
	
		<linearGradient id="XMLID_2_" gradientUnits="userSpaceOnUse" x1="3498.4807" y1="5138.3638" x2="3626.9675" y2="5138.3638" gradientTransform="matrix(-1 0 0 -1 3737.2368 6296)">
		<stop  offset="0.2473" style="stop-color:#F11653"/>
		<stop  offset="0.7581" style="stop-color:#8514F5"/>
		<stop  offset="0.8028" style="stop-color:#8528EE"/>
		<stop  offset="0.8559" style="stop-color:#8538E8"/>
		<stop  offset="0.9164" style="stop-color:#8541E5"/>
		<stop  offset="1" style="stop-color:#8544E4"/>
	</linearGradient>
	<polygon id="XMLID_744_" class="st16" points="238.8,1102 174.5,1213.3 110.3,1102 	"/>
	<polygon id="XMLID_743_" class="st1" points="303.4,991 239.2,879.7 174.9,991 	"/>
	<polygon id="XMLID_742_" class="st17" points="303.4,991 239.2,1102.3 174.9,991 	"/>
	
		<linearGradient id="XMLID_3_" gradientUnits="userSpaceOnUse" x1="3433.8223" y1="1158.3636" x2="3562.3091" y2="1158.3636" gradientTransform="matrix(-1 0 0 1 3737.2368 0)">
		<stop  offset="0.2473" style="stop-color:#F11653"/>
		<stop  offset="0.7581" style="stop-color:#8514F5"/>
		<stop  offset="0.8028" style="stop-color:#8528EE"/>
		<stop  offset="0.8559" style="stop-color:#8538E8"/>
		<stop  offset="0.9164" style="stop-color:#8541E5"/>
		<stop  offset="1" style="stop-color:#8544E4"/>
	</linearGradient>
	<polygon id="XMLID_741_" class="st18" points="303.4,1214 239.2,1102.7 174.9,1214 	"/>
	<polygon id="XMLID_740_" class="st17" points="368.1,1325 303.8,1213.7 239.6,1325 	"/>
	<polygon id="XMLID_739_" class="st1" points="238.8,1325 174.5,1213.7 110.3,1325 	"/>
	<polygon id="XMLID_738_" class="st19" points="303.4,1214 239.2,1325.3 174.9,1214 	"/>
	<polygon id="XMLID_737_" class="st2" points="495.9,1104 431.6,992.7 367.4,1104 	"/>
	<polygon id="XMLID_736_" class="st20" points="495.9,1104 431.6,1215.3 367.4,1104 	"/>
	<polygon id="XMLID_735_" class="st6" points="560.5,993 496.3,881.7 432.1,993 	"/>
	<polygon id="XMLID_734_" class="st21" points="625.5,1327 561.3,1215.7 497.1,1327 	"/>
	<polygon id="XMLID_733_" class="st3" points="431.2,1214 367,1102.7 302.7,1214 	"/>
	<polygon id="XMLID_732_" class="st1" points="495.9,1325 431.6,1213.7 367.4,1325 	"/>
	<polygon id="XMLID_731_" class="st6" points="754.5,1327 690.3,1215.7 626,1327 	"/>
	<polygon id="XMLID_730_" class="st12" points="819.2,1216 754.9,1104.7 690.7,1216 	"/>
	<polygon id="XMLID_729_" class="st8" points="883.8,1104 819.6,992.7 755.4,1104 	"/>
	<polygon id="XMLID_728_" class="st5" points="882.3,1327 818.1,1215.7 753.8,1327 	"/>
	<polygon id="XMLID_727_" class="st7" points="1141,1327 1076.7,1215.7 1012.5,1327 	"/>
	<polygon id="XMLID_726_" class="st6" points="689.9,1216 625.6,1104.7 561.4,1216 	"/>
	<polygon id="XMLID_725_" class="st20" points="367.5,882 303.3,993.3 239.1,882 	"/>
	<polygon id="XMLID_724_" class="st9" points="1013.2,882 948.9,993.3 884.7,882 	"/>
	<polygon id="XMLID_723_" class="st5" points="625.2,1104 561,992.7 496.7,1104 	"/>
	<polygon id="XMLID_722_" class="st13" points="625.2,1104 561,1215.3 496.7,1104 	"/>
	<polygon id="XMLID_721_" class="st11" points="1013.2,1104 948.9,1215.3 884.7,1104 	"/>
</g>
<g id="XMLID_304_" class="st0">
	<polygon id="XMLID_719_" class="st1" points="2259.5,878 2323.7,766.7 2388,878 	"/>
	<polygon id="XMLID_718_" class="st2" points="2194.8,769 2259.1,657.7 2323.3,769 	"/>
	<polygon id="XMLID_717_" class="st3" points="2259.5,878 2323.7,989.3 2388,878 	"/>
	<polygon id="XMLID_716_" class="st4" points="2130.2,657 2194.4,545.7 2258.7,657 	"/>
	<polygon id="XMLID_715_" class="st5" points="2259.5,657 2323.7,545.7 2388,657 	"/>
	<polygon id="XMLID_714_" class="st6" points="2259.5,435 2323.7,323.7 2388,435 	"/>
	<polygon id="XMLID_713_" class="st7" points="2259.5,212 2323.7,100.7 2388,212 	"/>
	<polygon id="XMLID_712_" class="st2" points="2002.4,880 2066.6,768.7 2130.8,880 	"/>
	<polygon id="XMLID_711_" class="st8" points="1743.7,880 1808,768.7 1872.2,880 	"/>
	<polygon id="XMLID_710_" class="st9" points="1679.1,991 1743.3,879.7 1807.5,991 	"/>
	<polygon id="XMLID_709_" class="st10" points="1873.6,546 1937.9,434.7 2002.1,546 	"/>
	<polygon id="XMLID_708_" class="st11" points="1615.9,880 1680.1,768.7 1744.4,880 	"/>
	<polygon id="XMLID_707_" class="st12" points="1808.4,991 1872.6,879.7 1936.9,991 	"/>
	<polygon id="XMLID_706_" class="st9" points="1808.4,769 1872.6,657.7 1936.9,769 	"/>
	<polygon id="XMLID_705_" class="st13" points="1937.7,769 2001.9,657.7 2066.2,769 	"/>
	<polygon id="XMLID_704_" class="st7" points="2130.2,657 2194.4,768.3 2258.7,657 	"/>
	<polygon id="XMLID_703_" class="st14" points="2194.8,546 2259.1,657.3 2323.3,546 	"/>
	<polygon id="XMLID_702_" class="st13" points="2130.2,435 2194.4,546.3 2258.7,435 	"/>
	<polygon id="XMLID_701_" class="st15" points="2130.2,212 2194.4,323.3 2258.7,212 	"/>
	<polygon id="XMLID_700_" class="st4" points="2067,769 2131.3,880.3 2195.5,769 	"/>
	<polygon id="XMLID_699_" class="st3" points="2259.5,1100 2323.7,988.7 2388,1100 	"/>
	
		<linearGradient id="XMLID_4_" gradientUnits="userSpaceOnUse" x1="4725.481" y1="5140.3638" x2="4853.9673" y2="5140.3638" gradientTransform="matrix(1 0 0 -1 -2466 6296)">
		<stop  offset="0.2473" style="stop-color:#F11653"/>
		<stop  offset="0.7581" style="stop-color:#8514F5"/>
		<stop  offset="0.8028" style="stop-color:#8528EE"/>
		<stop  offset="0.8559" style="stop-color:#8538E8"/>
		<stop  offset="0.9164" style="stop-color:#8541E5"/>
		<stop  offset="1" style="stop-color:#8544E4"/>
	</linearGradient>
	<polygon id="XMLID_698_" class="st22" points="2259.5,1100 2323.7,1211.3 2388,1100 	"/>
	<polygon id="XMLID_697_" class="st1" points="2194.8,989 2259.1,877.7 2323.3,989 	"/>
	<polygon id="XMLID_696_" class="st17" points="2194.8,989 2259.1,1100.3 2323.3,989 	"/>
	
		<linearGradient id="XMLID_5_" gradientUnits="userSpaceOnUse" x1="4660.8223" y1="1156.3636" x2="4789.3091" y2="1156.3636" gradientTransform="matrix(1 0 0 1 -2466 0)">
		<stop  offset="0.2473" style="stop-color:#F11653"/>
		<stop  offset="0.7581" style="stop-color:#8514F5"/>
		<stop  offset="0.8028" style="stop-color:#8528EE"/>
		<stop  offset="0.8559" style="stop-color:#8538E8"/>
		<stop  offset="0.9164" style="stop-color:#8541E5"/>
		<stop  offset="1" style="stop-color:#8544E4"/>
	</linearGradient>
	<polygon id="XMLID_695_" class="st23" points="2194.8,1212 2259.1,1100.7 2323.3,1212 	"/>
	<polygon id="XMLID_694_" class="st17" points="2130.2,1323 2194.4,1211.7 2258.7,1323 	"/>
	<polygon id="XMLID_693_" class="st1" points="2259.5,1323 2323.7,1211.7 2388,1323 	"/>
	<polygon id="XMLID_692_" class="st19" points="2194.8,1212 2259.1,1323.3 2323.3,1212 	"/>
	<polygon id="XMLID_691_" class="st2" points="2002.4,1102 2066.6,990.7 2130.8,1102 	"/>
	<polygon id="XMLID_690_" class="st20" points="2002.4,1102 2066.6,1213.3 2130.8,1102 	"/>
	<polygon id="XMLID_689_" class="st6" points="1937.7,991 2001.9,879.7 2066.2,991 	"/>
	<polygon id="XMLID_688_" class="st21" points="1872.7,1325 1936.9,1213.7 2001.2,1325 	"/>
	<polygon id="XMLID_687_" class="st3" points="2067,1212 2131.3,1100.7 2195.5,1212 	"/>
	<polygon id="XMLID_353_" class="st1" points="2002.4,1323 2066.6,1211.7 2130.8,1323 	"/>
	<polygon id="XMLID_352_" class="st6" points="1743.7,1325 1808,1213.7 1872.2,1325 	"/>
	<polygon id="XMLID_351_" class="st12" points="1679.1,1214 1743.3,1102.7 1807.5,1214 	"/>
	<polygon id="XMLID_350_" class="st8" points="1614.4,1102 1678.6,990.7 1742.9,1102 	"/>
	<polygon id="XMLID_349_" class="st5" points="1615.9,1325 1680.1,1213.7 1744.4,1325 	"/>
	<polygon id="XMLID_348_" class="st7" points="1357.3,1325 1421.5,1213.7 1485.8,1325 	"/>
	<polygon id="XMLID_347_" class="st6" points="1808.4,1214 1872.6,1102.7 1936.9,1214 	"/>
	<polygon id="XMLID_346_" class="st20" points="2130.7,880 2194.9,991.3 2259.2,880 	"/>
	<polygon id="XMLID_327_" class="st9" points="1485.1,880 1549.3,991.3 1613.6,880 	"/>
	<polygon id="XMLID_307_" class="st5" points="1873,1102 1937.3,990.7 2001.5,1102 	"/>
	<polygon id="XMLID_306_" class="st13" points="1873,1102 1937.3,1213.3 2001.5,1102 	"/>
	<polygon id="XMLID_305_" class="st11" points="1485.1,1102 1549.3,1213.3 1613.6,1102 	"/>
</g>
<linearGradient id="XMLID_6_" gradientUnits="userSpaceOnUse" x1="1937.5055" y1="1219.7563" x2="2687.4944" y2="786.75">
	<stop  offset="0" style="stop-color:#EC4899"/>
	<stop  offset="0.1889" style="stop-color:#E246A2"/>
	<stop  offset="0.5091" style="stop-color:#C73FBA"/>
	<stop  offset="0.9191" style="stop-color:#9C35E1"/>
	<stop  offset="1" style="stop-color:#9333EA"/>
</linearGradient>
<polygon id="XMLID_303_" class="st24" points="2500,462 2500,1328 2000,1328 "/>
<linearGradient id="XMLID_7_" gradientUnits="userSpaceOnUse" x1="-124.9945" y1="1111.5032" x2="250.0055" y2="894.9968">
	<stop  offset="0" style="stop-color:#DC2626"/>
	<stop  offset="0.6693" style="stop-color:#E73E76"/>
	<stop  offset="1" style="stop-color:#EC4899"/>
</linearGradient>
<polygon id="XMLID_302_" class="st25" points="0,462 0,1328 500,1328 "/>
</svg>
