<svg width="517" height="174" viewBox="0 0 517 174" fill="none" xmlns="http://www.w3.org/2000/svg">
<path d="M130.969 140.406L70.707 173.211V173.345L70.5732 173.278L70.4395 173.345V173.211L10.1777 140.406L4.01758 83.2998L19.0156 134.515V134.181L53.1641 156.607V135.586L47.4062 128.824L37.8311 127.419V119.652L53.5664 116.707V109.945L55.293 107.62H85.9033L87.5801 109.878V116.64L103.315 119.586V127.352L93.7402 128.758L87.9824 135.52V156.474L122.131 134.181L137.196 82.4297L130.969 140.406ZM10.3115 53.9766L19.1494 123.736L0.0673828 47.3486L0 46.5459L47.8076 29.9424L10.3115 53.9766ZM140.945 46.5459L122.063 123.67L130.701 54.0439L93.2715 30.0098L140.945 46.5459ZM82.3398 2.54004L83.1426 6.41699L78.7295 12.7002V17.2451L85.6826 24.7314L84.6133 35.292C82.8751 37.8319 79.6123 43.4737 80.4678 45.7197C80.4678 45.7197 83.827 49.1706 84.6133 52.0029C85.2976 54.4679 85.6248 56.2039 84.6133 58.5537C83.9268 60.1481 81.8274 62.0101 81.8057 62.0293L83.2764 66.3066L85.6826 82.2158C85.6933 82.261 86.8852 87.3084 87.0205 89.0332C87.419 94.1132 84.0788 99.7279 85.1484 105.075L85.6826 107.615H74.7188V106.546L79.9336 104.407C79.4879 98.5251 78.7834 86.1722 79.5322 83.8193C78.4625 82.7943 76.2696 79.6752 76.0557 75.3975C75.8774 74.9964 75.3068 74.4352 74.4512 75.3975C74.4512 79.2743 74.3439 87.4289 73.916 89.0332C73.604 90.9048 72.0974 95.8514 68.5674 100.664C68.3001 101.065 68.1405 102.215 69.6377 103.604C69.7714 104.718 69.9584 107.08 69.6377 107.615H55.0625V106.68C57.7813 105.566 63.2724 103.123 63.4863 102.268C63.8429 101.332 64.7435 99.2203 65.4922 98.2578C65.8607 97.7841 65.9197 93.6208 66.1152 87.9883L63.3652 49.6562H58.6729C58.4494 49.8348 57.9489 50.0844 57.7344 49.6562C57.5199 49.2277 57.5559 47.3343 57.6006 46.4414C57.6902 46.1289 58.0298 45.6915 58.6729 46.4414H62.5996C61.6938 44.8809 61.4433 43.0872 61.4893 41.9297C61.4446 41.5224 61.946 41.3069 62.6553 41.2061L62.417 38.8867C61.9155 38.931 61.5896 38.4878 61.5898 37.957C61.59 37.5922 61.542 37.0016 62.417 36.8955C62.5994 36.6301 62.9366 36.2325 63.374 36.2324C63.6476 36.2324 64.7695 36.339 64.8789 36.7637C65.3348 36.8079 65.9668 36.8964 66.1035 37.6924C66.2402 38.0904 66.1368 38.5683 65.6992 38.8867L65.8145 41.2422C65.8498 41.2461 65.885 41.2489 65.9189 41.2529C66.6702 41.2532 67.1266 41.9751 67.2607 42.3359L68.665 42.1328C68.0978 40.1437 67.5723 37.8761 67.2168 35.5547L61.7031 31.7686L52.9346 31.0166L54.1875 28.2607H54.626L55.6904 26.6943L56.0039 23.0615L54.1875 15.7959H52.5586L53.9365 14.7314L54.876 12.9775L56.4424 12.5391L59.3232 13.8545L62.2676 12.9775L67.0273 19.4912L67.6543 23.751L65.6494 21.8096L64.0215 23.751L65.6494 27.6348L62.0166 26.5068L61.7031 27.0078L66.7578 30.2285C66.7211 25.424 67.8951 21.1464 71.5098 19.5176V13.7695H67.6318V12.7002L68.4336 10.1602H66.1611L67.6318 6.41699V2.54004L66.8291 0H78.7295L82.3398 2.54004ZM67.3047 70.8281C67.8213 66.6832 68.5599 62.7546 69.6377 59.623V49.6562H66.7168L67.3047 70.8281ZM56.3789 27.1953L56.8799 27.6338L60.5127 26.9453L60.7637 26.2559L58.6338 24.3145L56.3789 27.1953Z" fill="url(#paint0_linear_905_857)"/>
<path d="M444.591 149.958C440.883 149.958 437.62 149.253 434.802 147.844C432.021 146.398 429.833 144.266 428.238 141.448C426.681 138.592 425.902 135.051 425.902 130.824C425.902 126.263 426.811 122.388 428.628 119.199C430.445 115.972 432.966 113.507 436.192 111.801C439.456 110.095 443.219 109.242 447.484 109.242C449.783 109.242 451.989 109.52 454.103 110.077C456.254 110.596 458.071 111.337 459.554 112.301L454.826 121.479C453.676 120.663 452.508 120.126 451.322 119.866C450.172 119.569 448.986 119.421 447.762 119.421C445.129 119.421 443.015 120.218 441.421 121.813C439.864 123.37 439.085 125.651 439.085 128.654C439.085 129.211 439.085 129.767 439.085 130.323C439.085 130.842 439.085 131.38 439.085 131.936L436.081 129.767C436.823 128.506 437.694 127.449 438.695 126.596C439.697 125.706 440.883 125.039 442.255 124.594C443.627 124.112 445.222 123.871 447.039 123.871C449.412 123.871 451.6 124.39 453.602 125.428C455.642 126.429 457.273 127.857 458.497 129.711C459.758 131.565 460.388 133.772 460.388 136.33C460.388 139.111 459.684 141.522 458.275 143.561C456.865 145.601 454.956 147.177 452.545 148.289C450.172 149.402 447.521 149.958 444.591 149.958ZM443.702 140.891C444.48 140.891 445.166 140.743 445.76 140.446C446.39 140.113 446.872 139.649 447.206 139.056C447.539 138.462 447.706 137.758 447.706 136.942C447.706 135.718 447.335 134.754 446.594 134.05C445.852 133.308 444.888 132.937 443.702 132.937C442.923 132.937 442.237 133.104 441.643 133.438C441.05 133.772 440.568 134.235 440.197 134.828C439.864 135.422 439.697 136.126 439.697 136.942C439.697 137.758 439.864 138.462 440.197 139.056C440.568 139.649 441.05 140.113 441.643 140.446C442.237 140.743 442.923 140.891 443.702 140.891Z" fill="#3C3938"/>
<path d="M392.003 149.068V141.003L406.076 127.987C406.966 127.134 407.615 126.392 408.022 125.762C408.467 125.132 408.764 124.575 408.912 124.093C409.061 123.574 409.135 123.092 409.135 122.647C409.135 121.683 408.82 120.941 408.189 120.422C407.559 119.866 406.613 119.588 405.353 119.588C404.203 119.588 403.109 119.903 402.071 120.534C401.033 121.127 400.217 122.017 399.623 123.203L389.723 118.253C391.132 115.583 393.245 113.414 396.064 111.745C398.882 110.077 402.386 109.242 406.576 109.242C409.654 109.242 412.379 109.743 414.753 110.744C417.126 111.745 418.98 113.154 420.315 114.971C421.65 116.788 422.317 118.939 422.317 121.423C422.317 122.684 422.15 123.945 421.817 125.206C421.52 126.467 420.89 127.802 419.926 129.211C418.961 130.583 417.534 132.122 415.643 133.827L405.074 143.45L403.016 138.889H423.207V149.068H392.003Z" fill="#3C3938"/>
<path d="M371.73 149.958C368.281 149.958 365.222 149.16 362.552 147.566C359.919 145.971 357.843 143.654 356.323 140.613C354.839 137.572 354.098 133.901 354.098 129.6C354.098 125.299 354.839 121.627 356.323 118.587C357.843 115.546 359.919 113.228 362.552 111.634C365.222 110.039 368.281 109.242 371.73 109.242C375.179 109.242 378.219 110.039 380.852 111.634C383.522 113.228 385.598 115.546 387.082 118.587C388.602 121.627 389.362 125.299 389.362 129.6C389.362 133.901 388.602 137.572 387.082 140.613C385.598 143.654 383.522 145.971 380.852 147.566C378.219 149.16 375.179 149.958 371.73 149.958ZM371.73 139.445C372.583 139.445 373.343 139.148 374.01 138.555C374.678 137.962 375.197 136.942 375.568 135.496C375.976 134.05 376.18 132.084 376.18 129.6C376.18 127.078 375.976 125.113 375.568 123.704C375.197 122.258 374.678 121.238 374.01 120.645C373.343 120.051 372.583 119.755 371.73 119.755C370.877 119.755 370.117 120.051 369.449 120.645C368.782 121.238 368.244 122.258 367.836 123.704C367.466 125.113 367.28 127.078 367.28 129.6C367.28 132.084 367.466 134.05 367.836 135.496C368.244 136.942 368.782 137.962 369.449 138.555C370.117 139.148 370.877 139.445 371.73 139.445Z" fill="#3C3938"/>
<path d="M320.198 149.068V141.003L334.271 127.987C335.161 127.134 335.81 126.392 336.218 125.762C336.663 125.132 336.959 124.575 337.108 124.093C337.256 123.574 337.33 123.092 337.33 122.647C337.33 121.683 337.015 120.941 336.385 120.422C335.754 119.866 334.809 119.588 333.548 119.588C332.398 119.588 331.304 119.903 330.266 120.534C329.228 121.127 328.412 122.017 327.819 123.203L317.918 118.253C319.327 115.583 321.441 113.414 324.259 111.745C327.077 110.077 330.581 109.242 334.772 109.242C337.849 109.242 340.575 109.743 342.948 110.744C345.321 111.745 347.175 113.154 348.51 114.971C349.845 116.788 350.513 118.939 350.513 121.423C350.513 122.684 350.346 123.945 350.012 125.206C349.715 126.467 349.085 127.802 348.121 129.211C347.157 130.583 345.729 132.122 343.838 133.827L333.27 143.45L331.212 138.889H351.403V149.068H320.198Z" fill="#3C3938"/>
<path d="M282.453 149.068V120.145C282.453 116.214 283.621 113.081 285.957 110.744C288.33 108.408 291.686 107.24 296.025 107.24C297.36 107.24 298.695 107.37 300.03 107.63C301.402 107.852 302.551 108.223 303.478 108.742L300.475 117.475C300.067 117.289 299.622 117.122 299.14 116.974C298.658 116.826 298.157 116.752 297.638 116.752C296.748 116.752 296.025 117.03 295.469 117.586C294.912 118.142 294.634 119.032 294.634 120.256V121.702L295.024 126.875V149.068H282.453ZM278.281 129.489V120.311H301.253V129.489H278.281Z" fill="#3C3938"/>
<path d="M242.004 149.07V118.644H253.963V127.544L251.571 124.985C252.758 122.686 254.352 120.962 256.354 119.812C258.394 118.663 260.656 118.088 263.14 118.088C265.477 118.088 267.59 118.57 269.481 119.534C271.373 120.461 272.856 121.926 273.931 123.928C275.044 125.931 275.6 128.526 275.6 131.715V149.07H263.029V133.885C263.029 131.993 262.695 130.659 262.028 129.88C261.36 129.064 260.452 128.656 259.302 128.656C258.45 128.656 257.652 128.86 256.911 129.268C256.206 129.639 255.631 130.269 255.186 131.159C254.779 132.049 254.575 133.254 254.575 134.775V149.07H242.004Z" fill="#3C3938"/>
<path d="M220.387 149.626C216.939 149.626 213.879 148.958 211.209 147.623C208.577 146.251 206.5 144.379 204.98 142.005C203.459 139.632 202.699 136.907 202.699 133.829C202.699 130.751 203.459 128.026 204.98 125.653C206.5 123.279 208.577 121.425 211.209 120.09C213.879 118.755 216.939 118.088 220.387 118.088C223.836 118.088 226.895 118.755 229.565 120.09C232.235 121.425 234.311 123.279 235.795 125.653C237.315 128.026 238.075 130.751 238.075 133.829C238.075 136.907 237.315 139.632 235.795 142.005C234.311 144.379 232.235 146.251 229.565 147.623C226.895 148.958 223.836 149.626 220.387 149.626ZM220.387 139.836C221.314 139.836 222.148 139.614 222.89 139.169C223.632 138.724 224.225 138.056 224.67 137.166C225.115 136.239 225.338 135.127 225.338 133.829C225.338 132.494 225.115 131.4 224.67 130.547C224.225 129.657 223.632 128.99 222.89 128.545C222.148 128.1 221.314 127.877 220.387 127.877C219.46 127.877 218.626 128.1 217.884 128.545C217.142 128.99 216.549 129.657 216.104 130.547C215.659 131.4 215.437 132.494 215.437 133.829C215.437 135.127 215.659 136.239 216.104 137.166C216.549 138.056 217.142 138.724 217.884 139.169C218.626 139.614 219.46 139.836 220.387 139.836Z" fill="#3C3938"/>
<path d="M184.693 149.958C181.578 149.958 178.685 149.476 176.016 148.512C173.383 147.51 171.084 146.101 169.118 144.284C167.19 142.467 165.688 140.317 164.613 137.832C163.538 135.348 163 132.604 163 129.6C163 126.596 163.538 123.852 164.613 121.368C165.688 118.883 167.19 116.733 169.118 114.916C171.084 113.099 173.383 111.708 176.016 110.744C178.685 109.743 181.578 109.242 184.693 109.242C188.512 109.242 191.887 109.91 194.816 111.245C197.782 112.58 200.23 114.508 202.158 117.029L193.87 124.427C192.721 122.981 191.442 121.868 190.032 121.09C188.66 120.274 187.103 119.866 185.36 119.866C183.988 119.866 182.746 120.089 181.633 120.534C180.521 120.978 179.557 121.627 178.741 122.48C177.962 123.333 177.351 124.371 176.906 125.595C176.461 126.782 176.238 128.117 176.238 129.6C176.238 131.083 176.461 132.437 176.906 133.66C177.351 134.847 177.962 135.867 178.741 136.72C179.557 137.572 180.521 138.221 181.633 138.666C182.746 139.111 183.988 139.334 185.36 139.334C187.103 139.334 188.66 138.945 190.032 138.166C191.442 137.35 192.721 136.219 193.87 134.773L202.158 142.171C200.23 144.655 197.782 146.583 194.816 147.955C191.887 149.29 188.512 149.958 184.693 149.958Z" fill="#3C3938"/>
<path d="M366.756 56.0391C370.7 56.0391 373.487 57.2572 375.275 59.8525V56.5684H386.529V79.7148C386.529 90.8906 380.008 96.2401 369.07 96.2402C363.391 96.2402 358.29 95.022 354.714 92.6387L358.71 84.4814C360.971 86.2293 364.81 87.3418 367.86 87.3418C372.751 87.3418 374.697 85.1702 374.697 81.3037V80.7744C372.909 82.8401 370.279 83.8457 366.756 83.8457C359.446 83.8456 352.979 78.4435 352.979 69.916C352.979 61.3356 359.499 56.0392 366.756 56.0391ZM231.538 46C239.511 46.0001 245.866 48.7746 249.968 53.8027L241.244 61.4316C238.702 58.4842 235.756 56.9816 232.174 56.9814C226.165 56.9814 222.352 60.8533 222.352 67.0371C222.352 73.1055 226.165 77.0937 232 77.0938C233.675 77.0938 235.293 76.8049 236.969 76.1113V65.9971H248.812V83.0469C243.902 86.399 237.2 88.1904 231.249 88.1904C218.25 88.1904 208.717 79.4636 208.717 67.0957C208.717 54.7276 218.25 46 231.538 46ZM190.461 65.2461V46.9248H203.749V87.2656H192.599L177.288 68.9443V87.2656H164V46.9248H175.15L190.461 65.2461ZM317.954 56.0918C326.473 56.0918 333.73 61.2826 333.73 71.0283C333.678 71.8227 333.573 72.9348 333.521 73.7822H313.59C314.431 76.0067 316.429 77.1728 319.374 77.1729C322.003 77.1729 323.476 76.4837 325.369 75.0537L331.575 81.3564C328.788 84.4285 324.738 86.0176 319.059 86.0176C308.541 86.0175 301.705 79.6088 301.705 71.0283C301.705 62.2361 308.699 56.0919 317.954 56.0918ZM501.224 56.0918C509.743 56.0918 517 61.2826 517 71.0283C516.947 71.8227 516.843 72.9348 516.79 73.7822H496.858C497.7 76.0068 499.699 77.1729 502.644 77.1729C505.273 77.1728 506.746 76.4838 508.639 75.0537L514.844 81.3564C512.057 84.4285 508.008 86.0176 502.328 86.0176C491.811 86.0176 484.974 79.6088 484.974 71.0283C484.974 62.236 491.968 56.0918 501.224 56.0918ZM428.231 55.9326C438.118 56.0385 443.798 60.3292 443.798 69.916V85.4355H432.807V81.6221C431.439 84.5349 428.704 85.9648 424.655 85.9648C417.609 85.9648 414.033 81.9395 414.033 76.9609C414.033 71.3466 418.24 68.2207 427.127 68.2207H431.913C431.545 65.9964 429.862 64.8311 426.496 64.8311C423.919 64.8311 421.027 65.6784 419.134 67.1084L415.348 59.2168C418.713 57.0983 423.814 55.9326 428.231 55.9326ZM481.188 85.4355H469.934V83.0518C468.198 85.0114 465.622 85.9648 462.046 85.9648C454.526 85.9648 448.215 80.2445 448.215 70.9756C448.215 61.7065 454.578 56.0391 462.046 56.0391C465.201 56.0391 467.62 56.8335 469.355 58.5283V46.293H481.188V85.4355ZM282.615 48.4648C292.712 48.4648 297.445 52.5431 297.445 58.1045C297.445 61.5473 295.709 64.4076 292.344 66.1025C296.656 67.6915 299.181 70.8695 299.181 75.2656C299.181 81.7275 293.764 85.4355 283.667 85.4355H263V48.4648H282.615ZM349.244 85.4355H337.412V46.2402H349.244V85.4355ZM412.35 66.5791C411.298 66.4203 410.562 66.3672 409.721 66.3672C406.145 66.3672 403.62 68.0093 403.62 72.6172V85.4355H391.788V56.5684H403.042V59.6934C405.145 57.2571 408.353 56.0391 412.35 56.0391V66.5791ZM429.021 74.0479C426.497 74.0479 425.392 74.8947 425.392 76.4834C425.392 77.8075 426.443 78.8144 428.231 78.8145C429.862 78.8145 431.334 77.967 431.965 76.0605V74.0479H429.021ZM275.147 76.749H282.615C285.35 76.749 286.717 75.7425 286.717 73.8359C286.717 71.9292 285.35 70.9229 282.615 70.9229H275.147V76.749ZM464.886 65.3076C462.256 65.3076 460.205 67.215 460.205 70.9756C460.205 74.7361 462.256 76.6953 464.886 76.6953C467.515 76.6951 469.565 74.7359 469.565 70.9756C469.565 67.2152 467.515 65.3078 464.886 65.3076ZM369.911 65.3076C367.124 65.3077 364.968 67.1089 364.968 69.916C364.968 72.7231 367.124 74.577 369.911 74.5771C372.698 74.5771 374.802 72.7232 374.802 69.916C374.802 67.1088 372.698 65.3076 369.911 65.3076ZM317.954 64.1426C315.535 64.1427 313.852 65.5734 313.379 68.0098H322.582C322.109 65.5733 320.373 64.1426 317.954 64.1426ZM501.276 64.1426C498.805 64.1426 497.122 65.5733 496.648 68.0098H505.904C505.431 65.5734 503.695 64.1426 501.276 64.1426ZM275.147 62.7129H280.933C283.72 62.7129 284.981 61.7588 284.981 59.958C284.981 58.1575 283.719 57.2041 280.933 57.2041H275.147V62.7129Z" fill="url(#paint1_linear_905_857)"/>
<defs>
<linearGradient id="paint0_linear_905_857" x1="-25.3785" y1="-15.4627" x2="179.274" y2="46.2596" gradientUnits="userSpaceOnUse">
<stop stop-color="#A86344"/>
<stop offset="0.181906" stop-color="#F18347"/>
<stop offset="0.655" stop-color="#DE4A98"/>
<stop offset="1" stop-color="#AB6A95"/>
</linearGradient>
<linearGradient id="paint1_linear_905_857" x1="48" y1="71" x2="152.243" y2="273.186" gradientUnits="userSpaceOnUse">
<stop stop-color="#A86344"/>
<stop offset="0.181906" stop-color="#F18347"/>
<stop offset="0.655" stop-color="#DE4A98"/>
<stop offset="1" stop-color="#AB6A95"/>
</linearGradient>
</defs>
</svg>
