<svg width="1773" height="628" xmlns="http://www.w3.org/2000/svg" xml:space="preserve" version="1.1">
 <defs>
  <linearGradient y2="0.72599" x2="0.98025" y1="0.24515" x1="-0.00378" id="XMLID_3_">
   <stop stop-color="#DC2626" offset="0"/>
   <stop stop-color="#EC4899" offset="0.5484"/>
   <stop stop-color="#9333EA" offset="1"/>
  </linearGradient>
  <linearGradient y2="0.5" x2="1" y1="0.5" x1="0" id="XMLID_4_">
   <stop stop-color="#DC2626" offset="0"/>
   <stop stop-color="#EC4899" offset="0.5484"/>
   <stop stop-color="#9333EA" offset="1"/>
  </linearGradient>
 </defs>
 <g>
  <title>Layer 1</title>
  <path fill="url(#XMLID_3_)" d="m331.80001,564.7l0,-79l21.7,-25.4l36.1,-5.2l0,-29.2l-59.2,-11.1l0,-25.5l-6.6,-8.8l-2.3,0l-1.8,-7.4l7.2,-46.6l-3.7,-30.5l-6.2,-25.1l0.4,-58.5l2.6,-18.4l-4.5,-19.4l0,-7.4l13.1,-10l4.8,-45.8l-1,-12.5l-30.6,-33.3l-4.7,-13l8.4,-35.5l-8.4,-17.1l-38.5,8.9l4.5,4.4l1.3,36.2l3.3,6.1l-3.5,13.4l-23.4,14.5l-4.9,49l-20,-12.6l1,-1.6l11.7,4.2l-4.7,-12.5l5,-6.8l6.9,6.6l-2.4,-14.1l-15.3,-21l-9.8,2.7l-9.1,-4.3l-5,1.2l-3.4,5.7l-4.5,3.5l5,-0.1l3.4,14.3l3.1,9.6l-1.9,11.5l-3.4,5.1l-1.4,0.3l-4.3,9.1l28,2.2l37.7,25.9l-9.3,74.9l0.3,63.5l-7.9,70.4l-14.4,10.3l-13,0l-6.6,8.8l0,25.5l-59.2,11.1l0,29.2l36.1,5.2l21.7,25.4l0,79.3l-128.9,-84.6l0,1.2l-56.4,-193l23.2,215.2l227.1,123.7l0,0.6l0.6,-0.3l0.6,0.3l0,-0.6l227.1,-123.7l23.6,-218.6l-56.9,195.2l-128.4,84.3zm-119.1,-444.8l-12.5,2.4l-1,-1.7l7.2,-9.5l7.2,6.4l-0.9,2.4zm89.3,196.1l3.1,28.7l-4.4,34.7l0,1.1l-7,0l-4.6,-105.8l12.9,41.3zm-51.2,57l17.5,-53.8l5.3,-45.3l7.6,106.5l-15.3,0l-15.4,0l0.3,-7.4zm242,-194.4l-141,-90.5l179.8,62.4l-71.1,290.8l32.3,-262.7zm-420.6,262.7l-71.9,-287.8l-0.3,-3l180,-62.5l-141.3,90.6l33.5,262.7z" class="st0" id="XMLID_8_"/>
  <path fill="url(#XMLID_4_)" d="m748.20001,179.9l0,119.1l-33,0l-45.2,-54.1l0,54.1l-39.1,0l0,-119.1l33,0l45.2,54.1l0,-54.1l39.1,0zm98.2,56.3l34.8,0l0,50.3c-14.5,9.9 -34.4,15.1 -51.9,15.1c-38.4,0 -66.5,-25.7 -66.5,-62.2c0,-36.6 28.1,-62.2 67.3,-62.2c23.5,0 42.3,8.2 54.4,23l-25.7,22.6c-7.5,-8.7 -16.2,-13.1 -26.7,-13.1c-17.7,0 -28.9,11.4 -28.9,29.8c0,17.9 11.2,29.8 28.4,29.8c4.9,0 9.7,-0.9 14.6,-2.9l0,-30.2l0.2,0zm220.4,30c0,20.7 -17.5,32.8 -50.3,32.8l-67,0l0,-119.1l63.6,0c32.8,0 48.1,13.1 48.1,31.1c0,11.1 -5.6,20.2 -16.5,25.7c13.9,5.2 22.1,15.4 22.1,29.5zm-77.9,-58.2l0,17.7l18.7,0c9,0 13.1,-3.1 13.1,-8.8c0,-5.8 -4.1,-8.8 -13.1,-8.8l-18.7,-0.1l0,0zm37.4,53.6c0,-6.1 -4.4,-9.4 -13.3,-9.4l-24.2,0l0,18.7l24.2,0c8.9,0 13.3,-3.2 13.3,-9.3zm151.9,-0.2l-64.6,0c2.7,7.1 9.2,10.9 18.7,10.9c8.5,0 13.3,-2.2 19.4,-6.8l20.1,20.2c-9,9.9 -22.1,15 -40.6,15c-34.2,0 -56.3,-20.6 -56.3,-48.3c0,-28.2 22.6,-48.1 52.7,-48.1c27.6,0 51.2,16.7 51.2,48.1c-0.1,2.7 -0.4,6.3 -0.6,9zm-65.3,-18.5l29.9,0c-1.5,-7.8 -7.1,-12.4 -15,-12.4s-13.4,4.6 -14.9,12.4zm77.9,-70.1l38.4,0l0,126.2l-38.4,0l0,-126.2zm159.3,33.2l0,74.5c0,36.1 -21.1,53.2 -56.6,53.2c-18.4,0 -35,-3.9 -46.6,-11.6l12.9,-26.2c7.3,5.6 19.7,9.2 29.8,9.2c15.8,0 22.1,-7 22.1,-19.4l0,-1.7c-5.8,6.6 -14.3,9.9 -25.7,9.9c-23.6,0 -44.7,-17.3 -44.7,-44.9s21.1,-44.7 44.7,-44.7c12.8,0 21.8,3.9 27.6,12.2l0,-10.5l36.5,0zm-38.1,43c0,-9 -6.8,-14.8 -15.8,-14.8s-16,5.8 -16,14.8s7,15 16,15s15.8,-6 15.8,-15zm121.8,-44.7l0,34c-3.4,-0.5 -5.8,-0.7 -8.5,-0.7c-11.6,0 -19.7,5.3 -19.7,20.1l0,41.3l-38.4,0l0,-93l36.6,0l0,10c6.7,-7.8 17.1,-11.7 30,-11.7zm102.1,44.7l0,50l-35.7,0l0,-12.2c-4.4,9.4 -13.3,13.9 -26.4,13.9c-22.8,0 -34.5,-12.9 -34.5,-28.9c0,-18 13.6,-28.1 42.5,-28.1l15.5,0c-1.2,-7.1 -6.6,-10.9 -17.5,-10.9c-8.3,0 -17.7,2.7 -23.8,7.3l-12.2,-25.3c10.9,-6.8 27.4,-10.5 41.8,-10.5c31.9,0 50.3,13.7 50.3,44.7zm-38.5,19.7l0,-6.5l-9.5,0c-8.2,0 -11.7,2.7 -11.7,7.8c0,4.3 3.4,7.5 9.2,7.5c5.2,0.1 10,-2.7 12,-8.8zm159.7,-95.9l0,126.2l-36.6,0l0,-7.7c-5.6,6.3 -13.9,9.4 -25.5,9.4c-24.3,0 -44.9,-18.4 -44.9,-48.3c0,-29.9 20.6,-48.1 44.9,-48.1c10.2,0 18,2.6 23.6,8l0,-39.5l38.5,0l0,0zm-37.7,79.6c0,-12.1 -6.6,-18.2 -15.1,-18.2s-15.1,6.1 -15.1,18.2c0,12.1 6.6,18.4 15.1,18.4s15.1,-6.3 15.1,-18.4zm153.2,9l-64.6,0c2.7,7.1 9.2,10.9 18.7,10.9c8.5,0 13.3,-2.2 19.4,-6.8l20.1,20.2c-9,9.9 -22.1,15 -40.6,15c-34.2,0 -56.3,-20.6 -56.3,-48.3c0,-28.2 22.6,-48.1 52.7,-48.1c27.6,0 51.2,16.7 51.2,48.1c-0.1,2.7 -0.4,6.3 -0.6,9zm-65.3,-18.5l29.9,0c-1.5,-7.8 -7.1,-12.4 -15,-12.4s-13.4,4.6 -14.9,12.4z" class="st1" id="XMLID_2_"/>
  <g id="XMLID_16_">
   <path fill="#FEFEFE" d="m629.30001,413.4c0,-32 24.5,-54.7 57.8,-54.7c19.4,0 35,7.1 45.2,19.8l-18.9,17.1c-6.6,-8 -14.7,-12.3 -24.8,-12.3c-17.3,0 -29.3,12 -29.3,30s12,30 29.3,30c10.1,0 18.2,-4.4 24.8,-12.3l18.9,17.1c-10.2,12.8 -25.8,19.8 -45.2,19.8c-33.3,0.2 -57.8,-22.5 -57.8,-54.5z" class="st2" id="XMLID_328_"/>
   <path fill="#FEFEFE" d="m736.60001,425.1c0,-24.5 19.4,-41.9 46,-41.9c26.9,0 46,17.4 46,41.9c0,24.6 -19.1,42.2 -46,42.2c-26.6,0.1 -46,-17.5 -46,-42.2zm63.1,0c0,-12.3 -7.4,-19.2 -17.1,-19.2c-9.6,0 -17.1,6.9 -17.1,19.2c0,12.5 7.5,19.5 17.1,19.5c9.7,0.1 17.1,-7 17.1,-19.5z" class="st2" id="XMLID_330_"/>
   <path fill="#FEFEFE" d="m928.40001,419.4l0,46.6l-28.5,0l0,-41.9c0,-11.7 -5.1,-16.7 -13.4,-16.7c-9.2,0 -16.2,5.7 -16.2,19.2l0,39.4l-28.5,0l0,-81.4l27.2,0l0,8.9c6.5,-6.8 15.6,-10.2 25.8,-10.2c19.1,-0.1 33.6,10.9 33.6,36.1z" class="st2" id="XMLID_333_"/>
   <path fill="#FEFEFE" d="m977.40001,387.6l19.4,0l0,21.3l-18.6,0l0,57.1l-28.5,0l0,-57.1l-11.9,0l0,-21.3l11.9,0l0,-2.1c0,-19.5 12.2,-32.3 34,-32.3c6.9,0 14.3,1.4 18.9,4.2l-7.1,20.1c-2.4,-1.4 -5.6,-2.4 -8.6,-2.4c-6,0 -9.5,3.5 -9.5,10.7l0,1.8l0,0z" class="st2" id="XMLID_335_"/>
   <path fill="#FEFEFE" d="m1128.20001,442.4l0,23.6l-81.9,0l0,-18.6l39.4,-36.8c8.4,-7.8 9.6,-12.6 9.6,-17c0,-6.8 -4.5,-10.8 -13.5,-10.8c-7.7,0 -14.6,3.5 -18.8,10.2l-22.1,-12.3c8,-13.2 22.8,-21.9 43.6,-21.9c24.2,0 40.9,12.5 40.9,32c0,10.2 -2.9,19.5 -17.9,33.4l-19.8,18.3l40.5,-0.1l0,0z" class="st2" id="XMLID_337_"/>
   <path fill="#FEFEFE" d="m1136.80001,413.4c0,-34.7 19.5,-54.7 46.4,-54.7c26.7,0 46.3,20 46.3,54.7c0,34.7 -19.5,54.7 -46.3,54.7c-26.9,0 -46.4,-20 -46.4,-54.7zm62.8,0c0,-22.1 -6.9,-30.3 -16.4,-30.3c-9.6,0 -16.5,8.3 -16.5,30.3s6.9,30.3 16.5,30.3c9.5,0.1 16.4,-8.2 16.4,-30.3z" class="st2" id="XMLID_339_"/>
   <path fill="#FEFEFE" d="m1319.80001,442.4l0,23.6l-81.9,0l0,-18.6l39.4,-36.8c8.4,-7.8 9.6,-12.6 9.6,-17c0,-6.8 -4.5,-10.8 -13.5,-10.8c-7.7,0 -14.6,3.5 -18.8,10.2l-22.1,-12.3c8,-13.2 22.8,-21.9 43.6,-21.9c24.2,0 40.9,12.5 40.9,32c0,10.2 -2.9,19.5 -17.9,33.4l-19.8,18.3l40.5,-0.1l0,0z" class="st2" id="XMLID_342_"/>
   <path fill="#FEFEFE" d="m1426.90001,445.9l-15.6,0l0,20.1l-29,0l0,-20.1l-55.6,0l0,-19.4l47.2,-65.7l30.8,0l-42.8,61.4l21.3,0l0,-17.9l28.1,0l0,17.9l15.6,0l0,23.7z" class="st2" id="XMLID_344_"/>
  </g>
 </g>
</svg>