<svg width="209px" height="50px" id="header-logo" viewBox="0 0 209 50" version="1.1" xmlns="http://www.w3.org/2000/svg" xmlns:xlink="http://www.w3.org/1999/xlink"><title>94CA175D-A7D2-4D69-93F2-C06B2BE0129C</title><g id="Page-1" stroke="none" stroke-width="1" fill="none" fill-rule="evenodd"><g id="Webkraft-studio-home" transform="translate(-50.000000, -50.000000)" fill-rule="nonzero"><g id="Webkraft-Studio" transform="translate(50.000000, 50.000000)"><g id="Group" transform="translate(-0.000000, 0.000000)"><path d="M5.55256253,18.6758997 C7.09605464,19.1861543 7.8291418,20.2415527 7.8291418,22.6692598 L7.8291418,30.1079287 C7.8291418,31.9875845 8.75409162,33.0836869 10.681309,33.0836869 L11.491714,33.0836869 L11.491714,36.9985463 L9.56163295,36.9985463 C5.20463249,36.9985463 3.00680281,34.767091 3.00680281,30.6152758 L3.00680281,22.5515087 C3.00680281,21.2591545 2.35246525,20.6718529 1.27287986,20.6718529 L0,20.6718529 L0,16.6770391 L1.27287986,16.6770391 C2.35246525,16.6770391 3.00680281,16.0911913 3.00680281,14.798837 L3.00680281,6.73361622 C3.00680281,2.58325475 5.20463249,0.350345749 9.56163295,0.350345749 L11.491714,0.350345749 L11.491714,4.26520509 L10.681309,4.26520509 C8.75409162,4.26520509 7.8291418,5.36130756 7.8291418,7.24096338 L7.8291418,14.6796322 C7.82770999,17.1102467 7.09605464,18.1656451 5.55256253,18.6758997 Z" id="Path" fill="#0099CC"></path><polygon id="Path" fill="#0099CC" points="47.6921881 8.18297187 40.2496352 29.4043297 33.1535806 29.4043297 29.2218279 17.8545497 25.1340079 29.4043297 18.0393851 29.4043297 10.598264 8.18297187 17.5396831 8.18297187 21.8179339 21.0251061 26.253684 8.18297187 32.5006748 8.18297187 36.8190164 21.1414034 41.2547664 8.18297187"></polygon><path d="M69.1564647,20.6733066 L53.9635197,20.6733066 C54.5806301,22.8248075 56.3918709,24.0793651 59.0922662,24.0793651 C61.1354603,24.0793651 62.4856579,23.4920635 63.9117415,22.2375059 L67.7676082,26.3108204 C65.763073,28.581526 62.8321561,29.7561292 58.8603128,29.7561292 C51.4177599,29.7561292 46.5982846,25.0969668 46.5982846,18.7544004 C46.5982846,12.3725837 51.4950777,7.8311724 58.0885668,7.8311724 C64.2582398,7.8311724 69.2724414,11.8245325 69.2724414,18.8329011 C69.2724414,19.3809524 69.1951236,20.086005 69.1564647,20.6733066 Z M53.847543,16.7584473 L62.4083401,16.7584473 C62.023183,14.526992 60.4038049,13.1168867 58.1300893,13.1168867 C55.8520782,13.1168867 54.2727908,14.526992 53.847543,16.7584473 Z" id="Shape" fill="#0099CC"></path><path d="M94.6341072,18.7544004 C94.6341072,25.5287207 90.0451534,29.7561292 84.3766142,29.7561292 C81.6389918,29.7561292 79.5943659,28.9725758 78.2069412,27.2891718 L78.2069412,29.4043297 L71.2268632,29.4043297 L71.2268632,0.353253182 L78.5534394,0.353253182 L78.5534394,10.0233773 C79.979523,8.53622505 81.9468312,7.8311724 84.3751824,7.8311724 C90.0451534,7.8311724 94.6341072,12.0207842 94.6341072,18.7544004 Z M87.2302133,18.7544004 C87.2302133,15.5445937 85.301564,13.7434386 82.8359857,13.7434386 C80.366112,13.7434386 78.4403264,15.5445937 78.4403264,18.7544004 C78.4403264,22.0034575 80.3675438,23.8453167 82.8359857,23.8453167 C85.3029958,23.8453167 87.2302133,22.0034575 87.2302133,18.7544004 Z" id="Shape" fill="#0099CC"></path><path d="M95.7795559,26.4285714 C95.7795559,24.4689612 97.2070714,23.1780607 98.9409943,23.1780607 C100.677781,23.1780607 102.103865,24.4704149 102.103865,26.4285714 C102.103865,28.3082273 100.677781,29.6761748 98.9409943,29.6761748 C97.2070714,29.6761748 95.7795559,28.3082273 95.7795559,26.4285714 Z" id="Path" fill="#0099CC"></path><polygon id="Path" fill="#72BF44" points="114.290007 21.9656609 112.129404 24.1971161 112.129404 29.4043297 104.80426 29.4043297 104.80426 0.353253182 112.129404 0.353253182 112.129404 15.5838441 119.612048 8.18442559 128.28739 8.18442559 119.612048 17.2672482 129.019045 29.4057834 120.15184 29.4057834"></polygon><path d="M144.453966,7.8311724 L144.453966,14.5255383 C143.798197,14.4455838 143.337154,14.4077872 142.797361,14.4077872 C139.827785,14.4077872 137.783159,15.9341898 137.783159,19.6527974 L137.783159,29.402876 L130.456583,29.402876 L130.456583,8.18151815 L137.436661,8.18151815 L137.436661,10.7255226 C138.941494,8.81097753 141.369846,7.8311724 144.453966,7.8311724 Z" id="Path" fill="#72BF44"></path><path d="M165.461495,17.6190476 L165.461495,29.4043297 L158.636053,29.4043297 L158.636053,26.6626198 C157.593695,28.6978234 155.511842,29.7561292 152.464948,29.7561292 C147.452178,29.7561292 144.675897,26.8966682 144.675897,23.217311 C144.675897,19.3024517 147.492269,16.8747446 153.968349,16.8747446 L158.133487,16.8747446 C158.017511,14.7232438 156.591427,13.5093902 153.699169,13.5093902 C151.694634,13.5093902 149.456713,14.2129892 148.03063,15.3497957 L145.560756,10.2995835 C147.95188,8.69322647 151.499908,7.8326256 154.778754,7.8326256 C161.56697,7.8311724 165.461495,10.8854314 165.461495,17.6190476 Z M158.134919,22.5907591 L158.134919,20.7488999 L154.973481,20.7488999 C152.621015,20.7488999 151.771952,21.6124077 151.771952,22.9033082 C151.771952,24.1549584 152.775651,25.0548171 154.511006,25.0548171 C156.130384,25.0577165 157.557899,24.2756168 158.134919,22.5907591 Z" id="Shape" fill="#72BF44"></path><path d="M176.632484,8.96652522 L181.920161,8.96652522 L181.920161,14.5255383 L176.824346,14.5255383 L176.824346,29.402876 L169.49777,29.402876 L169.49777,14.5255383 L166.452308,14.5255383 L166.452308,8.96652522 L169.49777,8.96652522 L169.49777,8.41847399 C169.49777,3.32755776 172.621981,0 178.213203,0 C179.987216,0 181.877207,0.351799466 183.072769,1.09610247 L181.260096,6.3425664 C180.641554,5.99076693 179.834013,5.71456074 179.062267,5.71456074 C177.518775,5.71456074 176.632484,6.61586516 176.632484,8.49552098 L176.632484,8.96652522 L176.632484,8.96652522 Z" id="Path" fill="#72BF44"></path><path d="M197.787489,28.5422757 C196.514609,29.3636256 194.626051,29.7561292 192.697402,29.7561292 C187.338133,29.7561292 184.213922,27.09292 184.213922,21.651658 L184.213922,14.526992 L181.167029,14.526992 L181.167029,8.96797894 L184.213922,8.96797894 L184.213922,3.44676253 L191.540498,3.44676253 L191.540498,8.96797894 L196.321315,8.96797894 L196.321315,14.526992 L191.540498,14.526992 L191.540498,21.574611 C191.540498,23.140264 192.426789,24.0023181 193.738328,24.0023181 C194.547301,24.0023181 195.357706,23.766816 195.974817,23.3365158 L197.787489,28.5422757 Z" id="Path" fill="#72BF44"></path><path d="M209,16.6784928 L209,20.6733066 L207.689893,20.6733066 C206.647535,20.6733066 205.991765,21.2606082 205.991765,22.5529624 L205.991765,30.6167295 C205.991765,34.767091 203.755277,37 199.398276,37 L197.471059,37 L197.471059,33.0851407 L198.2786,33.0851407 C200.245908,33.0851407 201.17229,31.9890382 201.17229,30.1093824 L201.17229,22.6707135 C201.17229,20.2430064 201.865286,19.187608 203.408779,18.6773534 C201.866718,18.1670989 201.17229,17.1117005 201.17229,14.6839934 L201.17229,7.24532453 C201.17229,5.36566871 200.24734,4.26956624 198.2786,4.26956624 L197.471059,4.26956624 L197.471059,0.354706899 L199.398276,0.354706899 C203.755277,0.354706899 205.991765,2.58616219 205.991765,6.73797737 L205.991765,14.8031982 C205.991765,16.0955524 206.647535,16.6814003 207.689893,16.6814003 L209,16.6814003 L209,16.6784928 Z" id="Path" fill="#0099CC"></path></g><g id="Group" transform="translate(58.000000, 33.000000)" fill="#0099CC"><path d="M0,15.5199465 L0.732598314,14.2460483 C1.69368733,14.9981601 3.31739938,15.5896128 5.00680251,15.5896128 C7.29456567,15.5896128 8.23137755,14.8147529 8.23137755,13.6318475 C8.23137755,10.5139249 0.435560401,12.9721502 0.435560401,8.2391068 C0.435560401,6.28134147 2.12781966,4.82545789 5.19102314,4.82545789 C6.74475992,4.82545789 8.43559111,5.25767333 9.44237827,5.94011876 L8.73405709,7.23676507 C7.68299986,6.50882328 6.42487293,6.21309693 5.19245121,6.21309693 C3.02036147,6.21309693 2.06070052,7.05477963 2.06070052,8.19361044 C2.06070052,11.4238521 9.8550896,8.98979677 9.8550896,13.5877729 C9.8550896,15.6578573 8.02716398,17 4.89398523,17 C2.90468805,17 0.985366153,16.3630509 0,15.5199465 Z" id="Path"></path><path d="M23.7444682,16.1583173 C23.1046942,16.7270218 22.1436052,17 21.2067933,17 C18.9447353,17 17.6866084,15.7261019 17.6866084,13.5181065 L17.6866084,6.28134147 L15.5387958,6.28134147 L15.5387958,4.91502885 L17.6866084,4.91502885 L17.6866084,2.29898804 L19.3103205,2.29898804 L19.3103205,4.91502885 L22.9675998,4.91502885 L22.9675998,6.28134147 L19.3103205,6.28134147 L19.3103205,13.4256921 C19.3103205,14.837501 20.0414907,15.6109392 21.3910139,15.6109392 C22.053637,15.6109392 22.71626,15.4047838 23.1732414,14.9967383 L23.7444682,16.1583173 Z" id="Path"></path><path d="M42.0951277,4.91502885 L42.0951277,16.8862591 L40.5399628,16.8862591 L40.5399628,14.701012 C39.6931192,16.1583173 38.1393824,17 36.2200605,17 C33.155429,17 31.1447108,15.2924647 31.1447108,11.8574893 L31.1447108,4.91502885 L32.7684228,4.91502885 L32.7684228,11.6982521 C32.7684228,14.2460483 34.0936689,15.5441164 36.380004,15.5441164 C38.8934017,15.5441164 40.4714156,13.9275738 40.4714156,11.1963703 L40.4714156,4.91502885 L42.0951277,4.91502885 L42.0951277,4.91502885 Z" id="Path"></path><path d="M62.1780323,0 L62.1780323,16.8862591 L60.6242956,16.8862591 L60.6242956,14.5204483 C59.6417855,16.1355691 57.9738034,17 55.9845062,17 C52.5557176,17 49.9951937,14.5204483 49.9951937,10.9020657 C49.9951937,7.28226144 52.5557176,4.82545789 55.9845062,4.82545789 C57.9052562,4.82545789 59.5503893,5.64439241 60.5557484,7.19269047 L60.5557484,0 L62.1780323,0 L62.1780323,0 Z M60.5785974,10.9020657 C60.5785974,8.10119595 58.6564194,6.23584511 56.1201726,6.23584511 C53.5610767,6.23584511 51.6388987,8.10119595 51.6388987,10.9020657 C51.6388987,13.7015138 53.5610767,15.5668646 56.1201726,15.5668646 C58.6578475,15.5668646 60.5785974,13.7015138 60.5785974,10.9020657 Z" id="Shape"></path><path d="M70.902093,1.13883081 C70.902093,0.523208163 71.4276216,0 72.0902446,0 C72.7542957,0 73.2783963,0.501881743 73.2783963,1.11608263 C73.2783963,1.77435812 72.7757167,2.29898804 72.0902446,2.29898804 C71.4276216,2.29898804 70.902093,1.77435812 70.902093,1.13883081 Z M71.2676781,4.91502885 L72.8913901,4.91502885 L72.8913901,16.8862591 L71.2676781,16.8862591 L71.2676781,4.91502885 Z" id="Shape"></path><path d="M80.7728913,10.9020657 C80.7728913,7.35050598 83.3776853,4.82545789 86.8978702,4.82545789 C90.4180551,4.82545789 93,7.35050598 93,10.9020657 C93,14.450782 90.416627,17 86.8978702,17 C83.3791134,17 80.7728913,14.450782 80.7728913,10.9020657 Z M91.3548669,10.9020657 C91.3548669,8.10119595 89.4583941,6.23584511 86.8978702,6.23584511 C84.3373463,6.23584511 82.4180244,8.10119595 82.4180244,10.9020657 C82.4180244,13.7015138 84.3373463,15.5668646 86.8978702,15.5668646 C89.4583941,15.5668646 91.3548669,13.7015138 91.3548669,10.9020657 Z" id="Shape"></path></g></g></g></g></svg>
