<svg width="808" height="916" xmlns="http://www.w3.org/2000/svg" xml:space="preserve" version="1.1">
 <defs>
  <linearGradient y2="0.50004" x2="0.99987" y1="0.50004" x1="-0.00012" id="SVGID_1_">
   <stop stop-opacity="0.56" stop-color="#320A00" offset="0"/>
   <stop stop-opacity="0.6" stop-color="#F00000" offset="1"/>
  </linearGradient>
  <linearGradient y2="0.50004" x2="0.99987" y1="0.50004" x1="-0.00012" id="SVGID_2_">
   <stop stop-opacity="0.56" stop-color="#320A00" offset="0"/>
   <stop stop-opacity="0.6" stop-color="#F00000" offset="1"/>
  </linearGradient>
 </defs>
 <g>
  <title>Layer 1</title>
  <g id="svg_1">
   <g id="svg_2">
    <g id="svg_3">
     <polygon id="svg_4" fill="#FF3C00" points="230.6999969482422,96.89999771118164 128.10000610351562,96.89999771118164 213.09999084472656,66.60000228881836 " class="st0"/>
     <polygon id="svg_5" fill="#FF4600" points="257.1999969482422,50.89999771118164 230.6999969482422,96.89999771118164 213.09999084472656,66.60000228881836 " class="st1"/>
     <polygon id="svg_6" fill="#FF7800" points="342.59999084472656,96.89999771118164 230.6999969482422,96.89999771118164 257.1999969482422,50.89999771118164 306.00001525878906,33.500003814697266 " class="st2"/>
     <polygon id="svg_7" fill="#FF5000" points="398.1999969482422,0.6000022888183594 342.59999084472656,96.89999771118164 306.00001525878906,33.500003814697266 317.6999969482422,29.299999237060547 " class="st3"/>
     <polygon id="svg_8" fill="#FF7800" points="454.59999084472656,96.89999771118164 342.59999084472656,96.89999771118164 398.1999969482422,0.6000022888183594 398.1999969482422,0.6000022888183594 398.1999969482422,0.6000022888183594 398.59999084472656,0 399.00001525878906,0.6000022888183594 " class="st2"/>
     <polygon id="svg_9" fill="#FF8200" points="491.8999786376953,32.29999923706055 454.59999084472656,96.89999771118164 399.00001525878906,0.6000022888183594 404.00001525878906,2.299999237060547 " class="st4"/>
     <polygon id="svg_10" fill="#FFA000" points="566.5999908447266,96.89999771118164 454.59999084472656,96.89999771118164 491.8999786376953,32.29999923706055 538.3999786376953,48.10000228881836 " class="st5"/>
     <polygon id="svg_11" fill="#FF9600" points="585.5000152587891,64.10000228881836 566.5999908447266,96.89999771118164 538.3999786376953,48.10000228881836 561.8000030517578,56.10000228881836 " class="st6"/>
     <polygon id="svg_12" fill="#FFA000" points="678.5000152587891,96.89999771118164 566.5999908447266,96.89999771118164 585.5000152587891,64.10000228881836 617.3999786376953,75.00000381469727 677.8000030517578,95.70000076293945 " class="st5"/>
     <polygon id="svg_13" fill="#FFAA00" points="679.0000152587891,96.09999465942383 678.5000152587891,96.89999771118164 677.8000030517578,95.70000076293945 " class="st7"/>
     <polygon id="svg_14" fill="#FFB400" points="681.5000152587891,96.89999771118164 678.5000152587891,96.89999771118164 679.0000152587891,96.09999465942383 " class="st8"/>
     <polygon id="svg_15" fill="#F00000" points="116.30000305175781,101.09999465942383 62.69999694824219,193.89999771118164 27.400001525878906,132.80000686645508 " class="st9"/>
     <polygon id="svg_16" fill="#FF0000" points="62.69999694824219,193.89999771118164 17.5,193.89999771118164 11.900001525878906,145.30000686645508 11.100006103515625,138.59999465942383 11.100006103515625,138.59999465942383 27.400001525878906,132.80000686645508 " class="st10"/>
     <polygon id="svg_17" fill="#FF3C00" points="174.6999969482422,193.89999771118164 62.69999694824219,193.89999771118164 116.30000305175781,101.09999465942383 116.30000305175781,101.09999465942383 120.30000305175781,99.70000076293945 " class="st0"/>
     <polygon id="svg_18" fill="#F00000" points="230.6999969482422,96.89999771118164 174.6999969482422,193.89999771118164 120.30000305175781,99.70000076293945 128.10000610351562,96.89999771118164 " class="st9"/>
     <polygon id="svg_19" fill="#FF3200" points="230.6999969482422,96.89999771118164 174.6999969482422,193.89999771118164 286.6999969482422,193.89999771118164 " class="st11"/>
     <polygon id="svg_20" fill="#FF6400" points="286.6999969482422,193.89999771118164 230.6999969482422,96.89999771118164 342.59999084472656,96.89999771118164 " class="st12"/>
     <polygon id="svg_21" fill="#FF6400" points="342.59999084472656,96.89999771118164 286.6999969482422,193.89999771118164 398.59999084472656,193.89999771118164 " class="st12"/>
     <polygon id="svg_22" fill="#FF7800" points="398.59999084472656,193.89999771118164 342.59999084472656,96.89999771118164 454.59999084472656,96.89999771118164 " class="st2"/>
     <polygon id="svg_23" fill="#FF8200" points="454.59999084472656,96.89999771118164 398.59999084472656,193.89999771118164 510.59999084472656,193.89999771118164 " class="st4"/>
     <polygon id="svg_24" fill="#FF8C00" points="510.59999084472656,193.89999771118164 454.59999084472656,96.89999771118164 566.5999908447266,96.89999771118164 " class="st13"/>
     <polygon id="svg_25" fill="#FF9600" points="566.5999908447266,96.89999771118164 510.59999084472656,193.89999771118164 622.5000152587891,193.89999771118164 " class="st6"/>
     <polygon id="svg_26" fill="#FFA000" points="622.5000152587891,193.89999771118164 566.5999908447266,96.89999771118164 678.5000152587891,96.89999771118164 " class="st5"/>
     <polygon id="svg_27" fill="#FFAA00" points="678.5000152587891,96.89999771118164 622.5000152587891,193.89999771118164 734.5000152587891,193.89999771118164 " class="st7"/>
     <polygon id="svg_28" fill="#FFB400" points="772.5999908447266,128.00000381469727 734.5000152587891,193.89999771118164 678.5000152587891,96.89999771118164 681.5000152587891,96.89999771118164 755.8000030517578,122.30000686645508 767.7000274658203,126.30000686645508 " class="st8"/>
     <polygon id="svg_29" fill="#FFBE00" points="796.5999908447266,136.20000076293945 795.5000152587891,144.70000076293945 792.3999786376953,169.20000076293945 789.3000030517578,193.89999771118164 734.5000152587891,193.89999771118164 772.5999908447266,128.00000381469727 " class="st14"/>
     <polygon id="svg_30" fill="#FF0000" points="118.69999694824219,290.9000129699707 28.70000457763672,290.9000129699707 25,259.20000076293945 62.69999694824219,193.89999771118164 " class="st10"/>
     <polygon id="svg_31" fill="#DC0000" points="62.69999694824219,193.89999771118164 25,259.20000076293945 17.5,193.89999771118164 " class="st15"/>
     <polygon id="svg_32" fill="#F03200" points="118.69999694824219,290.9000129699707 62.69999694824219,193.89999771118164 174.6999969482422,193.89999771118164 " class="st16"/>
     <polygon id="svg_33" fill="#FF3C00" points="174.6999969482422,193.89999771118164 118.69999694824219,290.9000129699707 230.6999969482422,290.9000129699707 " class="st0"/>
     <polygon id="svg_34" fill="#FF6400" points="230.6999969482422,290.9000129699707 174.6999969482422,193.89999771118164 286.6999969482422,193.89999771118164 " class="st12"/>
     <polygon id="svg_35" fill="#FF6400" points="286.6999969482422,193.89999771118164 230.6999969482422,290.9000129699707 342.59999084472656,290.9000129699707 " class="st12"/>
     <polygon id="svg_36" fill="#FF8200" points="342.59999084472656,290.9000129699707 286.6999969482422,193.89999771118164 398.59999084472656,193.89999771118164 " class="st4"/>
     <polygon id="svg_37" fill="#FF7800" points="398.59999084472656,193.89999771118164 342.59999084472656,290.9000129699707 454.59999084472656,290.9000129699707 " class="st2"/>
     <polygon id="svg_38" fill="#FF9600" points="454.59999084472656,290.9000129699707 398.59999084472656,193.89999771118164 510.59999084472656,193.89999771118164 " class="st6"/>
     <polygon id="svg_39" fill="#FF8C00" points="510.59999084472656,193.89999771118164 454.59999084472656,290.9000129699707 566.5999908447266,290.9000129699707 " class="st13"/>
     <polygon id="svg_40" fill="#FF9600" points="566.5999908447266,290.9000129699707 510.59999084472656,193.89999771118164 622.5000152587891,193.89999771118164 " class="st6"/>
     <polygon id="svg_41" fill="#FFA000" points="622.5000152587891,193.89999771118164 566.5999908447266,290.9000129699707 678.5000152587891,290.9000129699707 " class="st5"/>
     <polygon id="svg_42" fill="#FFBE00" points="678.5000152587891,290.9000129699707 622.5000152587891,193.89999771118164 734.5000152587891,193.89999771118164 " class="st14"/>
     <polygon id="svg_43" fill="#FFB400" points="779.5000152587891,271.9000129699707 777.5000152587891,288.3000068664551 777.2000274658203,290.9000129699707 678.5000152587891,290.9000129699707 734.5000152587891,193.89999771118164 " class="st8"/>
     <polygon id="svg_44" fill="#FFBE00" points="789.3000030517578,193.89999771118164 787.8999786376953,205.59999465942383 783.8000030517578,237.9000129699707 779.5000152587891,271.9000129699707 734.5000152587891,193.89999771118164 " class="st14"/>
     <polygon id="svg_45" fill="#F00000" points="118.69999694824219,290.9000129699707 62.69999694824219,387.8000068664551 34.19999694824219,338.4000129699707 29.300003051757812,296.5999946594238 28.70000457763672,290.9000129699707 " class="st9"/>
     <polygon id="svg_46" fill="#F00000" points="62.69999694824219,387.8000068664551 39.90000915527344,387.8000068664551 34.19999694824219,338.4000129699707 " class="st9"/>
     <polygon id="svg_47" fill="#E62800" points="118.69999694824219,290.9000129699707 62.69999694824219,387.8000068664551 174.6999969482422,387.8000068664551 " class="st17"/>
     <polygon id="svg_48" fill="#FF5000" points="174.6999969482422,387.8000068664551 118.69999694824219,290.9000129699707 230.6999969482422,290.9000129699707 " class="st3"/>
     <polygon id="svg_49" fill="#FF3200" points="230.6999969482422,290.9000129699707 174.6999969482422,387.8000068664551 286.6999969482422,387.8000068664551 " class="st11"/>
     <polygon id="svg_50" fill="#FF6400" points="286.6999969482422,387.8000068664551 230.6999969482422,290.9000129699707 342.59999084472656,290.9000129699707 " class="st12"/>
     <polygon id="svg_51" fill="#FF6400" points="342.59999084472656,290.9000129699707 286.6999969482422,387.8000068664551 398.59999084472656,387.8000068664551 " class="st12"/>
     <polygon id="svg_52" fill="#FF7800" points="398.59999084472656,387.8000068664551 342.59999084472656,290.9000129699707 454.59999084472656,290.9000129699707 " class="st2"/>
     <polygon id="svg_53" fill="#FF8C00" points="454.59999084472656,290.9000129699707 398.59999084472656,387.8000068664551 510.59999084472656,387.8000068664551 " class="st13"/>
     <polygon id="svg_54" fill="#FF8C00" points="510.59999084472656,387.8000068664551 454.59999084472656,290.9000129699707 566.5999908447266,290.9000129699707 " class="st13"/>
     <polygon id="svg_55" fill="#FFA000" points="566.5999908447266,290.9000129699707 510.59999084472656,387.8000068664551 622.5000152587891,387.8000068664551 " class="st5"/>
     <polygon id="svg_56" fill="#FFA000" points="622.5000152587891,387.8000068664551 566.5999908447266,290.9000129699707 678.5000152587891,290.9000129699707 " class="st5"/>
     <polygon id="svg_57" fill="#FFAA00" points="678.5000152587891,290.9000129699707 622.5000152587891,387.8000068664551 734.5000152587891,387.8000068664551 " class="st7"/>
     <polygon id="svg_58" fill="#FFB400" points="777.2000274658203,290.9000129699707 775.0000152587891,307.9999885559082 773.3999786376953,320.4000129699707 773.3999786376953,320.4000129699707 734.5000152587891,387.8000068664551 678.5000152587891,290.9000129699707 " class="st8"/>
     <polygon id="svg_59" fill="#FFBE00" points="773.3999786376953,320.4000129699707 771.5999908447266,335.0999946594238 767.0999908447266,370.5999946594238 765.0000152587891,387.8000068664551 734.5000152587891,387.8000068664551 " class="st14"/>
     <polygon id="svg_60" fill="#FF0000" points="118.69999694824219,484.79997634887695 51.100006103515625,484.79997634887695 43.69999694824219,420.8000068664551 43.69999694824219,420.8000068664551 62.69999694824219,387.8000068664551 " class="st10"/>
     <polygon id="svg_61" fill="#DC0000" points="62.69999694824219,387.8000068664551 43.69999694824219,420.8000068664551 39.90000915527344,387.8000068664551 " class="st15"/>
     <polygon id="svg_62" fill="#F03200" points="118.69999694824219,484.79997634887695 62.69999694824219,387.8000068664551 174.6999969482422,387.8000068664551 " class="st16"/>
     <polygon id="svg_63" fill="#FF6400" points="174.6999969482422,387.8000068664551 118.69999694824219,484.79997634887695 230.6999969482422,484.79997634887695 " class="st12"/>
     <polygon id="svg_64" fill="#FF4600" points="230.6999969482422,484.79997634887695 174.6999969482422,387.8000068664551 286.6999969482422,387.8000068664551 " class="st1"/>
     <polygon id="svg_65" fill="#FF6400" points="286.6999969482422,387.8000068664551 230.6999969482422,484.79997634887695 342.59999084472656,484.79997634887695 " class="st12"/>
     <polygon id="svg_66" fill="#FF5000" points="342.59999084472656,484.79997634887695 286.6999969482422,387.8000068664551 398.59999084472656,387.8000068664551 " class="st3"/>
     <polygon id="svg_67" fill="#FF7800" points="398.59999084472656,387.8000068664551 342.59999084472656,484.79997634887695 454.59999084472656,484.79997634887695 " class="st2"/>
     <polygon id="svg_68" fill="#FF8200" points="454.59999084472656,484.79997634887695 398.59999084472656,387.8000068664551 510.59999084472656,387.8000068664551 " class="st4"/>
     <polygon id="svg_69" fill="#FF8C00" points="510.59999084472656,387.8000068664551 454.59999084472656,484.79997634887695 566.5999908447266,484.79997634887695 " class="st13"/>
     <polygon id="svg_70" fill="#FF9600" points="566.5999908447266,484.79997634887695 510.59999084472656,387.8000068664551 622.5000152587891,387.8000068664551 " class="st6"/>
     <polygon id="svg_71" fill="#FFB400" points="622.5000152587891,387.8000068664551 566.5999908447266,484.79997634887695 678.5000152587891,484.79997634887695 " class="st8"/>
     <polygon id="svg_72" fill="#FFAA00" points="678.5000152587891,484.79997634887695 622.5000152587891,387.8000068664551 734.5000152587891,387.8000068664551 " class="st7"/>
     <polygon id="svg_73" fill="#FFB400" points="759.5000152587891,431.0999946594238 759.5000152587891,431.0999946594238 752.8000030517578,484.79997634887695 678.5000152587891,484.79997634887695 734.5000152587891,387.8000068664551 " class="st8"/>
     <polygon id="svg_74" fill="#FFC800" points="765.0000152587891,387.8000068664551 759.5000152587891,431.0999946594238 734.5000152587891,387.8000068664551 " class="st18"/>
     <polygon id="svg_75" fill="#F00000" points="118.69999694824219,484.79997634887695 62.69999694824219,581.7000007629395 62.19999694824219,580.799976348877 62.19999694824219,580.799976348877 61,571.299976348877 51.100006103515625,484.79997634887695 " class="st9"/>
     <polygon id="svg_76" fill="#D20000" points="62.69999694824219,581.7000007629395 62.30000305175781,581.7000007629395 62.19999694824219,580.799976348877 " class="st19"/>
     <polygon id="svg_77" fill="#FF3C00" points="118.69999694824219,484.79997634887695 62.69999694824219,581.7000007629395 174.6999969482422,581.7000007629395 " class="st0"/>
     <polygon id="svg_78" fill="#FF5000" points="174.6999969482422,581.7000007629395 118.69999694824219,484.79997634887695 230.6999969482422,484.79997634887695 " class="st3"/>
     <polygon id="svg_79" fill="#FF6400" points="230.6999969482422,484.79997634887695 174.6999969482422,581.7000007629395 286.6999969482422,581.7000007629395 " class="st12"/>
     <polygon id="svg_80" fill="#FF6400" points="286.6999969482422,581.7000007629395 230.6999969482422,484.79997634887695 342.59999084472656,484.79997634887695 " class="st12"/>
     <polygon id="svg_81" fill="#FF6400" points="342.59999084472656,484.79997634887695 286.6999969482422,581.7000007629395 398.59999084472656,581.7000007629395 " class="st12"/>
     <polygon id="svg_82" fill="#FF7800" points="398.59999084472656,581.7000007629395 342.59999084472656,484.79997634887695 454.59999084472656,484.79997634887695 " class="st2"/>
     <polygon id="svg_83" fill="#FF8C00" points="454.59999084472656,484.79997634887695 398.59999084472656,581.7000007629395 510.59999084472656,581.7000007629395 " class="st13"/>
     <polygon id="svg_84" fill="#FFA000" points="510.59999084472656,581.7000007629395 454.59999084472656,484.79997634887695 566.5999908447266,484.79997634887695 " class="st5"/>
     <polygon id="svg_85" fill="#FF9600" points="566.5999908447266,484.79997634887695 510.59999084472656,581.7000007629395 622.5000152587891,581.7000007629395 " class="st6"/>
     <polygon id="svg_86" fill="#FFA000" points="622.5000152587891,581.7000007629395 566.5999908447266,484.79997634887695 678.5000152587891,484.79997634887695 " class="st5"/>
     <polygon id="svg_87" fill="#FFAA00" points="678.5000152587891,484.79997634887695 622.5000152587891,581.7000007629395 734.5000152587891,581.7000007629395 " class="st7"/>
     <polygon id="svg_88" fill="#FFB400" points="752.8000030517578,484.79997634887695 742.3000030517578,568.299976348877 742.3000030517578,568.299976348877 734.5000152587891,581.7000007629395 678.5000152587891,484.79997634887695 " class="st8"/>
     <polygon id="svg_89" fill="#FFBE00" points="742.3000030517578,568.299976348877 740.5999908447266,581.7000007629395 734.5000152587891,581.7000007629395 " class="st14"/>
     <polygon id="svg_90" fill="#FF0000" points="118.40000915527344,678.2000007629395 70.30000305175781,651.600025177002 62.30000305175781,582.4000129699707 62.30000305175781,582.4000129699707 62.69999694824219,581.7000007629395 " class="st10"/>
     <polygon id="svg_91" fill="#DC0000" points="62.69999694824219,581.7000007629395 62.30000305175781,582.4000129699707 62.30000305175781,581.7000007629395 " class="st15"/>
     <polygon id="svg_92" fill="#FF4600" points="174.6999969482422,581.7000007629395 118.80000305175781,678.4999885559082 118.69999694824219,678.7000007629395 118.40000915527344,678.2000007629395 62.69999694824219,581.7000007629395 " class="st1"/>
     <polygon id="svg_93" fill="#FF6400" points="230.6999969482422,678.7000007629395 118.69999694824219,678.7000007629395 118.80000305175781,678.4999885559082 174.6999969482422,581.7000007629395 " class="st12"/>
     <polygon id="svg_94" fill="#FF4600" points="230.6999969482422,678.7000007629395 174.6999969482422,581.7000007629395 286.6999969482422,581.7000007629395 " class="st1"/>
     <polygon id="svg_95" fill="#FF6400" points="286.6999969482422,581.7000007629395 230.6999969482422,678.7000007629395 342.59999084472656,678.7000007629395 " class="st12"/>
     <polygon id="svg_96" fill="#FF7800" points="342.59999084472656,678.7000007629395 286.6999969482422,581.7000007629395 398.59999084472656,581.7000007629395 " class="st2"/>
     <polygon id="svg_97" fill="#FF9600" points="398.59999084472656,581.7000007629395 342.59999084472656,678.7000007629395 454.59999084472656,678.7000007629395 " class="st6"/>
     <polygon id="svg_98" fill="#FF8200" points="454.59999084472656,678.7000007629395 398.59999084472656,581.7000007629395 510.59999084472656,581.7000007629395 " class="st4"/>
     <polygon id="svg_99" fill="#FF8C00" points="510.59999084472656,581.7000007629395 454.59999084472656,678.7000007629395 566.5999908447266,678.7000007629395 " class="st13"/>
     <polygon id="svg_100" fill="#FF9600" points="566.5999908447266,678.7000007629395 510.59999084472656,581.7000007629395 622.5000152587891,581.7000007629395 " class="st6"/>
     <polygon id="svg_101" fill="#FFA000" points="622.5000152587891,581.7000007629395 566.5999908447266,678.7000007629395 678.5000152587891,678.7000007629395 " class="st5"/>
     <polygon id="svg_102" fill="#FFBE00" points="678.5000152587891,678.7000007629395 622.5000152587891,581.7000007629395 734.5000152587891,581.7000007629395 " class="st14"/>
     <polygon id="svg_103" fill="#FFB400" points="739.5000152587891,590.4000129699707 739.5000152587891,590.4000129699707 732.0999908447266,649.100025177002 714.8999786376953,658.7000007629395 678.5999908447266,678.7000007629395 678.5000152587891,678.7000007629395 734.5000152587891,581.7000007629395 " class="st8"/>
     <polygon id="svg_104" fill="#FFBE00" points="740.5999908447266,581.7000007629395 739.5000152587891,590.4000129699707 734.5000152587891,581.7000007629395 " class="st14"/>
     <polygon id="svg_105" fill="#FF5000" points="230.6999969482422,678.7000007629395 203.6999969482422,725.4999885559082 121.10000610351562,679.7000007629395 119.30000305175781,678.7000007629395 " class="st3"/>
     <polygon id="svg_106" fill="#FF3200" points="283.09999084472656,769.4999885559082 203.6999969482422,725.4999885559082 230.6999969482422,678.7000007629395 " class="st11"/>
     <polygon id="svg_107" fill="#FF6400" points="342.59999084472656,678.7000007629395 288.50001525878906,772.4999885559082 283.09999084472656,769.4999885559082 230.6999969482422,678.7000007629395 " class="st12"/>
     <polygon id="svg_108" fill="#FF6400" points="398.59999084472656,775.7000007629395 294.09999084472656,775.7000007629395 288.50001525878906,772.4999885559082 342.59999084472656,678.7000007629395 " class="st12"/>
     <polygon id="svg_109" fill="#FF7800" points="398.59999084472656,775.7000007629395 342.59999084472656,678.7000007629395 454.59999084472656,678.7000007629395 " class="st2"/>
     <polygon id="svg_110" fill="#FF8C00" points="508.8000030517578,772.7000007629395 503.3999786376953,775.7000007629395 398.59999084472656,775.7000007629395 398.6999969482422,775.600025177002 398.6999969482422,775.600025177002 454.59999084472656,678.7000007629395 " class="st13"/>
     <polygon id="svg_111" fill="#FF8200" points="566.5999908447266,678.7000007629395 514.0000152587891,769.9000129699707 514.0000152587891,769.9000129699707 508.8000030517578,772.7000007629395 454.59999084472656,678.7000007629395 " class="st4"/>
     <polygon id="svg_112" fill="#FF9600" points="593.7000274658203,725.7000007629395 570.5999908447266,738.4999885559082 514.0000152587891,769.9000129699707 566.5999908447266,678.7000007629395 " class="st6"/>
     <polygon id="svg_113" fill="#FFA000" points="678.5000152587891,678.7000007629395 678.5000152587891,678.799976348877 593.7000274658203,725.7000007629395 566.5999908447266,678.7000007629395 " class="st5"/>
     <polygon id="svg_114" fill="#FFAA00" points="678.5999908447266,678.7000007629395 678.5000152587891,678.799976348877 678.5000152587891,678.7000007629395 " class="st7"/>
     <polygon id="svg_115" fill="#FFB400" points="678.5999908447266,678.7000007629395 678.5999908447266,678.7000007629395 678.5000152587891,678.7000007629395 " class="st8"/>
     <polygon id="svg_116" fill="#FF5000" points="398.59999084472656,775.7000007629395 373.3000030517578,819.4999885559082 294.09999084472656,775.7000007629395 " class="st3"/>
     <polygon id="svg_117" fill="#FF7800" points="398.59999084472656,775.7000007629395 398.6999969482422,775.799976348877 398.6999969482422,833.600025177002 373.3000030517578,819.4999885559082 " class="st2"/>
     <polygon id="svg_118" fill="#FF7800" points="424.00001525878906,819.7000007629395 398.6999969482422,833.600025177002 398.6999969482422,775.799976348877 " class="st2"/>
     <polygon id="svg_119" fill="#FF8200" points="503.3999786376953,775.7000007629395 424.00001525878906,819.7000007629395 398.6999969482422,775.799976348877 398.6999969482422,775.799976348877 398.59999084472656,775.7000007629395 " class="st4"/>
    </g>
    <polygon id="svg_120" enable-background="new" fill="url(#SVGID_1_)" opacity="0.56" points="398.6999969482422,0.40000152587890625 398.6999969482422,833.600025177002 373.3000030517578,819.4999885559082 294.09999084472656,775.7000007629395 288.50001525878906,772.4999885559082 283.09999084472656,769.4999885559082 203.6999969482422,725.4999885559082 121.10000610351562,679.7000007629395 119.30000305175781,678.7000007629395 118.80000305175781,678.4999885559082 118.40000915527344,678.2000007629395 70.30000305175781,651.600025177002 62.30000305175781,582.4000129699707 62.30000305175781,582.4000129699707 62.30000305175781,581.7000007629395 62.19999694824219,580.799976348877 62.19999694824219,580.799976348877 61,571.299976348877 51.100006103515625,484.79997634887695 43.69999694824219,420.8000068664551 43.69999694824219,420.8000068664551 39.90000915527344,387.8000068664551 34.19999694824219,338.4000129699707 29.300003051757812,296.5999946594238 28.70000457763672,290.9000129699707 25,259.20000076293945 17.5,193.89999771118164 11.900001525878906,145.30000686645508 11.100006103515625,138.59999465942383 11.100006103515625,138.59999465942383 27.400001525878906,132.80000686645508 116.30000305175781,101.09999465942383 116.30000305175781,101.09999465942383 120.30000305175781,99.70000076293945 128.10000610351562,96.89999771118164 213.09999084472656,66.60000228881836 257.1999969482422,50.89999771118164 306.00001525878906,33.500003814697266 317.6999969482422,29.299999237060547 398.1999969482422,0.6000022888183594 398.1999969482422,0.6000022888183594 398.1999969482422,0.6000022888183594 " class="st20"/>
    <polygon id="svg_121" enable-background="new" fill="url(#SVGID_2_)" opacity="0.56" points="398.6999969482422,0.40000152587890625 398.6999969482422,833.600025177002 373.3000030517578,819.4999885559082 294.09999084472656,775.7000007629395 288.50001525878906,772.4999885559082 283.09999084472656,769.4999885559082 203.6999969482422,725.4999885559082 121.10000610351562,679.7000007629395 119.30000305175781,678.7000007629395 118.80000305175781,678.4999885559082 118.40000915527344,678.2000007629395 70.30000305175781,651.600025177002 62.30000305175781,582.4000129699707 62.30000305175781,582.4000129699707 62.30000305175781,581.7000007629395 62.19999694824219,580.799976348877 62.19999694824219,580.799976348877 61,571.299976348877 51.100006103515625,484.79997634887695 43.69999694824219,420.8000068664551 43.69999694824219,420.8000068664551 39.90000915527344,387.8000068664551 34.19999694824219,338.4000129699707 29.300003051757812,296.5999946594238 28.70000457763672,290.9000129699707 25,259.20000076293945 17.5,193.89999771118164 11.900001525878906,145.30000686645508 11.100006103515625,138.59999465942383 11.100006103515625,138.59999465942383 27.400001525878906,132.80000686645508 116.30000305175781,101.09999465942383 116.30000305175781,101.09999465942383 120.30000305175781,99.70000076293945 128.10000610351562,96.89999771118164 213.09999084472656,66.60000228881836 257.1999969482422,50.89999771118164 306.00001525878906,33.500003814697266 317.6999969482422,29.299999237060547 398.1999969482422,0.6000022888183594 398.1999969482422,0.6000022888183594 398.1999969482422,0.6000022888183594 " class="st21"/>
    <g id="svg_122">
     <path id="svg_123" fill="#FFFFFF" d="m493.1,445l-94.5,44.2l-99.6,0l-46.8,117.1l-87.1,1.6l233.6,-519.6l94.4,356.7l0,0zm-9.1,-22.3l-84.7,-167.8l-69.5,164.9l68.9,0l85.3,2.9l0,0z" class="st22"/>
     <path id="svg_124" fill="#FFFFFF" d="m398.6,88.4l0.6,166.6l78.9,165l-79.3,0l-0.2,69.1l109.7,0.1l51.3,118.8l83.3,1.5l-244.3,-521.1l0,0z" class="st22"/>
    </g>
   </g>
   <g id="svg_125">
    <g id="svg_126">
     <path id="svg_127" fill="#BC1600" d="m0,915.8l20.2,-49.3l5.7,0l20.3,49.3l-4.9,0l-18.2,-45.3l-0.2,0l-18.2,45.3l-4.7,0zm8.8,-13l0,-4l28.1,0l0,4l-28.1,0z" class="st23"/>
     <path id="svg_128" fill="#BC1600" d="m53.5,915.8l0,-49.3l4,0l33.6,41.2l0.2,0l0,-41.2l4.4,0l0,49.3l-3.7,0l-33.9,-41.8l-0.2,0l0,41.8l-4.4,0z" class="st23"/>
     <path id="svg_129" fill="#BC1600" d="m136.5,916.4c-6.1,0 -11.4,-1 -15.8,-3c-4.4,-2 -7.8,-4.9 -10.1,-8.6c-2.3,-3.8 -3.5,-8.4 -3.5,-13.8c0,-4.1 0.7,-7.7 2.1,-10.8c1.4,-3.1 3.4,-5.8 5.9,-7.9c2.5,-2.1 5.4,-3.7 8.7,-4.9c3.3,-1.1 6.8,-1.7 10.6,-1.7c2.1,0 4.3,0.2 6.5,0.6s4.3,0.9 6.3,1.6l2.2,0.9l-0.9,3.5l-2.6,-0.8c-2,-0.6 -4,-1 -5.9,-1.3c-1.9,-0.3 -3.8,-0.4 -5.5,-0.4c-4.3,0 -8.2,0.8 -11.6,2.5c-3.5,1.6 -6.2,4 -8.2,7.2c-2,3.1 -3,7 -3,11.6c0,4.5 1,8.4 2.9,11.6c2,3.2 4.8,5.7 8.5,7.3c3.7,1.7 8.2,2.6 13.3,2.6c1.8,0 3.8,-0.2 6,-0.6c2.1,-0.4 4.2,-0.9 6.1,-1.5l0,-15.8l-17.3,0l0,-4l21.8,0l0,22.2c-1.8,0.7 -3.5,1.4 -5.4,1.9c-1.9,0.5 -3.7,1 -5.5,1.3c-1.9,0.2 -3.7,0.3 -5.6,0.3z" class="st23"/>
     <path id="svg_130" fill="#BC1600" d="m184.3,916.4c-4.1,0 -7.5,-0.7 -10.5,-2.1c-3,-1.4 -5.3,-3.6 -7,-6.6c-1.7,-3 -2.5,-6.8 -2.5,-11.4l0,-29.9l4.4,0l0,28.9c0,6.1 1.4,10.5 4.2,13c2.8,2.6 6.6,3.9 11.5,3.9c5,0 8.8,-1.3 11.5,-3.9c2.7,-2.6 4.1,-6.9 4.1,-13l0,-28.9l4.2,0l0,29.9c0,4.6 -0.9,8.4 -2.5,11.4c-1.7,2.9 -4,5.2 -6.9,6.6c-2.9,1.4 -6.4,2.1 -10.5,2.1z" class="st23"/>
     <path id="svg_131" fill="#BC1600" d="m217.1,915.8l0,-49.3l4.4,0l0,45.4l28.9,0l0,3.9l-33.3,0z" class="st23"/>
     <path id="svg_132" fill="#BC1600" d="m252.9,915.8l20.2,-49.3l5.7,0l20.3,49.3l-4.9,0l-18.2,-45.3l-0.2,0l-18.2,45.3l-4.7,0zm8.9,-13l0,-4l28.1,0l0,4l-28.1,0z" class="st23"/>
     <path id="svg_133" fill="#BC1600" d="m306.6,915.8l0,-49.3l20.6,0c3.4,0 6.4,0.5 9,1.5c2.6,1 4.5,2.6 6,4.6s2.1,4.6 2.1,7.6c0,2.1 -0.4,4.1 -1.1,5.9c-0.7,1.8 -1.8,3.3 -3.3,4.6c-1.5,1.3 -3.4,2.3 -5.7,3c-2.3,0.7 -5,1.1 -8.1,1.1l-15.2,0l0,20.8l-4.4,0l0,0.2l0.1,0zm4.4,-24.8l16.1,0c4,0 7.1,-0.9 9.3,-2.8s3.3,-4.5 3.3,-8.1c0,-3.3 -1.1,-5.8 -3.4,-7.4c-2.2,-1.6 -5.4,-2.5 -9.5,-2.5l-15.8,0l0,20.8zm30.5,24.8l-13.9,-21.6l4.3,-1.2l14.7,22.7l-5.1,0l0,0.1z" class="st23"/>
     <path id="svg_134" fill="#FFB400" d="m374.7,915.8l0,-49.3l4.2,0l21.4,30.6l0.2,0l22,-30.6l4,0l0,49.3l-4.4,0l0,-41.7l-20.3,28.2l-2.9,0l-19.8,-27.9l0,41.4l-4.4,0z" class="st8"/>
     <path id="svg_135" fill="#FFB400" d="m433.8,915.8l20.2,-49.3l5.7,0l20.3,49.3l-4.9,0l-18.2,-45.3l-0.1,0l-18.2,45.3l-4.8,0zm8.9,-13l0,-4l28.1,0l0,4l-28.1,0z" class="st8"/>
     <path id="svg_136" fill="#FFB400" d="m509.2,916.2c-4.5,0 -8.7,-1 -12.4,-2.9c-3.7,-2 -6.6,-4.8 -8.8,-8.5s-3.3,-8.3 -3.3,-13.7c0,-4.1 0.6,-7.6 1.9,-10.8c1.3,-3.1 3.1,-5.8 5.4,-8c2.3,-2.1 5,-3.8 7.9,-4.9c3,-1.1 6.1,-1.7 9.6,-1.7c2.6,0 5,0.3 7.3,0.8s4.5,1.2 6.5,2l1.9,0.9l-0.9,3.3l-2.2,-0.6c-2.3,-0.7 -4.4,-1.2 -6.3,-1.6c-2,-0.4 -3.9,-0.6 -6,-0.6c-3.8,0 -7.3,0.8 -10.4,2.5c-3.1,1.7 -5.5,4.1 -7.4,7.2c-1.8,3.1 -2.7,7 -2.7,11.5c0,4.5 0.9,8.3 2.6,11.5c1.7,3.1 4.1,5.5 7.1,7.2c3,1.6 6.5,2.5 10.5,2.5c2,0 4.1,-0.2 6.2,-0.7s4.4,-1.1 6.6,-1.9l3.4,-1.3l1.1,3.3l-3,1.3c-2.4,1 -4.8,1.9 -7.3,2.5c-2.7,0.4 -4.9,0.7 -7.3,0.7z" class="st8"/>
     <path id="svg_137" fill="#FFB400" d="m536.6,915.8l0,-49.3l35.1,0l0,3.9l-30.6,0l0,18.2l27.8,0l0,3.9l-27.8,0l0,19.3l31.1,0l0,3.9l-35.6,0.1l0,0z" class="st8"/>
     <path id="svg_138" fill="#FFB400" d="m582.7,915.8l0,-49.3l17.2,0c5.1,0 9.5,1 13.2,3c3.7,2 6.6,4.9 8.6,8.5c2,3.7 3,8.1 3,13.2s-1.1,9.4 -3.1,13.1c-2.1,3.7 -5.1,6.5 -8.9,8.5c-3.8,2 -8.3,2.9 -13.6,2.9l-16.4,0.1l0,0zm4.5,-4l12.5,0c4.3,0 8,-0.9 11,-2.6c3.1,-1.7 5.4,-4.1 7.1,-7.1c1.7,-3 2.5,-6.7 2.5,-11c0,-4.4 -0.8,-8.1 -2.5,-11.2c-1.6,-3.1 -3.9,-5.4 -7,-7.1c-3,-1.7 -6.8,-2.5 -11.2,-2.5l-12.5,0l0,41.5l0.1,0z" class="st8"/>
     <path id="svg_139" fill="#FFB400" d="m657.9,916.4c-4.8,0 -9,-1.1 -12.7,-3.3c-3.7,-2.1 -6.5,-5.1 -8.6,-9c-2.1,-3.8 -3.1,-8.2 -3.1,-13.2c0,-5 1.1,-9.4 3.1,-13.2c2.1,-3.8 5,-6.8 8.6,-9c3.6,-2.1 7.8,-3.2 12.6,-3.2c4.9,0 9.1,1.1 12.7,3.3c3.6,2.1 6.5,5.1 8.5,9c2.1,3.8 3.1,8.2 3.1,13.2c0,5 -1,9.4 -3.1,13.2s-4.9,6.8 -8.6,9c-3.5,2.2 -7.7,3.2 -12.5,3.2zm0,-4c3.9,0 7.3,-0.9 10.3,-2.7c3,-1.8 5.3,-4.3 7,-7.5c1.7,-3.2 2.5,-6.9 2.5,-11.1c0,-4.2 -0.9,-8 -2.5,-11.2s-4,-5.7 -7,-7.5c-3,-1.8 -6.4,-2.7 -10.3,-2.7c-3.8,0 -7.3,0.9 -10.2,2.7c-3,1.8 -5.3,4.3 -7,7.5c-1.7,3.2 -2.6,6.9 -2.6,11.2c0,4.2 0.9,7.9 2.6,11.1c1.7,3.2 4,5.7 7,7.5c3,1.8 6.4,2.7 10.2,2.7z" class="st8"/>
     <path id="svg_140" fill="#FFB400" d="m693.6,915.8l0,-49.3l4,0l33.6,41.2l0.2,0l0,-41.2l4.4,0l0,49.3l-3.7,0l-33.9,-41.8l-0.2,0l0,41.8l-4.4,0z" class="st8"/>
     <path id="svg_141" fill="#FFB400" d="m749.7,915.8l0,-49.3l4.4,0l0,49.3l-4.4,0z" class="st8"/>
     <path id="svg_142" fill="#FFB400" d="m761.5,915.8l20.2,-49.3l5.7,0l20.3,49.3l-4.9,0l-18.2,-45.3l-0.2,0l-18.2,45.3l-4.7,0zm8.9,-13l0,-4l28.1,0l0,4l-28.1,0z" class="st8"/>
    </g>
   </g>
  </g>
 </g>
</svg>