<?xml version="1.0" encoding="utf-8"?>
<svg id="eECu7Bxv0wL1" viewBox="0 0 502.7 540" shape-rendering="geometricPrecision" text-rendering="geometricPrecision" xmlns="http://www.w3.org/2000/svg">
  <g/>
  <g class="layer" transform="matrix(1, 0, 0, 1, 77.348008, 53.307)">
    <title>Layer 1</title>
    <g id="layer1">
      <polygon points="174.002 -53.307 174.002 -53.307 174.002 -53.307 -77.348 36.333 -39.011 368.703 174.002 486.693 174.002 486.693 174.002 486.693 387.015 368.703 425.352 36.333" fill="#007843"/>
      <path id="path811" fill-rule="nonzero" fill="#000000" d="M 118.107 366.048 C 117.657 372.368 119.257 379.118 111.627 379.418 C 109.947 381.268 108.587 382.118 109.247 385.208 C 109.437 386.078 110.437 386.788 110.437 387.638 L 110.437 388.438 C 106.137 388.438 96.457 382.978 97.337 377.718 C 94.467 376.618 91.137 370.738 89.847 370.738 C 87.837 370.738 87.257 374.648 85.247 374.648 C 82.357 374.648 79.807 369.888 79.807 367.328 C 79.807 366.928 79.857 366.498 79.967 366.048 L 118.107 366.048 Z M 138.257 366.048 C 136.387 368.368 134.437 370.028 132.567 370.388 L 131.537 369.708 L 131.537 366.048 L 138.257 366.048 Z M 260.667 366.048 C 259.457 367.258 258.217 368.298 256.967 369.028 C 255.907 375.258 238.247 383.238 238.247 384.698 C 238.247 387.108 242.837 387.888 242.837 390.308 C 242.837 397.078 233.477 407.418 226.337 408.178 L 226.337 407.158 C 226.337 405.278 228.377 403.768 228.377 401.878 L 227.017 398.988 L 223.957 399.498 C 218.607 403.728 222.597 403.138 222.597 406.988 C 222.597 413.948 216.637 412.408 216.637 418.738 L 216.807 421.288 L 219.017 423.498 C 218.027 424.648 216.087 425.368 214.587 425.368 C 210.497 425.368 208.287 422.028 206.597 418.908 C 206.407 418.548 206.317 417.878 205.917 417.878 C 204.707 417.878 204.367 424.288 195.707 421.968 C 191.637 423.578 190.387 427.018 188.727 430.648 C 182.877 425.428 183.547 422.738 185.657 415.838 C 183.217 412.888 181.887 411.558 183.967 407.838 L 181.007 405.058 L 180.387 404.098 C 178.137 404.098 177.697 408.688 175.447 408.688 C 173.677 408.688 172.387 402.678 172.387 401.538 C 172.387 397.018 182.887 387.068 187.697 387.068 C 192.097 387.068 197.237 394.048 200.467 394.048 C 207.607 394.048 218.807 379.208 225.297 366.048 L 260.667 366.048"/>
      <path id="path813" fill-rule="nonzero" fill="#000000" d="M 177.247 301.458 C 177.917 302.098 178.667 302.788 179.537 302.988 L 181.407 302.988 C 181.407 304.508 175.577 306.638 174.267 307.078 L 174.267 309.288 C 174.267 313.288 177.027 313.398 179.537 314.908 L 180.387 315.418 C 180.387 319.888 173.227 318.998 171.367 318.998 C 170.047 318.998 170.177 322.518 170.177 323.588 C 170.177 324.898 172.997 328.028 174.267 328.518 L 176.127 328.348 L 177.827 326.818 L 178.347 329.548 C 175.967 333.118 175.457 333.288 171.367 333.288 C 169.847 333.288 170.197 335.898 168.977 337.038 L 163.877 341.798 C 162.137 343.418 162.157 348.778 160.477 348.778 C 159.437 348.778 158.467 340.978 158.427 340.608 C 156.597 339.828 155.367 337.888 153.327 337.888 C 150.817 337.888 150.707 342.298 148.727 343.838 C 147.807 348.408 143.307 359.728 138.257 366.028 L 131.537 366.048 L 131.537 365.458 L 128.647 361.548 C 125.927 361.568 124.177 360.728 122.007 359.158 L 119.287 360.868 C 118.547 362.448 118.247 364.228 118.107 366.048 L 79.967 366.048 C 80.307 364.558 81.177 362.938 82.187 362.058 C 82.417 361.838 84.397 360.668 84.397 360.348 L 84.057 358.988 C 80.137 359.188 78.797 358.928 77.257 355.408 L 74.867 355.248 C 73.037 356.798 72.177 356.658 71.637 359.158 C 69.407 358.538 68.567 354.568 68.567 352.528 C 68.567 347.468 71.727 345.308 76.057 343.668 C 78.117 340.698 79.487 339.588 83.377 339.588 C 88.257 339.588 90.337 341.608 93.587 344.868 C 99.297 344.608 103.157 348.608 108.567 348.608 C 118.837 348.608 123.197 325.928 123.197 317.798 L 122.687 313.708 C 114.367 311.628 94.477 310.288 89.477 301.478 L 177.247 301.458 Z M 238.807 301.458 C 237.317 303.298 235.857 306.078 235.857 307.238 C 235.857 308.728 236.237 310.408 236.547 311.838 C 236.627 311.858 237.437 312.198 237.237 312.348 C 239.787 314.678 242.137 315.068 245.577 315.068 C 256.087 315.068 267.757 312.178 278.417 312.178 C 284.117 312.178 290.157 314.228 290.157 320.858 C 290.157 321.188 290.027 324.088 289.127 324.088 C 286.427 324.088 284.187 321.368 281.477 321.368 C 276.867 321.368 271.857 326.558 267.017 328.018 C 271.637 332.138 278.397 328.348 283.687 328.348 C 287.537 328.348 291.187 332.388 291.187 336.178 L 291.187 337.208 C 290.217 337.208 288.867 334.988 285.397 334.988 C 283.007 334.988 281.807 336.128 280.457 337.368 C 283.407 337.808 286.247 340.788 286.247 343.838 C 286.247 345.968 284.467 350.648 282.327 350.648 C 279.877 350.648 279.337 345.708 276.877 345.708 L 276.547 346.388 C 276.817 347.568 278.067 348.488 278.067 349.798 C 278.067 350.808 276.947 354.568 275.517 354.568 L 274.897 353.488 C 274.277 352.248 274.357 351.588 272.967 350.818 C 269.097 354.938 264.997 361.688 260.667 366.038 L 225.297 366.048 C 228.397 359.768 230.417 353.868 230.417 350.138 C 230.417 341.508 212.587 341.728 207.957 339.408 L 207.787 341.798 C 208.557 342.848 211.017 342.708 211.017 344.008 C 211.017 345.548 207.877 346.228 206.757 346.228 C 203.277 346.228 201.577 345.168 199.107 343.158 C 198.327 344.888 197.407 347.008 197.407 348.948 C 197.407 352.208 200.977 352.138 200.977 354.218 C 200.977 355.058 195.687 356.088 195.027 356.088 C 188.857 356.088 182.427 346.948 182.427 341.118 C 182.427 337.058 184.467 333.078 184.467 329.028 C 184.467 325.188 180.727 322.478 180.727 318.648 C 180.727 313.028 182.287 307.428 182.877 301.478 L 238.807 301.458 Z M 246.347 301.458 L 246.077 302.818 L 245.907 304.008 C 245.187 304.008 244.887 302.688 244.187 301.488 L 246.347 301.458"/>
      <path id="path815" fill-rule="nonzero" fill="#000000" d="M 8.827 204.568 C 8.607 205.108 8.467 205.698 8.327 206.308 L 6.447 205.628 C 6.297 205.288 6.167 204.928 6.027 204.588 L 8.827 204.568 Z M 61.287 204.568 C 59.677 209.718 60.277 214.978 55.637 218.908 L 52.407 219.418 C 51.747 220.628 51.047 221.948 51.047 223.338 C 51.047 225.188 53.597 226.408 53.597 228.258 L 51.557 228.258 C 48.527 228.258 45.507 227.308 43.387 225.028 C 42.737 224.338 41.037 220.948 40.997 220.948 C 40.117 220.948 34.927 225.758 30.107 224.018 C 26.837 225.908 25.967 226.078 23.807 229.458 C 23.447 230.038 23.127 230.998 22.447 230.998 C 19.717 230.998 18.197 223.788 18.197 222.138 C 18.197 219.908 20.077 216.578 20.077 215.838 C 20.077 213.868 17.687 212.378 17.687 210.398 C 17.687 209.218 19.897 207.458 19.897 206.138 L 18.757 206.018 L 17.007 205.628 C 15.817 205.258 15.277 204.918 14.917 204.558 L 61.287 204.568 Z M 73.467 204.568 C 71.297 206.638 68.837 208.018 65.847 208.018 C 65.287 208.018 66.207 206.948 66.417 206.428 C 66.637 205.858 66.697 205.198 66.707 204.548 L 73.467 204.568 Z M 224.297 204.568 C 232.847 212.078 238.687 216.778 252.207 221.298 C 257.057 222.908 274.127 232.038 275.687 237.118 C 278.067 244.858 288.007 271.848 294.917 275.068 C 295.967 274.808 297.417 275.758 298.497 275.758 C 300.197 275.758 305.647 273.508 305.647 271.668 C 305.647 266.028 299.947 263.658 302.237 254.478 L 302.237 251.928 C 291.997 251.468 277.977 237.598 284.027 227.078 C 271.307 226.198 252.647 218.728 250.767 204.538 L 304.037 204.568 C 305.217 206.438 306.267 208.298 306.837 210.218 C 314.317 210.048 321.667 211.248 329.137 211.248 C 331.197 211.248 334.887 211.348 336.787 210.398 C 339.357 209.108 342.337 208.488 343.767 205.968 C 343.867 205.798 344.177 205.118 344.437 205.118 C 346.077 205.118 345.817 212.248 345.817 213.638 C 345.817 232.098 329.817 230.088 316.707 228.938 C 318.057 233.028 319.737 237.708 321.647 241.538 C 325.227 241.998 329.157 242.738 332.697 242.738 C 334.937 242.738 337.017 242.308 338.997 241.208 C 339.967 240.668 340.997 239.638 341.727 238.818 C 341.857 238.668 342.177 237.628 342.397 237.628 C 342.797 237.628 352.227 249.208 337.277 257.878 C 331.857 259.638 331.637 256.348 326.407 256.348 L 324.707 256.698 L 325.047 260.778 C 325.047 271.588 318.357 286.148 306.327 288.008 C 305.617 289.178 300.287 289.548 298.827 289.548 C 288.357 289.548 277.647 276.438 275.867 276.438 L 274.837 276.948 C 274.677 280.348 270.047 294.988 269.567 294.988 C 266.797 294.988 266.377 289.198 263.607 289.198 C 262.807 289.198 263.037 290.708 262.807 291.468 C 262.497 292.558 260.107 296.348 259.187 296.348 C 258.077 296.348 259.187 292.878 259.187 292.268 C 259.187 291.168 259.317 288.648 258.327 287.838 C 256.657 290.858 255.687 293.658 253.567 296.528 L 252.717 296.858 L 252.887 295.498 C 252.887 294.428 252.257 293.048 251.857 292.098 L 251.017 292.268 C 249.597 294.738 247.367 297.558 246.587 300.258 L 246.347 301.458 L 244.187 301.458 C 243.617 300.488 242.757 299.578 241.147 299.578 C 240.527 299.578 239.667 300.358 238.807 301.428 L 182.877 301.458 C 183.027 300.068 183.107 298.648 183.107 297.208 C 183.107 294.958 202.567 277.328 206.087 275.588 C 197.047 272.128 195.797 272.348 184.647 272.348 C 178.737 272.348 147.157 279.878 144.307 283.078 C 150.097 289.698 150.377 290.508 160.307 290.738 C 167.757 290.908 171.637 296.438 176.637 300.898 C 176.827 301.068 177.037 301.258 177.247 301.448 L 89.477 301.458 C 88.727 300.178 88.317 298.698 88.317 297.028 C 88.317 296.588 91.037 291.758 91.037 287.838 L 91.037 285.458 C 85.367 285.768 80.317 284.098 74.527 284.098 C 70.157 284.098 68.237 283.098 66.527 279.168 L 67.047 277.108 C 67.627 277.628 71.227 278.818 72.147 278.818 C 88.447 278.818 91.147 255.198 99.887 249.368 C 103.947 246.668 110.617 245.458 114.017 242.388 C 119.457 237.468 125.867 233.038 133.577 233.038 C 149.517 233.038 163.627 237.688 178.857 240.348 C 174.087 235.988 170.397 230.598 164.217 227.928 L 164.217 226.738 L 167.617 226.738 C 175.657 226.738 182.667 231.308 190.427 232.868 C 170.157 216.778 153.357 220.478 130.367 204.598 L 224.297 204.568"/>
      <path id="path817" fill-rule="nonzero" fill="#000000" d="M 6.027 204.568 C 5.407 202.838 5.087 201.038 5.087 199.158 C 5.087 196.068 9.027 192.378 10.877 190.138 L 10.877 186.738 L 12.577 184.348 C 16.347 183.408 20.837 182.138 24.667 182.138 C 25.547 182.138 31.167 186.058 35.217 186.058 C 38.987 186.058 80.207 166.668 81.847 165.118 C 85.017 162.108 88.047 158.928 91.377 156.098 C 87.697 148.718 78.107 147.448 78.107 138.738 L 78.107 136.688 C 81.427 136.778 84.127 138.568 87.807 138.568 C 88.917 138.568 92.737 136.468 92.737 135.338 L 92.567 133.968 C 90.267 131.678 86.017 129.858 85.077 126.648 L 82.527 126.648 C 66.637 114.508 73.597 111.378 64.657 102.648 C 62.347 104.188 60.317 105.468 57.507 104.358 C 54.037 106.308 50.327 107.408 46.277 107.408 C 42.527 107.408 41.027 105.318 38.277 103.168 C 39.157 101.358 44.397 100.218 44.747 95.338 C 40.987 91.688 41.277 89.668 43.387 85.458 C 41.637 85.168 39.547 84.248 37.767 84.438 C 34.657 86.368 29.237 93.718 25.517 89.368 C 21.747 91.138 21.317 92.198 20.577 96.188 C 16.057 94.368 14.107 89.558 14.107 84.948 C 14.107 80.138 14.097 72.068 18.017 68.608 C 12.097 68.468 10.537 65.388 10.537 60.268 L 9.857 59.588 C 8.087 59.588 4.147 61.928 3.217 63.168 C 2.807 63.708 1.167 66.768 0.497 66.568 C -0.543 64.358 -2.053 61.748 -2.053 59.248 C -2.053 53.728 12.567 39.838 17.857 39.838 C 22.407 39.838 25.557 43.628 27.897 46.988 L 29.767 48.178 C 29.957 46.748 30.297 44.898 31.297 43.758 C 31.767 43.228 33.177 43.448 33.177 42.738 C 33.177 40.618 32.247 38.598 30.457 37.408 C 29.497 36.778 27.217 37.418 27.217 36.268 C 27.217 32.538 36.037 30.488 38.617 30.488 C 40.967 30.488 45.767 33.038 45.767 33.038 C 46.417 33.038 46.517 31.978 46.957 31.498 C 55.307 22.398 62.107 19.498 74.017 16.528 C 77.347 15.698 82.117 16.238 85.597 16.178 C 98.667 15.968 105.747 25.678 114.697 32.528 C 127.567 23.628 138.637 26.478 154.517 21.628 C 164.457 18.588 170.747 10.058 180.727 10.058 C 184.547 10.058 188.137 11.478 191.787 12.448 C 195.727 5.428 204.437 2.738 212.037 2.738 C 214.687 2.738 226.337 5.478 226.337 8.528 C 226.337 9.128 225.667 9.378 225.257 9.378 C 222.027 9.378 213.907 13.918 213.907 17.368 C 213.907 20.098 223.187 22.308 225.827 22.308 C 228.197 22.308 229.437 19.788 231.097 18.228 L 231.897 16.808 C 232.557 15.498 232.977 13.188 232.977 11.758 C 232.977 9.238 232.377 7.438 230.757 5.458 L 231.447 4.608 L 234.847 4.438 C 244.647 4.438 251.577 12.418 249.137 22.138 C 257.557 23.648 271.897 28.168 276.197 36.098 C 272.117 37.208 247.947 42.918 246.247 43.758 C 250.207 51.458 249.957 60.798 252.267 68.898 C 252.857 70.978 256.637 71.538 256.637 73.718 L 256.457 75.248 C 254.367 75.168 252.727 75.668 250.847 75.758 C 247.457 86.788 242.027 96.138 244.197 108.608 C 239.927 108.328 237.827 107.278 235.527 103.498 C 224.157 111.638 215.947 122.788 215.947 137.208 C 215.947 142.098 219.377 144.058 220.557 147.918 C 218.867 148.548 217.087 149.118 215.267 149.118 C 208.487 149.118 205.397 143.008 203.877 137.378 C 199.087 143.698 198.767 147.708 198.767 155.418 C 198.767 163.508 201.727 167.718 208.127 172.608 L 210.847 172.778 C 208.857 174.768 203.367 173.868 203.367 176.688 C 203.367 180.048 214.397 194.658 216.977 198.148 C 219.717 200.498 222.097 202.628 224.297 204.568 L 130.367 204.568 C 127.257 202.438 124.027 199.928 120.647 196.948 C 118.617 195.148 116.457 192.088 115.027 189.808 C 113.317 187.048 112.997 181.628 109.757 181.628 C 105.257 181.628 103.357 192.318 103.457 195.408 C 104.647 196.608 107.037 197.308 107.037 198.988 C 107.037 199.388 103.077 200.008 102.437 200.008 C 98.537 200.008 95.237 195.798 93.527 192.808 C 92.777 191.478 92.897 188.778 91.377 188.778 C 89.727 188.778 88.007 191.848 87.807 191.848 C 86.477 191.848 86.117 189.668 84.907 189.118 C 81.037 193.328 77.867 200.378 73.467 204.578 L 66.707 204.568 C 66.717 204.108 66.697 203.658 66.697 203.238 C 66.697 201.368 65.377 199.908 63.297 200.348 C 62.347 201.728 61.727 203.158 61.287 204.588 L 14.917 204.568 C 14.437 204.058 14.267 203.508 13.257 202.738 L 10.537 202.738 C 9.647 203.178 9.147 203.818 8.827 204.588 L 6.027 204.568 Z M 250.767 204.568 C 250.437 202.138 250.607 199.558 251.357 196.778 C 237.897 192.288 228.547 181.158 228.547 166.818 C 228.547 157.188 234.337 153.398 234.337 149.118 C 234.337 145.258 232.457 141.198 232.457 137.028 C 232.457 124.778 239.337 116.668 248.807 110.148 C 253.217 75.588 266.787 43.758 307.347 43.758 C 317.677 43.758 325.397 51.418 336.107 51.418 C 338.827 51.418 342.067 47.298 341.887 44.608 L 343.077 44.608 C 343.737 44.608 343.357 45.878 343.597 46.488 C 343.997 47.498 344.787 48.748 344.787 49.888 C 344.787 59.828 334.837 61.258 327.427 62.138 C 330.537 65.728 333.887 66.218 338.657 66.218 C 343.317 66.218 345.887 64.108 348.927 61.068 L 350.057 61.298 C 345.757 73.638 340.537 78.138 326.917 78.138 C 304.297 78.138 306.677 56.698 293.047 56.698 C 273.257 56.698 265.377 88.548 264.287 102.998 L 285.897 102.648 C 294.537 102.648 303.057 106.738 311.597 106.738 C 317.097 106.738 319.597 102.908 319.597 97.888 C 319.597 94.418 315.827 91.608 312.627 91.248 L 313.307 89.368 C 316.807 87.788 319.407 86.138 323.517 86.138 C 334.027 86.138 338.657 92.998 338.657 102.998 C 338.657 120.058 314.717 127.838 301.387 127.838 C 291.427 127.838 281.787 125.288 271.607 125.288 C 269.527 125.288 267.527 125.958 265.487 126.148 C 265.637 128.158 265.637 133.338 267.347 134.488 C 270.827 134.058 274.407 134.138 277.907 134.138 C 288.467 134.138 299.227 138.218 310.237 138.218 C 319.747 138.218 324.707 133.108 324.707 124.778 L 326.067 124.098 C 330.867 127.038 333.727 129.898 333.727 136.018 C 333.727 159.668 290.877 157.238 277.057 156.608 C 280.207 163.588 285.127 170.068 288.797 176.858 C 295.767 176.728 302.637 177.368 309.557 177.368 C 313.577 177.368 322.487 175.788 322.487 170.738 C 322.487 167.568 319.257 167.478 319.257 166.308 C 319.257 164.298 324.517 163.928 325.557 163.928 C 333.117 163.928 338.317 170.368 338.317 177.548 C 338.317 193.198 309.587 195.238 299.347 196.438 C 300.447 199.278 302.357 201.918 304.037 204.578 L 250.767 204.568"/>
      <path id="path819" fill-rule="nonzero" fill="#da121a" d="M 187.697 426.568 L 188.387 426.218 C 189.627 423.968 191.597 421.318 193.657 419.928 C 192.117 418.568 190.497 416.928 188.387 416.698 C 186.487 418.588 186.007 419.948 186.007 422.818 C 186.007 422.978 186.077 423.058 186.107 423.208 C 186.177 423.428 186.457 424.758 186.517 424.858 C 186.817 425.428 187.327 426.028 187.697 426.568"/>
      <path id="path821" fill-rule="nonzero" fill="#da121a" d="M 214.087 422.818 L 214.587 422.308 C 214.177 421.498 213.737 420.348 213.737 419.418 L 213.737 418.228 C 213.737 417.048 214.427 415.768 214.767 414.648 C 213.927 414.598 213.047 414.478 212.217 414.478 L 210.847 414.478 C 210.397 414.478 207.947 416.398 207.607 416.698 C 207.907 417.348 208.297 417.928 208.637 418.558 C 209.857 420.828 209.617 420.318 211.697 421.458 C 212.497 421.898 213.277 422.388 214.087 422.818"/>
      <path id="path823" fill-rule="evenodd" fill="#ffffff" d="M 241.207 353.458 L 241.317 354.568 L 240.967 355.468 C 240.907 355.658 229.867 364.158 226.847 369.708 C 223.827 375.248 221.577 379.168 217.317 383.668 C 212.487 383.618 211.077 397.458 199.277 397.458 C 193.747 397.458 191.537 390.308 186.007 390.308 C 184.577 390.308 183.547 391.038 182.767 392.178 L 182.597 394.728 C 182.597 397.448 184.397 398.358 183.787 402.388 L 185.837 402.568 L 186.687 400.518 C 187.227 400.448 188.137 401.088 187.877 401.708 L 189.567 401.028 C 189.547 400.258 190.487 399.358 191.277 399.498 C 192.247 399.988 193.257 400.348 194.347 400.348 C 195.257 400.348 197.827 399.068 198.587 398.478 L 200.297 399.158 L 200.297 400.348 C 200.297 400.568 199.977 400.488 199.787 400.578 L 196.727 402.228 C 191.607 404.978 191.057 404.478 186.847 408.688 L 186.847 411.408 L 188.387 412.608 C 190.417 411.798 195.767 418.058 198.087 418.058 C 199.997 418.058 198.087 415.308 198.087 414.988 L 198.767 414.758 C 199.347 414.568 199.927 415.328 200.637 415.328 C 202.227 415.328 202.337 414.148 202.337 412.768 C 202.337 411.398 201.207 410.808 200.467 409.718 C 202.697 407.488 202.597 401.878 205.747 401.878 L 206.427 402.228 L 206.427 404.098 C 206.427 406.658 204.207 407.118 204.207 409.718 C 204.207 410.438 204.917 413.118 205.917 413.118 C 209.457 413.118 212.657 411.078 216.977 411.078 L 217.997 410.048 L 218.167 407.668 C 218.167 405.698 215.967 403.078 214.427 402.058 L 212.387 401.028 L 212.547 400.178 L 214.257 399.668 L 214.587 398.478 C 215.527 398.478 216.457 399.058 216.297 400.178 L 217.997 400.858 L 219.697 399.328 C 219.447 398.518 218.167 398.138 218.167 397.288 L 221.057 395.588 L 221.397 393.538 L 222.597 393.368 L 223.107 395.238 L 224.637 395.918 C 226.757 395.918 238.247 393.308 238.247 389.968 C 238.247 388.308 233.977 387.248 232.807 387.248 C 230.217 387.248 228.667 388.448 226.337 389.288 L 225.997 388.438 C 228.647 387.118 229.177 384.848 231.617 383.498 L 231.777 381.628 C 236.067 381.958 236.927 381.158 240.117 379.078 L 236.547 377.198 C 234.377 377.328 233.177 378.728 231.617 378.728 L 231.897 378.278 L 232.457 377.368 C 232.927 376.668 234.007 376.188 234.847 376.008 C 237.907 375.328 240.837 376.518 243.867 376.518 C 244.197 376.518 246.937 375.228 246.937 374.988 C 246.937 374.448 241.797 372.908 241.027 372.828 L 238.757 372.778 L 239.277 371.928 C 243.097 370.558 243.817 371.578 247.947 371.578 C 249.507 371.578 251.157 370.408 252.207 369.378 L 252.207 368.698 C 249.507 367.618 247.717 367.328 244.877 367.328 L 244.037 367.668 C 245.587 367.668 253.777 364.458 255.947 363.238 L 256.117 362.558 C 252.867 361.178 251.687 360.518 248.297 360.518 L 247.617 360.518 L 247.777 359.668 C 250.617 357.368 255.067 357.348 258.507 357.458 L 260.037 356.268 C 257.387 353.298 256.697 353.718 252.717 353.718 L 251.017 355.078 L 249.987 354.568 C 250.617 354.128 251.177 353.768 251.717 353.488 L 241.207 353.458"/>
      <path id="path825" fill-rule="evenodd" fill="#ffffff" d="M 251.717 353.458 C 256.147 351.068 258.017 353.168 262.927 352.178 C 263.767 352.008 269.397 350.968 269.397 349.288 C 269.397 347.028 258.797 346.028 257.147 345.708 C 258.347 343.708 265.597 345.378 267.177 345.378 C 271.687 345.378 275.697 342.988 280.457 342.988 C 275.477 338.238 269.867 342.578 264.117 340.768 L 259.187 339.588 C 256.877 339.228 254.377 340.968 252.207 340.088 L 252.037 339.248 C 258.347 337.428 262.237 339.078 268.377 339.078 C 275.147 339.078 278.887 333.768 285.567 332.098 C 284.137 331.288 282.127 330.738 280.457 330.738 C 272.527 330.738 257.537 333.628 248.807 333.628 L 248.807 332.428 L 251.587 331.358 L 261.227 329.708 C 258.307 325.548 248.357 327.838 244.197 327.838 C 242.387 327.838 240.657 327.348 238.927 326.818 L 238.927 325.798 C 239.997 326.038 241.227 326.478 242.337 326.478 C 250.197 326.478 257.937 324.088 266.497 324.088 C 272.037 324.088 276.537 316.668 284.027 317.288 C 281.517 315.548 279.177 314.908 276.027 314.908 C 273.327 314.908 270.327 317.118 266.847 317.118 C 263.987 317.118 261.367 315.068 258.507 315.068 C 250.527 315.068 244.747 322.768 235.357 318.998 C 232.847 321.598 230.417 322.558 226.847 322.558 C 225.967 322.558 220.887 322.408 220.887 320.858 L 222.077 320.358 C 222.767 320.548 224.087 321.258 224.807 321.038 C 227.007 320.358 230.757 319.488 230.757 316.608 L 230.757 315.758 C 228.287 316.598 226.317 317.798 223.607 317.798 C 223.197 317.798 217.997 317.148 217.997 316.258 L 218.167 315.578 C 220.057 315.788 221.707 316.258 223.607 316.258 C 224.337 316.258 227.867 315.498 227.867 314.218 L 226.677 313.378 C 225.307 312.318 223.787 311.218 222.757 309.798 C 221.467 308.008 221.397 305.608 221.397 303.498 L 221.737 300.778 C 222.397 300.128 223.997 298.388 224.967 298.388 L 225.317 299.188 C 225.677 300.038 224.547 300.168 224.467 300.938 L 224.287 302.478 C 224.287 304.638 225.317 307.598 227.527 308.438 C 227.747 304.658 227.877 298.068 231.617 295.848 L 231.947 297.378 C 231.227 299.058 230.257 300.628 230.257 302.478 C 230.257 302.958 230.867 306.398 231.617 306.398 C 231.687 306.398 235.237 299.578 236.037 298.568 C 238.577 295.328 241.367 292.068 242.507 288.008 L 243.517 288.188 L 243.187 290.738 C 243.187 291.528 243.457 292.258 243.867 292.948 C 249.487 286.848 250.147 286.978 253.737 279.168 C 254.907 276.608 255.317 274.328 255.947 271.508 L 256.117 269.918 L 256.117 268.768 L 256.967 268.948 C 257.427 273.268 257.127 277.658 256.117 281.888 C 258.787 279.808 259.807 277.218 261.227 274.228 C 262.467 271.608 263.197 267.588 263.777 264.688 L 264.117 261.808 L 264.117 260.098 L 265.307 260.268 C 265.307 264.838 264.287 269.588 264.287 273.878 L 264.287 275.068 C 268.657 270.668 272.247 250.868 268.377 248.008 L 268.717 247.328 L 269.737 247.498 C 272.317 253.598 272.117 259.458 272.117 266.048 C 274.887 262.878 276.367 256.408 276.367 252.438 C 276.367 235.678 260.567 226.388 247.947 226.388 C 246.387 226.388 245.747 223.158 244.717 223.158 L 244.837 224.298 L 244.877 225.888 C 244.877 226.158 244.657 226.568 244.377 226.568 C 243.447 226.568 241.957 222.538 241.827 222.138 L 240.967 221.978 L 240.637 225.538 C 239.347 224.598 239.497 221.628 237.907 221.628 C 237.237 221.628 238.597 223.668 237.907 223.668 L 236.717 223.498 C 233.987 221.158 232.387 217.648 229.737 214.988 L 228.717 217.718 L 227.697 217.718 C 227.507 217.718 227.697 217.398 227.697 217.198 L 227.577 215.778 C 227.177 214.358 226.587 213.018 225.827 211.758 L 225.147 211.078 C 224.907 211.888 224.337 216.378 222.597 215.328 C 222.797 212.738 222.327 210.658 220.887 208.528 C 220.437 208.968 219.807 209.908 219.697 210.568 L 219.697 211.928 C 218.067 211.928 217.757 203.498 214.587 200.698 C 214.597 200.978 213.807 206.818 213.227 206.818 L 212.037 206.138 C 211.997 205.678 211.307 201.718 210.347 201.718 C 209.277 201.718 209.517 204.268 208.467 204.268 L 207.787 203.238 C 207.577 199.848 207.967 198.238 206.427 195.408 C 204.917 196.038 205.997 199.838 204.377 199.838 C 203.177 199.838 202.897 194.088 202.687 193.038 C 201.637 194.258 201.737 197.118 200.127 197.118 L 199.277 196.608 L 199.277 193.038 C 197.877 193.778 196.957 195.758 195.357 195.758 L 195.027 194.908 C 195.137 193.678 196.727 192.438 196.727 190.308 L 196.547 188.438 L 192.467 192.528 L 191.107 192.688 L 191.107 191.498 C 191.107 189.678 193.227 187.498 194.177 186.228 C 191.397 186.968 189.367 189.128 187.877 191.498 L 187.017 191.328 C 188.347 189.038 189.057 188.258 188.887 185.548 L 187.017 185.198 L 184.977 186.388 L 184.467 185.028 C 184.237 185.028 183.047 186.288 182.257 186.388 L 181.407 186.568 C 181.307 186.218 181.917 185.578 181.917 185.198 L 180.727 185.198 C 179.767 186.128 177.967 187.588 176.467 187.588 C 176.077 187.588 176.587 186.798 176.637 186.388 C 180.087 184.188 182.417 180.668 183.787 176.858 C 175.617 183.978 171.917 188.438 160.637 188.438 C 155.567 188.438 145.537 198.308 139.037 200.868 C 138.657 201.008 136.997 201.448 136.997 201.878 C 136.997 202.748 142.147 203.418 142.437 203.418 C 142.087 203.768 141.757 204.268 141.757 204.778 C 143.737 205.518 145.977 205.268 147.707 206.308 L 147.707 207.168 L 144.477 207.848 L 146.517 209.378 C 155.787 209.378 152.477 208.318 152.477 211.248 C 152.477 214.598 163.577 212.438 164.727 212.438 L 166.257 212.608 L 164.557 214.818 C 168.147 217.438 173.197 216.758 177.497 217.198 L 177.827 218.058 C 177.827 219.268 175.187 217.958 174.267 218.738 C 178.127 219.838 181.967 220.098 186.007 220.098 C 186.967 220.408 185.497 221.858 184.977 221.978 C 190.057 224.758 197.067 223.058 197.067 227.078 C 197.067 229.788 206.287 229.788 207.957 229.968 C 207.607 231.298 207.817 231.138 206.757 232.178 C 214.307 238.798 223.577 241.158 229.577 249.888 C 231.287 252.378 233.327 255.638 233.817 258.738 C 233.937 259.408 234.047 261.018 233.717 261.688 C 233.427 262.248 232.177 263.328 232.807 263.328 C 235.177 263.328 236.977 259.498 238.077 257.878 L 238.597 259.748 C 227.237 281.518 211.037 272.148 201.827 282.898 L 201.317 285.968 L 199.787 287.668 L 199.277 287.668 C 185.147 294.288 184.467 302.268 184.467 317.118 C 184.467 321.378 187.697 324.518 187.697 328.518 C 187.697 332.868 185.837 337.088 185.837 341.628 C 185.837 346.558 189.097 348.408 189.407 350.138 C 189.097 343.358 191.447 336.928 191.447 329.548 C 191.447 327.238 192.787 325.788 192.977 324.438 C 192.787 329.908 196.787 337.978 192.977 342.988 L 193.147 344.868 C 195.287 341.128 196.217 340.778 196.217 336.008 C 196.217 332.418 194.177 329.028 194.177 325.118 C 194.177 323.358 195.647 321.248 196.547 319.838 C 197.777 319.438 196.217 325.708 196.217 326.478 C 196.217 329.288 199.817 342.308 202.847 342.308 C 203.457 342.308 204.207 335.348 204.207 333.288 L 203.987 331.638 L 203.697 330.738 C 203.167 329.138 201.317 325.578 201.317 323.758 C 201.317 323.618 201.807 321.548 201.997 321.548 C 203.377 321.548 203.567 326.418 204.727 327.838 C 212.287 337.088 209.527 337.468 221.567 338.908 C 221.637 336.188 228.137 335.668 229.907 335.668 C 230.137 335.668 232.807 336.498 232.807 336.858 L 232.297 337.718 L 229.907 337.038 C 228.417 337.768 226.167 338.148 226.167 340.088 C 226.167 341.368 228.647 340.768 229.907 340.768 C 232.927 340.768 235.057 336.858 238.077 336.858 C 240.657 336.858 236.807 338.818 240.967 337.538 L 241.317 339.928 C 241.317 346.418 233.027 343.778 233.487 351.668 L 234.507 352.858 C 239.537 351.728 239.067 347.378 240.467 347.418 C 240.717 348.468 239.887 353.898 241.147 352.688 L 241.207 353.458 L 251.717 353.458"/>
      <path id="path827" fill-rule="nonzero" fill="#da121a" d="M 229.907 405.118 C 229.947 404.998 230.257 403.968 230.257 403.928 L 230.257 401.028 C 230.257 400.508 229.607 398.508 229.397 397.968 L 230.757 396.438 C 231.277 396.328 232.337 395.918 232.807 395.918 L 234.167 395.918 C 234.237 395.918 236.167 396.388 236.377 396.438 C 236.417 396.618 236.717 398.038 236.717 398.138 C 236.717 398.218 236.737 399.128 236.717 399.158 C 236.307 399.998 234.897 402.248 234.337 402.898 C 233.627 403.738 231.077 405.348 229.907 405.118"/>
      <path id="path829" fill-rule="nonzero" fill="#da121a" d="M 176.127 404.428 C 177.437 403.378 179.777 401.878 181.407 401.378 C 181.457 400.658 181.577 399.878 181.577 399.158 C 181.577 398.668 180.767 396.748 180.557 396.268 C 178.447 396.448 176.627 397.648 175.787 399.608 C 175.717 399.768 175.277 400.918 175.277 401.028 L 175.277 402.898 C 175.277 402.958 175.587 403.978 175.627 404.098 L 176.127 404.428"/>
      <path id="path831" fill-rule="nonzero" fill="#da121a" d="M 106.687 385.028 L 107.367 384.858 C 107.277 384.188 107.037 383.318 107.037 382.648 C 107.037 381.188 107.817 379.808 108.737 378.728 C 108.007 377.408 106.177 377.198 104.817 377.198 C 103.727 377.198 102.517 377.448 101.417 377.548 L 100.397 378.398 C 100.677 379.008 101.007 379.638 101.247 380.268 C 101.387 380.638 101.417 381.098 101.587 381.458 C 102.437 383.298 104.997 384.218 106.687 385.028"/>
      <path id="path833" fill-rule="evenodd" fill="#ffffff" d="M 109.077 374.988 L 110.097 374.988 L 110.097 373.458 L 111.977 373.288 L 111.797 371.578 C 110.097 370.238 105.977 369.308 103.967 369.208 L 103.117 368.348 C 105.597 367.808 107.587 368.398 110.097 368.858 L 111.627 368.178 L 112.307 366.478 L 111.627 365.288 L 114.177 364.778 C 113.817 362.778 113.987 360.668 113.847 358.648 C 116.047 356.248 117.907 355.028 121.157 354.568 C 122.507 350.238 124.727 350.218 128.647 349.628 L 129.337 350.478 C 129.337 352.558 125.197 352.218 124.227 354.048 L 124.227 355.928 L 125.757 357.118 L 127.627 357.288 C 130.867 357.288 134.687 354.178 139.197 354.728 L 140.557 353.888 L 140.557 352.348 C 137.737 349.538 133.877 347.868 130.177 346.228 L 130.347 345.198 C 131.657 344.738 133.037 343.968 134.437 343.838 L 134.437 340.608 L 135.617 340.268 L 138.177 342.478 L 138.517 334.308 L 139.547 334.478 C 139.177 338.308 141.217 341.128 143.457 344.008 L 144.477 344.008 C 144.727 344.008 145.667 340.488 145.667 339.928 C 145.667 336.328 143.457 333.138 143.457 329.548 C 143.457 328.708 143.957 327.718 144.307 326.988 C 145.787 326.808 144.637 329.548 144.637 330.388 C 144.637 331.728 147.807 336.048 148.567 337.538 C 149.727 336.508 150.607 335.248 150.607 333.628 C 150.607 330.238 147.537 326.598 147.537 322.048 C 147.537 321.388 147.897 320.358 148.567 320.358 L 149.407 320.858 C 149.407 326.958 153.347 333.798 159.457 335.328 L 158.947 332.268 C 155.827 330.118 152.647 327.608 152.647 323.588 C 152.647 322.578 153.337 321.438 153.667 320.518 L 154.517 320.688 C 154.257 325.618 156.357 328.248 160.637 330.388 L 160.817 329.548 C 160.817 326.848 155.517 324.148 156.047 317.288 L 157.407 317.118 C 159.507 318.168 160.337 319.908 161.317 321.878 L 161.157 320.178 L 161.497 317.968 C 164.187 320.368 165.137 323.698 167.107 326.478 L 167.967 326.648 L 167.967 322.398 C 167.967 310.818 160.187 313.428 155.707 306.558 L 155.707 305.548 C 159.797 309.578 166.137 310.598 171.027 314.908 C 171.277 313.608 171.367 312.308 171.367 310.988 C 171.367 304.618 158.747 301.538 154.177 300.258 L 155.027 299.248 L 158.767 299.248 C 162.987 299.248 166.187 301.798 169.657 301.798 L 171.027 301.628 C 171.027 296.048 164.307 293.628 159.797 293.628 C 154.647 293.628 149.687 295.158 144.477 295.158 C 143.537 295.158 140.887 293.658 140.227 292.948 L 140.227 291.418 C 141.117 292.528 143.147 292.778 144.477 292.778 L 146.517 292.268 L 147.367 291.078 C 143.437 290.608 139.637 289.178 137.327 285.798 C 132.387 288.648 131.737 289.878 125.417 289.878 C 120.897 289.878 114.017 286.818 114.017 281.368 C 114.017 279.578 115.117 277.108 117.077 277.108 L 116.737 277.908 C 116.427 278.618 116.217 278.878 116.217 279.668 C 116.217 282.688 119.297 284.948 122.177 284.948 C 129.407 284.948 134.857 275.108 135.617 268.948 L 136.477 269.628 C 135.877 278.798 133.117 281.328 126.947 287.508 C 140.487 286.848 141.417 258.228 157.917 258.228 L 158.087 259.248 C 149.107 262.378 142.417 270.158 140.907 279.668 C 148.517 276.338 151.687 265.038 161.497 265.038 L 162.177 265.038 C 162.177 265.418 161.727 265.838 161.437 266.048 C 156.157 270.008 153.427 269.428 150.607 276.438 C 158.937 273.178 165.937 265.648 174.597 264.358 L 175.277 265.208 C 176.487 265.408 177.797 265.718 179.027 265.718 C 180.457 265.718 181.517 265.488 182.767 264.858 C 185.227 263.628 182.027 264.288 182.597 262.308 C 187.077 261.688 191.677 261.138 196.217 261.288 C 191.827 260.518 186.857 257.838 182.427 257.878 C 182.047 256.988 183.097 256.698 183.677 256.698 C 188.807 256.698 193.817 257.878 198.937 257.878 L 200.977 257.878 C 197.287 255.728 181.857 253.338 177.147 253.118 L 177.147 252.088 L 180.897 252.088 C 187.297 252.088 193.867 252.558 200.127 253.968 C 195.397 250.528 179.097 248.478 173.067 247.498 L 172.727 246.138 C 179.707 246.768 186.637 248.058 193.657 247.838 L 194.177 247.498 C 172.627 241.588 153.287 237.118 130.697 237.118 C 123.497 237.118 119.117 241.658 113.847 245.968 C 105.037 253.178 103.197 247.098 96.487 259.418 C 91.657 268.258 89.637 275.848 79.297 279.848 L 82.187 280.178 C 88.647 280.178 97.767 271.908 98.867 265.718 C 99.207 266.548 99.377 267.378 99.377 268.268 C 99.377 270.198 95.747 274.888 94.787 276.098 C 94.957 276.308 93.297 277.598 93.197 277.688 L 88.147 281.718 L 87.967 282.398 C 88.687 282.708 89.417 282.898 90.187 282.898 C 97.847 282.898 101.337 275.658 104.997 270.478 L 104.997 272.008 C 104.997 277.448 97.377 283.078 92.737 284.438 C 92.737 288.948 91.887 293.368 91.887 297.708 C 91.887 301.658 98.287 306.228 101.927 306.228 C 104.877 306.228 107.867 305.088 110.437 303.678 C 111.147 305.018 110.437 305.248 110.437 306.558 C 110.437 307.918 115.457 308.098 116.217 308.098 C 119.657 308.098 122.597 305.198 126.437 305.198 C 129.357 305.198 136.567 308.188 136.997 311.338 C 135.637 310.948 134.337 310.138 132.897 310.138 C 129.687 310.138 129.587 311.118 127.277 312.018 L 127.627 315.758 C 127.627 322.198 124.227 327.138 124.227 334.478 C 124.227 340.208 113.867 351.668 108.057 351.668 C 105.317 351.668 102.597 351.368 99.887 350.988 C 96.807 347.948 95.307 348.608 91.207 348.608 C 88.107 345.558 88.287 343.328 82.867 343.328 L 80.987 343.498 L 80.147 344.178 L 80.147 345.708 C 80.147 348.768 81.897 349.878 81.167 354.048 L 82.867 355.408 C 85.467 354.888 86.547 352.528 89.327 352.528 C 93.177 352.528 97.067 353.028 100.907 353.208 L 102.957 353.208 L 102.957 353.888 C 97.777 356.038 92.327 354.098 87.637 357.458 L 87.637 358.478 C 87.637 359.628 92.747 368.438 93.937 369.028 L 95.627 368.528 C 95.937 366.828 96.637 366.598 96.487 364.608 C 97.927 365.458 98.987 362.238 99.887 361.368 L 99.717 358.818 L 99.887 357.798 C 102.967 360.108 100.917 360.628 105.837 361.028 L 105.837 362.058 C 102.117 362.908 97.877 368.368 97.667 372.438 L 98.527 374.138 C 101.787 374.548 105.907 374.988 109.077 374.988"/>
      <path id="path835" fill-rule="nonzero" fill="#da121a" d="M 83.727 371.248 C 85.207 369.758 86.757 368.358 88.827 367.848 L 88.647 366.478 C 88.137 366.188 88.117 365.378 87.807 364.948 C 87.397 364.368 86.757 363.778 86.277 363.238 L 84.737 363.588 C 84.467 363.908 83.927 364.138 83.727 364.428 C 83.287 365.058 82.957 366.188 82.637 366.878 C 82.537 367.118 82.357 367.228 82.357 367.498 L 82.357 368.698 C 82.357 369.228 82.847 370.588 83.037 371.078 L 83.727 371.248"/>
      <path id="path837" fill-rule="nonzero" fill="#da121a" d="M 134.937 367.498 C 137.357 366.168 137.157 365.768 138.347 363.238 C 138.577 362.758 139.037 362.288 139.037 361.708 L 139.037 359.328 C 137.947 358.998 136.597 358.648 135.457 358.648 L 133.927 358.648 C 132.887 358.648 131.327 359.358 130.517 360.008 C 132.597 362.088 133.727 364.878 134.937 367.498"/>
      <path id="path839" fill-rule="nonzero" fill="#da121a" d="M 71.297 353.888 C 73.877 352.438 74.837 352.308 77.757 352.178 C 78.057 351.388 78.437 350.148 78.437 349.288 C 78.437 348.858 78.187 348.198 78.107 347.758 C 77.717 347.598 77.267 347.088 77.077 346.738 C 76.547 346.838 75.897 346.908 75.377 347.068 C 74.747 347.268 72.697 348.628 72.317 349.108 C 71.877 349.688 71.057 351.808 70.787 352.528 L 71.297 353.888"/>
      <path id="path841" fill-rule="nonzero" fill="#ffffff" d="M 123.367 310.478 C 123.567 310.418 124.417 310.088 124.557 310.138 C 125.167 309.648 125.797 309.038 126.437 308.598 C 126.517 308.558 126.997 308.488 127.117 308.438 C 127.507 308.258 127.927 307.978 128.307 307.758 C 127.197 307.548 125.877 307.238 124.727 307.238 C 124.237 307.238 122.097 307.578 121.677 307.758 C 121.037 308.258 120.397 308.598 120.137 308.948 L 119.967 309.628 L 123.367 310.478"/>
      <path id="path843" fill-rule="evenodd" fill="#ffffff" d="M 299.687 285.968 C 310.097 285.968 321.297 274.688 321.297 264.178 C 321.297 263.788 320.767 262.698 320.617 262.308 C 319.547 261.458 318.417 261.168 317.047 261.288 L 316.537 260.268 L 314.667 259.418 L 312.957 261.288 L 312.787 263.158 C 312.787 264.008 313.207 264.918 313.467 265.718 L 312.277 265.038 C 311.187 262.848 310.577 261.258 310.577 258.738 C 310.577 253.848 317.547 250.568 321.647 250.568 C 326.617 250.568 330.817 253.628 335.427 253.628 C 340.687 253.628 341.477 249.698 342.237 245.458 C 341.937 245.318 341.807 244.708 341.727 244.438 C 336.307 244.908 331.967 245.458 326.407 245.458 L 318.747 245.458 C 310.387 245.458 303.607 253.738 303.607 261.628 C 303.607 265.708 307.447 270.598 310.917 272.518 C 310.577 273.358 308.977 275.158 308.877 275.588 C 304.037 277.218 305.427 279.328 297.987 279.328 C 292.437 279.328 284.377 270.488 281.817 266.218 C 282.097 268.308 282.727 271.278 285.047 272.008 L 284.537 273.028 L 281.307 271.158 L 281.307 273.378 C 281.307 278.718 294.547 285.968 299.687 285.968"/>
      <path id="path845" fill-rule="nonzero" fill="#ffffff" d="M 223.437 259.248 L 227.867 258.738 C 227.767 257.598 227.747 255.838 227.187 254.818 C 224.337 249.598 208.447 241.318 202.517 239.668 C 198.307 238.498 193.737 238.418 189.567 237.288 C 185.617 236.218 177.977 231.658 174.767 232.008 C 183.497 241.218 198.227 240.558 208.637 247.498 C 214.377 251.338 218.257 254.238 223.107 259.068 L 223.437 259.248"/>
      <path id="path847" fill-rule="nonzero" fill="#ffffff" d="M 297.467 247.678 C 298.037 247.678 298.617 247.558 299.177 247.498 C 298.327 243.248 293.227 241.988 293.227 234.228 C 293.227 226.048 305.077 222.398 311.597 221.798 C 315.487 221.448 319.747 222.138 323.687 222.138 C 326.337 222.138 328.597 220.998 331.177 220.778 L 330.657 221.978 C 324.087 224.118 317.207 223.158 310.407 223.158 C 304.497 223.158 294.417 228.128 294.417 234.908 C 294.417 238.388 298.127 244.918 301.567 245.968 L 301.727 245.118 C 301.727 243.628 299.517 240.928 299.517 237.628 C 299.517 224.758 317.817 226.898 325.387 226.898 C 332.187 226.898 341.387 223.058 341.387 215.158 C 341.387 214.028 341.267 212.888 341.207 211.758 C 335.457 214.618 330.257 214.648 323.847 214.648 C 319.617 214.648 315.337 213.798 311.097 213.798 C 300.267 213.798 286.407 220.108 286.407 232.518 C 286.407 233.248 287.287 237.358 287.257 237.458 C 289.767 240.468 292.347 247.678 297.467 247.678"/>
      <path id="path849" fill-rule="nonzero" d="M 307.167 243.928 C 306.657 242.298 306.227 240.598 305.647 238.988 C 305.377 238.238 304.837 237.468 304.447 236.778 L 303.437 237.288 C 303.457 237.628 303.617 239.898 303.767 240.178 C 304.117 240.798 305.687 243.248 305.807 243.928 L 307.167 243.928" style="fill: rgb(0, 120, 67);"/>
      <path id="path851" fill-rule="evenodd" fill="#ffffff" d="M 279.267 224.348 L 283.687 224.178 C 282.087 221.748 262.587 220.508 262.587 206.138 C 262.587 183.818 306.857 190.738 321.477 184.518 L 321.297 185.878 C 310.777 189.418 301.727 190.058 290.497 190.488 C 280.747 190.838 266.497 194.458 266.497 206.818 C 266.497 211.238 270.047 214.288 273.137 216.868 C 274.107 216.958 275.047 217.308 276.027 217.198 C 275.127 215.168 273.477 212.238 273.477 210.058 C 273.477 194.908 296.547 192.928 306.667 192.178 C 317.237 191.398 334.917 188.798 334.917 174.478 C 334.917 169.358 329.227 167.128 325.047 167.338 C 325.117 169.108 325.727 170.688 325.727 172.608 C 325.727 182.358 295.947 180.268 290.497 180.268 C 276.477 180.268 255.097 188.368 255.097 205.118 C 255.097 216.718 269.037 224.348 279.267 224.348"/>
      <path id="path853" fill-rule="nonzero" fill="#da121a" d="M 22.957 225.538 C 23.417 225.178 23.857 224.688 24.317 224.348 C 25.187 223.718 27.607 222.218 28.067 221.298 C 26.927 219.688 25.687 218.248 23.807 217.548 L 22.117 219.238 L 22.117 225.028 L 22.957 225.538"/>
      <path id="path855" fill-rule="nonzero" fill="#da121a" d="M 47.807 224.698 L 48.487 224.348 C 48.427 223.468 48.447 221.978 48.827 221.118 C 48.967 220.828 49.197 220.558 49.337 220.268 C 49.647 219.658 49.727 219.158 50.367 218.738 L 49.007 217.368 C 48.187 217.228 47.097 216.868 46.277 216.868 C 45.737 216.868 44.977 217.138 44.397 217.198 L 43.557 218.058 L 43.557 219.418 C 43.557 219.988 44.017 220.608 44.237 221.118 C 44.407 221.528 44.517 222.118 44.747 222.478 C 45.087 223.048 47.117 224.428 47.807 224.698"/>
      <path id="path857" fill-rule="nonzero" d="M 287.257 219.758 L 288.627 219.418 C 289.277 218.238 292.527 215.728 293.557 214.988 C 292.677 212.568 289.227 205.568 287.607 204.268 C 287.717 204.058 285.757 200.778 285.567 200.518 C 285.107 200.578 283.547 200.948 283.177 201.378 C 280.457 204.518 278.067 206.558 278.067 210.898 C 278.067 214.548 284.047 219.178 287.257 219.758" style="fill: rgb(0, 120, 67);"/>
      <path id="path859" fill-rule="evenodd" fill="#ffffff" d="M 32.147 220.608 L 33.177 220.268 L 33.337 218.228 C 33.337 218.218 32.297 216.388 32.147 215.838 L 34.017 216.518 C 34.427 217.288 35.137 217.948 35.727 218.558 L 36.577 219.238 L 37.767 218.908 L 37.937 217.548 C 37.937 215.928 35.727 213.838 35.727 211.418 C 35.727 209.388 37.957 207.638 38.447 205.968 C 39.927 204.918 41.977 204.638 43.387 203.588 C 46.877 200.968 45.617 196.438 52.407 196.438 L 53.427 196.438 C 52.597 197.468 49.027 199.888 47.807 200.868 C 47.267 204.358 41.957 209.058 39.807 209.378 L 39.807 211.418 C 39.807 212.798 40.627 213.538 41.677 214.308 C 43.587 214.548 45.807 213.798 47.807 213.798 C 48.577 213.798 53.517 215.998 53.597 216.188 L 55.467 216.008 L 54.957 213.968 L 52.237 211.578 C 53.657 210.838 54.797 210.818 56.317 211.248 L 56.317 209.888 C 55.377 209.018 54.367 207.848 53.087 207.498 C 54.007 206.708 55.237 205.988 56.487 206.138 C 55.587 204.188 54.617 202.018 54.617 199.838 L 54.787 198.828 C 55.227 199.068 56.587 200.468 56.827 200.868 L 58.357 201.198 L 59.717 199.838 C 59.817 194.278 61.567 187.888 68.407 188.608 C 67.627 191.198 63.977 189.798 63.127 195.408 L 64.657 196.608 C 70.077 195.978 65.887 193.538 76.227 193.538 C 77.377 193.538 78.747 192.398 79.117 191.328 L 78.947 190.308 C 76.857 188.198 75.507 188.098 72.657 187.418 C 76.057 184.718 76.267 185.688 77.587 181.458 L 78.267 181.798 C 78.267 184.638 78.317 184.718 80.657 186.058 C 81.837 183.408 80.857 179.168 82.527 177.368 C 82.827 177.328 83.097 176.948 83.207 176.688 L 83.037 178.728 C 83.037 181.098 83.617 182.988 84.397 185.198 L 85.417 184.698 C 86.607 181.138 87.037 177.668 88.317 174.138 L 89.327 174.138 C 89.067 176.168 88.487 178.208 88.487 180.268 C 88.487 181.148 88.877 181.978 89.167 182.828 C 92.517 178.258 91.987 171.568 95.117 167.838 C 96.047 169.478 94.617 171.308 94.617 172.948 C 94.617 173.598 94.847 174.348 94.947 174.998 C 96.467 173.748 102.027 166.938 101.247 165.458 L 102.097 164.778 L 102.607 166.138 C 104.707 164.028 107.607 159.178 107.547 156.268 C 107.247 156.218 107.347 155.428 107.367 155.248 C 104.247 156.778 101.577 157.068 98.187 157.638 C 89.957 159.008 85.827 169.878 76.397 171.758 C 71.757 172.678 60.207 178.518 57.507 181.798 C 55.447 184.038 52.557 187.418 49.337 187.418 L 49.337 186.568 C 51.157 185.478 51.467 185.528 52.737 183.668 L 50.187 183.668 C 45.607 183.668 42.757 189.468 36.237 189.968 C 34.907 188.528 28.027 191.388 24.317 185.548 C 20.107 186.108 18.097 185.318 14.457 188.098 C 14.507 189.108 14.907 190.728 15.817 191.328 C 16.377 194.698 16.897 197.148 17.177 200.698 L 18.367 200.518 C 18.647 199.118 18.347 198.718 18.197 197.458 L 19.727 197.458 C 20.467 199.418 20.777 199.338 21.087 201.548 L 22.277 202.398 C 25.277 202.278 26.167 199.068 26.027 196.608 C 27.117 197.338 28.947 198.988 30.107 198.988 L 32.147 198.988 C 34.147 196.548 38.147 194.738 41.167 194.738 L 42.027 194.908 C 42.027 195.308 41.537 195.598 41.167 195.758 C 35.397 198.378 36.267 198.398 35.217 203.418 C 33.807 203.188 32.387 202.908 30.967 202.908 C 26.997 202.908 21.767 206.678 21.767 210.898 C 21.767 211.548 22.127 212.328 22.277 212.948 C 25.177 215.528 28.327 217.168 32.147 220.608"/>
      <path id="path861" fill-rule="nonzero" fill="#da121a" d="M 70.277 204.608 C 70.637 204.398 71.137 204.178 71.467 203.928 C 71.517 203.878 71.727 203.498 71.807 203.418 C 72.067 203.118 72.407 202.868 72.657 202.558 C 72.847 202.328 74.057 200.518 74.187 200.188 C 74.567 199.168 74.907 198.198 75.037 197.118 C 74.257 197.058 73.437 196.948 72.657 196.948 C 71.747 196.948 70.857 197.178 69.927 197.118 C 69.287 197.548 68.777 198.108 68.237 198.648 C 68.367 199.028 68.877 200.318 69.247 200.518 L 69.927 203.078 C 70.047 203.478 69.947 203.888 70.277 204.608"/>
      <path id="path863" fill-rule="nonzero" fill="#da121a" d="M 9.347 200.188 C 9.647 199.938 9.797 200.078 10.027 200.008 C 12.027 199.468 12.007 199.328 13.937 199.328 C 13.997 198.608 14.107 197.838 14.107 197.118 C 14.107 196.088 13.307 194.028 12.917 193.038 C 12.207 193.368 11.337 193.748 10.707 194.218 C 9.787 194.908 8.997 196.488 8.997 197.628 L 8.997 198.648 C 8.997 198.718 9.317 200.028 9.347 200.188"/>
      <path id="path865" fill-rule="evenodd" fill="#ffffff" d="M 132.217 197.968 C 135.497 197.968 135.797 192.968 135.797 190.818 C 135.797 187.028 135.687 184.498 134.437 181.118 C 131.537 182.888 128.367 184.518 124.907 184.518 C 122.177 184.518 119.287 181.398 119.287 178.728 L 122.177 178.728 C 124.317 178.558 125.847 177.538 127.227 175.948 C 130.817 171.858 132.617 163.418 133.757 158.138 C 135.067 152.018 140.977 148.478 143.797 143.328 L 144.477 144.008 C 141.297 154.598 137.837 159.598 137.837 171.418 L 138.347 184.018 L 138.687 191.848 C 138.737 192.588 138.437 194.048 139.197 194.048 C 144.087 194.048 141.977 156.098 147.707 156.098 L 147.877 157.288 C 147.877 165.708 142.687 184.458 143.797 194.398 C 154.697 189.258 155.367 173.788 157.917 163.588 C 158.067 162.988 161.717 152.528 163.027 152.528 C 163.237 152.528 163.367 153.818 163.367 154.058 C 163.367 163.748 156.557 176.878 156.557 187.068 L 158.767 187.248 C 170.317 187.248 173.567 138.398 182.257 138.398 L 183.287 138.568 C 176.757 144.818 172.797 168.428 171.367 177.548 C 180.837 173.378 184.047 153.068 188.387 143.678 C 189.517 141.228 192.187 131.588 193.147 131.588 L 193.487 132.778 C 190.657 137.808 190.397 147.608 189.917 153.378 C 194.397 147.098 199.807 119.168 204.727 119.168 L 204.887 120.178 C 204.887 120.298 202.067 128.578 201.827 130.738 L 202.337 131.078 C 202.717 131.078 207.497 118.488 208.637 116.778 C 211.797 112.028 213.517 107.468 218.167 103.848 L 218.677 104.528 C 218.677 106.468 216.917 108.018 216.127 109.798 C 222.177 106.038 225.617 96.368 229.577 90.568 L 230.257 90.728 C 229.207 92.338 228.107 95.058 227.637 96.928 L 227.297 98.388 C 227.257 98.598 226.987 98.908 227.187 98.908 C 234.247 98.908 242.677 73.228 242.677 66.568 C 242.677 62.348 242.687 54.778 238.597 52.048 C 238.417 51.208 240.247 51.298 240.637 51.598 C 240.267 48.768 239.707 48.098 237.397 46.488 L 236.377 45.968 C 236.377 44.528 238.167 45.118 239.097 45.118 L 239.607 45.118 C 236.227 38.338 219.667 32.558 212.387 33.038 L 212.037 31.848 C 221.907 31.158 230.387 31.848 240.117 31.848 C 246.647 31.848 253.377 29.758 260.197 29.628 C 253.937 24.768 235.097 26.208 227.187 25.718 C 221.757 25.378 215.717 27.758 209.997 27.758 C 208.547 27.758 200.637 25.068 200.637 24.188 C 200.637 23.038 206.747 24.698 208.467 24.698 L 211.537 24.518 L 212.547 23.668 C 212.547 19.858 204.237 20.608 202.337 20.608 C 195.077 20.608 187.047 13.638 179.367 13.638 C 174.777 13.638 174.767 15.508 174.767 19.078 C 174.767 19.468 173.867 19.348 173.577 19.078 L 173.067 17.548 L 171.197 17.548 L 170.687 19.078 C 170.687 23.398 193.037 28.948 195.867 32.178 L 195.707 33.368 L 192.977 34.048 C 191.867 33.808 190.927 32.858 189.747 32.858 C 185.827 32.858 181.537 35.758 177.667 35.758 C 176.997 35.758 169.387 31.928 167.287 31.328 C 166.817 31.208 165.067 30.058 165.067 29.628 C 165.067 28.698 170.737 27.758 169.487 26.058 C 165.997 23.348 164.367 22.308 159.957 22.308 C 158.367 22.308 154.197 24.228 152.297 24.698 C 142.837 27.068 136.357 28.688 126.097 29.968 C 124.867 30.118 120.997 31.618 120.997 33.208 C 120.997 34.578 123.817 35.848 124.727 36.268 L 124.727 37.798 L 122.007 39.158 L 121.497 40.188 C 121.497 41.228 127.287 43.568 128.817 45.968 L 130.697 45.808 L 132.387 42.568 C 137.817 40.138 137.157 41.718 142.437 41.718 L 142.147 41.318 L 141.237 40.298 L 139.197 39.508 L 138.347 39.338 L 138.687 38.478 L 141.407 38.478 C 145.267 38.478 156.907 43.838 156.907 48.698 C 156.907 52.768 145.427 51.698 143.627 51.928 L 142.267 52.098 C 141.377 53.338 138.007 57.008 138.007 57.718 L 138.347 58.558 C 143.857 60.168 145.557 63.378 150.427 64.528 C 151.917 63.568 153.457 62.568 154.687 61.298 C 159.657 56.098 162.357 53.008 169.157 50.398 C 170.297 49.958 175.657 47.898 175.107 51.078 L 177.317 51.078 C 179.737 51.078 182.737 48.698 184.807 48.698 C 186.077 48.698 186.027 50.958 186.847 51.928 C 188.467 53.818 190.687 55.128 192.807 56.358 C 194.347 57.238 201.337 57.188 199.617 58.908 L 202.337 59.248 C 203.387 59.248 207.727 56.938 209.827 56.518 L 210.677 57.198 L 208.807 59.418 L 208.807 60.098 L 209.937 59.978 C 211.637 59.818 213.377 59.438 214.937 58.738 L 215.447 59.758 C 213.517 60.658 212.077 61.808 211.017 63.668 L 213.227 63.668 C 215.647 63.668 217.707 61.458 220.557 61.458 L 220.557 62.818 C 220.557 65.508 215.637 65.348 213.907 67.418 C 202.527 81.008 179.747 90.938 161.997 89.368 L 161.837 90.728 C 161.837 92.398 164.897 92.988 164.897 94.828 C 164.897 95.428 163.677 95.008 163.147 95.278 C 161.277 96.208 158.877 96.888 156.907 97.658 C 152.327 99.438 148.187 102.328 144.137 105.038 C 122.497 119.458 110.387 139.198 82.357 140.958 C 83.567 145.298 88.427 146.398 92.397 146.398 C 102.827 146.398 116.967 131.588 117.077 131.588 L 117.577 131.758 L 114.347 136.178 C 114.937 137.348 108.147 143.868 108.057 144.518 C 104.957 146.358 94.917 150.168 93.757 151.338 L 94.947 152.698 C 96.377 153.198 97.707 153.538 99.207 153.538 C 107.137 153.538 117.197 140.438 118.097 140.438 L 118.257 141.798 C 118.257 146.878 95.627 177.188 95.627 185.548 C 95.627 191.588 97.617 189.708 99.027 193.208 C 99.747 181.198 106.167 171.848 116.907 166.478 C 119.247 165.298 119.217 161.248 121.157 160.178 L 121.497 162.908 C 119.537 166.738 112.307 171.428 112.307 174.138 L 112.477 175.328 C 128.607 171.778 123.217 149.628 132.737 149.628 C 133.127 149.628 132.757 150.468 132.567 150.818 L 130.857 153.028 C 126.347 158.908 133.247 173.638 114.347 180.788 C 116.557 184.718 120.487 185.598 124.397 186.568 L 123.877 187.588 L 120.477 187.588 C 122.747 189.018 124.617 189.538 127.277 190.138 C 127.707 190.238 128.977 190.738 128.477 191.328 L 123.037 190.988 L 123.367 191.668 C 125.427 192.588 127.517 193.248 129.727 193.718 C 130.667 193.918 132.567 193.268 132.567 194.218 C 132.567 194.928 129.957 195.398 128.987 195.758 L 130.697 197.628 L 132.217 197.968"/>
      <path id="path867" fill-rule="nonzero" fill="#ffffff" d="M 251.697 194.398 L 252.717 194.048 L 252.537 193.038 C 241.817 188.868 237.907 182.868 237.907 171.588 C 237.907 153.668 265.787 144.508 279.947 146.398 C 288.017 147.468 296.477 148.438 304.617 148.438 C 307.367 148.438 310.637 147.838 313.307 147.248 L 313.977 147.918 C 310.167 149.728 305.177 150.138 301.047 150.138 C 295.167 150.138 289.297 148.948 283.347 148.948 C 268.157 148.948 241.317 152.658 241.317 173.628 C 241.317 175.548 242.107 176.918 243.017 178.568 L 243.697 178.568 C 242.487 145.908 286.947 151.498 306.667 151.498 C 313.087 151.498 319.427 150.458 324.527 146.398 C 327.687 144.018 329.977 138.068 329.977 134.308 C 329.977 133.028 329.567 131.198 328.457 130.398 C 322.917 137.958 317.577 141.118 308.027 141.118 C 297.587 141.118 287.417 138.218 276.877 138.218 L 265.647 138.218 C 251.427 138.218 230.757 152.788 230.757 168.018 C 230.757 179.298 240.867 191.478 251.697 194.398"/>
      <path id="path869" fill-rule="nonzero" d="M 255.437 189.808 L 256.227 189.578 C 257.067 189.338 258.007 188.228 258.677 187.648 C 261.317 185.298 264.777 183.798 267.857 182.138 C 269.597 181.208 272.187 181.158 273.817 179.928 C 270.727 172.668 265.587 166.548 262.247 159.498 C 257.537 161.448 252.887 162.718 250.497 168.018 C 249.087 171.148 247.437 174.238 247.437 177.718 C 247.437 181.338 251.467 188.158 254.757 189.628 C 254.967 189.578 255.257 189.728 255.437 189.808" style="fill: rgb(0, 120, 67);"/>
      <path id="path871" fill-rule="nonzero" fill="#ffffff" d="M 127.117 180.438 C 129.077 180.268 130.057 179.568 131.317 177.998 C 131.407 177.888 132.007 177.128 132.057 177.038 C 132.157 176.798 132.137 176.428 132.217 176.178 C 132.707 174.738 132.827 174.628 133.017 172.948 C 133.047 172.738 133.247 172.138 133.247 171.928 L 133.247 170.738 L 132.737 170.218 C 132.487 170.908 132.357 171.798 132.057 172.438 C 131.417 173.798 130.567 175.048 129.837 176.358 C 129.467 177.008 129.217 177.768 128.817 178.398 C 128.367 179.108 127.677 179.808 127.117 180.438"/>
      <path id="path873" fill-rule="nonzero" fill="#ffffff" d="M 199.617 172.948 C 200.447 172.948 201.337 172.838 202.167 172.778 L 201.827 171.758 C 201.617 171.588 199.317 169.768 199.277 169.708 C 199.167 169.568 198.277 167.188 198.087 166.818 C 197.667 166.018 197.047 165.208 196.547 164.438 C 196.367 164.148 196.267 163.748 196.217 163.418 L 195.357 163.078 C 195.487 164.278 195.367 166.138 195.537 167.158 C 195.587 167.528 196.537 170.058 196.727 170.388 C 197.077 171.058 197.637 171.508 197.907 172.268 C 198.047 172.318 199.577 172.948 199.617 172.948"/>
      <path id="path875" fill-rule="nonzero" fill="#ffffff" d="M 237.397 147.588 C 238.297 146.948 240.427 145.858 240.967 144.868 C 242.887 125.678 256.447 116.098 275.517 116.098 C 284.927 116.098 293.727 119.848 303.087 119.848 C 307.357 119.848 310.717 117.748 314.827 117.288 L 314.667 118.308 C 309.597 119.998 305.477 121.718 300.027 121.718 C 294.237 121.718 288.637 119.168 283.177 119.168 C 278.957 119.168 272.587 118.258 268.717 119.168 C 261.587 120.838 258.047 121.638 252.717 126.828 L 252.537 127.508 C 259.717 123.568 268.267 120.688 276.547 120.688 C 286.357 120.688 296.007 123.758 305.987 123.758 C 318.967 123.758 334.067 111.948 334.067 98.228 C 334.067 92.188 326.407 88.178 321.297 88.178 C 319.877 88.178 316.497 88.488 315.857 90.048 C 319.887 93.818 322.667 93.998 322.667 100.268 C 322.667 106.368 315.907 109.628 310.577 109.628 C 299.807 109.628 289.157 105.368 278.237 105.368 C 268.027 105.368 251.887 110.728 244.547 117.808 C 244.567 118.198 239.647 123.608 238.757 124.948 C 238.267 126.228 235.697 132.848 235.697 133.968 L 235.697 143.838 L 237.397 147.588"/>
      <path id="path877" fill-rule="nonzero" fill="#ffffff" d="M 214.587 146.058 C 213.167 141.798 212.547 138.588 212.547 133.968 C 212.547 127.318 219.697 115.028 219.697 114.908 L 219.697 114.058 C 214.587 117.958 207.447 126.958 207.447 133.628 L 207.447 138.218 C 207.447 143.298 211.397 143.978 212.547 145.878 C 213.197 146.058 213.927 146.108 214.587 146.058"/>
      <path id="path879" fill-rule="nonzero" d="M 245.907 141.798 C 248.577 140.658 251.177 139.388 253.907 138.398 C 253.277 136.988 253.347 135.438 252.887 133.968 C 252.657 133.248 252.137 132.498 251.857 131.758 C 250.437 132.238 249.677 132.998 248.627 133.968 C 246.917 135.568 245.397 137.048 245.397 139.578 L 245.397 141.638 L 245.907 141.798" style="fill: rgb(0, 120, 67);"/>
      <path id="path881" fill-rule="evenodd" fill="#ffffff" d="M 97.667 131.928 C 98.077 131.658 97.667 127.968 97.667 127.328 C 97.667 125.368 98.487 123.448 98.867 121.538 L 100.057 122.058 C 100.377 124.058 101.587 130.168 103.967 130.738 L 105.677 130.558 C 105.267 129.458 103.747 125.088 103.797 124.778 C 104.087 122.948 104.217 121.098 105.837 120.008 C 107.687 120.718 109.647 121.208 111.627 121.208 C 116.247 121.208 120.347 118.008 124.047 115.588 C 124.067 115.188 124.777 114.858 125.077 114.738 L 123.547 113.198 L 121.327 112.698 L 120.997 111.668 L 123.197 111.328 C 121.327 110.078 119.657 109.488 117.417 109.628 L 118.777 107.928 C 116.767 107.668 115.337 107.168 113.337 107.408 C 113.757 106.268 114.197 105.268 115.377 104.688 C 112.467 103.858 110.897 104.048 107.887 104.178 L 106.867 104.358 C 107.057 103.738 107.367 102.968 107.367 102.308 L 107.037 101.628 C 104.307 101.428 102.017 101.058 99.547 102.308 L 99.717 100.948 C 100.267 100.618 100.147 99.918 100.907 99.588 C 98.527 99.498 96.147 99.248 93.757 99.248 L 95.117 97.028 C 89.407 92.748 80.277 91.838 74.187 88.358 C 74.487 87.628 75.157 87.458 75.377 86.818 L 71.967 85.458 C 71.717 84.848 71.347 83.758 71.467 83.078 C 70.427 82.058 67.567 81.308 66.187 81.208 C 66.637 78.718 64.037 78.248 62.107 78.138 L 62.447 76.608 C 60.667 74.148 50.847 66.658 47.977 64.178 C 50.017 60.428 49.687 54.828 49.687 50.738 L 49.687 49.888 L 47.977 49.378 L 48.147 48.178 L 50.877 46.658 L 51.557 44.438 L 50.697 42.228 L 49.007 41.548 C 46.987 42.408 44.817 43.858 43.037 45.118 C 41.047 45.238 39.067 44.778 37.087 44.778 C 35.847 44.778 35.037 45.178 34.367 46.138 L 34.197 49.718 L 35.727 51.248 L 38.957 50.738 L 39.467 51.928 L 37.937 53.638 C 39.037 56.518 40.757 58.478 41.517 61.628 L 40.827 62.658 C 38.407 61.258 35.757 60.948 33.007 60.948 C 33.577 60.498 34.197 59.838 34.197 59.078 L 34.197 58.228 C 33.377 57.308 32.237 56.288 31.017 56.068 L 29.257 55.508 L 28.417 55.508 C 28.417 54.748 28.977 53.968 29.597 53.638 C 28.177 51.428 19.417 43.758 16.497 43.758 L 13.937 43.928 L 12.417 45.628 L 12.237 47.668 C 12.237 53.268 15.797 53.088 14.107 62.818 L 15.467 64.178 L 16.837 63.848 L 17.687 62.488 C 17.537 61.648 17.617 60.728 17.337 59.938 L 18.877 60.268 C 19.287 61.438 19.467 61.618 19.727 62.988 L 21.597 62.138 C 22.907 60.478 23.077 58.398 22.957 56.358 L 24.317 57.378 C 24.757 59.188 24.667 60.978 24.667 62.818 C 26.597 64.368 27.387 65.098 29.767 65.888 L 30.107 67.078 C 28.557 67.718 27.367 68.288 26.357 69.638 L 26.357 72.868 C 25.597 72.528 25.037 72.008 24.157 72.008 C 21.687 72.008 20.347 73.478 18.537 74.908 L 18.877 76.948 C 21.717 79.998 24.787 81.648 27.217 85.128 L 28.747 85.458 L 28.917 83.248 L 27.727 81.708 L 28.917 81.378 L 30.457 82.058 C 31.847 78.418 30.197 78.558 30.617 75.758 C 32.797 77.298 34.637 78.458 35.047 81.208 L 36.407 81.208 L 37.767 79.668 L 37.937 76.778 C 37.937 74.698 36.987 72.888 36.237 70.998 L 37.257 70.998 C 38.787 72.618 39.887 74.578 40.317 76.778 L 41.517 75.758 L 41.847 74.228 C 44.237 75.288 44.967 78.358 44.917 80.858 L 47.807 81.028 C 49.027 80.418 50.027 79.788 50.527 78.478 L 51.047 79.848 C 50.557 80.318 50.187 80.858 50.187 81.548 L 50.187 82.398 C 51.257 82.158 52.157 81.208 53.257 81.208 L 53.427 82.058 C 50.577 87.608 49.007 84.778 46.277 88.358 L 46.277 90.568 C 50.257 93.008 53.737 94.518 57.347 97.708 L 57.507 95.838 C 58.407 95.838 59.207 95.798 60.067 96.018 L 60.067 94.308 C 60.067 92.248 56.087 88.468 54.787 87.168 L 57.167 86.818 C 60.117 88.288 61.117 90.388 63.467 92.268 L 63.977 91.248 L 65.167 91.248 C 69.227 96.238 71.647 114.808 76.397 117.628 L 78.437 117.808 C 78.677 112.878 78.587 109.338 77.587 104.688 L 78.787 105.038 C 80.107 108.278 82.057 117.648 85.077 118.818 C 85.257 116.968 85.387 115.048 85.077 113.198 C 88.397 116.918 86.427 122.508 89.327 126.828 L 90.187 126.478 C 91.137 123.158 91.097 117.928 89.677 114.738 L 90.527 114.228 C 92.587 119.668 91.607 129.768 97.667 131.928"/>
      <path id="path883" fill-rule="nonzero" fill="#ffffff" d="M 110.607 126.648 C 111.427 126.648 112.497 126.318 113.337 126.148 C 113.677 125.668 114.107 125.608 114.527 125.288 C 115.207 124.758 115.867 123.908 116.397 123.248 C 114.937 123.418 113.437 123.658 111.977 123.758 C 110.797 123.838 109.577 123.758 108.397 123.758 L 108.397 125.458 C 108.817 125.798 110.027 126.648 110.607 126.648"/>
      <path id="path885" fill-rule="nonzero" d="M 132.737 108.608 C 144.787 95.708 155.917 97.148 156.727 90.048 C 156.527 89.068 155.657 88.078 155.027 87.328 L 155.027 86.318 C 160.107 86.318 168.207 86.518 173.147 85.958 C 186.337 84.458 203.827 72.838 206.247 69.798 C 206.547 69.428 206.677 69.118 206.597 68.608 C 202.817 64.198 193.797 64.538 188.557 60.268 C 182.357 55.238 183.157 54.998 175.627 54.998 C 160.607 54.998 156.027 69.798 149.067 69.798 C 147.837 69.798 135.897 62.128 132.737 60.948 C 128.837 62.578 125.707 66.598 122.897 69.658 C 109.167 84.618 82.787 76.578 80.487 85.458 C 87.457 92.938 114.837 97.738 130.177 107.078 L 131.887 107.078 L 132.737 108.608" style="fill: rgb(0, 120, 67);"/>
      <path id="path887" fill-rule="nonzero" fill="#ffffff" d="M 240.797 104.178 C 240.737 101.868 240.737 99.518 240.967 97.208 C 241.087 96.058 241.257 94.948 241.317 93.798 C 239.977 95.358 238.417 97.778 238.417 99.928 L 238.417 101.808 C 238.417 102.588 239.237 103.858 239.787 104.358 L 240.797 104.178"/>
      <path id="path889" fill-rule="nonzero" fill="#da121a" d="M 46.957 104.858 C 51.167 104.858 52.317 104.338 55.467 101.968 C 55.027 101.088 54.637 99.958 53.927 99.248 C 53.487 98.808 53.047 98.288 52.577 97.888 C 52.007 97.398 51.357 97.138 50.877 96.518 C 50.127 96.378 49.367 96.098 48.657 95.838 C 47.217 99.148 46.027 100.998 43.387 103.498 C 44.167 103.998 46.007 104.858 46.957 104.858"/>
      <path id="path891" fill-rule="nonzero" fill="#da121a" d="M 19.047 90.908 C 20.017 89.368 20.677 87.818 22.627 87.328 C 23.167 87.198 23.887 87.308 24.487 87.168 C 24.187 86.598 23.797 85.398 23.477 84.948 C 22.537 83.658 20.697 83.018 19.217 82.568 C 18.837 82.828 17.647 83.918 17.517 84.438 C 17.397 84.898 17.397 85.498 17.337 85.968 C 17.297 86.458 17.177 87.028 17.177 87.498 C 17.177 88.928 17.987 89.768 18.367 91.078 L 19.047 90.908"/>
      <path id="path893" fill-rule="nonzero" d="M 77.587 81.888 C 77.587 81.888 77.757 79.758 77.757 78.988 C 77.757 77.378 78.497 76.918 79.467 75.758 C 85.227 68.838 90.467 71.078 98.017 68.438 C 99.497 67.918 100.967 66.758 102.267 65.888 C 100.667 64.178 89.027 64.348 85.767 64.348 C 81.007 64.348 69.937 66.688 67.547 71.508 C 65.747 70.238 65.847 69.028 65.847 66.898 C 65.847 65.108 67.697 59.888 71.807 57.198 C 77.177 53.698 84.807 52.888 90.867 52.268 L 92.057 52.268 C 87.557 51.538 84.437 50.738 79.807 50.738 C 73.437 50.738 63.347 53.578 61.757 60.778 C 61.757 60.778 58.527 57.008 58.527 54.648 C 58.527 40.438 83.957 35.068 94.267 37.118 C 89.067 31.388 80.177 29.128 72.657 29.128 C 65.487 29.128 55.037 31.858 49.337 36.098 C 49.467 36.318 51.137 39.308 51.047 39.508 C 53.797 42.178 54.447 45.448 54.447 49.208 C 54.447 52.758 53.767 56.218 53.767 59.758 L 53.767 61.458 L 54.617 62.308 C 55.877 64.278 57.077 66.308 58.527 67.928 C 63.447 73.398 64.357 71.398 68.737 74.908 C 71.707 77.288 74.417 79.688 77.587 81.888" style="fill: rgb(0, 120, 67);"/>
      <path id="path895" fill-rule="nonzero" fill="#da121a" d="M 81.507 79.158 C 88.197 76.528 91.637 77.018 99.377 76.778 C 107.657 76.528 122.527 67.348 126.597 61.298 C 120.677 62.558 115.247 64.258 109.077 65.208 C 105.457 65.758 104.317 68.738 100.907 69.968 C 95.217 72.038 83.407 72.218 80.987 78.988 L 81.507 79.158"/>
      <path id="path897" fill-rule="nonzero" fill="#da121a" d="M 69.417 66.058 C 75.557 63.288 81.497 61.628 88.317 61.628 C 94.187 61.628 100.047 63.498 105.837 63.498 C 115.787 63.498 128.907 59.118 136.817 53.798 L 135.797 53.638 C 131.047 53.798 126.467 56.698 121.497 56.698 L 113.847 56.698 C 104.227 56.698 94.397 55.648 84.737 55.508 C 79.357 55.418 70.647 60.248 68.917 65.538 L 69.417 66.058"/>
      <path id="path899" fill-rule="nonzero" fill="#da121a" d="M 2.027 60.948 C 2.737 60.278 3.707 59.198 4.577 58.738 C 5.787 58.098 9.477 56.448 10.877 56.358 C 10.937 55.578 11.057 54.748 11.057 53.968 C 11.057 52.708 9.897 51.508 9.517 50.218 C 9.017 50.498 8.477 50.668 7.987 50.908 C 7.327 51.238 6.757 51.748 6.117 52.098 C 5.757 52.298 5.247 52.388 4.917 52.608 C 3.117 53.858 1.517 57.078 1.517 59.248 C 1.517 59.298 1.987 60.798 2.027 60.948"/>
      <path id="path901" fill-rule="nonzero" fill="#da121a" d="M 114.017 53.968 C 127.527 53.488 139.347 49.238 152.647 48.528 L 150.937 46.658 L 145.327 46.488 C 137.167 46.488 130.437 51.928 121.837 51.928 C 106.467 51.928 97.117 39.198 84.737 40.518 C 78.497 41.188 62.947 44.588 62.267 52.438 C 72.457 48.258 72.507 47.498 84.227 47.498 C 93.887 47.498 103.817 54.338 114.017 53.968"/>
      <path id="path903" fill-rule="nonzero" fill="#da121a" d="M 122.177 49.038 L 125.077 48.858 C 122.787 44.888 121.697 46.248 118.607 43.928 C 117.557 43.138 116.117 37.328 114.527 36.268 C 113.787 35.778 111.997 34.848 111.457 34.228 C 102.067 23.588 93.847 19.078 79.297 19.078 C 70.877 19.078 58.687 24.358 52.737 30.308 C 59.307 27.848 65.867 25.888 72.997 25.888 C 95.207 25.888 106.497 49.958 122.177 49.038"/>
      <path id="path905" fill-rule="nonzero" fill="#ffffff" d="M 248.627 41.028 L 251.527 41.028 C 255.067 41.028 261.587 37.088 265.307 35.418 C 265.117 35.348 263.537 34.738 263.437 34.738 L 259.007 34.738 C 258.837 34.738 253.247 35.988 252.717 36.098 C 250.947 36.478 248.427 36.328 246.587 36.438 C 245.627 36.498 244.987 37.188 244.377 37.798 L 244.547 39.678 C 244.887 39.798 248.497 41.028 248.627 41.028"/>
      <path id="path907" fill-rule="nonzero" fill="#da121a" d="M 39.297 42.568 C 41.207 42.188 44.537 41.258 45.937 39.838 L 46.107 38.648 C 45.607 38.268 45.037 37.888 44.577 37.468 C 44.397 37.288 44.247 36.928 44.067 36.788 C 42.577 35.568 39.657 34.738 37.767 34.738 C 36.997 34.738 35.967 35.098 35.217 35.248 L 35.217 36.098 C 35.877 36.868 36.717 37.658 37.087 38.308 C 37.127 38.388 37.937 41.598 38.107 42.058 L 39.297 42.568"/>
      <path id="path909" fill-rule="nonzero" fill="#ffffff" d="M 183.107 32.358 L 184.977 32.008 L 184.297 30.648 L 182.427 30.308 L 183.107 32.358"/>
      <path id="path911" fill-rule="nonzero" fill="#ffffff" d="M 177.147 31.168 L 177.317 28.778 L 174.947 28.778 L 174.947 29.968 L 176.127 30.998 L 177.147 31.168"/>
      <path id="path913" fill-rule="nonzero" fill="#da121a" d="M 244.377 22.828 C 244.847 22.838 245.437 22.698 245.907 22.658 C 246.597 21.268 247.267 19.808 247.267 18.228 C 247.267 16.118 242.497 9.828 240.797 8.868 C 240.657 8.778 238.757 8.528 238.597 8.528 L 235.177 8.528 C 235.397 9.928 236.037 11.548 236.037 12.948 C 236.037 14.168 235.007 16.678 235.177 17.368 C 234.337 18.488 232.267 21.218 231.777 22.478 L 244.377 22.828"/>
      <path id="path915" fill-rule="nonzero" fill="#da121a" d="M 209.487 17.208 C 212.107 13.468 215.227 9.518 219.877 8.348 C 219.757 8.278 218.357 7.188 218.167 7.158 C 215.327 6.708 212.017 5.798 209.147 5.798 C 205.957 5.798 195.187 9.238 195.187 13.128 L 195.187 13.968 C 198.677 15.348 205.697 17.558 209.487 17.208"/>
      <path id="path965" fill-rule="nonzero" fill="#ffffff" d="M 253.217 108.088 C 255.127 107.508 257.247 106.698 259.007 105.718 C 260.387 83.148 272.817 53.118 299.517 53.118 C 310.797 53.118 318.957 59.588 329.977 59.588 C 334.627 59.588 335.977 56.998 338.997 54.148 L 338.657 53.458 C 336.807 54.568 333.427 54.648 331.337 54.648 C 322.927 54.648 316.557 47.888 308.027 48.008 C 305.467 48.058 291.897 49.708 290.157 49.378 C 289.517 49.938 283.927 51.718 282.327 52.608 C 275.557 56.408 270.517 62.178 265.487 67.928 C 258.077 76.378 253.997 96.418 252.887 107.078 L 253.217 108.088"/>
      <path id="path967" fill-rule="nonzero" fill="#ffffff" d="M 327.937 74.058 C 334.107 74.058 335.507 73.178 340.877 70.648 C 318.347 69.888 325.017 59.528 305.987 56.518 C 310.587 65.778 312.067 71.468 323.517 73.368 C 324.967 73.608 326.457 74.058 327.937 74.058"/>
      <path id="path969" fill-rule="evenodd" fill="#ffffff" d="M 258.677 136.858 L 262.417 135.498 C 261.777 132.758 261.797 129.848 260.547 127.328 C 258.927 127.688 256.577 128.348 255.437 129.718 C 255.697 131.098 256.427 135.148 257.317 136.348 L 258.677 136.858 Z M 278.417 178.728 L 283.177 177.888 L 284.207 177.368 C 282.157 174.998 278.857 167.958 277.057 164.948 C 275.527 162.408 274.407 159.358 272.457 157.118 L 266.847 157.968 L 266.847 158.998 C 266.847 159.808 272.117 168.318 272.627 169.208 C 273.087 171.518 277.577 176.588 278.417 178.728 Z M 298.147 212.778 L 302.237 211.418 L 302.237 210.568 C 302.237 208.758 295.147 199.068 293.897 197.288 C 293.467 197.408 290.837 198.218 290.497 198.148 L 289.647 198.648 C 290.637 201.138 291.977 203.268 293.227 205.628 C 293.797 206.718 294.267 207.988 294.917 209.028 C 295.517 209.988 296.897 210.868 296.967 212.098 C 297.337 212.148 297.897 212.518 298.147 212.778 Z M 312.457 243.068 L 316.537 241.888 C 316.537 241.778 316.557 240.388 316.537 240.348 C 315.027 237.338 314.087 234.078 312.107 231.328 C 311.737 230.798 311.157 230.328 310.747 229.798 L 307.347 231.838 L 307.167 232.868 C 307.597 234.248 308.407 235.588 308.937 236.948 C 309.707 238.908 310.327 241.358 311.597 243.068 C 311.727 243.068 312.377 243.098 312.457 243.068"/>
    </g>
  </g>
</svg>