<svg width="502.7" height="540" xmlns="http://www.w3.org/2000/svg" text-rendering="geometricPrecision" shape-rendering="geometricPrecision"><g transform="translate(77.348008 53.307)" class="layer"><path fill="#007843" d="m174.002-53.307-251.35 89.64 38.337 332.37 213.013 117.99 213.013-117.99 38.337-332.37z"/><path d="M118.107 366.048c-.45 6.32 1.15 13.07-6.48 13.37-1.68 1.85-3.04 2.7-2.38 5.79.19.87 1.19 1.58 1.19 2.43v.8c-4.3 0-13.98-5.46-13.1-10.72-2.87-1.1-6.2-6.98-7.49-6.98-2.01 0-2.59 3.91-4.6 3.91-2.89 0-5.44-4.76-5.44-7.32 0-.4.05-.83.16-1.28h38.14zm20.15 0c-1.87 2.32-3.82 3.98-5.69 4.34l-1.03-.68v-3.66h6.72zm122.41 0c-1.21 1.21-2.45 2.25-3.7 2.98-1.06 6.23-18.72 14.21-18.72 15.67 0 2.41 4.59 3.19 4.59 5.61 0 6.77-9.36 17.11-16.5 17.87v-1.02c0-1.88 2.04-3.39 2.04-5.28l-1.36-2.89-3.06.51c-5.35 4.23-1.36 3.64-1.36 7.49 0 6.96-5.96 5.42-5.96 11.75l.17 2.55 2.21 2.21c-.99 1.15-2.93 1.87-4.43 1.87-4.09 0-6.3-3.34-7.99-6.46-.19-.36-.28-1.03-.68-1.03-1.21 0-1.55 6.41-10.21 4.09-4.07 1.61-5.32 5.05-6.98 8.68-5.85-5.22-5.18-7.91-3.07-14.81-2.44-2.95-3.77-4.28-1.69-8l-2.96-2.78-.62-.96c-2.25 0-2.69 4.59-4.94 4.59-1.77 0-3.06-6.01-3.06-7.15 0-4.52 10.5-14.47 15.31-14.47 4.4 0 9.54 6.98 12.77 6.98 7.14 0 18.34-14.84 24.83-28h35.37M177.247 301.458c.67.64 1.42 1.33 2.29 1.53h1.87c0 1.52-5.83 3.65-7.14 4.09v2.21c0 4 2.76 4.11 5.27 5.62l.85.51c0 4.47-7.16 3.58-9.02 3.58-1.32 0-1.19 3.52-1.19 4.59 0 1.31 2.82 4.44 4.09 4.93l1.86-.17 1.7-1.53.52 2.73c-2.38 3.57-2.89 3.74-6.98 3.74-1.52 0-1.17 2.61-2.39 3.75l-5.1 4.76c-1.74 1.62-1.72 6.98-3.4 6.98-1.04 0-2.01-7.8-2.05-8.17-1.83-.78-3.06-2.72-5.1-2.72-2.51 0-2.62 4.41-4.6 5.95-.92 4.57-5.42 15.89-10.47 22.19l-6.72.02v-.59l-2.89-3.91c-2.72.02-4.47-.82-6.64-2.39l-2.72 1.71c-.74 1.58-1.04 3.36-1.18 5.18h-38.14c.34-1.49 1.21-3.11 2.22-3.99.23-.22 2.21-1.39 2.21-1.71l-.34-1.36c-3.92.2-5.26-.06-6.8-3.58l-2.39-.16c-1.83 1.55-2.69 1.41-3.23 3.91-2.23-.62-3.07-4.59-3.07-6.63 0-5.06 3.16-7.22 7.49-8.86 2.06-2.97 3.43-4.08 7.32-4.08 4.88 0 6.96 2.02 10.21 5.28 5.71-.26 9.57 3.74 14.98 3.74 10.27 0 14.63-22.68 14.63-30.81l-.51-4.09c-8.32-2.08-28.21-3.42-33.21-12.23l87.77-.02zm61.56 0c-1.49 1.84-2.95 4.62-2.95 5.78 0 1.49.38 3.17.69 4.6.08.02.89.36.69.51 2.55 2.33 4.9 2.72 8.34 2.72 10.51 0 22.18-2.89 32.84-2.89 5.7 0 11.74 2.05 11.74 8.68 0 .33-.13 3.23-1.03 3.23-2.7 0-4.94-2.72-7.65-2.72-4.61 0-9.62 5.19-14.46 6.65 4.62 4.12 11.38.33 16.67.33 3.85 0 7.5 4.04 7.5 7.83v1.03c-.97 0-2.32-2.22-5.79-2.22-2.39 0-3.59 1.14-4.94 2.38 2.95.44 5.79 3.42 5.79 6.47 0 2.13-1.78 6.81-3.92 6.81-2.45 0-2.99-4.94-5.45-4.94l-.33.68c.27 1.18 1.52 2.1 1.52 3.41 0 1.01-1.12 4.77-2.55 4.77l-.62-1.08c-.62-1.24-.54-1.9-1.93-2.67-3.87 4.12-7.97 10.87-12.3 15.22l-35.37.01c3.1-6.28 5.12-12.18 5.12-15.91 0-8.63-17.83-8.41-22.46-10.73l-.17 2.39c.77 1.05 3.23.91 3.23 2.21 0 1.54-3.14 2.22-4.26 2.22-3.48 0-5.18-1.06-7.65-3.07-.78 1.73-1.7 3.85-1.7 5.79 0 3.26 3.57 3.19 3.57 5.27 0 .84-5.29 1.87-5.95 1.87-6.17 0-12.6-9.14-12.6-14.97 0-4.06 2.04-8.04 2.04-12.09 0-3.84-3.74-6.55-3.74-10.38 0-5.62 1.56-11.22 2.15-17.17l55.93-.02zm7.54 0-.27 1.36-.17 1.19c-.72 0-1.02-1.32-1.72-2.52l2.16-.03"/><path d="M8.827 204.568c-.22.54-.36 1.13-.5 1.74l-1.88-.68c-.15-.34-.28-.7-.42-1.04l2.8-.02zm52.46 0c-1.61 5.15-1.01 10.41-5.65 14.34l-3.23.51c-.66 1.21-1.36 2.53-1.36 3.92 0 1.85 2.55 3.07 2.55 4.92h-2.04c-3.03 0-6.05-.95-8.17-3.23-.65-.69-2.35-4.08-2.39-4.08-.88 0-6.07 4.81-10.89 3.07-3.27 1.89-4.14 2.06-6.3 5.44-.36.58-.68 1.54-1.36 1.54-2.73 0-4.25-7.21-4.25-8.86 0-2.23 1.88-5.56 1.88-6.3 0-1.97-2.39-3.46-2.39-5.44 0-1.18 2.21-2.94 2.21-4.26l-1.14-.12-1.75-.39c-1.19-.37-1.73-.71-2.09-1.07l46.37.01zm12.18 0c-2.17 2.07-4.63 3.45-7.62 3.45-.56 0 .36-1.07.57-1.59.22-.57.28-1.23.29-1.88l6.76.02zm150.83 0c8.55 7.51 14.39 12.21 27.91 16.73 4.85 1.61 21.92 10.74 23.48 15.82 2.38 7.74 12.32 34.73 19.23 37.95 1.05-.26 2.5.69 3.58.69 1.7 0 7.15-2.25 7.15-4.09 0-5.64-5.7-8.01-3.41-17.19v-2.55c-10.24-.46-24.26-14.33-18.21-24.85-12.72-.88-31.38-8.35-33.26-22.54l53.27.03c1.18 1.87 2.23 3.73 2.8 5.65 7.48-.17 14.83 1.03 22.3 1.03 2.06 0 5.75.1 7.65-.85 2.57-1.29 5.55-1.91 6.98-4.43.1-.17.41-.85.67-.85 1.64 0 1.38 7.13 1.38 8.52 0 18.46-16 16.45-29.11 15.3 1.35 4.09 3.03 8.77 4.94 12.6 3.58.46 7.51 1.2 11.05 1.2 2.24 0 4.32-.43 6.3-1.53.97-.54 2-1.57 2.73-2.39.13-.15.45-1.19.67-1.19.4 0 9.83 11.58-5.12 20.25-5.42 1.76-5.64-1.53-10.87-1.53l-1.7.35.34 4.08c0 10.81-6.69 25.37-18.72 27.23-.71 1.17-6.04 1.54-7.5 1.54-10.47 0-21.18-13.11-22.96-13.11l-1.03.51c-.16 3.4-4.79 18.04-5.27 18.04-2.77 0-3.19-5.79-5.96-5.79-.8 0-.57 1.51-.8 2.27-.31 1.09-2.7 4.88-3.62 4.88-1.11 0 0-3.47 0-4.08 0-1.1.13-3.62-.86-4.43-1.67 3.02-2.64 5.82-4.76 8.69l-.85.33.17-1.36c0-1.07-.63-2.45-1.03-3.4l-.84.17c-1.42 2.47-3.65 5.29-4.43 7.99l-.24 1.2h-2.16c-.57-.97-1.43-1.88-3.04-1.88-.62 0-1.48.78-2.34 1.85l-55.93.03c.15-1.39.23-2.81.23-4.25 0-2.25 19.46-19.88 22.98-21.62-9.04-3.46-10.29-3.24-21.44-3.24-5.91 0-37.49 7.53-40.34 10.73 5.79 6.62 6.07 7.43 16 7.66 7.45.17 11.33 5.7 16.33 10.16.19.17.4.36.61.55l-87.77.01c-.75-1.28-1.16-2.76-1.16-4.43 0-.44 2.72-5.27 2.72-9.19v-2.38c-5.67.31-10.72-1.36-16.51-1.36-4.37 0-6.29-1-8-4.93l.52-2.06c.58.52 4.18 1.71 5.1 1.71 16.3 0 19-23.62 27.74-29.45 4.06-2.7 10.73-3.91 14.13-6.98 5.44-4.92 11.85-9.35 19.56-9.35 15.94 0 30.05 4.65 45.28 7.31-4.77-4.36-8.46-9.75-14.64-12.42v-1.19h3.4c8.04 0 15.05 4.57 22.81 6.13-20.27-16.09-37.07-12.39-60.06-28.27l93.93-.03"/><path d="M6.027 204.568c-.62-1.73-.94-3.53-.94-5.41 0-3.09 3.94-6.78 5.79-9.02v-3.4l1.7-2.39c3.77-.94 8.26-2.21 12.09-2.21.88 0 6.5 3.92 10.55 3.92 3.77 0 44.99-19.39 46.63-20.94 3.17-3.01 6.2-6.19 9.53-9.02-3.68-7.38-13.27-8.65-13.27-17.36v-2.05c3.32.09 6.02 1.88 9.7 1.88 1.11 0 4.93-2.1 4.93-3.23l-.17-1.37c-2.3-2.29-6.55-4.11-7.49-7.32h-2.55c-15.89-12.14-8.93-15.27-17.87-24-2.31 1.54-4.34 2.82-7.15 1.71-3.47 1.95-7.18 3.05-11.23 3.05-3.75 0-5.25-2.09-8-4.24.88-1.81 6.12-2.95 6.47-7.83-3.76-3.65-3.47-5.67-1.36-9.88-1.75-.29-3.84-1.21-5.62-1.02-3.11 1.93-8.53 9.28-12.25 4.93-3.77 1.77-4.2 2.83-4.94 6.82-4.52-1.82-6.47-6.63-6.47-11.24 0-4.81-.01-12.88 3.91-16.34-5.92-.14-7.48-3.22-7.48-8.34l-.68-.68c-1.77 0-5.71 2.34-6.64 3.58-.41.54-2.05 3.6-2.72 3.4-1.04-2.21-2.55-4.82-2.55-7.32 0-5.52 14.62-19.41 19.91-19.41 4.55 0 7.7 3.79 10.04 7.15l1.87 1.19c.19-1.43.53-3.28 1.53-4.42.47-.53 1.88-.31 1.88-1.02 0-2.12-.93-4.14-2.72-5.33-.96-.63-3.24.01-3.24-1.14 0-3.73 8.82-5.78 11.4-5.78 2.35 0 7.15 2.55 7.15 2.55.65 0 .75-1.06 1.19-1.54 8.35-9.1 15.15-12 27.06-14.97 3.33-.83 8.1-.29 11.58-.35 13.07-.21 20.15 9.5 29.1 16.35 12.87-8.9 23.94-6.05 39.82-10.9 9.94-3.04 16.23-11.57 26.21-11.57 3.82 0 7.41 1.42 11.06 2.39 3.94-7.02 12.65-9.71 20.25-9.71 2.65 0 14.3 2.74 14.3 5.79 0 .6-.67.85-1.08.85-3.23 0-11.35 4.54-11.35 7.99 0 2.73 9.28 4.94 11.92 4.94 2.37 0 3.61-2.52 5.27-4.08l.8-1.42c.66-1.31 1.08-3.62 1.08-5.05 0-2.52-.6-4.32-2.22-6.3l.69-.85 3.4-.17c9.8 0 16.73 7.98 14.29 17.7 8.42 1.51 22.76 6.03 27.06 13.96-4.08 1.11-28.25 6.82-29.95 7.66 3.96 7.7 3.71 17.04 6.02 25.14.59 2.08 4.37 2.64 4.37 4.82l-.18 1.53c-2.09-.08-3.73.42-5.61.51-3.39 11.03-8.82 20.38-6.65 32.85-4.27-.28-6.37-1.33-8.67-5.11-11.37 8.14-19.58 19.29-19.58 33.71 0 4.89 3.43 6.85 4.61 10.71-1.69.63-3.47 1.2-5.29 1.2-6.78 0-9.87-6.11-11.39-11.74-4.79 6.32-5.11 10.33-5.11 18.04 0 8.09 2.96 12.3 9.36 17.19l2.72.17c-1.99 1.99-7.48 1.09-7.48 3.91 0 3.36 11.03 17.97 13.61 21.46 2.74 2.35 5.12 4.48 7.32 6.42h-93.93c-3.11-2.13-6.34-4.64-9.72-7.62-2.03-1.8-4.19-4.86-5.62-7.14-1.71-2.76-2.03-8.18-5.27-8.18-4.5 0-6.4 10.69-6.3 13.78 1.19 1.2 3.58 1.9 3.58 3.58 0 .4-3.96 1.02-4.6 1.02-3.9 0-7.2-4.21-8.91-7.2-.75-1.33-.63-4.03-2.15-4.03-1.65 0-3.37 3.07-3.57 3.07-1.33 0-1.69-2.18-2.9-2.73-3.87 4.21-7.04 11.26-11.44 15.46l-6.76-.01c.01-.46-.01-.91-.01-1.33 0-1.87-1.32-3.33-3.4-2.89-.95 1.38-1.57 2.81-2.01 4.24l-46.37-.02c-.48-.51-.65-1.06-1.66-1.83h-2.72c-.89.44-1.39 1.08-1.71 1.85l-2.8-.02zm244.74 0c-.33-2.43-.16-5.01.59-7.79-13.46-4.49-22.81-15.62-22.81-29.96 0-9.63 5.79-13.42 5.79-17.7 0-3.86-1.88-7.92-1.88-12.09 0-12.25 6.88-20.36 16.35-26.88 4.41-34.56 17.98-66.39 58.54-66.39 10.33 0 18.05 7.66 28.76 7.66 2.72 0 5.96-4.12 5.78-6.81h1.19c.66 0 .28 1.27.52 1.88.4 1.01 1.19 2.26 1.19 3.4 0 9.94-9.95 11.37-17.36 12.25 3.11 3.59 6.46 4.08 11.23 4.08 4.66 0 7.23-2.11 10.27-5.15l1.13.23c-4.3 12.34-9.52 16.84-23.14 16.84-22.62 0-20.24-21.44-33.87-21.44-19.79 0-27.67 31.85-28.76 46.3l21.61-.35c8.64 0 17.16 4.09 25.7 4.09 5.5 0 8-3.83 8-8.85 0-3.47-3.77-6.28-6.97-6.64l.68-1.88c3.5-1.58 6.1-3.23 10.21-3.23 10.51 0 15.14 6.86 15.14 16.86 0 17.06-23.94 24.84-37.27 24.84-9.96 0-19.6-2.55-29.78-2.55-2.08 0-4.08.67-6.12.86.15 2.01.15 7.19 1.86 8.34 3.48-.43 7.06-.35 10.56-.35 10.56 0 21.32 4.08 32.33 4.08 9.51 0 14.47-5.11 14.47-13.44l1.36-.68c4.8 2.94 7.66 5.8 7.66 11.92 0 23.65-42.85 21.22-56.67 20.59 3.15 6.98 8.07 13.46 11.74 20.25 6.97-.13 13.84.51 20.76.51 4.02 0 12.93-1.58 12.93-6.63 0-3.17-3.23-3.26-3.23-4.43 0-2.01 5.26-2.38 6.3-2.38 7.56 0 12.76 6.44 12.76 13.62 0 15.65-28.73 17.69-38.97 18.89 1.1 2.84 3.01 5.48 4.69 8.14l-53.27-.01"/><path d="m187.697 426.568.69-.35c1.24-2.25 3.21-4.9 5.27-6.29-1.54-1.36-3.16-3-5.27-3.23-1.9 1.89-2.38 3.25-2.38 6.12 0 .16.07.24.1.39.07.22.35 1.55.41 1.65.3.57.81 1.17 1.18 1.71M214.087 422.818l.5-.51c-.41-.81-.85-1.96-.85-2.89v-1.19c0-1.18.69-2.46 1.03-3.58-.84-.05-1.72-.17-2.55-.17h-1.37c-.45 0-2.9 1.92-3.24 2.22.3.65.69 1.23 1.03 1.86 1.22 2.27.98 1.76 3.06 2.9.8.44 1.58.93 2.39 1.36" fill="#da121a"/><path d="m241.207 353.458.11 1.11-.35.9c-.06.19-11.1 8.69-14.12 14.24-3.02 5.54-5.27 9.46-9.53 13.96-4.83-.05-6.24 13.79-18.04 13.79-5.53 0-7.74-7.15-13.27-7.15-1.43 0-2.46.73-3.24 1.87l-.17 2.55c0 2.72 1.8 3.63 1.19 7.66l2.05.18.85-2.05c.54-.07 1.45.57 1.19 1.19l1.69-.68c-.02-.77.92-1.67 1.71-1.53.97.49 1.98.85 3.07.85.91 0 3.48-1.28 4.24-1.87l1.71.68v1.19c0 .22-.32.14-.51.23l-3.06 1.65c-5.12 2.75-5.67 2.25-9.88 6.46v2.72l1.54 1.2c2.03-.81 7.38 5.45 9.7 5.45 1.91 0 0-2.75 0-3.07l.68-.23c.58-.19 1.16.57 1.87.57 1.59 0 1.7-1.18 1.7-2.56 0-1.37-1.13-1.96-1.87-3.05 2.23-2.23 2.13-7.84 5.28-7.84l.68.35v1.87c0 2.56-2.22 3.02-2.22 5.62 0 .72.71 3.4 1.71 3.4 3.54 0 6.74-2.04 11.06-2.04l1.02-1.03.17-2.38c0-1.97-2.2-4.59-3.74-5.61l-2.04-1.03.16-.85 1.71-.51.33-1.19c.94 0 1.87.58 1.71 1.7l1.7.68 1.7-1.53c-.25-.81-1.53-1.19-1.53-2.04l2.89-1.7.34-2.05 1.2-.17.51 1.87 1.53.68c2.12 0 13.61-2.61 13.61-5.95 0-1.66-4.27-2.72-5.44-2.72-2.59 0-4.14 1.2-6.47 2.04l-.34-.85c2.65-1.32 3.18-3.59 5.62-4.94l.16-1.87c4.29.33 5.15-.47 8.34-2.55l-3.57-1.88c-2.17.13-3.37 1.53-4.93 1.53l.28-.45.56-.91c.47-.7 1.55-1.18 2.39-1.36 3.06-.68 5.99.51 9.02.51.33 0 3.07-1.29 3.07-1.53 0-.54-5.14-2.08-5.91-2.16l-2.27-.05.52-.85c3.82-1.37 4.54-.35 8.67-.35 1.56 0 3.21-1.17 4.26-2.2v-.68c-2.7-1.08-4.49-1.37-7.33-1.37l-.84.34c1.55 0 9.74-3.21 11.91-4.43l.17-.68c-3.25-1.38-4.43-2.04-7.82-2.04h-.68l.16-.85c2.84-2.3 7.29-2.32 10.73-2.21l1.53-1.19c-2.65-2.97-3.34-2.55-7.32-2.55l-1.7 1.36-1.03-.51c.63-.44 1.19-.8 1.73-1.08l-10.51-.03" fill="#fff" fill-rule="evenodd"/><path d="M251.717 353.458c4.43-2.39 6.3-.29 11.21-1.28.84-.17 6.47-1.21 6.47-2.89 0-2.26-10.6-3.26-12.25-3.58 1.2-2 8.45-.33 10.03-.33 4.51 0 8.52-2.39 13.28-2.39-4.98-4.75-10.59-.41-16.34-2.22l-4.93-1.18c-2.31-.36-4.81 1.38-6.98.5l-.17-.84c6.31-1.82 10.2-.17 16.34-.17 6.77 0 10.51-5.31 17.19-6.98-1.43-.81-3.44-1.36-5.11-1.36-7.93 0-22.92 2.89-31.65 2.89v-1.2l2.78-1.07 9.64-1.65c-2.92-4.16-12.87-1.87-17.03-1.87-1.81 0-3.54-.49-5.27-1.02v-1.02c1.07.24 2.3.68 3.41.68 7.86 0 15.6-2.39 24.16-2.39 5.54 0 10.04-7.42 17.53-6.8-2.51-1.74-4.85-2.38-8-2.38-2.7 0-5.7 2.21-9.18 2.21-2.86 0-5.48-2.05-8.34-2.05-7.98 0-13.76 7.7-23.15 3.93-2.51 2.6-4.94 3.56-8.51 3.56-.88 0-5.96-.15-5.96-1.7l1.19-.5c.69.19 2.01.9 2.73.68 2.2-.68 5.95-1.55 5.95-4.43v-.85c-2.47.84-4.44 2.04-7.15 2.04-.41 0-5.61-.65-5.61-1.54l.17-.68c1.89.21 3.54.68 5.44.68.73 0 4.26-.76 4.26-2.04l-1.19-.84c-1.37-1.06-2.89-2.16-3.92-3.58-1.29-1.79-1.36-4.19-1.36-6.3l.34-2.72c.66-.65 2.26-2.39 3.23-2.39l.35.8c.36.85-.77.98-.85 1.75l-.18 1.54c0 2.16 1.03 5.12 3.24 5.96.22-3.78.35-10.37 4.09-12.59l.33 1.53c-.72 1.68-1.69 3.25-1.69 5.1 0 .48.61 3.92 1.36 3.92.07 0 3.62-6.82 4.42-7.83 2.54-3.24 5.33-6.5 6.47-10.56l1.01.18-.33 2.55c0 .79.27 1.52.68 2.21 5.62-6.1 6.28-5.97 9.87-13.78 1.17-2.56 1.58-4.84 2.21-7.66l.17-1.59v-1.15l.85.18c.46 4.32.16 8.71-.85 12.94 2.67-2.08 3.69-4.67 5.11-7.66 1.24-2.62 1.97-6.64 2.55-9.54l.34-2.88v-1.71l1.19.17c0 4.57-1.02 9.32-1.02 13.61v1.19c4.37-4.4 7.96-24.2 4.09-27.06l.34-.68 1.02.17c2.58 6.1 2.38 11.96 2.38 18.55 2.77-3.17 4.25-9.64 4.25-13.61 0-16.76-15.8-26.05-28.42-26.05-1.56 0-2.2-3.23-3.23-3.23l.12 1.14.04 1.59c0 .27-.22.68-.5.68-.93 0-2.42-4.03-2.55-4.43l-.86-.16-.33 3.56c-1.29-.94-1.14-3.91-2.73-3.91-.67 0 .69 2.04 0 2.04l-1.19-.17c-2.73-2.34-4.33-5.85-6.98-8.51l-1.02 2.73h-1.02c-.19 0 0-.32 0-.52l-.12-1.42c-.4-1.42-.99-2.76-1.75-4.02l-.68-.68c-.24.81-.81 5.3-2.55 4.25.2-2.59-.27-4.67-1.71-6.8-.45.44-1.08 1.38-1.19 2.04v1.36c-1.63 0-1.94-8.43-5.11-11.23.01.28-.78 6.12-1.36 6.12l-1.19-.68c-.04-.46-.73-4.42-1.69-4.42-1.07 0-.83 2.55-1.88 2.55l-.68-1.03c-.21-3.39.18-5-1.36-7.83-1.51.63-.43 4.43-2.05 4.43-1.2 0-1.48-5.75-1.69-6.8-1.05 1.22-.95 4.08-2.56 4.08l-.85-.51v-3.57c-1.4.74-2.32 2.72-3.92 2.72l-.33-.85c.11-1.23 1.7-2.47 1.7-4.6l-.18-1.87-4.08 4.09-1.36.16v-1.19c0-1.82 2.12-4 3.07-5.27-2.78.74-4.81 2.9-6.3 5.27l-.86-.17c1.33-2.29 2.04-3.07 1.87-5.78l-1.87-.35-2.04 1.19-.51-1.36c-.23 0-1.42 1.26-2.21 1.36l-.85.18c-.1-.35.51-.99.51-1.37h-1.19c-.96.93-2.76 2.39-4.26 2.39-.39 0 .12-.79.17-1.2 3.45-2.2 5.78-5.72 7.15-9.53-8.17 7.12-11.87 11.58-23.15 11.58-5.07 0-15.1 9.87-21.6 12.43-.38.14-2.04.58-2.04 1.01 0 .87 5.15 1.54 5.44 1.54-.35.35-.68.85-.68 1.36 1.98.74 4.22.49 5.95 1.53v.86l-3.23.68 2.04 1.53c9.27 0 5.96-1.06 5.96 1.87 0 3.35 11.1 1.19 12.25 1.19l1.53.17-1.7 2.21c3.59 2.62 8.64 1.94 12.94 2.38l.33.86c0 1.21-2.64-.1-3.56.68 3.86 1.1 7.7 1.36 11.74 1.36.96.31-.51 1.76-1.03 1.88 5.08 2.78 12.09 1.08 12.09 5.1 0 2.71 9.22 2.71 10.89 2.89-.35 1.33-.14 1.17-1.2 2.21 7.55 6.62 16.82 8.98 22.82 17.71 1.71 2.49 3.75 5.75 4.24 8.85.12.67.23 2.28-.1 2.95-.29.56-1.54 1.64-.91 1.64 2.37 0 4.17-3.83 5.27-5.45l.52 1.87c-11.36 21.77-27.56 12.4-36.77 23.15l-.51 3.07-1.53 1.7h-.51c-14.13 6.62-14.81 14.6-14.81 29.45 0 4.26 3.23 7.4 3.23 11.4 0 4.35-1.86 8.57-1.86 13.11 0 4.93 3.26 6.78 3.57 8.51-.31-6.78 2.04-13.21 2.04-20.59 0-2.31 1.34-3.76 1.53-5.11-.19 5.47 3.81 13.54 0 18.55l.17 1.88c2.14-3.74 3.07-4.09 3.07-8.86 0-3.59-2.04-6.98-2.04-10.89 0-1.76 1.47-3.87 2.37-5.28 1.23-.4-.33 5.87-.33 6.64 0 2.81 3.6 15.83 6.63 15.83.61 0 1.36-6.96 1.36-9.02l-.22-1.65-.29-.9c-.53-1.6-2.38-5.16-2.38-6.98 0-.14.49-2.21.68-2.21 1.38 0 1.57 4.87 2.73 6.29 7.56 9.25 4.8 9.63 16.84 11.07.07-2.72 6.57-3.24 8.34-3.24.23 0 2.9.83 2.9 1.19l-.51.86-2.39-.68c-1.49.73-3.74 1.11-3.74 3.05 0 1.28 2.48.68 3.74.68 3.02 0 5.15-3.91 8.17-3.91 2.58 0-1.27 1.96 2.89.68l.35 2.39c0 6.49-8.29 3.85-7.83 11.74l1.02 1.19c5.03-1.13 4.56-5.48 5.96-5.44.25 1.05-.58 6.48.68 5.27l.06.77h10.51" fill="#fff" fill-rule="evenodd"/><path d="M229.907 405.118c.04-.12.35-1.15.35-1.19v-2.9c0-.52-.65-2.52-.86-3.06l1.36-1.53c.52-.11 1.58-.52 2.05-.52h1.36c.07 0 2 .47 2.21.52.04.18.34 1.6.34 1.7 0 .08.02.99 0 1.02-.41.84-1.82 3.09-2.38 3.74-.71.84-3.26 2.45-4.43 2.22M176.127 404.428c1.31-1.05 3.65-2.55 5.28-3.05.05-.72.17-1.5.17-2.22 0-.49-.81-2.41-1.02-2.89-2.11.18-3.93 1.38-4.77 3.34-.07.16-.51 1.31-.51 1.42v1.87c0 .06.31 1.08.35 1.2l.5.33M106.687 385.028l.68-.17c-.09-.67-.33-1.54-.33-2.21 0-1.46.78-2.84 1.7-3.92-.73-1.32-2.56-1.53-3.92-1.53-1.09 0-2.3.25-3.4.35l-1.02.85c.28.61.61 1.24.85 1.87.14.37.17.83.34 1.19.85 1.84 3.41 2.76 5.1 3.57" fill="#da121a"/><path d="M109.077 374.988h1.02v-1.53l1.88-.17-.18-1.71c-1.7-1.34-5.82-2.27-7.83-2.37l-.85-.86c2.48-.54 4.47.05 6.98.51l1.53-.68.68-1.7-.68-1.19 2.55-.51c-.36-2-.19-4.11-.33-6.13 2.2-2.4 4.06-3.62 7.31-4.08 1.35-4.33 3.57-4.35 7.49-4.94l.69.85c0 2.08-4.14 1.74-5.11 3.57v1.88l1.53 1.19 1.87.17c3.24 0 7.06-3.11 11.57-2.56l1.36-.84v-1.54c-2.82-2.81-6.68-4.48-10.38-6.12l.17-1.03c1.31-.46 2.69-1.23 4.09-1.36v-3.23l1.18-.34 2.56 2.21.34-8.17 1.03.17c-.37 3.83 1.67 6.65 3.91 9.53h1.02c.25 0 1.19-3.52 1.19-4.08 0-3.6-2.21-6.79-2.21-10.38 0-.84.5-1.83.85-2.56 1.48-.18.33 2.56.33 3.4 0 1.34 3.17 5.66 3.93 7.15 1.16-1.03 2.04-2.29 2.04-3.91 0-3.39-3.07-7.03-3.07-11.58 0-.66.36-1.69 1.03-1.69l.84.5c0 6.1 3.94 12.94 10.05 14.47l-.51-3.06c-3.12-2.15-6.3-4.66-6.3-8.68 0-1.01.69-2.15 1.02-3.07l.85.17c-.26 4.93 1.84 7.56 6.12 9.7l.18-.84c0-2.7-5.3-5.4-4.77-12.26l1.36-.17c2.1 1.05 2.93 2.79 3.91 4.76l-.16-1.7.34-2.21c2.69 2.4 3.64 5.73 5.61 8.51l.86.17v-4.25c0-11.58-7.78-8.97-12.26-15.84v-1.01c4.09 4.03 10.43 5.05 15.32 9.36.25-1.3.34-2.6.34-3.92 0-6.37-12.62-9.45-17.19-10.73l.85-1.01h3.74c4.22 0 7.42 2.55 10.89 2.55l1.37-.17c0-5.58-6.72-8-11.23-8-5.15 0-10.11 1.53-15.32 1.53-.94 0-3.59-1.5-4.25-2.21v-1.53c.89 1.11 2.92 1.36 4.25 1.36l2.04-.51.85-1.19c-3.93-.47-7.73-1.9-10.04-5.28-4.94 2.85-5.59 4.08-11.91 4.08-4.52 0-11.4-3.06-11.4-8.51 0-1.79 1.1-4.26 3.06-4.26l-.34.8c-.31.71-.52.97-.52 1.76 0 3.02 3.08 5.28 5.96 5.28 7.23 0 12.68-9.84 13.44-16l.86.68c-.6 9.17-3.36 11.7-9.53 17.88 13.54-.66 14.47-29.28 30.97-29.28l.17 1.02c-8.98 3.13-15.67 10.91-17.18 20.42 7.61-3.33 10.78-14.63 20.59-14.63h.68c0 .38-.45.8-.74 1.01-5.28 3.96-8.01 3.38-10.83 10.39 8.33-3.26 15.33-10.79 23.99-12.08l.68.85c1.21.2 2.52.51 3.75.51 1.43 0 2.49-.23 3.74-.86 2.46-1.23-.74-.57-.17-2.55 4.48-.62 9.08-1.17 13.62-1.02-4.39-.77-9.36-3.45-13.79-3.41-.38-.89.67-1.18 1.25-1.18 5.13 0 10.14 1.18 15.26 1.18h2.04c-3.69-2.15-19.12-4.54-23.83-4.76v-1.03h3.75c6.4 0 12.97.47 19.23 1.88-4.73-3.44-21.03-5.49-27.06-6.47l-.34-1.36c6.98.63 13.91 1.92 20.93 1.7l.52-.34c-21.55-5.91-40.89-10.38-63.48-10.38-7.2 0-11.58 4.54-16.85 8.85-8.81 7.21-10.65 1.13-17.36 13.45-4.83 8.84-6.85 16.43-17.19 20.43l2.89.33c6.46 0 15.58-8.27 16.68-14.46.34.83.51 1.66.51 2.55 0 1.93-3.63 6.62-4.59 7.83.17.21-1.49 1.5-1.59 1.59l-5.05 4.03-.18.68c.72.31 1.45.5 2.22.5 7.66 0 11.15-7.24 14.81-12.42v1.53c0 5.44-7.62 11.07-12.26 12.43 0 4.51-.85 8.93-.85 13.27 0 3.95 6.4 8.52 10.04 8.52 2.95 0 5.94-1.14 8.51-2.55.71 1.34 0 1.57 0 2.88 0 1.36 5.02 1.54 5.78 1.54 3.44 0 6.38-2.9 10.22-2.9 2.92 0 10.13 2.99 10.56 6.14-1.36-.39-2.66-1.2-4.1-1.2-3.21 0-3.31.98-5.62 1.88l.35 3.74c0 6.44-3.4 11.38-3.4 18.72 0 5.73-10.36 17.19-16.17 17.19-2.74 0-5.46-.3-8.17-.68-3.08-3.04-4.58-2.38-8.68-2.38-3.1-3.05-2.92-5.28-8.34-5.28l-1.88.17-.84.68v1.53c0 3.06 1.75 4.17 1.02 8.34l1.7 1.36c2.6-.52 3.68-2.88 6.46-2.88 3.85 0 7.74.5 11.58.68h2.05v.68c-5.18 2.15-10.63.21-15.32 3.57v1.02c0 1.15 5.11 9.96 6.3 10.55l1.69-.5c.31-1.7 1.01-1.93.86-3.92 1.44.85 2.5-2.37 3.4-3.24l-.17-2.55.17-1.02c3.08 2.31 1.03 2.83 5.95 3.23v1.03c-3.72.85-7.96 6.31-8.17 10.38l.86 1.7c3.26.41 7.38.85 10.55.85" fill="#fff" fill-rule="evenodd"/><path d="M83.727 371.248c1.48-1.49 3.03-2.89 5.1-3.4l-.18-1.37c-.51-.29-.53-1.1-.84-1.53-.41-.58-1.05-1.17-1.53-1.71l-1.54.35c-.27.32-.81.55-1.01.84-.44.63-.77 1.76-1.09 2.45-.1.24-.28.35-.28.62v1.2c0 .53.49 1.89.68 2.38l.69.17M134.937 367.498c2.42-1.33 2.22-1.73 3.41-4.26.23-.48.69-.95.69-1.53v-2.38c-1.09-.33-2.44-.68-3.58-.68h-1.53c-1.04 0-2.6.71-3.41 1.36 2.08 2.08 3.21 4.87 4.42 7.49M71.297 353.888c2.58-1.45 3.54-1.58 6.46-1.71.3-.79.68-2.03.68-2.89 0-.43-.25-1.09-.33-1.53-.39-.16-.84-.67-1.03-1.02-.53.1-1.18.17-1.7.33-.63.2-2.68 1.56-3.06 2.04-.44.58-1.26 2.7-1.53 3.42l.51 1.36" fill="#da121a"/><path d="M123.367 310.478c.2-.06 1.05-.39 1.19-.34.61-.49 1.24-1.1 1.88-1.54.08-.04.56-.11.68-.16.39-.18.81-.46 1.19-.68-1.11-.21-2.43-.52-3.58-.52-.49 0-2.63.34-3.05.52-.64.5-1.28.84-1.54 1.19l-.17.68 3.4.85" fill="#fff"/><path d="M299.687 285.968c10.41 0 21.61-11.28 21.61-21.79 0-.39-.53-1.48-.68-1.87-1.07-.85-2.2-1.14-3.57-1.02l-.51-1.02-1.87-.85-1.71 1.87-.17 1.87c0 .85.42 1.76.68 2.56l-1.19-.68c-1.09-2.19-1.7-3.78-1.7-6.3 0-4.89 6.97-8.17 11.07-8.17 4.97 0 9.17 3.06 13.78 3.06 5.26 0 6.05-3.93 6.81-8.17-.3-.14-.43-.75-.51-1.02-5.42.47-9.76 1.02-15.32 1.02h-7.66c-8.36 0-15.14 8.28-15.14 16.17 0 4.08 3.84 8.97 7.31 10.89-.34.84-1.94 2.64-2.04 3.07-4.84 1.63-3.45 3.74-10.89 3.74-5.55 0-13.61-8.84-16.17-13.11.28 2.09.91 5.06 3.23 5.79l-.51 1.02-3.23-1.87v2.22c0 5.34 13.24 12.59 18.38 12.59" fill="#fff" fill-rule="evenodd"/><path d="m223.437 259.248 4.43-.51c-.1-1.14-.12-2.9-.68-3.92-2.85-5.22-18.74-13.5-24.67-15.15-4.21-1.17-8.78-1.25-12.95-2.38-3.95-1.07-11.59-5.63-14.8-5.28 8.73 9.21 23.46 8.55 33.87 15.49 5.74 3.84 9.62 6.74 14.47 11.57l.33.18M297.467 247.678c.57 0 1.15-.12 1.71-.18-.85-4.25-5.95-5.51-5.95-13.27 0-8.18 11.85-11.83 18.37-12.43 3.89-.35 8.15.34 12.09.34 2.65 0 4.91-1.14 7.49-1.36l-.52 1.2c-6.57 2.14-13.45 1.18-20.25 1.18-5.91 0-15.99 4.97-15.99 11.75 0 3.48 3.71 10.01 7.15 11.06l.16-.85c0-1.49-2.21-4.19-2.21-7.49 0-12.87 18.3-10.73 25.87-10.73 6.8 0 16-3.84 16-11.74 0-1.13-.12-2.27-.18-3.4-5.75 2.86-10.95 2.89-17.36 2.89-4.23 0-8.51-.85-12.75-.85-10.83 0-24.69 6.31-24.69 18.72 0 .73.88 4.84.85 4.94 2.51 3.01 5.09 10.22 10.21 10.22" fill="#fff"/><path fill="#007843" d="M307.167 243.928c-.51-1.63-.94-3.33-1.52-4.94-.27-.75-.81-1.52-1.2-2.21l-1.01.51c.02.34.18 2.61.33 2.89.35.62 1.92 3.07 2.04 3.75h1.36"/><path d="m279.267 224.348 4.42-.17c-1.6-2.43-21.1-3.67-21.1-18.04 0-22.32 44.27-15.4 58.89-21.62l-.18 1.36c-10.52 3.54-19.57 4.18-30.8 4.61-9.75.35-24 3.97-24 16.33 0 4.42 3.55 7.47 6.64 10.05.97.09 1.91.44 2.89.33-.9-2.03-2.55-4.96-2.55-7.14 0-15.15 23.07-17.13 33.19-17.88 10.57-.78 28.25-3.38 28.25-17.7 0-5.12-5.69-7.35-9.87-7.14.07 1.77.68 3.35.68 5.27 0 9.75-29.78 7.66-35.23 7.66-14.02 0-35.4 8.1-35.4 24.85 0 11.6 13.94 19.23 24.17 19.23" fill="#fff" fill-rule="evenodd"/><path d="M22.957 225.538c.46-.36.9-.85 1.36-1.19.87-.63 3.29-2.13 3.75-3.05-1.14-1.61-2.38-3.05-4.26-3.75l-1.69 1.69v5.79l.84.51M47.807 224.698l.68-.35c-.06-.88-.04-2.37.34-3.23.14-.29.37-.56.51-.85.31-.61.39-1.11 1.03-1.53l-1.36-1.37c-.82-.14-1.91-.5-2.73-.5-.54 0-1.3.27-1.88.33l-.84.86v1.36c0 .57.46 1.19.68 1.7.17.41.28 1 .51 1.36.34.57 2.37 1.95 3.06 2.22" fill="#da121a"/><path fill="#007843" d="m287.257 219.758 1.37-.34c.65-1.18 3.9-3.69 4.93-4.43-.88-2.42-4.33-9.42-5.95-10.72.11-.21-1.85-3.49-2.04-3.75-.46.06-2.02.43-2.39.86-2.72 3.14-5.11 5.18-5.11 9.52 0 3.65 5.98 8.28 9.19 8.86"/><path d="m32.147 220.608 1.03-.34.16-2.04c0-.01-1.04-1.84-1.19-2.39l1.87.68c.41.77 1.12 1.43 1.71 2.04l.85.68 1.19-.33.17-1.36c0-1.62-2.21-3.71-2.21-6.13 0-2.03 2.23-3.78 2.72-5.45 1.48-1.05 3.53-1.33 4.94-2.38 3.49-2.62 2.23-7.15 9.02-7.15h1.02c-.83 1.03-4.4 3.45-5.62 4.43-.54 3.49-5.85 8.19-8 8.51v2.04c0 1.38.82 2.12 1.87 2.89 1.91.24 4.13-.51 6.13-.51.77 0 5.71 2.2 5.79 2.39l1.87-.18-.51-2.04-2.72-2.39c1.42-.74 2.56-.76 4.08-.33v-1.36c-.94-.87-1.95-2.04-3.23-2.39.92-.79 2.15-1.51 3.4-1.36-.9-1.95-1.87-4.12-1.87-6.3l.17-1.01c.44.24 1.8 1.64 2.04 2.04l1.53.33 1.36-1.36c.1-5.56 1.85-11.95 8.69-11.23-.78 2.59-4.43 1.19-5.28 6.8l1.53 1.2c5.42-.63 1.23-3.07 11.57-3.07 1.15 0 2.52-1.14 2.89-2.21l-.17-1.02c-2.09-2.11-3.44-2.21-6.29-2.89 3.4-2.7 3.61-1.73 4.93-5.96l.68.34c0 2.84.05 2.92 2.39 4.26 1.18-2.65.2-6.89 1.87-8.69.3-.04.57-.42.68-.68l-.17 2.04c0 2.37.58 4.26 1.36 6.47l1.02-.5c1.19-3.56 1.62-7.03 2.9-10.56h1.01c-.26 2.03-.84 4.07-.84 6.13 0 .88.39 1.71.68 2.56 3.35-4.57 2.82-11.26 5.95-14.99.93 1.64-.5 3.47-.5 5.11 0 .65.23 1.4.33 2.05 1.52-1.25 7.08-8.06 6.3-9.54l.85-.68.51 1.36c2.1-2.11 5-6.96 4.94-9.87-.3-.05-.2-.84-.18-1.02-3.12 1.53-5.79 1.82-9.18 2.39-8.23 1.37-12.36 12.24-21.79 14.12-4.64.92-16.19 6.76-18.89 10.04-2.06 2.24-4.95 5.62-8.17 5.62v-.85c1.82-1.09 2.13-1.04 3.4-2.9h-2.55c-4.58 0-7.43 5.8-13.95 6.3-1.33-1.44-8.21 1.42-11.92-4.42-4.21.56-6.22-.23-9.86 2.55.05 1.01.45 2.63 1.36 3.23.56 3.37 1.08 5.82 1.36 9.37l1.19-.18c.28-1.4-.02-1.8-.17-3.06h1.53c.74 1.96 1.05 1.88 1.36 4.09l1.19.85c3-.12 3.89-3.33 3.75-5.79 1.09.73 2.92 2.38 4.08 2.38h2.04c2-2.44 6-4.25 9.02-4.25l.86.17c0 .4-.49.69-.86.85-5.77 2.62-4.9 2.64-5.95 7.66-1.41-.23-2.83-.51-4.25-.51-3.97 0-9.2 3.77-9.2 7.99 0 .65.36 1.43.51 2.05 2.9 2.58 6.05 4.22 9.87 7.66" fill="#fff" fill-rule="evenodd"/><path d="M70.277 204.608c.36-.21.86-.43 1.19-.68.05-.05.26-.43.34-.51.26-.3.6-.55.85-.86.19-.23 1.4-2.04 1.53-2.37.38-1.02.72-1.99.85-3.07-.78-.06-1.6-.17-2.38-.17-.91 0-1.8.23-2.73.17-.64.43-1.15.99-1.69 1.53.13.38.64 1.67 1.01 1.87l.68 2.56c.12.4.02.81.35 1.53M9.347 200.188c.3-.25.45-.11.68-.18 2-.54 1.98-.68 3.91-.68.06-.72.17-1.49.17-2.21 0-1.03-.8-3.09-1.19-4.08-.71.33-1.58.71-2.21 1.18-.92.69-1.71 2.27-1.71 3.41v1.02c0 .07.32 1.38.35 1.54" fill="#da121a"/><path d="M132.217 197.968c3.28 0 3.58-5 3.58-7.15 0-3.79-.11-6.32-1.36-9.7-2.9 1.77-6.07 3.4-9.53 3.4-2.73 0-5.62-3.12-5.62-5.79h2.89c2.14-.17 3.67-1.19 5.05-2.78 3.59-4.09 5.39-12.53 6.53-17.81 1.31-6.12 7.22-9.66 10.04-14.81l.68.68c-3.18 10.59-6.64 15.59-6.64 27.41l.51 12.6.34 7.83c.05.74-.25 2.2.51 2.2 4.89 0 2.78-37.95 8.51-37.95l.17 1.19c0 8.42-5.19 27.17-4.08 37.11 10.9-5.14 11.57-20.61 14.12-30.81.15-.6 3.8-11.06 5.11-11.06.21 0 .34 1.29.34 1.53 0 9.69-6.81 22.82-6.81 33.01l2.21.18c11.55 0 14.8-48.85 23.49-48.85l1.03.17c-6.53 6.25-10.49 29.86-11.92 38.98 9.47-4.17 12.68-24.48 17.02-33.87 1.13-2.45 3.8-12.09 4.76-12.09l.34 1.19c-2.83 5.03-3.09 14.83-3.57 20.6 4.48-6.28 9.89-34.21 14.81-34.21l.16 1.01c0 .12-2.82 8.4-3.06 10.56l.51.34c.38 0 5.16-12.59 6.3-14.3 3.16-4.75 4.88-9.31 9.53-12.93l.51.68c0 1.94-1.76 3.49-2.55 5.27 6.05-3.76 9.49-13.43 13.45-19.23l.68.16c-1.05 1.61-2.15 4.33-2.62 6.2l-.34 1.46c-.04.21-.31.52-.11.52 7.06 0 15.49-25.68 15.49-32.34 0-4.22.01-11.79-4.08-14.52-.18-.84 1.65-.75 2.04-.45-.37-2.83-.93-3.5-3.24-5.11l-1.02-.52c0-1.44 1.79-.85 2.72-.85h.51c-3.38-6.78-19.94-12.56-27.22-12.08l-.35-1.19c9.87-.69 18.35 0 28.08 0 6.53 0 13.26-2.09 20.08-2.22-6.26-4.86-25.1-3.42-33.01-3.91-5.43-.34-11.47 2.04-17.19 2.04-1.45 0-9.36-2.69-9.36-3.57 0-1.15 6.11.51 7.83.51l3.07-.18 1.01-.85c0-3.81-8.31-3.06-10.21-3.06-7.26 0-15.29-6.97-22.97-6.97-4.59 0-4.6 1.87-4.6 5.44 0 .39-.9.27-1.19 0l-.51-1.53h-1.87l-.51 1.53c0 4.32 22.35 9.87 25.18 13.1l-.16 1.19-2.73.68c-1.11-.24-2.05-1.19-3.23-1.19-3.92 0-8.21 2.9-12.08 2.9-.67 0-8.28-3.83-10.38-4.43-.47-.12-2.22-1.27-2.22-1.7 0-.93 5.67-1.87 4.42-3.57-3.49-2.71-5.12-3.75-9.53-3.75-1.59 0-5.76 1.92-7.66 2.39-9.46 2.37-15.94 3.99-26.2 5.27-1.23.15-5.1 1.65-5.1 3.24 0 1.37 2.82 2.64 3.73 3.06v1.53l-2.72 1.36-.51 1.03c0 1.04 5.79 3.38 7.32 5.78l1.88-.16 1.69-3.24c5.43-2.43 4.77-.85 10.05-.85l-.29-.4-.91-1.02-2.04-.79-.85-.17.34-.86h2.72c3.86 0 15.5 5.36 15.5 10.22 0 4.07-11.48 3-13.28 3.23l-1.36.17c-.89 1.24-4.26 4.91-4.26 5.62l.34.84c5.51 1.61 7.21 4.82 12.08 5.97 1.49-.96 3.03-1.96 4.26-3.23 4.97-5.2 7.67-8.29 14.47-10.9 1.14-.44 6.5-2.5 5.95.68h2.21c2.42 0 5.42-2.38 7.49-2.38 1.27 0 1.22 2.26 2.04 3.23 1.62 1.89 3.84 3.2 5.96 4.43 1.54.88 8.53.83 6.81 2.55l2.72.34c1.05 0 5.39-2.31 7.49-2.73l.85.68-1.87 2.22v.68l1.13-.12c1.7-.16 3.44-.54 5-1.24l.51 1.02c-1.93.9-3.37 2.05-4.43 3.91h2.21c2.42 0 4.48-2.21 7.33-2.21v1.36c0 2.69-4.92 2.53-6.65 4.6-11.38 13.59-34.16 23.52-51.91 21.95l-.16 1.36c0 1.67 3.06 2.26 3.06 4.1 0 .6-1.22.18-1.75.45-1.87.93-4.27 1.61-6.24 2.38-4.58 1.78-8.72 4.67-12.77 7.38-21.64 14.42-33.75 34.16-61.78 35.92 1.21 4.34 6.07 5.44 10.04 5.44 10.43 0 24.57-14.81 24.68-14.81l.5.17-3.23 4.42c.59 1.17-6.2 7.69-6.29 8.34-3.1 1.84-13.14 5.65-14.3 6.82l1.19 1.36c1.43.5 2.76.84 4.26.84 7.93 0 17.99-13.1 18.89-13.1l.16 1.36c0 5.08-22.63 35.39-22.63 43.75 0 6.04 1.99 4.16 3.4 7.66.72-12.01 7.14-21.36 17.88-26.73 2.34-1.18 2.31-5.23 4.25-6.3l.34 2.73c-1.96 3.83-9.19 8.52-9.19 11.23l.17 1.19c16.13-3.55 10.74-25.7 20.26-25.7.39 0 .02.84-.17 1.19l-1.71 2.21c-4.51 5.88 2.39 20.61-16.51 27.76 2.21 3.93 6.14 4.81 10.05 5.78l-.52 1.02h-3.4c2.27 1.43 4.14 1.95 6.8 2.55.43.1 1.7.6 1.2 1.19l-5.44-.34.33.68c2.06.92 4.15 1.58 6.36 2.05.94.2 2.84-.45 2.84.5 0 .71-2.61 1.18-3.58 1.54l1.71 1.87 1.52.34" fill="#fff" fill-rule="evenodd"/><path d="m251.697 194.398 1.02-.35-.18-1.01c-10.72-4.17-14.63-10.17-14.63-21.45 0-17.92 27.88-27.08 42.04-25.19 8.07 1.07 16.53 2.04 24.67 2.04 2.75 0 6.02-.6 8.69-1.19l.67.67c-3.81 1.81-8.8 2.22-12.93 2.22-5.88 0-11.75-1.19-17.7-1.19-15.19 0-42.03 3.71-42.03 24.68 0 1.92.79 3.29 1.7 4.94h.68c-1.21-32.66 43.25-27.07 62.97-27.07 6.42 0 12.76-1.04 17.86-5.1 3.16-2.38 5.45-8.33 5.45-12.09 0-1.28-.41-3.11-1.52-3.91-5.54 7.56-10.88 10.72-20.43 10.72-10.44 0-20.61-2.9-31.15-2.9h-11.23c-14.22 0-34.89 14.57-34.89 29.8 0 11.28 10.11 23.46 20.94 26.38" fill="#fff"/><path fill="#007843" d="m255.437 189.808.79-.23c.84-.24 1.78-1.35 2.45-1.93 2.64-2.35 6.1-3.85 9.18-5.51 1.74-.93 4.33-.98 5.96-2.21-3.09-7.26-8.23-13.38-11.57-20.43-4.71 1.95-9.36 3.22-11.75 8.52-1.41 3.13-3.06 6.22-3.06 9.7 0 3.62 4.03 10.44 7.32 11.91.21-.05.5.1.68.18"/><path d="M127.117 180.438c1.96-.17 2.94-.87 4.2-2.44.09-.11.69-.87.74-.96.1-.24.08-.61.16-.86.49-1.44.61-1.55.8-3.23.03-.21.23-.81.23-1.02v-1.19l-.51-.52c-.25.69-.38 1.58-.68 2.22-.64 1.36-1.49 2.61-2.22 3.92-.37.65-.62 1.41-1.02 2.04-.45.71-1.14 1.41-1.7 2.04M199.617 172.948c.83 0 1.72-.11 2.55-.17l-.34-1.02c-.21-.17-2.51-1.99-2.55-2.05-.11-.14-1-2.52-1.19-2.89-.42-.8-1.04-1.61-1.54-2.38-.18-.29-.28-.69-.33-1.02l-.86-.34c.13 1.2.01 3.06.18 4.08.05.37 1 2.9 1.19 3.23.35.67.91 1.12 1.18 1.88.14.05 1.67.68 1.71.68M237.397 147.588c.9-.64 3.03-1.73 3.57-2.72 1.92-19.19 15.48-28.77 34.55-28.77 9.41 0 18.21 3.75 27.57 3.75 4.27 0 7.63-2.1 11.74-2.56l-.16 1.02c-5.07 1.69-9.19 3.41-14.64 3.41-5.79 0-11.39-2.55-16.85-2.55-4.22 0-10.59-.91-14.46 0-7.13 1.67-10.67 2.47-16 7.66l-.18.68c7.18-3.94 15.73-6.82 24.01-6.82 9.81 0 19.46 3.07 29.44 3.07 12.98 0 28.08-11.81 28.08-25.53 0-6.04-7.66-10.05-12.77-10.05-1.42 0-4.8.31-5.44 1.87 4.03 3.77 6.81 3.95 6.81 10.22 0 6.1-6.76 9.36-12.09 9.36-10.77 0-21.42-4.26-32.34-4.26-10.21 0-26.35 5.36-33.69 12.44.02.39-4.9 5.8-5.79 7.14-.49 1.28-3.06 7.9-3.06 9.02v9.87l1.7 3.75M214.587 146.058c-1.42-4.26-2.04-7.47-2.04-12.09 0-6.65 7.15-18.94 7.15-19.06v-.85c-5.11 3.9-12.25 12.9-12.25 19.57v4.59c0 5.08 3.95 5.76 5.1 7.66.65.18 1.38.23 2.04.18" fill="#fff"/><path fill="#007843" d="M245.907 141.798c2.67-1.14 5.27-2.41 8-3.4-.63-1.41-.56-2.96-1.02-4.43-.23-.72-.75-1.47-1.03-2.21-1.42.48-2.18 1.24-3.23 2.21-1.71 1.6-3.23 3.08-3.23 5.61v2.06l.51.16"/><path d="M97.667 131.928c.41-.27 0-3.96 0-4.6 0-1.96.82-3.88 1.2-5.79l1.19.52c.32 2 1.53 8.11 3.91 8.68l1.71-.18c-.41-1.1-1.93-5.47-1.88-5.78.29-1.83.42-3.68 2.04-4.77 1.85.71 3.81 1.2 5.79 1.2 4.62 0 8.72-3.2 12.42-5.62.02-.4.73-.73 1.03-.85l-1.53-1.54-2.22-.5-.33-1.03 2.2-.34c-1.87-1.25-3.54-1.84-5.78-1.7l1.36-1.7c-2.01-.26-3.44-.76-5.44-.52.42-1.14.86-2.14 2.04-2.72-2.91-.83-4.48-.64-7.49-.51l-1.02.18c.19-.62.5-1.39.5-2.05l-.33-.68c-2.73-.2-5.02-.57-7.49.68l.17-1.36c.55-.33.43-1.03 1.19-1.36-2.38-.09-4.76-.34-7.15-.34l1.36-2.22c-5.71-4.28-14.84-5.19-20.93-8.67.3-.73.97-.9 1.19-1.54l-3.41-1.36c-.25-.61-.62-1.7-.5-2.38-1.04-1.02-3.9-1.77-5.28-1.87.45-2.49-2.15-2.96-4.08-3.07l.34-1.53c-1.78-2.46-11.6-9.95-14.47-12.43 2.04-3.75 1.71-9.35 1.71-13.44v-.85l-1.71-.51.17-1.2 2.73-1.52.68-2.22-.86-2.21-1.69-.68c-2.02.86-4.19 2.31-5.97 3.57-1.99.12-3.97-.34-5.95-.34-1.24 0-2.05.4-2.72 1.36l-.17 3.58 1.53 1.53 3.23-.51.51 1.19-1.53 1.71c1.1 2.88 2.82 4.84 3.58 7.99l-.69 1.03c-2.42-1.4-5.07-1.71-7.82-1.71.57-.45 1.19-1.11 1.19-1.87v-.85c-.82-.92-1.96-1.94-3.18-2.16l-1.76-.56h-.84c0-.76.56-1.54 1.18-1.87-1.42-2.21-10.18-9.88-13.1-9.88l-2.56.17-1.52 1.7-.18 2.04c0 5.6 3.56 5.42 1.87 15.15l1.36 1.36 1.37-.33.85-1.36c-.15-.84-.07-1.76-.35-2.55l1.54.33c.41 1.17.59 1.35.85 2.72l1.87-.85c1.31-1.66 1.48-3.74 1.36-5.78l1.36 1.02c.44 1.81.35 3.6.35 5.44 1.93 1.55 2.72 2.28 5.1 3.07l.34 1.19c-1.55.64-2.74 1.21-3.75 2.56v3.23c-.76-.34-1.32-.86-2.2-.86-2.47 0-3.81 1.47-5.62 2.9l.34 2.04c2.84 3.05 5.91 4.7 8.34 8.18l1.53.33.17-2.21-1.19-1.54 1.19-.33 1.54.68c1.39-3.64-.26-3.5.16-6.3 2.18 1.54 4.02 2.7 4.43 5.45h1.36l1.36-1.54.17-2.89c0-2.08-.95-3.89-1.7-5.78h1.02c1.53 1.62 2.63 3.58 3.06 5.78l1.2-1.02.33-1.53c2.39 1.06 3.12 4.13 3.07 6.63l2.89.17c1.22-.61 2.22-1.24 2.72-2.55l.52 1.37c-.49.47-.86 1.01-.86 1.7v.85c1.07-.24 1.97-1.19 3.07-1.19l.17.85c-2.85 5.55-4.42 2.72-7.15 6.3v2.21c3.98 2.44 7.46 3.95 11.07 7.14l.16-1.87c.9 0 1.7-.04 2.56.18v-1.71c0-2.06-3.98-5.84-5.28-7.14l2.38-.35c2.95 1.47 3.95 3.57 6.3 5.45l.51-1.02h1.19c4.06 4.99 6.48 23.56 11.23 26.38l2.04.18c.24-4.93.15-8.47-.85-13.12l1.2.35c1.32 3.24 3.27 12.61 6.29 13.78.18-1.85.31-3.77 0-5.62 3.32 3.72 1.35 9.31 4.25 13.63l.86-.35c.95-3.32.91-8.55-.51-11.74l.85-.51c2.06 5.44 1.08 15.54 7.14 17.7" fill="#fff" fill-rule="evenodd"/><path d="M110.607 126.648c.82 0 1.89-.33 2.73-.5.34-.48.77-.54 1.19-.86.68-.53 1.34-1.38 1.87-2.04-1.46.17-2.96.41-4.42.51-1.18.08-2.4 0-3.58 0v1.7c.42.34 1.63 1.19 2.21 1.19" fill="#fff"/><path fill="#007843" d="M132.737 108.608c12.05-12.9 23.18-11.46 23.99-18.56-.2-.98-1.07-1.97-1.7-2.72v-1.01c5.08 0 13.18.2 18.12-.36 13.19-1.5 30.68-13.12 33.1-16.16.3-.37.43-.68.35-1.19-3.78-4.41-12.8-4.07-18.04-8.34-6.2-5.03-5.4-5.27-12.93-5.27-15.02 0-19.6 14.8-26.56 14.8-1.23 0-13.17-7.67-16.33-8.85-3.9 1.63-7.03 5.65-9.84 8.71-13.73 14.96-40.11 6.92-42.41 15.8 6.97 7.48 34.35 12.28 49.69 21.62h1.71l.85 1.53"/><path d="M240.797 104.178c-.06-2.31-.06-4.66.17-6.97.12-1.15.29-2.26.35-3.41-1.34 1.56-2.9 3.98-2.9 6.13v1.88c0 .78.82 2.05 1.37 2.55l1.01-.18" fill="#fff"/><path d="M46.957 104.858c4.21 0 5.36-.52 8.51-2.89-.44-.88-.83-2.01-1.54-2.72-.44-.44-.88-.96-1.35-1.36-.57-.49-1.22-.75-1.7-1.37-.75-.14-1.51-.42-2.22-.68-1.44 3.31-2.63 5.16-5.27 7.66.78.5 2.62 1.36 3.57 1.36M19.047 90.908c.97-1.54 1.63-3.09 3.58-3.58.54-.13 1.26-.02 1.86-.16-.3-.57-.69-1.77-1.01-2.22-.94-1.29-2.78-1.93-4.26-2.38-.38.26-1.57 1.35-1.7 1.87-.12.46-.12 1.06-.18 1.53-.04.49-.16 1.06-.16 1.53 0 1.43.81 2.27 1.19 3.58l.68-.17" fill="#da121a"/><path fill="#007843" d="M77.587 81.888s.17-2.13.17-2.9c0-1.61.74-2.07 1.71-3.23 5.76-6.92 11-4.68 18.55-7.32 1.48-.52 2.95-1.68 4.25-2.55-1.6-1.71-13.24-1.54-16.5-1.54-4.76 0-15.83 2.34-18.22 7.16-1.8-1.27-1.7-2.48-1.7-4.61 0-1.79 1.85-7.01 5.96-9.7 5.37-3.5 13-4.31 19.06-4.93h1.19c-4.5-.73-7.62-1.53-12.25-1.53-6.37 0-16.46 2.84-18.05 10.04 0 0-3.23-3.77-3.23-6.13 0-14.21 25.43-19.58 35.74-17.53-5.2-5.73-14.09-7.99-21.61-7.99-7.17 0-17.62 2.73-23.32 6.97.13.22 1.8 3.21 1.71 3.41 2.75 2.67 3.4 5.94 3.4 9.7 0 3.55-.68 7.01-.68 10.55v1.7l.85.85c1.26 1.97 2.46 4 3.91 5.62 4.92 5.47 5.83 3.47 10.21 6.98 2.97 2.38 5.68 4.78 8.85 6.98"/><path d="M81.507 79.158c6.69-2.63 10.13-2.14 17.87-2.38 8.28-.25 23.15-9.43 27.22-15.48-5.92 1.26-11.35 2.96-17.52 3.91-3.62.55-4.76 3.53-8.17 4.76-5.69 2.07-17.5 2.25-19.92 9.02l.52.17M69.417 66.058c6.14-2.77 12.08-4.43 18.9-4.43 5.87 0 11.73 1.87 17.52 1.87 9.95 0 23.07-4.38 30.98-9.7l-1.02-.16c-4.75.16-9.33 3.06-14.3 3.06h-7.65c-9.62 0-19.45-1.05-29.11-1.19-5.38-.09-14.09 4.74-15.82 10.03l.5.52M2.027 60.948c.71-.67 1.68-1.75 2.55-2.21 1.21-.64 4.9-2.29 6.3-2.38.06-.78.18-1.61.18-2.39 0-1.26-1.16-2.46-1.54-3.75-.5.28-1.04.45-1.53.69-.66.33-1.23.84-1.87 1.19-.36.2-.87.29-1.2.51-1.8 1.25-3.4 4.47-3.4 6.64 0 .05.47 1.55.51 1.7M114.017 53.968c13.51-.48 25.33-4.73 38.63-5.44l-1.71-1.87-5.61-.17c-8.16 0-14.89 5.44-23.49 5.44-15.37 0-24.72-12.73-37.1-11.41-6.24.67-21.79 4.07-22.47 11.92 10.19-4.18 10.24-4.94 21.96-4.94 9.66 0 19.59 6.84 29.79 6.47" fill="#da121a"/><path d="m122.177 49.038 2.9-.18c-2.29-3.97-3.38-2.61-6.47-4.93-1.05-.79-2.49-6.6-4.08-7.66-.74-.49-2.53-1.42-3.07-2.04-9.39-10.64-17.61-15.15-32.16-15.15-8.42 0-20.61 5.28-26.56 11.23 6.57-2.46 13.13-4.42 20.26-4.42 22.21 0 33.5 24.07 49.18 23.15" fill="#da121a"/><path d="M248.627 41.028h2.9c3.54 0 10.06-3.94 13.78-5.61-.19-.07-1.77-.68-1.87-.68h-4.43c-.17 0-5.76 1.25-6.29 1.36-1.77.38-4.29.23-6.13.34-.96.06-1.6.75-2.21 1.36l.17 1.88c.34.12 3.95 1.35 4.08 1.35" fill="#fff"/><path d="M39.297 42.568c1.91-.38 5.24-1.31 6.64-2.73l.17-1.19c-.5-.38-1.07-.76-1.53-1.18-.18-.18-.33-.54-.51-.68-1.49-1.22-4.41-2.05-6.3-2.05-.77 0-1.8.36-2.55.51v.85c.66.77 1.5 1.56 1.87 2.21.04.08.85 3.29 1.02 3.75l1.19.51" fill="#da121a"/><path d="m183.107 32.358 1.87-.35-.68-1.36-1.87-.34.68 2.05M177.147 31.168l.17-2.39h-2.37v1.19l1.18 1.03 1.02.17" fill="#fff"/><path d="M244.377 22.828c.47.01 1.06-.13 1.53-.17.69-1.39 1.36-2.85 1.36-4.43 0-2.11-4.77-8.4-6.47-9.36-.14-.09-2.04-.34-2.2-.34h-3.42c.22 1.4.86 3.02.86 4.42 0 1.22-1.03 3.73-.86 4.42-.84 1.12-2.91 3.85-3.4 5.11l12.6.35M209.487 17.208c2.62-3.74 5.74-7.69 10.39-8.86-.12-.07-1.52-1.16-1.71-1.19-2.84-.45-6.15-1.36-9.02-1.36-3.19 0-13.96 3.44-13.96 7.33v.84c3.49 1.38 10.51 3.59 14.3 3.24" fill="#da121a"/><path d="M253.217 108.088c1.91-.58 4.03-1.39 5.79-2.37 1.38-22.57 13.81-52.6 40.51-52.6 11.28 0 19.44 6.47 30.46 6.47 4.65 0 6-2.59 9.02-5.44l-.34-.69c-1.85 1.11-5.23 1.19-7.32 1.19-8.41 0-14.78-6.76-23.31-6.64-2.56.05-16.13 1.7-17.87 1.37-.64.56-6.23 2.34-7.83 3.23-6.77 3.8-11.81 9.57-16.84 15.32-7.41 8.45-11.49 28.49-12.6 39.15l.33 1.01" fill="#fff"/><path d="M327.937 74.058c6.17 0 7.57-.88 12.94-3.41-22.53-.76-15.86-11.12-34.89-14.13 4.6 9.26 6.08 14.95 17.53 16.85 1.45.24 2.94.69 4.42.69" fill="#fff"/><path d="m258.677 136.858 3.74-1.36c-.64-2.74-.62-5.65-1.87-8.17-1.62.36-3.97 1.02-5.11 2.39.26 1.38.99 5.43 1.88 6.63l1.36.51zm19.74 41.87 4.76-.84 1.03-.52c-2.05-2.37-5.35-9.41-7.15-12.42-1.53-2.54-2.65-5.59-4.6-7.83l-5.61.85v1.03c0 .81 5.27 9.32 5.78 10.21.46 2.31 4.95 7.38 5.79 9.52zm19.73 34.05 4.09-1.36v-.85c0-1.81-7.09-11.5-8.34-13.28-.43.12-3.06.93-3.4.86l-.85.5c.99 2.49 2.33 4.62 3.58 6.98.57 1.09 1.04 2.36 1.69 3.4.6.96 1.98 1.84 2.05 3.07.37.05.93.42 1.18.68zm14.31 30.29 4.08-1.18c0-.11.02-1.5 0-1.54-1.51-3.01-2.45-6.27-4.43-9.02-.37-.53-.95-1-1.36-1.53l-3.4 2.04-.18 1.03c.43 1.38 1.24 2.72 1.77 4.08.77 1.96 1.39 4.41 2.66 6.12.13 0 .78.03.86 0" fill="#fff" fill-rule="evenodd"/></g></svg>