<svg width="139" height="150" viewBox="0 0 139 150" fill="none" xmlns="http://www.w3.org/2000/svg">
<path d="M69.4621 0L0 24.9111L10.6165 117.166L69.4621 150L128.384 117.166L139 24.9111L69.4621 0Z" fill="#DD0932"/>
<path d="M69.4619 0V16.6074V16.5312V92.5597V150L128.383 117.166L139 24.9111L69.4619 0Z" fill="#C31631"/>
<path d="M89.7848 97.9685C89.9365 96.2164 89.4057 94.4642 89.5574 92.712C89.709 91.1884 90.5432 89.6648 92.5906 89.8172C93.5764 89.8934 94.7898 90.9599 95.0173 91.9502C95.2447 93.1691 95.3206 94.388 95.2447 95.6069C95.1689 96.902 95.3206 99.1874 95.1689 100.635C96.1547 100.635 97.1406 100.559 98.1264 100.482C97.823 99.873 97.823 98.2732 97.823 97.8162C97.8989 96.2164 97.5197 94.6166 97.5955 93.0168C97.6714 91.5693 98.4297 90.2743 100.098 90.4266C100.932 90.5028 101.918 91.4931 102.07 92.4073C102.297 93.55 102.297 94.6166 102.221 95.7593C102.145 96.902 102.221 98.9589 102.145 100.254C102.98 100.178 103.738 100.178 104.496 100.102C104.42 99.3398 104.42 98.3494 104.42 98.0447C104.496 96.4449 104.193 94.9213 104.269 93.3977C104.345 92.0264 104.875 90.7313 106.089 90.8075C106.695 90.8837 107.378 91.7979 107.53 92.712C107.681 93.7786 107.681 94.9213 107.681 95.9878C107.605 96.9782 107.681 98.578 107.681 99.7969C108.288 99.7207 108.97 99.7207 109.501 99.6445C109.349 99.035 109.349 97.8162 109.349 97.4353C109.425 96.064 109.198 94.6927 109.274 93.3977C109.349 92.1788 109.729 91.0361 110.714 91.1884C111.169 91.2646 111.776 92.1026 111.852 92.8644C112.004 93.7786 112.004 94.7689 111.928 95.7593C111.852 96.7496 111.928 98.4256 111.852 99.5683C112.307 99.4921 112.762 99.4921 113.141 99.416C113.065 98.8827 113.065 97.74 113.065 97.4353C113.065 96.1402 112.989 94.9213 112.989 93.6262C112.989 92.4835 113.293 91.417 113.899 91.5693C114.203 91.6455 114.582 92.4073 114.658 93.0929C114.734 94.0071 114.734 94.8451 114.734 95.7593C114.734 96.6734 114.734 98.1971 114.734 99.2636C115.189 99.1874 115.568 99.1874 115.947 99.1112C115.871 98.578 115.871 97.6638 115.871 97.4353C115.871 96.2925 115.795 95.0736 115.795 93.9309C115.795 92.8644 116.023 91.9502 116.478 92.0264C116.705 92.1026 117.009 92.7882 117.009 93.4738C117.084 94.3118 117.084 95.1498 117.084 95.9116C117.084 96.6734 117.084 98.0447 117.084 99.035C117.464 98.9589 117.843 98.9589 118.146 98.9589C118.146 98.4256 118.146 97.74 118.146 97.4353C118.146 96.2925 118.07 95.226 118.07 94.1595C118.07 93.1691 118.298 92.255 118.677 92.3311C118.904 92.4073 119.132 93.0168 119.132 93.7024C119.208 94.4642 119.208 95.226 119.208 95.9878C119.208 96.6734 119.208 97.8923 119.208 98.8065C119.663 98.7303 119.966 98.7303 119.966 98.7303V75.4952C110.487 64.6775 80.4575 65.5155 70.9785 66.0488C70.9785 66.0488 71.206 67.9533 71.7368 70.0102C72.116 71.4576 73.7085 76.7903 73.7085 76.7903L79.6234 77.1712C80.9883 77.2473 81.2158 78.1615 81.3675 79.5328L82.4291 88.065L88.1924 99.416C88.4199 99.7969 88.4957 100.254 88.4957 100.711C89.0265 100.711 89.4815 100.711 90.0123 100.711C89.7848 100.102 89.709 98.4256 89.7848 97.9685ZM118.753 77.3997C118.98 77.4759 119.283 78.1615 119.283 78.771C119.359 79.5328 119.359 80.3707 119.359 81.1326C119.359 81.9705 119.359 83.8751 119.359 84.7131L118.298 84.6369C118.146 84.6369 118.146 82.9609 118.146 82.58C118.146 81.4373 118.07 80.3707 118.07 79.228C118.146 78.2377 118.298 77.3235 118.753 77.3997ZM116.478 76.6379C116.781 76.7141 117.16 77.3997 117.236 78.0853C117.312 78.9233 117.312 79.7613 117.312 80.5231C117.312 81.4373 117.312 83.3418 117.236 84.256C117.236 84.4083 115.795 84.1798 115.795 84.1798C115.644 84.1798 115.568 82.4276 115.568 82.0467C115.568 80.904 115.492 79.6851 115.492 78.5424C115.568 77.5521 115.871 76.5617 116.478 76.6379ZM111.852 78.0091C111.928 76.8664 112.307 75.7999 113.293 75.8761C113.748 75.9523 114.354 76.7141 114.43 77.4759C114.582 78.39 114.582 79.3042 114.506 80.2184C114.43 81.2087 114.658 83.1133 114.43 84.1036C114.354 84.5607 112.231 84.256 112.231 84.256C111.928 84.256 111.928 82.3515 111.928 81.8944C112.079 80.5993 111.852 79.3042 111.852 78.0091ZM107.757 77.3997C107.833 76.1808 108.364 75.0381 109.577 75.1905C110.184 75.2666 110.866 76.1046 111.018 76.8664C111.169 77.8568 111.169 78.771 111.169 79.7613C111.094 80.8278 111.169 83.0371 111.018 84.1036L108.288 84.0274C107.909 84.0274 107.909 81.9705 107.909 81.5135C107.909 80.1422 107.681 78.771 107.757 77.3997ZM103.131 77.095C103.207 75.8761 103.738 74.7334 104.951 74.8857C105.558 74.9619 106.24 75.7999 106.392 76.5617C106.544 77.5521 106.544 78.4662 106.544 79.4566C106.468 80.5231 106.544 82.7324 106.392 83.7989L103.662 83.6465C103.283 83.6465 103.283 81.5896 103.283 81.1326C103.359 79.7613 103.055 78.4662 103.131 77.095ZM97.2164 76.1808C97.2922 74.8096 97.8989 73.5145 99.2638 73.5907C99.9463 73.6668 100.78 74.581 100.932 75.4952C101.084 76.5617 101.16 77.7044 101.084 78.771C101.008 79.9898 101.16 82.0467 101.008 83.2656H97.6714C97.2922 83.2656 97.368 81.3611 97.368 80.8278C97.4439 79.3042 97.1405 77.7806 97.2164 76.1808ZM93.9556 78.4662C93.8798 79.6851 94.0314 81.8182 93.8798 83.1133C93.8798 83.3418 89.3299 83.1894 89.3299 83.1894C88.7232 83.1894 88.7232 81.1326 88.7232 80.5231C88.799 78.9233 88.344 77.3235 88.4957 75.7237C88.5715 74.2763 89.4815 72.9812 91.4531 73.1336C92.439 73.2098 93.5764 74.2001 93.8039 75.1143C94.0314 76.257 94.0314 77.3997 93.9556 78.4662Z" fill="white"/>
<path d="M52.7787 37.7095C52.3237 37.3286 51.3379 37.1762 49.8213 37.1C49.3663 37.0239 47.3947 36.9477 47.1672 37.0239C21.0051 45.0228 20.7018 52.9457 20.7018 52.9457L18.8818 99.873C19.716 99.873 19.3368 99.9492 20.0951 99.9492C19.9435 98.1971 19.9435 95.226 20.0193 93.55C20.0951 92.3311 21.081 91.3408 21.6118 92.0264C22.0668 92.5597 22.2943 93.8547 22.2184 94.9213C22.1426 95.9116 22.2184 99.1112 22.0668 100.025C22.5976 100.025 23.1284 100.102 23.6593 100.102C23.5076 98.2732 23.5076 95.0736 23.5834 93.3977C23.6593 92.1026 24.9484 91.0361 25.555 91.7217C26.0859 92.3311 26.3892 93.7024 26.3134 94.8451C26.2375 95.8354 26.3134 99.1112 26.1617 100.178C26.6925 100.178 27.2234 100.178 27.6783 100.254C27.4508 98.2732 27.4508 94.8451 27.5267 92.9406C27.6025 91.5693 29.3466 90.4266 30.1808 91.1884C30.9391 91.7979 31.2424 93.2453 31.1666 94.4642C31.015 95.6069 31.1666 99.4159 30.9391 100.33C31.8491 100.33 32.6833 100.406 33.5932 100.406C33.3657 99.2636 33.4416 95.3784 33.2899 94.1595C33.1382 92.7882 33.5932 91.2646 34.5032 90.579C35.489 89.741 37.6123 90.9599 37.6882 92.4835C37.8398 94.5404 37.8398 98.4256 37.5365 100.559C38.8256 100.559 40.039 100.635 41.2523 100.635C41.0248 99.2636 41.1006 95.0736 40.9489 93.7786C40.7973 92.3311 41.2523 90.579 42.2381 89.8172C43.3756 88.903 45.5747 90.2742 45.7264 91.9502C45.9539 94.2356 45.878 98.4256 45.5747 100.787C46.9397 100.787 48.3805 100.863 49.6696 100.863C49.2905 99.7207 49.4421 94.9213 49.2146 93.4738C48.9871 91.874 49.5938 90.1219 50.8071 89.2839C52.1721 88.3697 54.9779 89.741 55.1295 91.4931C55.357 93.9309 55.2812 98.5018 54.902 100.94C56.6462 100.94 58.3145 101.016 59.9069 101.016C59.8311 98.6541 59.5278 92.9406 59.8311 90.6551C59.9828 89.6648 60.5894 88.903 61.8786 88.7506C63.5469 88.5221 65.8977 89.8172 65.6702 92.0264C65.5943 92.712 65.6702 93.4738 65.6702 94.1595C65.6702 94.8451 65.6702 95.5307 65.6702 96.4449C65.5943 97.5876 65.5943 100.178 65.3668 101.168C67.1868 101.168 68.9309 101.168 70.5992 101.168C70.0684 100.178 70.2959 94.8451 70.0684 93.2453C69.8409 91.5693 70.5234 89.6648 71.8884 88.8268C73.4809 87.8365 76.6658 89.2839 76.8175 91.1884C77.1208 93.7786 76.9691 98.578 76.59 101.168C76.59 101.168 76.59 101.168 76.5141 101.244C83.4148 101.244 87.2823 101.092 87.2823 101.092L81.2915 89.2839L80.3057 80.2946C80.3057 80.2946 80.2299 79.9137 80.0024 79.4566C79.8507 79.1519 79.2441 79.228 79.2441 79.228L73.3292 78.7709C73.3292 78.7709 71.1301 73.0574 70.5992 71.0767C69.9926 68.7151 69.2343 65.4393 69.2343 65.4393C69.2343 65.4393 69.1584 64.7537 68.9309 64.5251C68.7793 64.3728 68.1726 64.3728 68.1726 64.3728L64.3052 63.9919H63.3194L63.0919 63.3824C63.0919 63.3824 59.9828 54.3931 59.6036 52.4124C58.9969 50.2793 56.722 45.937 56.5703 45.4038L52.7787 37.7095ZM59.7553 73.6668C59.9828 72.7527 61.3477 71.7623 62.4852 71.7623C64.7602 71.61 65.746 72.9812 65.8977 74.3525C66.0493 75.9523 65.5185 77.4759 65.6702 79.0757C65.746 79.6089 65.5943 81.8944 64.9877 81.9705C64.2294 82.0467 59.7553 81.742 59.7553 81.742C59.4519 80.5231 59.6794 78.2377 59.6036 77.0188C59.4519 75.8761 59.4519 74.7334 59.7553 73.6668ZM50.2004 55.4596C50.2763 54.1645 51.0346 52.9457 52.9304 52.9457C53.8404 52.9457 55.0537 53.7836 55.2812 54.6216C55.5845 55.612 55.6603 56.6023 55.5845 57.6689C55.5845 58.8116 55.812 60.8685 55.6603 62.0112C56.4187 62.6968 52.0962 63.3062 51.0346 62.6206C50.5038 62.3921 50.2004 56.9071 50.2004 55.4596ZM50.9588 72.6003C52.3237 71.9147 55.1295 73.0574 55.2812 74.4286C55.5087 76.3332 55.2812 79.9898 54.902 81.8944C54.8262 82.1991 50.2763 82.6562 49.7454 82.1229C49.2146 81.6658 49.518 77.095 49.3663 75.7999C49.1388 74.6572 49.7454 73.2097 50.9588 72.6003ZM45.423 82.6562C45.3472 82.9609 41.6314 83.418 41.1764 82.8847C40.7214 82.4276 41.0248 78.0091 40.8731 76.7902C40.7214 75.5714 41.2523 74.2001 42.2381 73.5907C43.3756 72.905 45.6505 74.0477 45.7264 75.3428C45.9539 77.3235 45.8022 80.8278 45.423 82.6562ZM49.7454 39.7664C50.5038 39.5378 51.4138 40.0711 51.4138 40.452C51.1863 41.8233 50.0488 41.9756 48.9113 42.0518C48.5321 41.8994 47.3947 42.6612 47.4705 41.4424C47.4705 40.452 48.7596 40.0711 49.7454 39.7664ZM44.5889 55.1549C45.3472 55.2311 46.2572 56.0691 46.4088 56.9071C46.6363 57.8974 46.6363 58.8878 46.5605 59.8781C46.4847 60.9446 46.6363 62.773 46.4847 63.9157C46.4847 63.9157 43.5272 64.5251 42.6172 64.5251C42.2381 64.2204 42.1623 58.9639 42.2381 57.5165C42.3139 56.2214 42.9964 55.0787 44.5889 55.1549ZM43.4514 41.2138C43.9064 41.2138 44.8164 41.1376 44.8164 41.8994C44.7405 42.6612 43.9064 42.7374 43.2239 42.8136C42.9206 42.8136 42.2381 43.1183 42.2381 42.3565C42.1623 41.5947 42.8447 41.29 43.4514 41.2138ZM36.854 42.8136C37.4607 42.6612 38.219 42.6612 38.2948 43.3469C38.3707 44.261 37.4607 44.6419 36.7782 44.7943C36.3232 44.8705 35.4132 44.8705 35.4132 44.1087C35.489 43.4992 36.0199 42.8898 36.854 42.8136ZM35.489 59.4972C35.5649 58.3545 36.0957 57.288 37.4607 57.3641C38.0673 57.4403 38.8256 58.2021 38.9773 58.9639C39.129 59.8781 39.129 60.7923 39.129 61.7064C39.0531 62.6968 39.2048 64.3728 39.0531 65.4393C39.0531 65.4393 36.4749 66.0488 35.8682 66.0488C35.489 65.744 35.4132 60.7923 35.489 59.4972ZM35.944 74.8095C37.0057 74.8095 37.8398 75.419 37.9157 76.6379C38.0673 78.3139 37.9157 81.5896 37.6123 83.2656C37.5365 83.4942 34.4274 83.9512 34.0482 83.4942C33.6691 83.1133 33.8966 78.9995 33.8207 77.933C33.6691 76.8664 34.5032 74.8095 35.944 74.8095ZM31.9249 44.8705C32.5316 44.7943 33.3657 44.7181 33.3657 45.4799C33.3657 46.3179 32.7591 46.9274 31.8491 46.9274C31.1666 47.0797 30.4083 47.0036 30.4841 46.2417C30.4841 45.5561 31.0908 44.9467 31.9249 44.8705ZM31.2424 59.8781C31.7733 59.9543 32.3799 60.6399 32.4558 61.3255C32.6074 62.1635 32.6074 62.9253 32.5316 63.7633C32.4558 64.6775 32.6074 66.1249 32.4558 67.0391C32.4558 67.0391 30.1808 68.1056 29.8775 67.8009C29.65 67.5724 29.5741 62.9253 29.65 61.7826C29.8016 60.7161 30.2566 59.8019 31.2424 59.8781ZM27.2992 47.7654C27.83 47.7654 28.5125 47.8415 28.74 48.6033C28.6642 49.289 28.1333 49.4413 27.5267 49.5937C26.92 49.6699 26.5409 49.7461 26.3892 48.9081C26.2375 48.0701 26.6925 47.7654 27.2992 47.7654ZM28.8917 76.1046C29.7258 75.4952 31.3941 76.4855 31.4699 77.7044C31.5458 79.3804 31.4699 82.58 31.1666 84.256C31.0908 84.4845 28.3608 84.713 28.0575 84.3321C27.7542 83.9512 27.9817 80.1422 27.83 79.0757C27.7542 77.8568 28.1333 76.6379 28.8917 76.1046ZM27.4508 63.3062C27.6025 64.0681 27.6025 64.906 27.5267 65.6678C27.4508 66.5058 27.6025 68.1818 27.4508 69.0198C27.4508 69.0198 25.4792 70.0102 25.1759 69.7816C24.9484 69.5531 24.8726 64.906 24.9484 63.7633C25.0242 62.773 25.4034 61.8588 26.3134 61.935C26.8442 61.935 27.375 62.6206 27.4508 63.3062ZM23.5834 50.6602C24.1901 50.5079 24.8726 50.7364 24.9484 51.2697C25.0242 51.7268 24.4934 52.26 23.8109 52.1838C23.2801 52.26 22.5976 52.4886 22.4459 51.8791C22.4459 51.1935 22.9009 50.8126 23.5834 50.6602ZM24.7967 77.2473C25.4034 76.6379 26.6167 77.5521 26.6167 78.6948C26.6925 80.2184 26.6167 83.1894 26.3892 84.713C26.3892 84.9416 24.4176 85.1701 24.1142 84.7892C23.8867 84.4083 24.0384 80.904 23.9626 79.9137C23.9626 78.8471 24.2659 77.7044 24.7967 77.2473ZM23.2801 67.7247C23.2043 68.4865 23.2801 69.8578 23.1284 70.6196C23.1284 70.6196 21.536 71.7623 21.3843 71.5338C21.2326 71.3052 21.3085 67.1153 21.3843 66.1249C21.4601 65.2869 21.7635 64.5251 22.4459 64.6013C22.8251 64.6775 23.2043 65.2108 23.2043 65.8202C23.3559 66.4297 23.2801 67.1153 23.2801 67.7247ZM21.6118 78.3139C21.9909 77.7806 22.6734 78.6186 22.7493 79.6851C22.7493 81.1326 22.6734 83.9512 22.5976 85.3987C22.5976 85.6272 21.3843 85.8558 21.2326 85.4749C21.081 85.1701 21.2326 81.8182 21.2326 80.8278C21.1568 79.8375 21.3085 78.7709 21.6118 78.3139Z" fill="white"/>
</svg>
