<svg width="580.8" height="623.76" xmlns="http://www.w3.org/2000/svg" version="1.1">
 <defs>
  <clipPath id="clip1">
   <path id="svg_1" d="m0,0l291,0l0,623.76172l-291,0l0,-623.76172zm0,0"/>
  </clipPath>
  <clipPath id="clip2">
   <path id="svg_2" d="m290,0l290.80078,0l0,623.76172l-290.80078,0l0,-623.76172zm0,0"/>
  </clipPath>
 </defs>
 <g>
  <title>Layer 1</title>
  <g stroke="null" id="surface1">
   <g stroke="null" id="svg_3" clip-rule="nonzero" clip-path="url(#clip1)">
    <path stroke="null" id="svg_4" fill="rgb(89.804077%,17.64679%,21.176147%)" fill-rule="nonzero" d="m44.79547,487.35938l-44.27734,-383.83985l290.29688,-103.51953l0,623.62109l-246.01954,-136.26171zm0,0"/>
   </g>
   <g stroke="null" id="svg_5" clip-rule="nonzero" clip-path="url(#clip2)">
    <path stroke="null" id="svg_6" fill="rgb(71.372986%,18.03894%,18.431091%)" fill-rule="nonzero" d="m290.29688,0l0,69.22266l0,-0.3125l0,554.71093l246.01953,-136.26171l44.27734,-383.83985l-290.29687,-103.51953zm0,0"/>
   </g>
   <path stroke="null" id="svg_7" fill="rgb(100%,100%,100%)" fill-rule="nonzero" d="m317.56641,440.06641l-54.95703,0l27.47656,-66.11328l27.48047,66.11328zm-27.48047,-134.64844l-94.07031,210.94141l35.07421,0l18.91016,-47.19922l79.85156,0l18.91407,47.19922l35.07421,0l-93.7539,-210.94141zm0,0"/>
   <path stroke="null" id="svg_8" fill="rgb(100%,100%,100%)" fill-rule="nonzero" d="m292.63672,135.625c-94.28906,0 -170.71875,76.42969 -170.71875,170.71875c0,66.02734 37.49609,123.28906 92.34766,151.68359l8.55859,-19.1914c-47.53516,-25.09766 -79.94141,-75 -79.94141,-132.49219c0,-82.70703 67.04688,-149.75 149.75391,-149.75c82.70312,0 149.75,67.04297 149.75,149.75c0,58.96094 -34.10547,109.92578 -83.64063,134.34375l8.51563,19.16406c56.87109,-27.69922 96.08984,-86 96.08984,-153.50781c0,-94.28906 -76.42968,-170.71875 -170.71484,-170.71875"/>
   <path stroke="null" id="svg_9" fill="rgb(100%,100%,100%)" fill-rule="nonzero" d="m434.33594,413.26563c-0.04297,-0.02735 -0.08203,-0.05469 -0.1211,-0.08204c-9.24218,12.15235 -20.03125,23.16016 -32.23828,32.59375l14.22266,19.9961c13.92578,-10.65625 26.29297,-23.06641 36.87891,-36.8086l-18.83594,-15.57031c0.03125,-0.04297 0.0625,-0.08594 0.09375,-0.1289"/>
   <path stroke="null" id="svg_10" fill="rgb(100%,100%,100%)" fill-rule="nonzero" d="m185.53906,447.58203c0.03125,-0.04297 0.05469,-0.08203 0.08203,-0.11719c-12.14843,-9.24218 -23.15625,-20.03125 -32.59375,-32.23828l-19.99609,14.21875c10.65625,13.92578 23.07031,26.29297 36.8125,36.88282l15.57031,-18.83594c0.03907,0.03125 0.08203,0.05859 0.125,0.08984"/>
   <path stroke="null" id="svg_11" fill="rgb(100%,100%,100%)" fill-rule="nonzero" d="m129.13281,374.99609c0.04297,-0.01562 0.08594,-0.04296 0.12891,-0.05859c-5.90625,-14.08203 -10.04297,-28.92578 -12.10938,-44.21484l-24.42968,2.3164c2.26953,17.38672 6.83203,34.30078 13.4375,50.34375l22.90625,-8.52734c0.01953,0.05078 0.04297,0.09766 0.0664,0.14062"/>
   <path stroke="null" id="svg_12" fill="rgb(100%,100%,100%)" fill-rule="nonzero" d="m116.57031,283.93359c0.04688,0.00782 0.09766,0.00782 0.14453,0.01563c1.92579,-15.14844 5.76563,-30.07813 11.6211,-44.35156l-22.31641,-10.20313c-6.73047,16.1875 -11.23437,33.1211 -13.53515,50.32031l24.10156,4.0625c-0.01172,0.05469 -0.01172,0.10547 -0.01563,0.15625"/>
   <path stroke="null" id="svg_13" fill="rgb(100%,100%,100%)" fill-rule="nonzero" d="m151.22656,198.78906c0.03907,0.02735 0.07813,0.05469 0.11719,0.08203c9.24219,-12.15234 20.03125,-23.16015 32.23828,-32.59375l-14.22265,-19.99609c-13.92579,10.65234 -26.29297,23.06641 -36.87891,36.80859l18.83594,15.57032c-0.03125,0.04297 -0.0586,0.08593 -0.08985,0.1289"/>
   <path stroke="null" id="svg_14" fill="rgb(100%,100%,100%)" fill-rule="nonzero" d="m223.80859,142.37891c0.01954,0.04297 0.04297,0.08593 0.0625,0.13281c14.08204,-5.90625 28.92579,-10.04297 44.21485,-12.11328l-2.31641,-24.42578c-17.38672,2.26562 -34.30078,6.83203 -50.34375,13.43359l8.52735,22.90625c-0.05079,0.01953 -0.09766,0.04297 -0.14454,0.06641"/>
   <path stroke="null" id="svg_15" fill="rgb(100%,100%,100%)" fill-rule="nonzero" d="m314.87109,129.82031c-0.0039,0.04688 -0.0039,0.09375 -0.01171,0.14453c15.14843,1.92579 30.07421,5.76563 44.35156,11.6211l10.20312,-22.31641c-16.1875,-6.73047 -33.125,-11.23437 -50.32031,-13.53906l-4.06641,24.10547c-0.05078,-0.01172 -0.10156,-0.01172 -0.15625,-0.01563"/>
   <path stroke="null" id="svg_16" fill="rgb(100%,100%,100%)" fill-rule="nonzero" d="m400.01563,164.47266c-0.02735,0.04297 -0.05079,0.08203 -0.08204,0.12109c12.15235,9.24219 23.16016,20.02734 32.59375,32.23828l19.9961,-14.22265c-10.65235,-13.92969 -23.06641,-26.29297 -36.8086,-36.88282l-15.57031,18.83594c-0.04297,-0.03125 -0.08594,-0.05859 -0.1289,-0.08984"/>
   <path stroke="null" id="svg_17" fill="rgb(100%,100%,100%)" fill-rule="nonzero" d="m456.42578,237.05859c-0.04297,0.01563 -0.08594,0.04297 -0.1289,0.0625c5.90234,14.07813 10.04296,28.92579 12.10937,44.21485l24.42578,-2.31641c-2.26562,-17.38672 -6.83203,-34.30469 -13.43359,-50.34765l-22.90625,8.52734c-0.01953,-0.04688 -0.04297,-0.09375 -0.06641,-0.14063"/>
   <path stroke="null" id="svg_18" fill="rgb(100%,100%,100%)" fill-rule="nonzero" d="m468.82813,327.32422c-0.04688,-0.00781 -0.09766,-0.00781 -0.14454,-0.01172c-1.92578,15.14844 -5.76953,30.07422 -11.62109,44.34766l22.31641,10.20312c6.72656,-16.1875 11.23047,-33.12109 13.53515,-50.3164l-24.10156,-4.06641c0.00781,-0.05469 0.00781,-0.10156 0.01563,-0.15625"/>
  </g>
 </g>
</svg>