<svg width="972" height="208" viewBox="0 0 972 208" fill="none" xmlns="http://www.w3.org/2000/svg">
<path d="M121.865 0C189.17 0 243.73 46.4738 243.73 103.802C243.73 161.13 189.169 207.603 121.865 207.603C54.561 207.603 0.000159767 161.13 0 103.802C0 46.4738 54.5609 2.10782e-05 121.865 0ZM191.965 103.48C191.965 71.9583 165.092 47.129 133.669 49.6162L106.199 51.791C102.116 52.1141 98.0136 52.1079 93.9316 51.7734L69.6592 49.7842C38.2284 47.2085 11.2979 72.0227 11.2979 103.559C11.2979 133.357 35.4538 157.513 65.252 157.514H137.933C167.773 157.513 191.965 133.321 191.965 103.48ZM41.3574 85.0156C43.1735 81.5619 47.4564 80.2314 50.9229 82.0352L77.709 95.9775C80.0526 97.1978 81.5211 99.6164 81.5127 102.253C81.5042 104.889 80.021 107.298 77.6689 108.504L50.4238 122.466C46.9459 124.248 42.6718 122.888 40.8779 119.424C39.0831 115.957 40.4545 111.701 43.9346 109.918L59.0322 102.182L44.3535 94.541C40.8849 92.7356 39.5404 88.4711 41.3574 85.0156ZM147.646 94.1553C152.49 94.2345 156.152 98.3329 156.074 103.064C155.997 107.795 152.202 111.773 147.357 111.694L116.439 111.189C111.595 111.11 107.933 107.011 108.011 102.28C108.089 97.5495 111.883 93.5732 116.728 93.6514L147.646 94.1553Z" fill="#0C1930"/>
<path d="M864.747 167.81C851.548 175.755 833.949 176.778 816.688 165.116V206.716V207.603H815.808H793.708H792.828V206.716V126.789C792.828 109.024 800.51 93.3387 817.737 85.6666C826.334 81.8476 836.826 80.3131 846.911 81.5748C856.997 82.8364 866.744 86.9623 873.682 94.5322C882.076 103.671 886.239 114.855 886.239 127.983C887.119 144.282 878.251 159.66 864.747 167.81ZM855.812 110.797C851.548 106.433 846.099 104.25 839.465 104.25C832.832 104.25 827.417 106.433 823.119 110.797C818.854 115.264 816.688 120.993 816.688 128.017C816.688 135.041 818.854 140.701 823.119 145.066C827.383 149.533 832.832 151.783 839.465 151.783C846.099 151.783 851.514 149.533 855.812 145.066C860.178 140.701 862.412 135.041 862.412 128.017C862.412 120.993 860.212 115.264 855.812 110.797Z" fill="#0C1930"/>
<path d="M735.397 174.613C726.261 174.613 717.915 172.59 710.358 168.545C702.915 164.5 696.937 158.98 692.426 151.983C688.027 144.877 685.828 136.842 685.828 127.877C685.828 118.804 688.027 110.768 692.426 103.772C696.937 96.775 702.915 91.2542 710.358 87.2093C717.915 83.1643 726.261 81.1418 735.397 81.1418C744.533 81.1418 752.822 83.1643 760.266 87.2093C767.71 91.2542 773.631 96.775 778.03 103.772C782.541 110.768 784.797 118.804 784.797 127.877C784.797 136.842 782.541 144.877 778.03 151.983C773.631 158.98 767.71 164.5 760.266 168.545C752.822 172.59 744.533 174.613 735.397 174.613ZM735.397 152.475C740.021 152.475 744.025 151.436 747.409 149.359C750.905 147.282 753.612 144.385 755.529 140.668C757.559 136.951 758.574 132.688 758.574 127.877C758.574 123.067 757.559 118.858 755.529 115.251C753.612 111.534 750.905 108.637 747.409 106.559C744.025 104.373 740.021 103.28 735.397 103.28C730.773 103.28 726.712 104.373 723.216 106.559C719.72 108.637 716.956 111.534 714.926 115.251C713.009 118.858 712.05 123.067 712.05 127.877C712.05 132.688 713.009 136.951 714.926 140.668C716.956 144.385 719.72 147.282 723.216 149.359C726.712 151.436 730.773 152.475 735.397 152.475Z" fill="#0C1930"/>
<path d="M936.16 174.613C926.12 174.613 917.363 172.317 909.888 167.726C902.525 163.025 897.505 156.739 894.828 148.867L913.235 140.34C915.578 145.15 918.757 148.922 922.773 151.655C926.789 154.388 931.252 155.755 936.16 155.755C939.73 155.755 942.464 155.044 944.36 153.623C946.257 152.202 947.205 150.234 947.205 147.719C947.205 146.408 946.87 145.314 946.201 144.44C945.531 143.456 944.527 142.581 943.189 141.816C941.85 141.051 940.177 140.395 938.169 139.848L922.606 135.585C915.131 133.507 909.386 130.173 905.37 125.582C901.354 120.881 899.346 115.36 899.346 109.019C899.346 103.444 900.796 98.5788 903.697 94.4246C906.597 90.2703 910.669 87.0453 915.912 84.7495C921.156 82.3444 927.18 81.1418 933.985 81.1418C942.91 81.1418 950.719 83.219 957.413 87.3732C964.218 91.4182 969.015 97.1576 971.804 104.592L953.229 113.119C951.89 109.402 949.436 106.45 945.866 104.264C942.408 101.968 938.447 100.82 933.985 100.82C930.75 100.82 928.184 101.476 926.287 102.788C924.502 104.1 923.61 105.903 923.61 108.199C923.61 109.402 923.945 110.495 924.614 111.479C925.283 112.463 926.343 113.337 927.793 114.103C929.355 114.868 931.252 115.579 933.483 116.234L948.042 120.498C955.628 122.685 961.429 126.019 965.445 130.501C969.461 134.874 971.469 140.285 971.469 146.736C971.469 152.311 969.963 157.176 966.951 161.33C964.05 165.484 959.978 168.764 954.735 171.169C949.492 173.465 943.3 174.613 936.16 174.613Z" fill="#0C1930"/>
<path d="M380.638 85.9766C367.257 77.9826 349.416 76.9533 331.918 88.6871V46.8298V45.9377H331.026H308.623H307.73V46.8298V127.251C307.73 145.126 315.519 160.908 332.982 168.628C341.697 172.47 352.332 174.014 362.557 172.745C372.781 171.475 382.662 167.324 389.695 159.707C398.204 150.512 402.424 139.259 402.424 126.05C403.316 109.65 394.327 94.1765 380.638 85.9766ZM371.58 143.342C367.257 147.733 361.733 149.929 355.009 149.929C348.284 149.929 342.795 147.733 338.437 143.342C334.114 138.847 331.918 133.083 331.918 126.016C331.918 118.948 334.114 113.252 338.437 108.861C342.76 104.366 348.284 102.102 355.009 102.102C361.733 102.102 367.223 104.366 371.58 108.861C376.006 113.252 378.27 118.948 378.27 126.016C378.27 133.083 376.04 138.847 371.58 143.342Z" fill="#0C1930"/>
<path d="M416.494 170.033V170.925H417.386H439.79H440.682V170.033V41.5446V40.6526H439.79H417.386H416.494V41.5446V170.033Z" fill="#0C1930"/>
<path d="M461.059 68.0341C464.009 70.9161 467.474 72.3571 471.42 72.3571C475.468 72.3571 478.934 70.9161 481.781 68.0341C484.732 65.0492 486.207 61.5497 486.207 57.5698C486.207 53.5556 484.732 50.0561 481.781 47.1055C478.968 44.0863 475.503 42.5767 471.42 42.5767C467.474 42.5767 464.009 44.0863 461.059 47.0712C458.245 50.0561 456.804 53.5556 456.804 57.5355C456.804 61.5497 458.245 65.0492 461.059 68.0341Z" fill="#0C1930"/>
<path d="M459.415 170.034V170.926H460.307H482.711H483.603V170.034V82.0307V81.1387H482.711H460.307H459.415V82.0307V170.034Z" fill="#0C1930"/>
<path d="M584.364 170.923H585.256V170.031V115.993C585.256 104.431 582.065 95.2707 575.615 88.6147C569.302 81.9587 561.24 78.665 551.53 78.665C540.585 78.665 532.214 82.1303 526.519 89.1637V82.0273V81.1353H525.627H503.223H502.331V82.0273V170.031V170.923H503.223H525.627H526.519V170.031V122.512C526.519 115.376 528.234 110.161 531.493 106.764C534.787 103.333 539.144 101.584 544.737 101.584C549.746 101.584 553.692 103.093 556.608 106.078C559.524 108.926 561.034 113.112 561.034 118.807V170.031V170.923H561.926H584.364V170.923Z" fill="#0C1930"/>
<path d="M683.592 170.924H685.445L684.279 169.448L648.769 125.498L683.249 82.5773L684.416 81.1363H682.563H655.802H655.356L655.081 81.4794L626.811 118.122V46.8271V45.9351H625.919H603.515H602.623V46.8271V170.032V170.924H603.515H625.919H626.811V170.032V132.635L656.831 170.581L657.106 170.924H657.517H683.592Z" fill="#0C1930"/>
</svg>
