<?xml version="1.0" standalone="no"?>
<!DOCTYPE svg PUBLIC "-//W3C//DTD SVG 20010904//EN"
 "http://www.w3.org/TR/2001/REC-SVG-20010904/DTD/svg10.dtd">
<svg version="1.0" xmlns="http://www.w3.org/2000/svg"
 width="692.000000pt" height="192.000000pt" viewBox="0 0 692.000000 192.000000"
 preserveAspectRatio="xMidYMid meet">

<g transform="translate(0.000000,192.000000) scale(0.100000,-0.100000)"
fill="white" stroke="none">
<path d="M758 1891 c-362 -79 -640 -352 -734 -721 -15 -58 -19 -108 -18 -225
1 -132 4 -161 28 -240 57 -191 130 -309 273 -445 190 -181 434 -270 698 -257
138 7 242 34 370 97 151 74 312 215 376 330 8 14 17 27 20 30 12 10 89 177 89
193 0 13 -9 17 -40 17 -56 0 -50 18 7 22 46 3 47 4 61 48 8 25 16 104 19 175
4 105 1 148 -15 225 -74 360 -324 631 -677 736 -123 36 -328 43 -457 15z m390
-57 c195 -40 386 -156 512 -311 77 -95 121 -176 161 -293 27 -82 33 -113 37
-224 l5 -129 -31 19 c-24 14 -33 28 -42 66 -14 66 -13 151 2 166 9 9 -21 12
-135 12 -91 0 -147 4 -147 10 0 6 53 10 139 10 83 0 142 4 146 10 4 6 -32 10
-102 10 -97 0 -116 3 -187 31 -50 19 -92 29 -113 27 -18 -2 -34 0 -36 5 -2 6
-52 -5 -112 -22 -61 -18 -118 -35 -128 -37 -15 -5 -16 -8 -5 -21 15 -19 14
-216 -2 -221 -6 -2 -10 -9 -10 -15 0 -7 -5 -29 -11 -49 -9 -33 -14 -38 -40
-38 -18 0 -45 -12 -67 -29 -20 -16 -56 -34 -78 -40 -23 -6 -47 -18 -54 -26 -7
-8 -20 -15 -29 -15 -9 0 -34 -9 -56 -19 l-40 -18 -65 56 c-36 31 -77 65 -92
74 -16 10 -28 24 -28 31 0 7 -7 19 -15 26 -8 7 -15 24 -15 37 0 16 -7 27 -20
30 -14 4 -22 17 -26 45 -5 28 -14 43 -30 50 -13 6 -28 23 -33 37 -6 17 -10 20
-10 9 -1 -28 -18 -21 -26 10 -8 29 -11 26 -30 -33 -6 -19 -7 -19 -20 5 -14 25
-14 25 -15 3 0 -14 -6 -23 -15 -23 -12 0 -15 14 -15 68 -1 51 -3 63 -11 49 -6
-9 -14 -15 -19 -12 -11 7 -18 -26 -26 -125 -8 -105 -15 -120 -56 -120 -20 0
-39 -9 -55 -26 -41 -44 -48 -29 -47 97 3 232 87 430 254 599 129 130 285 217
455 253 95 21 286 21 383 1z m-891 -766 c-2 -13 -4 -3 -4 22 0 25 2 35 4 23 2
-13 2 -33 0 -45z m923 15 c0 -63 -12 -143 -21 -143 -5 0 -9 41 -9 90 0 73 3
90 15 90 11 0 15 -11 15 -37z m50 -37 c0 -77 -6 -106 -21 -106 -5 0 -9 41 -9
90 0 73 3 90 15 90 12 0 15 -15 15 -74z m50 -16 c0 -73 -3 -90 -15 -90 -12 0
-15 17 -15 90 0 73 3 90 15 90 12 0 15 -17 15 -90z m50 0 c0 -73 -3 -90 -15
-90 -12 0 -15 17 -15 90 0 73 3 90 15 90 12 0 15 -17 15 -90z m50 0 c0 -73 -3
-90 -15 -90 -12 0 -15 17 -15 90 0 73 3 90 15 90 12 0 15 -17 15 -90z m50 -1
c0 -68 -3 -90 -12 -87 -9 3 -14 33 -16 91 -2 73 0 87 13 87 12 0 15 -16 15
-91z m50 1 c0 -53 -4 -90 -10 -90 -5 0 -10 17 -10 38 0 20 -3 61 -6 90 -6 44
-4 52 10 52 14 0 16 -13 16 -90z m70 0 c0 -53 -4 -90 -10 -90 -6 0 -10 37 -10
90 0 53 4 90 10 90 6 0 10 -37 10 -90z m40 0 c0 -53 -4 -90 -10 -90 -6 0 -10
37 -10 90 0 53 4 90 10 90 6 0 10 -37 10 -90z m46 68 c-3 -13 -6 -53 -6 -90 0
-39 -4 -68 -10 -68 -6 0 -10 37 -10 90 0 76 2 90 16 90 12 0 15 -6 10 -22z
m44 -68 c0 -53 -4 -90 -10 -90 -6 0 -10 37 -10 90 0 53 4 90 10 90 6 0 10 -37
10 -90z m40 0 c0 -53 -4 -90 -10 -90 -6 0 -10 37 -10 90 0 53 4 90 10 90 6 0
10 -37 10 -90z m40 0 c0 -53 -4 -90 -10 -90 -6 0 -10 37 -10 90 0 53 4 90 10
90 6 0 10 -37 10 -90z m-1523 38 c-3 -8 -6 -5 -6 6 -1 11 2 17 5 13 3 -3 4
-12 1 -19z m80 -85 c-3 -10 -5 -4 -5 12 0 17 2 24 5 18 2 -7 2 -21 0 -30z m40
0 c-3 -10 -5 -4 -5 12 0 17 2 24 5 18 2 -7 2 -21 0 -30z m40 15 c-3 -8 -6 -5
-6 6 -1 11 2 17 5 13 3 -3 4 -12 1 -19z m-120 -20 c-3 -7 -5 -2 -5 12 0 14 2
19 5 13 2 -7 2 -19 0 -25z m-127 -227 c0 -17 -4 -33 -10 -36 -6 -4 -10 8 -10
29 0 20 5 36 10 36 6 0 10 -13 10 -29z m17 -23 c-2 -13 -4 -5 -4 17 -1 22 1
32 4 23 2 -10 2 -28 0 -40z m20 0 c-2 -13 -4 -5 -4 17 -1 22 1 32 4 23 2 -10
2 -28 0 -40z m321 9 c2 -12 -3 -17 -17 -17 -15 0 -21 6 -21 21 0 25 33 22 38
-4z m1080 -4 c2 -9 -8 -13 -32 -13 -26 0 -36 4 -36 16 0 19 61 16 68 -3z
m-403 -3 c4 -6 -12 -10 -40 -10 -28 0 -44 4 -40 10 3 6 21 10 40 10 19 0 37
-4 40 -10z m495 -30 c0 -11 -7 -20 -15 -20 -8 0 -15 -7 -15 -15 0 -11 -12 -15
-45 -15 -46 0 -61 14 -25 23 12 3 20 14 20 26 0 18 6 21 40 21 33 0 40 -3 40
-20z m-1446 -5 c-5 -11 1 -15 25 -15 21 0 31 -5 31 -15 0 -10 -10 -15 -30 -15
-20 0 -30 5 -30 15 0 37 -45 10 -82 -48 -4 -6 -11 -8 -15 -3 -4 4 -1 13 7 19
9 7 14 20 12 30 -2 12 3 17 17 17 12 0 21 4 21 9 0 5 10 12 23 14 12 2 23 5
24 6 1 0 0 -6 -3 -14z m146 -6 c0 -14 -47 -10 -53 4 -4 10 3 12 24 9 16 -2 29
-8 29 -13z m960 -49 l0 -30 -65 0 -65 0 0 30 0 30 65 0 65 0 0 -30z m170 -35
l0 -65 -80 0 -80 0 0 35 0 35 60 0 c41 0 60 4 60 13 0 19 -13 34 -35 40 -11 2
1 5 28 6 l47 1 0 -65z m-990 45 c0 -5 -16 -10 -35 -10 -19 0 -35 5 -35 10 0 6
16 10 35 10 19 0 35 -4 35 -10z m194 -34 c23 -15 44 -22 60 -19 23 5 26 2 26
-26 0 -17 -3 -30 -7 -30 -28 5 -33 -4 -33 -56 l0 -55 165 0 165 0 0 49 c0 28
4 53 10 56 5 3 59 3 120 -1 81 -5 110 -10 110 -20 0 -9 -22 -14 -77 -16 l-77
-3 -1 -30 0 -30 264 4 264 3 -24 -33 c-71 -99 -205 -205 -343 -269 -120 -56
-184 -71 -337 -77 -209 -8 -360 30 -526 133 -74 46 -243 201 -243 223 0 7 85
12 258 13 l257 3 3 43 c2 23 -1 42 -6 42 -5 0 -12 9 -15 20 -4 16 -14 20 -46
20 -30 0 -41 4 -41 15 0 10 10 15 30 15 20 0 30 5 30 15 0 8 -7 15 -15 15 -8
0 -15 5 -15 10 0 14 5 13 44 -14z m-282 -38 c-3 -23 1 -28 17 -28 12 0 21 5
21 10 0 6 7 10 15 10 8 0 15 5 15 10 0 6 -12 10 -26 10 -14 0 -23 4 -20 8 3 5
18 7 34 4 25 -3 28 -7 24 -32 -3 -19 -11 -30 -23 -32 -32 -5 -26 -23 9 -26 35
-4 45 -22 12 -22 -11 0 -23 -7 -26 -15 -4 -9 -19 -15 -36 -15 -17 0 -27 4 -23
10 3 6 15 10 26 10 22 0 25 13 7 27 -15 11 -78 11 -96 -1 -7 -4 -12 -20 -12
-37 0 -29 -1 -29 -55 -29 l-55 0 0 50 c0 38 -4 50 -15 50 -8 0 -15 5 -15 11 0
6 7 9 15 6 8 -4 17 -2 20 3 14 22 25 8 25 -31 0 -38 1 -40 28 -37 23 3 27 8
30 41 2 24 8 37 18 37 8 0 14 6 14 14 0 18 17 25 50 23 21 -2 24 -6 22 -29z
m1305 16 c-3 -3 -12 -4 -19 -1 -8 3 -5 6 6 6 11 1 17 -2 13 -5z m-857 -11 c0
-5 -4 -14 -9 -22 -8 -12 -11 -12 -25 1 -8 9 -12 18 -9 22 9 9 43 8 43 -1z m57
-35 c-3 -8 -6 -5 -6 6 -1 11 2 17 5 13 3 -3 4 -12 1 -19z m40 0 c-3 -8 -6 -5
-6 6 -1 11 2 17 5 13 3 -3 4 -12 1 -19z m30 0 c-3 -8 -6 -5 -6 6 -1 11 2 17 5
13 3 -3 4 -12 1 -19z m40 0 c-3 -8 -6 -5 -6 6 -1 11 2 17 5 13 3 -3 4 -12 1
-19z m30 0 c-3 -8 -6 -5 -6 6 -1 11 2 17 5 13 3 -3 4 -12 1 -19z m-177 -17 c0
-22 -43 -33 -67 -18 -25 15 -13 27 27 27 22 0 40 -4 40 -9z m37 -23 c-3 -8 -6
-5 -6 6 -1 11 2 17 5 13 3 -3 4 -12 1 -19z m40 0 c-3 -8 -6 -5 -6 6 -1 11 2
17 5 13 3 -3 4 -12 1 -19z m30 0 c-3 -8 -6 -5 -6 6 -1 11 2 17 5 13 3 -3 4
-12 1 -19z m40 0 c-3 -8 -6 -5 -6 6 -1 11 2 17 5 13 3 -3 4 -12 1 -19z m30 0
c-3 -8 -6 -5 -6 6 -1 11 2 17 5 13 3 -3 4 -12 1 -19z m533 -12 c0 -21 -95 -23
-103 -3 -4 10 9 14 49 16 43 2 54 -1 54 -13z m-945 -6 c3 -5 -3 -10 -15 -10
-12 0 -18 5 -15 10 3 6 10 10 15 10 5 0 12 -4 15 -10z m272 -32 c-3 -8 -6 -5
-6 6 -1 11 2 17 5 13 3 -3 4 -12 1 -19z m40 0 c-3 -8 -6 -5 -6 6 -1 11 2 17 5
13 3 -3 4 -12 1 -19z m30 0 c-3 -8 -6 -5 -6 6 -1 11 2 17 5 13 3 -3 4 -12 1
-19z m40 0 c-3 -8 -6 -5 -6 6 -1 11 2 17 5 13 3 -3 4 -12 1 -19z m30 0 c-3 -8
-6 -5 -6 6 -1 11 2 17 5 13 3 -3 4 -12 1 -19z"/>
<path d="M1025 1625 c-22 -8 -41 -15 -43 -15 -2 0 -10 -16 -17 -35 -27 -63 5
-103 100 -126 67 -16 95 -34 95 -64 0 -55 -100 -76 -145 -30 -14 13 -25 31
-25 40 0 8 -9 15 -20 15 -31 0 -26 -46 8 -80 67 -67 209 -42 227 38 14 64 -21
98 -123 122 -77 18 -101 49 -66 84 9 10 33 16 60 16 39 0 47 -4 62 -30 21 -37
63 -43 55 -7 -9 34 -43 66 -82 77 -43 12 -37 12 -86 -5z"/>
<path d="M850 1496 c0 -109 -3 -138 -16 -150 -32 -33 -84 -8 -84 40 0 19 -5
24 -25 24 -31 0 -34 -31 -6 -77 31 -50 116 -57 157 -11 17 17 19 38 19 162 0
139 0 141 -22 144 -23 3 -23 3 -23 -132z"/>
<path d="M6530 1560 c0 -5 14 -10 30 -10 l30 0 0 -90 c0 -83 1 -90 20 -90 19
0 20 7 20 90 l0 90 30 0 c17 0 30 5 30 10 0 6 -33 10 -80 10 -47 0 -80 -4 -80
-10z"/>
<path d="M6710 1471 c0 -83 3 -101 15 -101 12 0 15 15 15 72 0 39 3 69 6 65 3
-3 16 -34 29 -69 12 -35 29 -64 37 -66 9 -2 22 20 39 65 l24 68 3 -67 c2 -52
6 -68 17 -68 12 0 15 19 15 100 0 91 -2 100 -19 100 -14 0 -25 -18 -46 -75
-15 -42 -30 -73 -34 -70 -3 4 -17 37 -31 73 -20 52 -31 68 -48 70 -21 3 -22 1
-22 -97z"/>
<path d="M6020 1478 c-123 -17 -233 -87 -276 -176 -25 -51 -30 -175 -10 -223
37 -88 118 -135 314 -181 237 -56 276 -72 319 -137 29 -43 29 -94 1 -151 -19
-37 -34 -51 -83 -75 -55 -27 -68 -30 -160 -29 -82 0 -109 4 -152 23 -86 38
-153 127 -153 204 0 15 -10 17 -71 17 l-71 0 7 -42 c14 -92 38 -141 100 -204
69 -70 132 -98 257 -117 92 -13 200 -1 293 34 80 30 155 105 180 178 25 75 17
174 -18 234 -51 87 -114 119 -354 178 -92 22 -184 49 -205 60 -69 35 -95 109
-64 182 31 75 121 113 250 105 120 -8 191 -60 217 -161 l13 -47 69 0 68 0 -6
38 c-16 91 -38 136 -95 194 -48 48 -67 60 -126 76 -87 26 -161 32 -244 20z"/>
<path d="M2690 1462 c-174 -58 -278 -174 -327 -362 -35 -137 -16 -340 44 -468
39 -83 141 -183 218 -211 304 -114 582 15 650 301 8 35 15 66 15 71 0 4 -33 7
-74 7 l-73 0 -6 -45 c-15 -108 -104 -212 -206 -241 -61 -18 -166 -15 -216 7
-150 65 -225 205 -225 416 0 190 67 325 195 391 39 20 69 26 135 30 103 5 177
-19 234 -74 37 -36 76 -102 76 -129 0 -12 13 -15 68 -15 38 0 71 3 75 6 11 11
-25 109 -59 161 -40 62 -107 114 -184 144 -79 31 -262 37 -340 11z"/>
<path d="M3444 1446 c-3 -7 -4 -42 -2 -77 l3 -64 63 -3 62 -3 0 81 0 80 -60 0
c-42 0 -62 -4 -66 -14z"/>
<path d="M5377 1453 c-4 -3 -7 -193 -7 -422 0 -376 -2 -419 -18 -450 -29 -58
-63 -76 -142 -76 -111 0 -154 47 -166 183 l-7 72 -70 0 -69 0 4 -88 c7 -144
55 -220 173 -271 51 -22 163 -25 235 -7 88 22 138 60 175 132 l30 58 3 438 3
438 -69 0 c-38 0 -72 -3 -75 -7z"/>
<path d="M3817 1393 c-4 -3 -7 -55 -7 -115 l0 -108 -65 0 -66 0 3 -57 3 -58
63 -3 62 -3 0 -257 c0 -141 5 -273 10 -293 6 -19 22 -46 36 -60 23 -22 36 -24
130 -27 l104 -4 0 56 0 56 -59 0 c-94 0 -91 -9 -91 281 l0 249 75 0 75 0 0 60
0 60 -75 0 -75 0 0 115 0 115 -58 0 c-32 0 -62 -3 -65 -7z"/>
<path d="M3445 1157 c-3 -6 -4 -179 -3 -382 l3 -370 63 -3 62 -3 0 386 0 385
-60 0 c-39 0 -62 -4 -65 -13z"/>
<path d="M4150 1160 c0 -6 65 -173 145 -372 80 -200 145 -369 145 -376 0 -7
-14 -47 -31 -88 -39 -92 -59 -108 -134 -102 l-55 5 0 -58 0 -58 47 -7 c95 -14
179 31 225 121 17 32 178 447 343 883 l24 62 -68 0 -68 0 -104 -305 c-57 -168
-107 -305 -110 -305 -3 0 -55 137 -114 305 l-109 305 -68 0 c-39 0 -68 -4 -68
-10z"/>
</g>
</svg>
