<?xml version="1.0" encoding="utf-8"?>
<!-- Generator: Adobe Illustrator 19.0.0, SVG Export Plug-In . SVG Version: 6.00 Build 0)  -->
<svg version="1.1" id="Layer_1" xmlns="http://www.w3.org/2000/svg" xmlns:xlink="http://www.w3.org/1999/xlink" x="0px" y="0px"
	 width="174px" height="52px" viewBox="0 0 174 52" style="enable-background:new 0 0 174 52;" xml:space="preserve">
<style type="text/css">
	.st0{fill-rule:evenodd;clip-rule:evenodd;fill:#076CB4;}
	.st1{fill-rule:evenodd;clip-rule:evenodd;fill:#F89A1F;}
	.st2{fill-rule:evenodd;clip-rule:evenodd;fill:#231F20;}
	.st3{fill:#F89A1F;stroke:#F89A1F;stroke-width:0.216;stroke-miterlimit:2.6131;}
</style>
<g>
	<path id="XMLID_2_" class="st0" d="M0.1,26.1V7c0-4,3.7-7,6.7-6.9h19.3v10.4H14.2c-1.7,0-3.7,1.8-3.7,3.8v12.8v10.7
		c0,2.1,2.1,3.8,3.7,3.8h11.9V52H6.7c-3,0-6.6-3-6.7-6.9V26.1L0.1,26.1z M26.1,26v7.7c-4.3,0-7.7-3.5-7.7-7.7c0-4.3,3.5-7.7,7.7-7.7
		V26L26.1,26z"/>
	<path id="XMLID_3_" class="st1" d="M30,26c0,1.4,0,2.8,0,4.1c0.9,0.2,1.7-0.2,2.3-0.9c0.7-0.8,1.1-1.9,1.1-3.3
		c0-1.3-0.4-2.5-1.1-3.2c-0.6-0.7-1.5-1-2.3-0.9C30,23.2,30,24.6,30,26L30,26z M52,26c0-3.7,0-7.4,0-11.1c0-3.7,0-7.4,0-11.1
		c0-2.3-1.5-3.5-3.4-3.7c-1.7-0.2-3.7,0.3-5.4,1.5c-3.1,2.1-5.8,3.8-8,5.3c-2,1.3-3.7,2.4-5.2,3.4c0,2.1,0,5.8,0,7.9l6.7-3.8
		c1.2-0.5,2.9,0.5,2.9,2.3c0,3.6,0,6.6,0,10.2c0,3,0,5.4,0,8.4c0,1.8-1.7,2.9-2.9,2.5L30,34c0,2.1,0,5.7,0,7.8
		c1.5,1,3.2,2.1,5.2,3.4c2.3,1.5,4.9,3.2,8.1,5.3c1.7,1.1,3.7,1.7,5.4,1.4c1.9-0.3,3.3-1.5,3.4-3.8c0-3.7,0-7.4,0-11.1
		C52,33.3,52,29.6,52,26L52,26z"/>
	<path id="XMLID_4_" class="st2" d="M151.3,10.8c1.1,0,1.9-0.9,1.9-1.9c0-1.1-0.9-1.9-1.9-1.9c-1.1,0-1.9,0.9-1.9,1.9
		C149.4,10,150.2,10.8,151.3,10.8L151.3,10.8z M143.6,10.8c1.1,0,1.9-0.9,1.9-1.9c0-1.1-0.9-1.9-1.9-1.9c-1.1,0-1.9,0.9-1.9,1.9
		C141.7,10,142.6,10.8,143.6,10.8L143.6,10.8z M93.3,23.3l7,7.1h-5.3l-6.6-6.5c-0.8-0.7-0.8-3,0-3.7l6.6-6.5h5.3l-7,7.1
		C92.8,21.1,92.8,22.9,93.3,23.3L93.3,23.3z M72.7,30.4h-4.7c-3.6,0-6.6-3-6.6-6.6V20c0-3.6,3-6.6,6.6-6.6h3.8c3.6,0,6.6,3,6.6,6.6
		v3.8l-8.4,0v-3.6l4.6,0c0-1.6-1.3-2.9-2.9-2.9H68c-1.6,0-2.9,1.3-2.9,2.9v3.6c0,1.6,1.3,2.9,2.9,2.9h4.6V30.4L72.7,30.4z
		 M82.2,36.7h3.8V7.1h-3.8V36.7L82.2,36.7z M141.7,30.4h3.8V13.7h-3.8V30.4L141.7,30.4z M146.7,36.8c3.6,0,6.5-3,6.5-6.6V13.6h-3.8
		v16.6c0,1.6-1.2,2.9-2.8,2.9V36.8L146.7,36.8z M126.8,30.5h4.7c3.6,0,6.6-3,6.6-6.6v-3.8c0-3.6-3-6.6-6.6-6.6h-3.8
		c-3.6,0-6.6,3-6.6,6.6v16.7h3.8V20.2c0-1.6,1.3-2.9,2.9-2.9h3.6c1.6,0,2.9,1.3,2.9,2.9v3.6c0,1.6-1.3,2.9-2.9,2.9h-4.6V30.5
		L126.8,30.5z M168.3,30.4h-4.7c-3.6,0-6.6-3-6.6-6.6V20c0-3.6,3-6.6,6.6-6.6h3.8c3.6,0,6.6,3,6.6,6.6v10.4h-3.8V20.1
		c0-1.6-1.3-2.9-2.9-2.9h-3.6c-1.6,0-2.9,1.3-2.9,2.9v3.6c0,1.6,1.3,2.9,2.9,2.9h4.6V30.4L168.3,30.4z M111.6,30.4h-4.7
		c-3.6,0-6.6-3-6.6-6.6V20c0-3.6,3-6.6,6.6-6.6h3.8c3.6,0,6.6,3,6.6,6.6v10.4h-3.8V20.1c0-1.6-1.3-2.9-2.9-2.9H107
		c-1.6,0-2.9,1.3-2.9,2.9v3.6c0,1.6,1.3,2.9,2.9,2.9h4.6V30.4L111.6,30.4z"/>
	<path id="XMLID_5_" class="st3" d="M63.1,48.5v-7.4h2c2.6,0,3.9,1.2,3.9,3.6c0,1.1-0.4,2.1-1.1,2.8c-0.7,0.7-1.7,1-2.9,1H63.1
		L63.1,48.5z M64,41.9v5.8h1.1c1,0,1.7-0.3,2.3-0.8c0.5-0.5,0.8-1.3,0.8-2.2c0-1.9-1-2.8-3-2.8H64L64,41.9z M74.8,48.5H74v-3
		c0-1.1-0.4-1.7-1.2-1.7c-0.4,0-0.8,0.2-1.1,0.5c-0.3,0.3-0.4,0.7-0.4,1.2v3h-0.8v-5.3h0.8v0.9h0c0.4-0.7,1-1,1.7-1
		c0.6,0,1,0.2,1.3,0.6c0.3,0.4,0.5,0.9,0.5,1.6V48.5L74.8,48.5z M80.7,46.1h-3.7c0,0.6,0.2,1,0.5,1.4c0.3,0.3,0.7,0.5,1.3,0.5
		c0.6,0,1.1-0.2,1.6-0.6v0.8c-0.5,0.3-1.1,0.5-1.8,0.5c-0.7,0-1.3-0.2-1.8-0.7c-0.4-0.5-0.6-1.2-0.6-2c0-0.8,0.2-1.5,0.7-2
		c0.5-0.5,1-0.8,1.7-0.8c0.7,0,1.2,0.2,1.6,0.7c0.4,0.4,0.6,1.1,0.6,1.9V46.1L80.7,46.1z M79.8,45.3c0-0.5-0.1-0.9-0.4-1.1
		c-0.2-0.3-0.6-0.4-1-0.4c-0.4,0-0.7,0.1-1,0.4c-0.3,0.3-0.5,0.7-0.5,1.1H79.8L79.8,45.3z M86.1,43.2L84,48.5h-0.8l-2-5.3h0.9
		l1.3,3.8c0.1,0.3,0.2,0.5,0.2,0.7h0c0-0.3,0.1-0.5,0.2-0.7l1.4-3.9H86.1L86.1,43.2z M91.4,48.5h-0.8v-3c0-1.1-0.4-1.7-1.2-1.7
		c-0.4,0-0.8,0.2-1.1,0.5c-0.3,0.3-0.4,0.7-0.4,1.2v3H87v-5.3h0.8v0.9h0c0.4-0.7,1-1,1.7-1c0.6,0,1,0.2,1.3,0.6
		c0.3,0.4,0.5,0.9,0.5,1.6V48.5L91.4,48.5z M96.8,48.5H96v-0.8h0c-0.4,0.6-0.9,0.9-1.6,0.9c-0.5,0-0.9-0.1-1.2-0.4
		c-0.3-0.3-0.4-0.6-0.4-1.1c0-1,0.6-1.6,1.7-1.7l1.6-0.2c0-0.9-0.4-1.3-1.1-1.3c-0.6,0-1.2,0.2-1.7,0.7v-0.9
		c0.5-0.3,1.1-0.5,1.8-0.5c1.2,0,1.9,0.7,1.9,2V48.5L96.8,48.5z M96,45.8L94.7,46c-0.4,0.1-0.7,0.2-0.9,0.3
		c-0.2,0.1-0.3,0.4-0.3,0.7c0,0.3,0.1,0.5,0.3,0.6c0.2,0.2,0.4,0.2,0.7,0.2c0.4,0,0.8-0.1,1-0.4c0.3-0.3,0.4-0.7,0.4-1.1V45.8
		L96,45.8z M105.7,48.5h-0.8v-3c0-1.1-0.4-1.7-1.2-1.7c-0.4,0-0.8,0.2-1.1,0.5c-0.3,0.3-0.4,0.7-0.4,1.2v3h-0.8v-5.3h0.8v0.9h0
		c0.4-0.7,1-1,1.7-1c0.6,0,1,0.2,1.3,0.6c0.3,0.4,0.5,0.9,0.5,1.6V48.5L105.7,48.5z M111.1,48.5h-0.8v-0.8h0
		c-0.4,0.6-0.9,0.9-1.6,0.9c-0.5,0-0.9-0.1-1.2-0.4c-0.3-0.3-0.4-0.6-0.4-1.1c0-1,0.6-1.6,1.7-1.7l1.6-0.2c0-0.9-0.4-1.3-1.1-1.3
		c-0.6,0-1.2,0.2-1.7,0.7v-0.9c0.5-0.3,1.1-0.5,1.8-0.5c1.2,0,1.9,0.7,1.9,2V48.5L111.1,48.5z M110.2,45.8L109,46
		c-0.4,0.1-0.7,0.2-0.9,0.3c-0.2,0.1-0.3,0.4-0.3,0.7c0,0.3,0.1,0.5,0.3,0.6c0.2,0.2,0.4,0.2,0.7,0.2c0.4,0,0.8-0.1,1-0.4
		c0.3-0.3,0.4-0.7,0.4-1.1V45.8L110.2,45.8z M116.9,43.2l-2.1,5.3h-0.8l-2-5.3h0.9l1.3,3.8c0.1,0.3,0.2,0.5,0.2,0.7h0
		c0-0.3,0.1-0.5,0.2-0.7l1.4-3.9H116.9L116.9,43.2z M118.2,41.9c-0.2,0-0.3-0.1-0.4-0.2c-0.1-0.1-0.2-0.2-0.2-0.4
		c0-0.2,0.1-0.3,0.2-0.4s0.2-0.2,0.4-0.2c0.2,0,0.3,0.1,0.4,0.2c0.1,0.1,0.2,0.2,0.2,0.4c0,0.2-0.1,0.3-0.2,0.4
		C118.5,41.8,118.4,41.9,118.2,41.9L118.2,41.9z M118.6,48.5h-0.8v-5.3h0.8V48.5L118.6,48.5z M124.7,48.5h-1.2l-2.3-2.5h0v2.5h-0.8
		v-7.8h0.8v5h0l2.2-2.4h1.1l-2.5,2.5L124.7,48.5L124.7,48.5z M129.4,48.5h-0.8v-0.8h0c-0.4,0.6-0.9,0.9-1.6,0.9
		c-0.5,0-0.9-0.1-1.2-0.4c-0.3-0.3-0.4-0.6-0.4-1.1c0-1,0.6-1.6,1.7-1.7l1.6-0.2c0-0.9-0.4-1.3-1.1-1.3c-0.6,0-1.2,0.2-1.7,0.7v-0.9
		c0.5-0.3,1.1-0.5,1.8-0.5c1.2,0,1.9,0.7,1.9,2V48.5L129.4,48.5z M128.5,45.8l-1.3,0.2c-0.4,0.1-0.7,0.2-0.9,0.3
		c-0.2,0.1-0.3,0.4-0.3,0.7c0,0.3,0.1,0.5,0.3,0.6c0.2,0.2,0.4,0.2,0.7,0.2c0.4,0,0.8-0.1,1-0.4c0.3-0.3,0.4-0.7,0.4-1.1V45.8
		L128.5,45.8z M138.2,48.5h-0.8v-0.8h0c-0.3,0.6-0.9,1-1.6,1c-1.3,0-1.9-0.7-1.9-2.2v-3.2h0.8v3c0,1.1,0.4,1.7,1.3,1.7
		c0.4,0,0.8-0.2,1-0.5c0.3-0.3,0.4-0.7,0.4-1.2v-3h0.8V48.5L138.2,48.5z M139.6,48.3v-0.9c0.5,0.3,1,0.5,1.5,0.5
		c0.7,0,1.1-0.2,1.1-0.7c0-0.1,0-0.3-0.1-0.4c-0.1-0.1-0.1-0.2-0.3-0.3c-0.1-0.1-0.2-0.1-0.4-0.2c-0.1-0.1-0.3-0.1-0.5-0.2
		c-0.2-0.1-0.4-0.2-0.6-0.3c-0.2-0.1-0.3-0.2-0.4-0.3c-0.1-0.1-0.2-0.3-0.3-0.4c-0.1-0.2-0.1-0.3-0.1-0.5c0-0.2,0.1-0.5,0.2-0.7
		c0.1-0.2,0.3-0.3,0.5-0.5c0.2-0.1,0.4-0.2,0.6-0.3c0.2-0.1,0.5-0.1,0.8-0.1c0.5,0,0.9,0.1,1.2,0.2v0.9c-0.4-0.3-0.8-0.4-1.3-0.4
		c-0.2,0-0.3,0-0.4,0.1c-0.1,0-0.2,0.1-0.3,0.2c-0.1,0.1-0.2,0.1-0.2,0.2c-0.1,0.1-0.1,0.2-0.1,0.3c0,0.1,0,0.3,0.1,0.3
		c0.1,0.1,0.1,0.2,0.2,0.2c0.1,0.1,0.2,0.1,0.4,0.2c0.1,0.1,0.3,0.1,0.5,0.2c0.2,0.1,0.4,0.2,0.6,0.3c0.2,0.1,0.3,0.2,0.5,0.3
		c0.1,0.1,0.2,0.3,0.3,0.4c0.1,0.2,0.1,0.3,0.1,0.6c0,0.3-0.1,0.5-0.2,0.7c-0.1,0.2-0.3,0.4-0.5,0.5c-0.2,0.1-0.4,0.2-0.7,0.3
		c-0.3,0.1-0.5,0.1-0.8,0.1C140.4,48.6,140,48.5,139.6,48.3L139.6,48.3z M145.3,47.7L145.3,47.7l0,3.2h-0.8v-7.7h0.8v0.9h0
		c0.4-0.7,1-1.1,1.8-1.1c0.7,0,1.2,0.2,1.6,0.7c0.4,0.5,0.6,1.1,0.6,1.9c0,0.9-0.2,1.6-0.6,2.1c-0.4,0.5-1,0.8-1.8,0.8
		C146.2,48.6,145.6,48.3,145.3,47.7L145.3,47.7z M145.2,45.6v0.7c0,0.4,0.1,0.8,0.4,1.1c0.3,0.3,0.6,0.5,1.1,0.5
		c0.5,0,0.9-0.2,1.2-0.6c0.3-0.4,0.4-0.9,0.4-1.6c0-0.6-0.1-1-0.4-1.4c-0.3-0.3-0.6-0.5-1.1-0.5c-0.5,0-0.9,0.2-1.2,0.5
		C145.4,44.6,145.2,45.1,145.2,45.6L145.2,45.6z M154.9,46.1h-3.7c0,0.6,0.2,1,0.5,1.4c0.3,0.3,0.7,0.5,1.3,0.5
		c0.6,0,1.1-0.2,1.6-0.6v0.8c-0.5,0.3-1.1,0.5-1.8,0.5c-0.7,0-1.3-0.2-1.8-0.7c-0.4-0.5-0.6-1.2-0.6-2c0-0.8,0.2-1.5,0.7-2
		c0.5-0.5,1-0.8,1.7-0.8c0.7,0,1.2,0.2,1.6,0.7c0.4,0.4,0.6,1.1,0.6,1.9V46.1L154.9,46.1z M154,45.3c0-0.5-0.1-0.9-0.4-1.1
		c-0.2-0.3-0.6-0.4-1-0.4c-0.4,0-0.7,0.1-1,0.4c-0.3,0.3-0.5,0.7-0.5,1.1H154L154,45.3z M155.8,48.3v-0.9c0.5,0.3,1,0.5,1.5,0.5
		c0.7,0,1.1-0.2,1.1-0.7c0-0.1,0-0.3-0.1-0.4c-0.1-0.1-0.1-0.2-0.3-0.3c-0.1-0.1-0.2-0.1-0.4-0.2c-0.1-0.1-0.3-0.1-0.5-0.2
		c-0.2-0.1-0.4-0.2-0.6-0.3c-0.2-0.1-0.3-0.2-0.4-0.3c-0.1-0.1-0.2-0.3-0.3-0.4c-0.1-0.2-0.1-0.3-0.1-0.5c0-0.2,0.1-0.5,0.2-0.7
		c0.1-0.2,0.3-0.3,0.5-0.5c0.2-0.1,0.4-0.2,0.6-0.3c0.2-0.1,0.5-0.1,0.8-0.1c0.5,0,0.9,0.1,1.2,0.2v0.9c-0.4-0.3-0.8-0.4-1.3-0.4
		c-0.2,0-0.3,0-0.4,0.1c-0.1,0-0.2,0.1-0.3,0.2c-0.1,0.1-0.2,0.1-0.2,0.2c0,0.1-0.1,0.2-0.1,0.3c0,0.1,0,0.3,0.1,0.3
		c0.1,0.1,0.1,0.2,0.2,0.2c0.1,0.1,0.2,0.1,0.4,0.2c0.1,0.1,0.3,0.1,0.5,0.2c0.2,0.1,0.4,0.2,0.6,0.3c0.2,0.1,0.3,0.2,0.5,0.3
		c0.1,0.1,0.2,0.3,0.3,0.4c0.1,0.2,0.1,0.3,0.1,0.6c0,0.3-0.1,0.5-0.2,0.7c-0.1,0.2-0.3,0.4-0.5,0.5c-0.2,0.1-0.4,0.2-0.7,0.3
		c-0.3,0.1-0.5,0.1-0.8,0.1C156.7,48.6,156.2,48.5,155.8,48.3L155.8,48.3z M158.8,40.5l-1.1,1.7H157l-1.1-1.7h0.6l0.8,1.2l0.8-1.2
		H158.8L158.8,40.5z M165.1,48.5h-0.8v-3c0-1.1-0.4-1.7-1.2-1.7c-0.4,0-0.8,0.2-1.1,0.5c-0.3,0.3-0.4,0.7-0.4,1.2v3h-0.8v-5.3h0.8
		v0.9h0c0.4-0.7,1-1,1.7-1c0.6,0,1,0.2,1.3,0.6c0.3,0.4,0.5,0.9,0.5,1.6V48.5L165.1,48.5z M167.1,41.9c-0.2,0-0.3-0.1-0.4-0.2
		c-0.1-0.1-0.2-0.2-0.2-0.4c0-0.2,0.1-0.3,0.2-0.4c0.1-0.1,0.2-0.2,0.4-0.2c0.2,0,0.3,0.1,0.4,0.2c0.1,0.1,0.2,0.2,0.2,0.4
		c0,0.2-0.1,0.3-0.2,0.4C167.4,41.8,167.2,41.9,167.1,41.9L167.1,41.9z M167.5,48.5h-0.8v-5.3h0.8V48.5L167.5,48.5z M173.6,48.5
		h-0.8v-3c0-1.1-0.4-1.6-1.2-1.6c-0.4,0-0.8,0.2-1,0.5c-0.3,0.3-0.4,0.7-0.4,1.2v3h-0.8v-7.8h0.8v3.4h0c0.4-0.7,1-1,1.7-1
		c1.2,0,1.8,0.7,1.8,2.1V48.5L173.6,48.5z"/>
</g>
</svg>
