<?xml version="1.0" encoding="UTF-8"?>
<svg width="368px" height="76px" viewBox="0 0 368 76" version="1.1" xmlns="http://www.w3.org/2000/svg" xmlns:xlink="http://www.w3.org/1999/xlink">
    <title>GITF logo RGB Colour-01</title>
    <g id="GITF-logo-RGB-Colour-01" stroke="none" stroke-width="1" fill="none" fill-rule="evenodd">
        <path d="M100.8356,21.898 C100.8356,15.29 105.0836,10.162 112.3356,10.162 C115.5996,10.162 119.2116,11.538 121.5236,14.226 L117.7436,17.446 C116.5396,16.274 114.7436,15.194 112.3196,15.194 C109.1316,15.194 106.4156,17.65 106.4156,21.898 C106.4156,25.57 108.6956,28.586 112.5396,28.586 C113.8836,28.586 115.1156,28.29 116.4276,27.57 L116.4276,24.99 L112.0716,24.99 L112.0716,20.478 L121.5716,20.478 L121.5716,30.694 C119.5396,32.29 116.0556,33.462 112.5396,33.462 C105.9916,33.462 100.8356,29.29 100.8356,21.898" id="Fill-1" fill="#ffffff"></path>
        <polygon id="Fill-3" fill="#ffffff" points="125.7 33.2104 130.684 33.2104 130.684 9.6464 125.7 9.6464"></polygon>
        <path d="M146.0468,25.398 C146.0468,23.226 144.6108,21.726 142.6548,21.726 C140.6388,21.726 139.2508,23.274 139.2508,25.398 C139.2508,27.49 140.6868,29.07 142.6548,29.07 C144.5628,29.07 146.0468,27.538 146.0468,25.398 M134.2028,25.398 C134.2028,20.65 137.6268,17.258 142.6548,17.258 C147.6268,17.258 151.0948,20.586 151.0948,25.398 C151.0948,30.194 147.6268,33.522 142.6548,33.522 C137.6268,33.522 134.2028,30.146 134.2028,25.398" id="Fill-5" fill="#ffffff"></path>
        <path d="M166.0312,25.4136 C166.0312,23.1776 164.5792,21.6936 162.6712,21.6936 C160.6712,21.6936 159.2352,23.2576 159.2352,25.4136 C159.2352,27.6496 160.7192,29.1016 162.6872,29.1016 C164.6392,29.1016 166.0312,27.6176 166.0312,25.4136 M171.0952,25.3976 C171.0952,30.2416 168.0152,33.5056 163.7192,33.5056 C161.7832,33.5056 160.2832,32.8336 159.2512,31.5216 L159.1712,31.5216 L159.1712,33.2096 L154.4232,33.2096 L154.4232,9.6496 L159.4392,9.6496 L159.4392,19.2096 L159.5152,19.2096 C160.6552,17.9136 162.2032,17.2576 163.9512,17.2576 C167.9992,17.2576 171.0952,20.6176 171.0952,25.3976" id="Fill-6" fill="#ffffff"></path>
        <path d="M185.332,25.4136 C185.332,23.2576 183.912,21.6936 182.036,21.6936 C180.128,21.6936 178.676,23.1776 178.676,25.4136 C178.676,27.6176 180.068,29.1016 182.02,29.1016 C183.848,29.1016 185.332,27.6496 185.332,25.4136 L185.332,25.4136 Z M190.144,17.5536 L190.144,33.2096 L185.396,33.2096 L185.396,31.5216 L185.332,31.5216 C184.332,32.8336 182.864,33.5056 180.988,33.5056 C176.676,33.5056 173.612,30.2416 173.612,25.3976 C173.612,20.6176 176.708,17.2576 180.752,17.2576 C182.44,17.2576 183.956,17.9136 185.068,19.2096 L185.128,19.2096 L185.128,17.5536 L190.144,17.5536 Z" id="Fill-7" fill="#ffffff"></path>
        <polygon id="Fill-8" fill="#ffffff" points="194.304 33.2104 199.288 33.2104 199.288 9.6464 194.304 9.6464"></polygon>
        <polygon id="Fill-9" fill="#ffffff" points="212.656 33.2104 218.064 33.2104 218.064 10.4744 212.656 10.4744"></polygon>
        <polygon id="Fill-10" fill="#ffffff" points="227.6248 15.2572 221.6248 15.2572 221.6248 10.4772 238.9528 10.4772 238.9528 15.2572 232.9528 15.2572 232.9528 33.2092 227.6248 33.2092"></polygon>
        <polygon id="Fill-11" fill="#ffffff" points="251.0076 10.476 266.3836 10.476 266.3836 15.256 256.2716 15.256 256.2716 20.368 264.6156 20.368 264.6156 25.116 256.2716 25.116 256.2716 33.212 251.0076 33.212"></polygon>
        <path d="M279.7616,25.4136 C279.7616,23.2576 278.3416,21.6936 276.4656,21.6936 C274.5576,21.6936 273.1056,23.1776 273.1056,25.4136 C273.1056,27.6176 274.4976,29.1016 276.4496,29.1016 C278.2776,29.1016 279.7616,27.6496 279.7616,25.4136 L279.7616,25.4136 Z M284.5736,17.5536 L284.5736,33.2096 L279.8256,33.2096 L279.8256,31.5216 L279.7616,31.5216 C278.7616,32.8336 277.2936,33.5056 275.4176,33.5056 C271.1056,33.5056 268.0416,30.2416 268.0416,25.3976 C268.0416,20.6176 271.1376,17.2576 275.1816,17.2576 C276.8696,17.2576 278.3856,17.9136 279.4976,19.2096 L279.5576,19.2096 L279.5576,17.5536 L284.5736,17.5536 Z" id="Fill-12" fill="#ffffff"></path>
        <path d="M287.8124,25.398 C287.8124,20.57 291.2804,17.258 296.1884,17.258 C298.7484,17.258 301.3764,18.318 302.9524,20.382 L299.6084,23.242 C298.8604,22.334 297.8124,21.726 296.3764,21.726 C294.2644,21.726 292.8604,23.21 292.8604,25.35 C292.8604,27.538 294.3124,29.054 296.4204,29.054 C297.9684,29.054 299.0004,28.318 299.6084,27.634 L303.0324,30.618 C301.6884,32.226 299.2324,33.522 295.9364,33.522 C291.2964,33.522 287.8124,30.226 287.8124,25.398" id="Fill-13" fill="#ffffff"></path>
        <path d="M306.4216,28.2884 L306.4216,21.6324 L304.6576,21.6324 L304.6576,17.5524 L306.4216,17.5524 L306.4216,12.5524 L311.4216,12.0244 L311.4216,17.5524 L315.2176,17.5524 L315.2176,21.6324 L311.4216,21.6324 L311.4216,27.3524 C311.4216,28.3684 311.6576,29.1324 312.6096,29.1324 C312.9536,29.1324 313.6096,29.0244 314.1576,28.7404 L315.3896,32.4284 C314.3136,33.0364 313.2016,33.5084 311.0136,33.5084 C308.3416,33.5084 306.4216,31.8364 306.4216,28.2884" id="Fill-14" fill="#ffffff"></path>
        <path d="M328.7848,25.398 C328.7848,23.226 327.3488,21.726 325.3928,21.726 C323.3768,21.726 321.9888,23.274 321.9888,25.398 C321.9888,27.49 323.4248,29.07 325.3928,29.07 C327.3008,29.07 328.7848,27.538 328.7848,25.398 M316.9408,25.398 C316.9408,20.65 320.3648,17.258 325.3928,17.258 C330.3648,17.258 333.8328,20.586 333.8328,25.398 C333.8328,30.194 330.3648,33.522 325.3928,33.522 C320.3648,33.522 316.9408,30.146 316.9408,25.398" id="Fill-15" fill="#ffffff"></path>
        <path d="M346.9296,17.2728 L346.9296,22.6648 C346.4776,22.6328 346.0096,22.6328 345.7576,22.6328 C343.3816,22.6328 342.1656,24.1328 342.1656,26.1808 L342.1656,33.2088 L337.1656,33.2088 L337.1656,17.5528 L342.1656,17.5528 L342.1656,19.6488 L342.2256,19.6488 C343.4136,18.0848 345.0376,17.2568 346.7576,17.2568 C346.8056,17.2568 346.8816,17.2568 346.9296,17.2728" id="Fill-16" fill="#ffffff"></path>
        <polygon id="Fill-17" fill="#ffffff" points="364.9648 17.554 356.7448 39.538 351.7928 39.538 354.4968 32.146 348.3848 17.554 353.5728 17.554 356.7608 26.038 356.8408 26.038 359.8408 17.554"></polygon>
        <polygon id="Fill-18" fill="#d3d3d3" points="103.246 49.4936 105.038 49.4936 105.038 58.4496 109.934 58.4496 109.934 60.0616 103.246 60.0616"></polygon>
        <path d="M112.828,55.6676 L116.46,55.6676 C116.248,54.7876 115.644,54.2076 114.692,54.2076 C113.784,54.2076 113.068,54.7236 112.828,55.6676 M118.084,57.0116 L112.8,57.0116 C113.016,58.0436 113.8,58.6676 114.868,58.6676 C115.712,58.6676 116.308,58.2756 116.676,57.8116 L117.836,58.8076 C117.22,59.5956 116.204,60.1796 114.78,60.1796 C112.668,60.1796 111.072,58.6956 111.072,56.4316 C111.072,54.2076 112.588,52.6956 114.608,52.6956 C116.748,52.6956 118.128,54.2396 118.128,56.3516 C118.128,56.6036 118.108,56.8796 118.084,57.0116" id="Fill-19" fill="#d3d3d3"></path>
        <polygon id="Fill-20" fill="#d3d3d3" points="126.0036 52.806 123.1276 60.062 121.5356 60.062 118.6476 52.806 120.4236 52.806 122.3196 57.978 122.3476 57.978 124.2076 52.806"></polygon>
        <path d="M128.2556,55.6676 L131.8876,55.6676 C131.6756,54.7876 131.0716,54.2076 130.1196,54.2076 C129.2116,54.2076 128.4956,54.7236 128.2556,55.6676 M133.5116,57.0116 L128.2276,57.0116 C128.4436,58.0436 129.2276,58.6676 130.2956,58.6676 C131.1396,58.6676 131.7356,58.2756 132.1036,57.8116 L133.2636,58.8076 C132.6476,59.5956 131.6316,60.1796 130.2076,60.1796 C128.0956,60.1796 126.4996,58.6956 126.4996,56.4316 C126.4996,54.2076 128.0156,52.6956 130.0356,52.6956 C132.1756,52.6956 133.5556,54.2396 133.5556,56.3516 C133.5556,56.6036 133.5356,56.8796 133.5116,57.0116" id="Fill-21" fill="#d3d3d3"></path>
        <path d="M139.4176,52.7044 L139.4176,54.5564 C139.2296,54.5404 139.0336,54.5364 138.9176,54.5364 C137.6536,54.5364 136.9336,55.4444 136.9336,56.6204 L136.9336,60.0604 L135.2696,60.0604 L135.2696,52.8044 L136.9336,52.8044 L136.9336,53.8964 L136.9576,53.8964 C137.5216,53.1244 138.3296,52.6964 139.2136,52.6964 C139.2896,52.6964 139.3616,52.6964 139.4176,52.7044" id="Fill-22" fill="#d3d3d3"></path>
        <path d="M145.994,56.474 C145.994,55.19 145.13,54.21 143.938,54.21 C142.778,54.21 141.846,55.078 141.846,56.474 C141.846,57.758 142.702,58.666 143.93,58.666 C145.058,58.666 145.994,57.79 145.994,56.474 L145.994,56.474 Z M147.59,52.806 L147.59,60.062 L146.002,60.062 L146.002,59.09 L145.982,59.09 C145.45,59.786 144.67,60.178 143.67,60.178 C141.658,60.178 140.154,58.71 140.154,56.466 C140.154,54.274 141.658,52.698 143.658,52.698 C144.578,52.698 145.354,53.03 145.902,53.678 L145.93,53.678 L145.93,52.806 L147.59,52.806 Z" id="Fill-23" fill="#d3d3d3"></path>
        <path d="M155.0388,56.2848 C155.0388,55.0408 154.1428,54.2208 152.9908,54.2208 C151.7548,54.2208 150.9188,55.0808 150.9188,56.3048 C150.9188,57.6088 151.8188,58.4048 152.9908,58.4048 C154.2028,58.4048 155.0388,57.5128 155.0388,56.2848 L155.0388,56.2848 Z M156.6268,52.8048 L156.6268,59.3128 C156.6268,61.5168 155.6188,63.1128 152.9308,63.1128 C151.8428,63.1128 150.7908,62.8448 149.9748,62.3568 L150.3708,60.8888 C151.1588,61.3128 151.8068,61.6088 152.8388,61.6088 C154.2708,61.6088 155.0028,60.7968 155.0028,59.8208 L155.0028,59.0528 L154.9708,59.0528 C154.4268,59.6168 153.6788,59.9408 152.7748,59.9408 C150.7388,59.9408 149.2268,58.5168 149.2268,56.3568 C149.2268,54.2368 150.6668,52.6928 152.6868,52.6928 C153.5228,52.6928 154.3268,52.9888 154.9388,53.5688 L154.9668,53.5688 L154.9668,52.8048 L156.6268,52.8048 Z" id="Fill-24" fill="#d3d3d3"></path>
        <path d="M158.824,60.0624 L160.488,60.0624 L160.488,52.8064 L158.824,52.8064 L158.824,60.0624 Z M158.54,50.6224 C158.54,50.0184 159.032,49.5144 159.664,49.5144 C160.276,49.5144 160.784,50.0184 160.784,50.6224 C160.784,51.2304 160.276,51.7224 159.664,51.7224 C159.032,51.7224 158.54,51.2304 158.54,50.6224 L158.54,50.6224 Z" id="Fill-25" fill="#d3d3d3"></path>
        <path d="M169.5388,55.7924 L169.5388,60.0684 L167.8748,60.0684 L167.8748,56.2204 C167.8748,54.6884 167.3028,54.2084 166.2988,54.2084 C165.1748,54.2084 164.4188,54.9924 164.4188,56.4164 L164.4188,60.0604 L162.7548,60.0604 L162.7548,52.8044 L164.4188,52.8044 L164.4188,53.8004 L164.4428,53.8004 C165.0588,53.0804 165.9388,52.6964 166.8748,52.6964 C168.4628,52.6964 169.5388,53.6124 169.5388,55.7924" id="Fill-26" fill="#d3d3d3"></path>
        <path d="M176.9256,56.2848 C176.9256,55.0408 176.0296,54.2208 174.8776,54.2208 C173.6416,54.2208 172.8056,55.0808 172.8056,56.3048 C172.8056,57.6088 173.7056,58.4048 174.8776,58.4048 C176.0896,58.4048 176.9256,57.5128 176.9256,56.2848 L176.9256,56.2848 Z M178.5136,52.8048 L178.5136,59.3128 C178.5136,61.5168 177.5056,63.1128 174.8176,63.1128 C173.7296,63.1128 172.6776,62.8448 171.8616,62.3568 L172.2576,60.8888 C173.0456,61.3128 173.6936,61.6088 174.7256,61.6088 C176.1576,61.6088 176.8896,60.7968 176.8896,59.8208 L176.8896,59.0528 L176.8576,59.0528 C176.3136,59.6168 175.5656,59.9408 174.6616,59.9408 C172.6256,59.9408 171.1136,58.5168 171.1136,56.3568 C171.1136,54.2368 172.5536,52.6928 174.5736,52.6928 C175.4096,52.6928 176.2136,52.9888 176.8256,53.5688 L176.8536,53.5688 L176.8536,52.8048 L178.5136,52.8048 Z" id="Fill-27" fill="#d3d3d3"></path>
        <path d="M184.3084,54.7964 C184.3084,51.6964 186.3284,49.3804 189.5764,49.3804 C191.0484,49.3804 192.6044,49.9284 193.7004,51.1284 L192.4284,52.2164 C191.7124,51.5124 190.7604,51.0684 189.5684,51.0684 C187.6644,51.0684 186.1844,52.5004 186.1844,54.7964 C186.1844,56.9084 187.5284,58.5164 189.6404,58.5164 C190.4804,58.5164 191.2804,58.2924 191.9924,57.8084 L191.9924,56.0324 L189.4084,56.0324 L189.4084,54.4204 L193.7804,54.4204 L193.7804,58.8364 C192.8124,59.6324 191.2684,60.1564 189.6404,60.1564 C186.6124,60.1564 184.3084,58.1444 184.3084,54.7964" id="Fill-28" fill="#d3d3d3"></path>
        <polygon id="Fill-29" fill="#d3d3d3" points="195.972 60.0624 197.636 60.0624 197.636 49.1104 195.972 49.1104"></polygon>
        <path d="M205.402,56.4448 C205.402,55.1168 204.482,54.2088 203.29,54.2088 C202.018,54.2088 201.166,55.1808 201.166,56.4448 C201.166,57.6888 202.038,58.6688 203.29,58.6688 C204.466,58.6688 205.402,57.7528 205.402,56.4448 L205.402,56.4448 Z M203.29,60.1808 C200.994,60.1808 199.478,58.5728 199.478,56.4448 C199.478,54.3008 200.994,52.6968 203.29,52.6968 C205.51,52.6968 207.094,54.2208 207.094,56.4448 C207.094,58.6528 205.51,60.1768 203.29,60.1768 L203.29,60.1808 Z" id="Fill-30" fill="#d3d3d3"></path>
        <path d="M214.6268,56.474 C214.6268,55.078 213.6988,54.21 212.5348,54.21 C211.2868,54.21 210.4228,55.19 210.4228,56.474 C210.4228,57.79 211.3588,58.666 212.5428,58.666 C213.7708,58.666 214.6268,57.758 214.6268,56.474 M216.3188,56.466 C216.3188,58.71 214.8148,60.178 212.8028,60.178 C211.7748,60.178 210.9748,59.786 210.4428,59.09 L210.4148,59.09 L210.4148,60.062 L208.8228,60.062 L208.8228,49.11 L210.4868,49.11 L210.4868,53.678 L210.5228,53.678 C211.0668,53.03 211.8668,52.698 212.8188,52.698 C214.8148,52.698 216.3188,54.274 216.3188,56.466" id="Fill-31" fill="#d3d3d3"></path>
        <path d="M223.4432,56.474 C223.4432,55.19 222.5792,54.21 221.3872,54.21 C220.2272,54.21 219.2952,55.078 219.2952,56.474 C219.2952,57.758 220.1512,58.666 221.3792,58.666 C222.5072,58.666 223.4432,57.79 223.4432,56.474 L223.4432,56.474 Z M225.0392,52.806 L225.0392,60.062 L223.4512,60.062 L223.4512,59.09 L223.4312,59.09 C222.8992,59.786 222.1192,60.178 221.1192,60.178 C219.1072,60.178 217.6032,58.71 217.6032,56.466 C217.6032,54.274 219.1072,52.698 221.1072,52.698 C222.0272,52.698 222.8032,53.03 223.3512,53.678 L223.3792,53.678 L223.3792,52.806 L225.0392,52.806 Z" id="Fill-32" fill="#d3d3d3"></path>
        <polygon id="Fill-33" fill="#d3d3d3" points="227.244 60.0624 228.908 60.0624 228.908 49.1104 227.244 49.1104"></polygon>
        <polygon id="Fill-34" fill="#d3d3d3" points="235.428 60.0624 237.232 60.0624 237.232 49.4944 235.428 49.4944"></polygon>
        <polygon id="Fill-35" fill="#d3d3d3" points="242.0544 51.1068 239.0544 51.1068 239.0544 49.4948 246.8784 49.4948 246.8784 51.1068 243.8504 51.1068 243.8504 60.0628 242.0544 60.0628"></polygon>
        <polygon id="Fill-36" fill="#d3d3d3" points="252.6132 49.4936 259.2612 49.4936 259.2612 51.1056 254.4052 51.1056 254.4052 54.0176 258.3292 54.0176 258.3292 55.6336 254.4052 55.6336 254.4052 58.4496 259.5692 58.4496 259.5692 60.0616 252.6132 60.0616"></polygon>
        <polygon id="Fill-37" fill="#d3d3d3" points="264.2792 57.7748 264.2512 57.7748 262.5952 60.0628 260.7552 60.0628 263.3072 56.3628 260.7712 52.8068 262.6952 52.8068 264.2352 55.0868 264.2712 55.0868 265.8272 52.8068 267.7352 52.8068 265.2152 56.3588 267.7792 60.0628 265.9272 60.0628"></polygon>
        <path d="M275.0644,56.474 C275.0644,55.078 274.1364,54.21 272.9724,54.21 C271.7244,54.21 270.8604,55.19 270.8604,56.474 C270.8604,57.79 271.7964,58.666 272.9804,58.666 C274.2084,58.666 275.0644,57.758 275.0644,56.474 M276.7564,56.466 C276.7564,58.71 275.2524,60.178 273.2404,60.178 C272.2524,60.178 271.4764,59.814 270.9484,59.17 L270.9244,59.17 L270.9244,63.002 L269.2604,63.002 L269.2604,52.806 L270.9244,52.806 L270.9244,53.686 L270.9524,53.686 C271.5044,53.038 272.2964,52.698 273.2564,52.698 C275.2524,52.698 276.7564,54.274 276.7564,56.466" id="Fill-38" fill="#d3d3d3"></path>
        <path d="M279.8164,55.6676 L283.4484,55.6676 C283.2364,54.7876 282.6324,54.2076 281.6804,54.2076 C280.7724,54.2076 280.0564,54.7236 279.8164,55.6676 M285.0724,57.0116 L279.7884,57.0116 C280.0044,58.0436 280.7884,58.6676 281.8564,58.6676 C282.7004,58.6676 283.2964,58.2756 283.6644,57.8116 L284.8244,58.8076 C284.2084,59.5956 283.1924,60.1796 281.7684,60.1796 C279.6564,60.1796 278.0604,58.6956 278.0604,56.4316 C278.0604,54.2076 279.5764,52.6956 281.5964,52.6956 C283.7364,52.6956 285.1164,54.2396 285.1164,56.3516 C285.1164,56.6036 285.0964,56.8796 285.0724,57.0116" id="Fill-39" fill="#d3d3d3"></path>
        <path d="M290.9804,52.7044 L290.9804,54.5564 C290.7924,54.5404 290.5924,54.5364 290.4804,54.5364 C289.2164,54.5364 288.4964,55.4444 288.4964,56.6204 L288.4964,60.0604 L286.8324,60.0604 L286.8324,52.8044 L288.4964,52.8044 L288.4964,53.8964 L288.5164,53.8964 C289.0844,53.1244 289.8924,52.6964 290.7764,52.6964 C290.8484,52.6964 290.9204,52.6964 290.9804,52.7044" id="Fill-40" fill="#d3d3d3"></path>
        <path d="M294.5252,60.1792 C293.2772,60.1792 292.5012,59.3872 292.5012,57.7672 L292.5012,54.2232 L291.6132,54.2232 L291.6132,52.8072 L292.5012,52.8072 L292.5012,50.3952 L294.1612,50.2152 L294.1612,52.8072 L296.2972,52.8072 L296.2972,54.2232 L294.1612,54.2232 L294.1612,57.6152 C294.1612,58.3552 294.3932,58.6232 294.8572,58.6232 C295.1412,58.6232 295.5492,58.5152 295.9372,58.3112 L296.3692,59.7512 C295.9372,59.9832 295.4772,60.1792 294.5252,60.1792 Z" id="Fill-41" fill="#d3d3d3"></path>
        <path d="M297.824,60.0624 L299.488,60.0624 L299.488,52.8064 L297.824,52.8064 L297.824,60.0624 Z M297.544,50.6224 C297.544,50.0184 298.036,49.5144 298.668,49.5144 C299.28,49.5144 299.788,50.0184 299.788,50.6224 C299.788,51.2304 299.28,51.7224 298.668,51.7224 C298.036,51.7224 297.544,51.2304 297.544,50.6224 L297.544,50.6224 Z" id="Fill-42" fill="#d3d3d3"></path>
        <path d="M304.084,60.1792 C302.916,60.1792 301.92,59.7952 301.152,59.1192 L301.992,57.8672 C302.576,58.4432 303.192,58.7272 304.084,58.7272 C304.724,58.7272 305.1,58.4352 305.1,58.0112 C305.1,57.6352 304.616,57.4552 303.664,57.1272 C302.472,56.7232 301.448,56.1792 301.448,54.7552 C301.448,53.5712 302.524,52.6952 304.004,52.6952 C304.924,52.6952 305.76,52.9512 306.576,53.6032 L305.74,54.9112 C305.152,54.3672 304.492,54.1352 303.916,54.1352 C303.588,54.1352 303.124,54.3152 303.124,54.7592 C303.124,55.1232 303.584,55.3712 304.28,55.6472 C305.82,56.2552 306.792,56.5312 306.792,57.9792 C306.792,59.1992 305.928,60.1792 304.084,60.1792 Z" id="Fill-43" fill="#d3d3d3"></path>
        <path d="M309.6932,55.6676 L313.3252,55.6676 C313.1132,54.7876 312.5092,54.2076 311.5572,54.2076 C310.6492,54.2076 309.9332,54.7236 309.6932,55.6676 M314.9492,57.0116 L309.6652,57.0116 C309.8812,58.0436 310.6652,58.6676 311.7332,58.6676 C312.5772,58.6676 313.1732,58.2756 313.5412,57.8116 L314.7012,58.8076 C314.0852,59.5956 313.0692,60.1796 311.6452,60.1796 C309.5332,60.1796 307.9372,58.6956 307.9372,56.4316 C307.9372,54.2076 309.4532,52.6956 311.4732,52.6956 C313.6132,52.6956 314.9932,54.2396 314.9932,56.3516 C314.9932,56.6036 314.9732,56.8796 314.9492,57.0116" id="Fill-44" fill="#d3d3d3"></path>
        <path d="M54.9412,69.9508 C66.0532,63.8268 73.5852,52.0108 73.5852,38.4268 C73.5852,35.6148 73.2332,32.8908 72.6212,30.2708 L54.9412,42.9228 L54.9412,69.9508 Z" id="Fill-45" fill="#E40345"></path>
        <path d="M20.2656,6.9 C9.1536,13.024 1.6216,24.84 1.6216,38.424 C1.6216,52.008 9.1536,63.828 20.2656,69.952 L20.2656,6.9 Z" id="Fill-46" fill="#E40345"></path>
        <path d="M47.0056,73.1244 L47.0056,29.4284 L28.2056,42.9244 L28.2056,73.1244 C31.2056,73.9364 34.3456,74.4084 37.6016,74.4084 C40.8616,74.4084 44.0056,73.9364 47.0056,73.1244" id="Fill-47" fill="#E40345"></path>
        <path d="M28.2108,33.154 L54.9188,13.998 L54.9428,33.154 L69.8268,22.486 C63.9468,10.622 51.7428,2.442 37.6028,2.442 C34.3468,2.442 31.2068,2.914 28.2068,3.726 L28.2108,33.154 Z" id="Fill-48" fill="#A62346"></path>
    </g>
</svg>
