<svg width="214" height="32" viewBox="0 0 214 32" fill="none" xmlns="http://www.w3.org/2000/svg">
<path d="M21.91 20.57C21.84 18.67 22.16 16.8 22.82 15.07C22.79 14.84 22.74 14.63 22.69 14.42C22.69 14.4 22.68 14.38 22.67 14.37C22.63 14.19 22.58 14.01 22.52 13.84C22.5 13.77 22.47 13.69 22.44 13.62C22.4 13.52 22.36 13.42 22.32 13.32C22.31 13.3 22.31 13.29 22.3 13.27C22.22 13.08 22.13 12.9 22.03 12.72C21.98 12.62 21.92 12.52 21.86 12.42C21.78 12.29 21.7 12.16 21.62 12.04C21.5 11.86 21.37 11.69 21.24 11.53C21.2 11.48 21.16 11.44 21.13 11.4C21.01 11.26 20.89 11.13 20.76 11C20.61 10.84 20.45 10.69 20.29 10.55C20.11 10.39 19.92 10.24 19.72 10.1C19.67 10.06 19.62 10.02 19.57 9.98999C19.38 9.85999 19.19 9.73 18.99 9.62C18.76 9.49 18.52 9.35999 18.27 9.23999C18.03 9.12999 17.78 9.01999 17.52 8.92999C17.34 8.86999 17.16 8.81001 16.97 8.76001C16.95 8.75001 16.92 8.73999 16.9 8.73999C16.84 8.71999 16.79 8.7 16.73 8.69C16.66 8.66 16.6 8.65001 16.53 8.64001C16.51 8.64001 16.5 8.63 16.48 8.63C16.3 8.58 16.11 8.54001 15.92 8.51001C15.64 8.46001 15.36 8.41999 15.08 8.39999C14.8 8.36999 14.52 8.36002 14.23 8.36002C13.91 8.36002 13.59 8.38 13.27 8.41C12.05 8.53 10.86 8.88001 9.76999 9.42001C9.61999 9.49001 8.48999 9.97999 8.48999 10.18V4.26001C8.48999 3.49001 8.3 2.78 7.92 2.13C7.54 1.48 7.02 0.960017 6.39 0.580017C5.75 0.200017 5.03 0 4.25 0C3.46 0.03 2.73999 0.230016 2.09999 0.610016C1.45999 0.990016 0.939998 1.50001 0.559998 2.14001C0.189998 2.78001 0 3.47999 0 4.20999V27.25C0 28.44 0.409996 29.45 1.23 30.27C2.05 31.09 3.04999 31.5 4.18999 31.5C4.95999 31.5 5.67999 31.32 6.32999 30.96C6.97999 30.59 7.50999 30.08 7.89999 29.42C8.28999 28.77 8.48999 28.05 8.48999 27.29V18.15C8.48999 17.3 8.78999 16.58 9.39999 16.01C9.99999 15.45 10.71 15.16 11.53 15.16C12.34 15.18 13.03 15.5 13.59 16.12C14.13 16.72 14.4 17.42 14.4 18.19V27.29C14.4 28.47 14.82 29.48 15.62 30.31C16.43 31.13 17.44 31.59 18.61 31.65C19.82 31.65 20.85 31.23 21.68 30.4C22.51 29.56 22.93 28.53 22.93 27.34V25.27C22.51 24.23 22.21 23.15 22.05 22.09C21.98 21.58 21.93 21.07 21.91 20.57Z" fill="#784726"/>
<path d="M48.0499 22.5301C48.0499 22.5301 48.0599 22.5201 48.0699 22.5201V19.4501C47.8099 19.0301 47.5799 18.5701 47.3899 18.0501C46.6599 16.0501 46.8199 13.6101 47.9599 11.4701C47.7999 10.5001 47.3999 9.5101 46.7499 8.8201C46.5099 8.5701 46.2499 8.40009 45.9699 8.28009C45.8299 8.22009 45.6899 8.18009 45.5499 8.15009C45.3999 8.12009 45.2499 8.11011 45.0999 8.11011C44.6099 8.11011 44.0999 8.2601 43.6199 8.5101C43.4799 8.5801 43.3499 8.66009 43.2199 8.75009C42.9499 8.92009 42.6899 9.13009 42.4199 9.34009C42.2799 9.45009 42.1499 9.55009 42.0099 9.65009C41.4599 10.0401 40.8799 10.3701 40.2499 10.3701C39.9899 10.3701 39.7299 10.3101 39.4499 10.1801C39.0299 9.99008 38.6599 9.69009 38.2799 9.44009C37.1599 8.70009 35.8899 8.39011 34.5999 8.39011C34.0399 8.39011 33.4699 8.45009 32.9099 8.56009C32.3499 8.67009 31.7999 8.83009 31.2699 9.03009C30.9099 9.16009 30.5599 9.3101 30.2299 9.4801C27.7699 10.6901 25.9199 12.8101 24.8699 15.2801C24.1799 16.9201 23.8399 18.7101 23.9099 20.5001C23.9299 20.9301 23.9699 21.3701 24.0299 21.8001C24.1599 22.7201 24.4199 23.6501 24.7799 24.5401C24.8299 24.6601 24.8799 24.7901 24.9299 24.9101C24.9999 25.0801 25.0799 25.2401 25.1699 25.4101C25.3099 25.7001 25.4599 25.9801 25.6199 26.2601C25.7399 26.4701 25.8699 26.6701 25.9999 26.8701C26.2699 27.2701 26.5499 27.6501 26.8599 28.0201C27.0099 28.2001 27.1699 28.3801 27.3299 28.5501C29.0499 30.3801 31.2999 31.6001 33.7199 31.6001C34.0299 31.6001 34.3399 31.5801 34.6599 31.5401C35.6299 31.4101 36.5999 31.0901 37.4699 30.6101C38.3099 30.1501 39.0899 29.5601 40.0899 29.5401H40.1199C41.2399 29.5401 41.9099 30.3701 42.7499 30.9301C42.8299 30.9901 42.9199 31.0501 43.0099 31.0901C43.1699 31.1901 43.3499 31.2801 43.5399 31.3401C43.8399 31.4401 44.1499 31.4801 44.4599 31.4801C45.3599 31.4801 46.2399 31.0801 46.8899 30.4301C47.0599 30.2601 47.2099 30.0801 47.3299 29.8801C46.4999 28.9101 45.8699 27.7001 45.8499 26.3701C45.8199 24.8401 46.6099 23.4801 48.0499 22.5301ZM40.7899 21.0601C40.7199 21.5801 40.5099 22.1001 40.1699 22.6001C39.7399 23.3101 39.1499 23.8601 38.4199 24.2401C37.6899 24.6101 36.8999 24.8001 36.0799 24.8001C34.6999 24.8001 33.5299 24.3101 32.6099 23.3401C31.7999 22.4401 31.3999 21.3601 31.3999 20.1201C31.4299 19.9601 31.4499 19.8301 31.4599 19.7401C31.4599 19.6201 31.4799 19.4801 31.5099 19.2801C31.7399 18.1601 32.2699 17.2501 33.0599 16.5701C33.8799 15.8501 34.8799 15.4901 36.0299 15.4901C36.6499 15.4901 37.3099 15.6301 37.9799 15.9101C39.5799 16.5301 40.5399 17.7601 40.8399 19.5701C40.8399 20.2001 40.8199 20.6901 40.7899 21.0601Z" fill="#784726"/>
<path d="M66.9101 20.37C66.7801 20.23 66.6401 20.09 66.5001 19.96C66.3501 19.82 66.2001 19.69 66.0401 19.56C66.0401 19.56 66.0301 19.56 66.0201 19.54C65.8701 19.42 65.7101 19.31 65.5401 19.2C65.3601 19.07 65.1701 18.96 64.9801 18.85C64.7901 18.74 64.6001 18.64 64.4101 18.55C63.8901 18.29 63.3501 18.07 62.8101 17.89C62.5401 17.79 62.2701 17.71 62.0001 17.63H61.9901C61.6901 17.54 61.3801 17.46 61.0801 17.39C60.7701 17.31 60.4701 17.25 60.1801 17.19C59.1801 16.99 58.1301 16.78 57.5101 15.88C56.7101 14.75 57.5701 13.69 58.8301 13.67H58.8901C59.0301 13.67 59.1801 13.67 59.3201 13.71C59.4201 13.72 59.5201 13.74 59.6201 13.76C59.7601 13.79 59.9001 13.83 60.0301 13.87C60.1801 13.92 60.3301 13.97 60.4801 14.03C60.5601 14.05 60.6301 14.08 60.7101 14.11C61.8101 14.52 63.1301 14.95 64.3901 14.95C65.1201 14.95 65.8301 14.8 66.4701 14.43C66.6401 14.33 66.7801 14.23 66.9101 14.11V10.33C66.7501 10.16 66.5601 10 66.3501 9.87C64.3801 8.6 61.7901 8 59.2301 8C57.1601 8 55.1101 8.39 53.4001 9.13C53.2001 9.21 53.0201 9.31 52.8301 9.41C52.8101 9.42 52.8001 9.43 52.7801 9.44C52.6801 9.49 52.5801 9.55002 52.4801 9.61002C52.4201 9.64002 52.3501 9.69001 52.2901 9.73001C52.2801 9.73001 52.2801 9.73 52.2701 9.75C52.1601 9.81 52.0501 9.87999 51.9501 9.95999C51.7501 10.1 51.5701 10.25 51.3901 10.4C51.3001 10.48 51.2101 10.56 51.1301 10.64C51.0801 10.68 51.0401 10.72 51.0001 10.77C50.9601 10.81 50.9101 10.86 50.8701 10.91C50.7701 11 50.6801 11.1 50.5901 11.21C50.5501 11.26 50.5101 11.31 50.4701 11.36C50.3801 11.47 50.2901 11.58 50.2101 11.69C50.1501 11.77 50.1001 11.85 50.0401 11.93C49.9201 12.11 49.8101 12.29 49.7101 12.48C49.6101 12.66 49.5201 12.85 49.4401 13.04C49.3701 13.18 49.3201 13.33 49.2701 13.48C49.2301 13.58 49.2001 13.69 49.1701 13.79C49.1701 13.79 49.1668 13.7967 49.1601 13.81C49.1401 13.89 49.1201 13.98 49.1001 14.05C49.1001 14.05 49.0901 14.09 49.0901 14.1C49.0601 14.22 49.0401 14.32 49.0201 14.44C48.9901 14.57 48.9801 14.7 48.9601 14.84C48.8701 15.67 48.9601 16.52 49.2701 17.36C49.3301 17.53 49.4001 17.7 49.4801 17.85C49.5201 17.94 49.5601 18.03 49.6101 18.11C49.7501 18.37 49.9001 18.61 50.0701 18.83C50.0801 18.84 50.0901 18.85 50.0901 18.86C50.1001 18.88 50.1201 18.9 50.1301 18.91H50.1401C50.2301 19.03 50.3001 19.12 50.3901 19.21C50.4401 19.27 50.5001 19.33 50.5601 19.39C50.6201 19.45 50.6801 19.51 50.7401 19.56C50.9801 19.78 51.2301 19.97 51.5101 20.14C51.5901 20.19 51.6701 20.24 51.7601 20.29C51.8501 20.34 51.9401 20.39 52.0401 20.44C52.2001 20.53 52.3701 20.6 52.5401 20.68C52.5601 20.68 52.5801 20.69 52.6001 20.7C52.7701 20.77 52.9401 20.84 53.1201 20.9C53.2501 20.95 53.3901 20.99 53.5201 21.03C53.7701 21.11 54.0201 21.18 54.2801 21.26C54.6001 21.34 54.9201 21.42 55.2401 21.49C55.9301 21.65 56.6201 21.8 57.3101 21.98C58.2101 22.21 59.6601 22.74 59.8601 23.81C59.9501 24.31 59.7501 24.69 59.4001 24.94C59.3401 24.98 59.2801 25.02 59.2101 25.05H59.2001C59.2001 25.05 59.1401 25.09 59.1001 25.1C59.0601 25.12 59.0201 25.13 58.9801 25.14C58.9301 25.17 58.8701 25.18 58.8101 25.19C58.8001 25.2 58.7901 25.2 58.7801 25.2L58.6301 25.23C58.5401 25.23 58.4501 25.25 58.3601 25.25H58.3301C57.2801 25.23 56.2001 24.86 55.2101 24.52C53.9501 24.09 52.6501 23.63 51.3001 23.63C51.0901 23.63 50.8801 23.64 50.6901 23.67H50.6601C50.5301 23.69 50.4101 23.71 50.2901 23.74C50.2801 23.74 50.2601 23.75 50.2501 23.75H50.2401C50.1801 23.76 50.1201 23.77 50.0701 23.79C49.7301 23.88 49.4301 24.02 49.1501 24.2C48.9901 24.3 48.8501 24.41 48.7201 24.53C48.6301 24.6 48.5501 24.68 48.4801 24.76C48.4401 24.81 48.4001 24.85 48.3601 24.9C48.3201 24.94 48.2901 24.99 48.2601 25.04C48.2501 25.06 48.2301 25.07 48.2201 25.09C48.2201 25.1 48.2201 25.11 48.2201 25.12C48.1901 25.16 48.1701 25.2 48.1401 25.25C48.1201 25.29 48.1001 25.33 48.0801 25.37C48.0401 25.46 48.0001 25.53 47.9801 25.62V25.64C47.9601 25.7 47.9501 25.74 47.9301 25.8C47.9101 25.88 47.9001 25.95 47.8901 26.02C47.8801 26.11 47.8701 26.2 47.8701 26.29C47.8701 26.64 47.9501 26.99 48.0901 27.33C48.1701 27.53 48.2701 27.73 48.3901 27.92C48.4401 28.01 48.5101 28.1 48.5701 28.2C48.6401 28.29 48.7101 28.38 48.7801 28.47C48.9301 28.66 49.1001 28.84 49.2701 29.01C49.4101 29.14 49.5601 29.28 49.7101 29.4C49.7301 29.42 49.7501 29.43 49.7701 29.45C49.9801 29.61 50.2001 29.77 50.4201 29.9C52.6901 31.28 55.6501 31.58 58.2701 31.6H58.4401C60.9701 31.58 63.5801 31.04 65.5901 29.46C66.1201 29.05 66.5901 28.58 66.9901 28.07C66.9501 27.8 66.9301 27.53 66.9301 27.25V20.37H66.9101Z" fill="#784726"/>
<path d="M90.2699 11.67C89.8499 11.13 89.3599 10.64 88.8099 10.23C88.6899 10.13 88.5599 10.04 88.4299 9.95001C88.2699 9.84001 88.0899 9.73 87.9099 9.62C87.6799 9.49 87.4299 9.35999 87.1799 9.23999C86.9399 9.12999 86.6799 9.01999 86.4299 8.92999C86.2499 8.86999 86.0599 8.81001 85.8799 8.76001C85.7299 8.71001 85.5699 8.66 85.4099 8.63C85.2199 8.58 85.0299 8.54001 84.8299 8.51001H84.8199C84.5499 8.46001 84.2699 8.41999 83.9899 8.39999C83.7099 8.36999 83.4199 8.36002 83.1399 8.36002C82.8199 8.36002 82.4999 8.38 82.1799 8.41C80.9699 8.53 79.7799 8.88001 78.6799 9.42001C78.5399 9.49001 77.3999 9.97999 77.3999 10.18V4.26001C77.3999 3.49001 77.2099 2.78 76.8399 2.13C76.4599 1.48 75.9399 0.960017 75.2999 0.580017C74.6599 0.200017 73.9399 0 73.1599 0C72.3799 0.03 71.6599 0.230016 71.0199 0.610016C70.3699 0.990016 69.8499 1.50001 69.4799 2.14001C69.0999 2.78001 68.9099 3.47999 68.9099 4.20999V27.25C68.9099 27.69 68.9699 28.11 69.0899 28.5C69.1299 28.66 69.1899 28.82 69.2499 28.96C69.3299 29.15 69.4299 29.34 69.5499 29.52C69.6199 29.64 69.7099 29.76 69.7999 29.87C69.8999 30.01 70.0199 30.14 70.1499 30.27C70.9699 31.09 71.9599 31.5 73.1099 31.5C73.8699 31.5 74.5899 31.32 75.2499 30.96C75.8999 30.59 76.4299 30.08 76.8199 29.42C77.1999 28.77 77.3999 28.05 77.3999 27.29V18.15C77.3999 17.3 77.7099 16.58 78.3199 16.01C78.9099 15.45 79.6299 15.16 80.4499 15.16C81.2499 15.18 81.9399 15.5 82.4999 16.12C83.0399 16.72 83.3199 17.42 83.3199 18.19V27.29C83.3199 28.47 83.7299 29.48 84.5399 30.31C85.3499 31.13 86.3499 31.59 87.5299 31.65C88.7299 31.65 89.7599 31.23 90.5899 30.4C90.6999 30.29 90.7899 30.19 90.8899 30.08C90.4799 29.23 90.2699 28.28 90.2699 27.26V11.67Z" fill="#784726"/>
<path d="M111.61 10.15C110.44 9.38002 109.09 8.84003 107.58 8.56003C106.94 8.41003 106.32 8.34003 105.73 8.34003C104.65 8.34003 103.45 8.56004 102.14 8.98004C101.74 9.12004 101.5 9.20004 101.19 9.20004H100.72V4.37003C100.72 3.59003 100.52 2.85002 100.15 2.21002C99.79 1.55002 99.27 1.03004 98.62 0.630035C97.98 0.250035 97.25 0.0500488 96.47 0.0500488C95.31 0.0800488 94.31 0.500027 93.5 1.34003C92.69 2.17003 92.27 3.18005 92.27 4.33005V27.26C92.27 28.37 92.59 29.32 93.23 30.09C93.3 30.18 93.39 30.28 93.48 30.37C94.15 31.05 95.02 31.56 95.98 31.56C96.09 31.56 96.19 31.56 96.3 31.54C97.61 31.37 98.48 30.11 99.78 29.91C99.89 29.89 100 29.88 100.12 29.88C100.62 29.88 101.15 30.05 101.67 30.27C101.85 30.35 102.02 30.43 102.19 30.51C102.71 30.76 103.23 31.03 103.71 31.23C103.88 31.29 104.04 31.35 104.19 31.39C104.69 31.53 105.2 31.6 105.69 31.64C105.84 31.65 106 31.65 106.15 31.65C108.82 31.65 111.36 30.24 113.22 28.24C113.55 27.88 113.87 27.49 114.16 27.1C114.25 26.98 114.33 26.86 114.41 26.73V12.97C113.66 11.83 112.71 10.89 111.61 10.15ZM109.43 20.97C109.36 21.49 109.15 22.01 108.81 22.5C108.38 23.21 107.79 23.77 107.06 24.14C106.33 24.52 105.54 24.71 104.72 24.71C103.34 24.71 102.17 24.21 101.25 23.24C100.44 22.35 100.04 21.26 100.04 20.02C100.07 19.87 100.1 19.73 100.11 19.64C100.11 19.52 100.13 19.39 100.14 19.18C100.38 18.07 100.91 17.15 101.7 16.47C102.52 15.76 103.52 15.4 104.66 15.4C105.29 15.4 105.95 15.54 106.62 15.81C108.22 16.44 109.18 17.66 109.48 19.47C109.48 20.1 109.47 20.6 109.43 20.97Z" fill="#784726"/>
<path d="M134.77 10.5001C134.7 10.3601 134.62 10.2301 134.53 10.1101C134.42 9.93014 134.28 9.77014 134.13 9.61014C134.03 9.51014 133.92 9.41013 133.81 9.32013C133.79 9.31013 133.77 9.29012 133.75 9.28012C133.63 9.18012 133.5 9.10011 133.37 9.02011C133.23 8.93011 133.09 8.86013 132.94 8.79013C132.87 8.76013 132.81 8.73011 132.74 8.71011C132.73 8.70011 132.72 8.70013 132.71 8.70013C132.58 8.64013 132.44 8.60012 132.31 8.56012C132.23 8.53012 132.15 8.51012 132.08 8.50012C132 8.48012 131.92 8.47013 131.84 8.45013C131.81 8.45013 131.77 8.44012 131.74 8.44012C131.67 8.43012 131.6 8.42013 131.53 8.41013C131.43 8.40013 131.32 8.39014 131.22 8.39014H131.03C129.63 8.39014 128.18 8.87011 127.11 9.77011C126.54 10.2501 126.18 10.9301 125.58 11.3601C125.42 11.4701 125.26 11.5201 125.1 11.5201C125.04 11.5201 124.99 11.5101 124.93 11.5001C124.87 11.4901 124.81 11.4801 124.76 11.4501C124.69 11.4301 124.62 11.4001 124.56 11.3601C124.52 11.3401 124.47 11.3101 124.43 11.2801C124.38 11.2601 124.34 11.2201 124.3 11.1901C124.26 11.1601 124.21 11.1201 124.17 11.0901C124.13 11.0601 124.08 11.0201 124.04 10.9801C123.95 10.9101 123.87 10.8301 123.79 10.7501C123.68 10.6301 123.57 10.5201 123.46 10.4201C123.44 10.3901 123.41 10.3701 123.38 10.3401C123.36 10.3101 123.34 10.2901 123.31 10.2701C123.26 10.2201 123.22 10.1701 123.17 10.1401C122.64 9.71014 122.06 9.33014 121.44 9.05014C121.31 8.99014 121.18 8.95012 121.05 8.90012C120.85 8.84012 120.65 8.79012 120.45 8.75012C120.25 8.72012 120.05 8.70013 119.85 8.70013C119.48 8.70013 119.12 8.77012 118.77 8.90012C118.6 8.97012 118.43 9.06013 118.27 9.16013C118.1 9.27013 117.95 9.39013 117.8 9.54013C117.69 9.64013 117.59 9.75012 117.5 9.87012C117.44 9.94012 117.39 10.0101 117.34 10.0801C117.28 10.1501 117.23 10.2201 117.18 10.3001C117.11 10.4001 117.04 10.5201 116.98 10.6301C116.93 10.7201 116.88 10.8201 116.84 10.9101C116.82 10.9601 116.8 11.0001 116.78 11.0501C116.72 11.1801 116.67 11.3101 116.63 11.4401C116.58 11.5801 116.54 11.7201 116.51 11.8701C116.48 11.9801 116.46 12.1001 116.45 12.2201C116.43 12.2901 116.43 12.3601 116.42 12.4301V12.4601C116.41 12.5701 116.41 12.6501 116.41 12.7601V27.4801C116.41 28.6501 116.83 29.6401 117.66 30.4401C118.49 31.2401 119.51 31.6501 120.68 31.6501C121.43 31.6401 122.14 31.4301 122.78 31.0301C123.43 30.6401 123.95 30.0901 124.32 29.4101C124.7 28.7201 124.9 27.9601 124.9 27.1401V22.8701C124.9 21.2201 125.11 19.6501 126.35 18.4401C126.47 18.3301 126.59 18.2201 126.72 18.1201C126.97 17.9101 127.24 17.7301 127.51 17.5701C127.64 17.5001 127.78 17.4201 127.92 17.3501C129.06 16.7801 130.32 16.4701 131.52 16.0201C131.82 15.0301 132.24 14.0801 132.78 13.1701C133.35 12.2001 134.01 11.3201 134.79 10.5401C134.78 10.5301 134.78 10.5101 134.77 10.5001Z" fill="#784726"/>
<path d="M153.31 12.63C153.31 12.2 153.35 11.77 153.43 11.36C153.39 11.32 153.36 11.29 153.32 11.26C152.23 10.31 150.98 9.56005 149.61 9.05005C148.23 8.54005 146.71 8.28003 145.11 8.28003C142.85 8.28003 140.76 8.81003 138.9 9.87003C138.24 10.24 137.62 10.67 137.06 11.15C136.04 12 135.19 13.02 134.51 14.18C133.9 15.22 133.46 16.32 133.2 17.47C133.01 18.3 132.91 19.17 132.91 20.05C132.93 22.13 133.47 24.09 134.54 25.85C135.6 27.62 137.08 29.04 138.93 30.06C140.78 31.09 142.86 31.61 145.11 31.61C147.36 31.61 149.49 31.07 151.37 30C152.63 29.28 153.72 28.38 154.62 27.31C155.51 26.26 156.19 25.08 156.63 23.82C156.85 23.2 157.01 22.57 157.12 21.93L154.05 15.64C153.56 14.6 153.31 13.59 153.31 12.63ZM149.78 20.97C149.71 21.49 149.5 22.01 149.16 22.5C148.73 23.21 148.14 23.77 147.41 24.14C146.68 24.52 145.89 24.71 145.07 24.71C143.69 24.71 142.52 24.21 141.6 23.24C140.79 22.35 140.39 21.26 140.39 20.02C140.42 19.87 140.44 19.73 140.45 19.64C140.45 19.52 140.47 19.39 140.49 19.18C140.73 18.07 141.25 17.15 142.05 16.47C142.87 15.76 143.87 15.4 145.01 15.4C145.64 15.4 146.29 15.54 146.97 15.81C148.57 16.44 149.53 17.66 149.82 19.47C149.82 20.1 149.81 20.6 149.78 20.97Z" fill="#784726"/>
<path d="M187.61 8.36002C186.99 8.36002 186.39 8.48001 185.83 8.70001C185.27 8.92001 184.77 9.25001 184.34 9.67001C183.92 10.08 183.62 10.54 183.45 11.02L180.3 19.43L177.85 12.21C177.25 10.43 176.29 8.73001 174.3 8.32001C174.12 8.28001 173.94 8.26 173.77 8.25C173.68 8.25 173.59 8.23999 173.51 8.23999C173.47 8.23999 173.43 8.25 173.39 8.25C173.16 8.25 172.94 8.28001 172.73 8.32001C172.69 8.33001 172.65 8.33 172.61 8.34C172.38 8.4 172.15 8.47001 171.94 8.57001C171.71 8.68001 171.49 8.80999 171.29 8.95999C171.09 9.10999 170.9 9.26999 170.72 9.45999C170.55 9.63999 170.38 9.84 170.22 10.06C169.76 10.7 169.39 11.45 169.13 12.22L166.45 19.42L163.53 11.02C163.35 10.53 163.05 10.07 162.63 9.66C162.22 9.25 161.71 8.93001 161.13 8.70001C160.55 8.48001 159.96 8.36002 159.39 8.36002C158.82 8.40002 158.23 8.56002 157.66 8.83002C156.94 9.18002 156.36 9.69 155.94 10.37C155.86 10.51 155.78 10.65 155.72 10.79C155.45 11.36 155.31 11.98 155.31 12.63C155.31 12.96 155.36 13.31 155.45 13.66C155.54 14.02 155.68 14.39 155.86 14.78L156.91 16.94V16.96L159.19 21.61L162.45 28.28C162.98 29.35 163.59 30.12 164.28 30.58C164.95 31.02 165.76 31.25 166.69 31.25C167.22 31.24 167.74 31.12 168.22 30.88C168.71 30.65 169.15 30.33 169.52 29.91C169.89 29.5 170.2 28.98 170.43 28.37L173.56 21.16L176.49 28.38C176.87 29.27 177.4 29.98 178.07 30.47C178.73 30.95 179.48 31.21 180.3 31.25C182.14 31.25 183.55 30.25 184.51 28.29L189.07 18.94V12.72C189.07 11.37 189.43 10.22 190.03 9.29001C189.81 9.11001 189.57 8.96002 189.31 8.83002C188.73 8.56002 188.16 8.40002 187.61 8.36002Z" fill="#784726"/>
<path d="M207.28 8.49005C206.74 8.38005 206.19 8.33008 205.64 8.33008C204.48 8.33008 203.32 8.56006 202.25 9.00006C201.61 9.26006 201.01 9.73008 200.4 10.0801C200.28 10.1501 200.17 10.2101 200.05 10.2601C199.94 10.3201 199.83 10.3701 199.72 10.4101C199.61 10.4501 199.51 10.4801 199.39 10.5101C199.23 10.5501 199.07 10.5701 198.9 10.5701C198.64 10.5701 198.37 10.5201 198.09 10.4001C196.93 9.92005 196.09 8.74006 194.76 8.69006H194.63C194.09 8.69006 193.6 8.81006 193.16 9.03006C192.94 9.14006 192.74 9.28005 192.55 9.43005C192.02 9.86005 191.61 10.4601 191.36 11.1301C191.17 11.6301 191.07 12.1801 191.07 12.7201V27.2101C191.07 28.3801 191.48 29.4101 192.29 30.2501C193.13 31.0501 194.14 31.4601 195.31 31.4601C196.48 31.4601 197.45 31.0601 198.25 30.2601C199.09 29.4201 199.52 28.3901 199.52 27.2101V18.1901C199.52 17.4001 199.82 16.6701 200.41 16.0301C200.97 15.4501 201.68 15.1601 202.51 15.1601C203.34 15.1601 204.06 15.4801 204.58 16.0901C205.18 16.6501 205.48 17.3601 205.48 18.1901V27.2501C205.48 28.4501 205.9 29.4601 206.74 30.2801C207.58 31.0901 208.61 31.5001 209.79 31.5001C210.55 31.4901 211.26 31.2901 211.91 30.9101C212.55 30.5301 213.06 30.0101 213.44 29.3601C213.82 28.7201 214.01 28.0001 214.01 27.2101V16.0501C214.01 12.2701 210.87 9.19005 207.28 8.49005Z" fill="#784726"/>
</svg>
