<svg xmlns="http://www.w3.org/2000/svg" width="160" height="26" viewBox="0 0 160 26"><defs><linearGradient x1="100%" y1="50%" x2="0%" y2="50%" id="linearGradient-1"><stop stop-color="#FF9300" offset="0%"/><stop stop-color="#FFAC2C" offset="100%"/></linearGradient></defs><g id="Assets" stroke="none" stroke-width="1" fill="none" fill-rule="evenodd"><g transform="translate(0 1)" id="logo"><g id="text" transform="translate(35.213 5.635)" fill="black"><path id="Fill-1" d="M29.775 12.746l1.228-10.443h-4.187l.269-2.285h10.627l-.268 2.285h-4.187l-1.229 10.443z"/><path d="M66.816 6.145h3.886c1.044 0 1.993-.858 2.117-1.915.06-.516-.082-1.001-.403-1.366a1.661 1.661 0 00-1.273-.561h-3.874l-.453 3.842zm5 6.601l.135-1.135c.146-1.243-.274-2.405-1.152-3.187h-.073c-.114 0-.209.004-.303.004h-3.876l-.508 4.318h-2.252L65.284.018h6.14c1.1 0 2.086.433 2.775 1.22.696.796 1.006 1.853.874 2.98-.145 1.238-.822 2.41-1.854 3.214l-.04.03.028.04c.82 1.144 1.175 2.599 1 4.097l-.136 1.147h-2.254z" id="Fill-2"/><path d="M58.697 12.746l.134-1.134c.183-1.56-.545-3.004-1.856-3.681-.918.328-1.813.498-2.695.498a4.7 4.7 0 01-.19-.005l-.046-.002-.055.044-.502 4.28h-2.254L52.73.018h2.253l-.718 6.114.14.007c.051.004.103.006.155.006 2.71 0 5.176-2.233 5.499-4.978l.136-1.149h2.253l-.134 1.136C62.074 3.2 60.975 5.167 59.3 6.55l-.046.037.044.04c1.365 1.216 2.016 3.03 1.787 4.973l-.135 1.147h-2.253z" id="Fill-4"/><path id="Fill-6" d="M101.945 12.746L103.442.018h2.253l-1.497 12.728z"/><path d="M108.647.018l-1.472 12.522c-.22 1.87-1.9 3.393-3.747 3.393l-.28 2.284c3.095 0 5.913-2.552 6.283-5.69L110.9.017h-2.254z" id="Fill-8"/><path d="M83.367 2.303c-1.63 0-3.113 1.343-3.308 2.994l-.237 2.015h5.923l.236-2.002c.094-.805-.13-1.563-.627-2.132-.495-.565-1.2-.875-1.987-.875zm1.739 10.443l.371-3.151h-5.922l-.372 3.151H76.93l.874-7.436c.344-2.918 2.964-5.291 5.843-5.291 1.383 0 2.62.544 3.489 1.533.875 1 1.266 2.33 1.1 3.745l-.876 7.45h-2.254z" id="Fill-10"/><path d="M118.656 2.303c-1.63 0-3.113 1.343-3.307 2.994l-.237 2.015h5.923l.235-2.002c.094-.805-.127-1.563-.627-2.132-.494-.565-1.2-.875-1.987-.875zm1.74 10.443l.37-3.151h-5.922l-.372 3.151h-2.253l.874-7.436c.344-2.918 2.965-5.291 5.844-5.291 1.382 0 2.621.544 3.488 1.533.877 1 1.267 2.33 1.1 3.745l-.876 7.45h-2.254z" id="Fill-12"/><path d="M94.902 12.746c-1.393 0-2.637-.549-3.503-1.546-.866-.996-1.25-2.323-1.085-3.732l.253-2.158c.165-1.413.866-2.742 1.97-3.743C93.641.57 95.016.018 96.41.018c1.391 0 2.635.55 3.501 1.546l.701.805-1.789 1.62-.7-.806c-.493-.569-1.201-.88-1.994-.88-.79 0-1.57.311-2.193.877a3.409 3.409 0 00-1.115 2.118l-.253 2.157c-.095.803.125 1.558.62 2.126.492.57 1.2.881 1.993.881.79 0 1.57-.311 2.194-.877l.894-.81 1.4 1.61-.895.81c-1.103 1-2.479 1.551-3.873 1.551" id="Fill-14"/><path d="M44.567 2.303c-.788 0-1.567.312-2.191.876a3.408 3.408 0 00-1.115 2.118l-.254 2.158c-.094.803.125 1.558.619 2.126.494.569 1.203.88 1.995.88.79 0 1.565-.31 2.19-.876a3.406 3.406 0 001.114-2.117l.254-2.158c.094-.803-.126-1.557-.618-2.127-.494-.568-1.205-.88-1.994-.88M43.34 12.746c-1.392 0-2.635-.549-3.502-1.545-.867-.997-1.252-2.321-1.086-3.733l.253-2.158c.167-1.413.866-2.742 1.97-3.742 1.105-1 2.48-1.55 3.874-1.55 1.388 0 2.633.55 3.499 1.546.866.997 1.252 2.322 1.085 3.733l-.252 2.158c-.167 1.415-.867 2.743-1.97 3.74-1.104 1.001-2.477 1.551-3.871 1.551" id="Fill-16"/><path id="Fill-18" d="M14.599 12.746L16.096.018h8.548l-.269 2.285H18.08l-.345 2.939h5.61l-.269 2.281h-5.609l-.346 2.94h6.295l-.27 2.283z"/><path id="Fill-20" d="M3.502 4.295l-.994 8.451H.255L1.772.018h1.947l6.162 8.45.994-8.45h2.233l-1.497 12.728H9.665z"/></g><path d="M14.325 7.856c0 .649-.269 1.233-.698 1.648.58.28 1.16.565 1.737.859 2.187 1.116 4.445 2.27 6.53 2.584 1.184.177 2.759.263 4.398-.89a5.26 5.26 0 00.23-.171c.001-.037.004 4.514-4.553 4.105-.056-.005-.115-.016-.172-.024.161.314.262.667.261 1.046 0 .427-.125.82-.327 1.162 1.068.085 2.54.09 4.165-1.103-.016.13.023 4.26-4.456 4.119-2.07-.068-4.573-1.176-6.994-2.244-3.733-1.65-7.234-3.303-10.47-1.833-.409.185-.793.42-1.156.697-.003-.054.172-5.149 5.34-4.465 1.905.253 4.116 1.305 6.256 2.322.835.396 1.68.795 2.521 1.158a2.019 2.019 0 001.975 1.658c.515 0 .98-.202 1.335-.525.412-.373.676-.91.676-1.513 0-.234-.047-.455-.118-.663v.001a2.006 2.006 0 00-1.893-1.377c-.398 0-.766.12-1.078.322a81.21 81.21 0 01-2.28-1.052c-2.27-1.08-4.618-2.193-6.823-2.486-2.09-.278-3.869.137-5.258 1.189-.006-.05.054-4.978 5.198-4.57.195.017.395.05.596.084.256.83 1.01 1.435 1.912 1.435.45 0 .86-.156 1.195-.41a2.04 2.04 0 00.815-1.63 2.03 2.03 0 00-.087-.56c.001.006.004.01.006.017-.236-.86-1.005-1.496-1.929-1.496-.498 0-.948.19-1.299.494a8.706 8.706 0 00-.74-.101c-2.237-.18-3.43.104-5.01 1.273 0 0-.067-4.816 5.058-4.648 2.123.07 4.649 1.456 7.09 2.797 2.683 1.473 5.25 2.885 7.624 2.841a5.193 5.193 0 003.242-1.21c.01-.06-.294 4.746-4.645 4.098-1.774-.264-3.897-1.35-5.95-2.399a76.854 76.854 0 00-2.311-1.14c.052.192.087.392.087.6zM27.97 0l-.236 1.95h-.02c-.35 1.782-1.453 3.08-2.37 3.519-1.905.911-4.919-.745-7.833-2.346C14.875 1.677 12.15.178 9.554.095 7.48.027 5.665.626 4.303 1.823 3.056 2.92 2.28 4.467 2.06 6.3L0 23.32h2.127l.172-1.418c.29-1.421 1.375-2.391 2.33-2.826 2.203-1 5.52.466 8.726 1.883 2.586 1.144 5.262 2.326 7.718 2.405.16.004.317.006.474.003 1.71-.03 3.14-.542 4.258-1.524 1.233-1.082 1.982-2.654 2.223-4.672L30.097 0H27.97z" id="symbol" fill="url(#linearGradient-1)"/></g></g></svg>
