<?xml version="1.0" encoding="utf-8"?>
<svg width="616.8px" height="654.6px" fill="none" xmlns="http://www.w3.org/2000/svg">
  <g transform="matrix(1, 0, 0, 1, 144.022005, 95.753)">
    <title>Layer 1</title>
    <path id="svg_2" fill="#DD0031" d="M 164.312 -95.753 L 159.62 -94.071 L -133.458 9.429 L -144.022 13.179 L -142.714 24.301 L -97.996 408.131 L -97.216 415.379 L -90.826 418.873 L 157.532 555.097 L 164.312 558.847 L 171.224 555.097 L 419.588 418.873 L 425.846 415.379 L 426.758 408.131 L 471.476 24.301 L 472.778 13.179 L 462.088 9.421 L 169.142 -94.071 L 164.312 -95.753 Z" clip-rule="evenodd" fill-rule="evenodd"/>
    <path id="svg_3" fill="#F9F9F9" d="M 214.982 259.911 C 216.812 259.911 218.504 260.553 219.68 261.849 C 220.982 263.145 221.636 264.827 221.636 266.509 L 235.452 266.509 C 235.452 261.077 233.364 256.029 229.452 252.147 C 225.546 248.265 220.46 246.197 214.982 246.197 C 203.644 246.197 194.512 255.381 194.512 266.509 L 194.512 279.961 L 208.334 279.961 L 208.334 266.509 C 208.202 262.883 211.334 259.911 214.982 259.911 Z" clip-rule="evenodd" fill-rule="evenodd"/>
    <path id="svg_4" fill="#F9F9F9" d="M 60.362 37.143 L -39.634 37.143 L -39.634 50.851 L 68.312 50.851 L 60.362 37.143 Z" clip-rule="evenodd" fill-rule="evenodd"/>
    <path id="svg_5" fill="#F9F9F9" d="M 196.078 158.619 L 159.182 158.619 L 159.968 158.225 L 140.542 124.853 L 124.632 124.853 L 144.322 158.619 L 82.266 158.619 L 82.266 145.939 C 82.266 144.125 82.914 142.443 84.222 141.285 C 85.524 139.989 87.214 139.341 88.912 139.341 C 90.736 139.341 92.434 139.989 93.604 141.285 C 94.912 142.573 95.56 144.257 95.56 145.939 L 109.382 145.939 C 109.382 140.499 107.294 135.465 103.384 131.577 C 99.604 127.695 94.39 125.627 88.912 125.627 C 83.436 125.627 78.354 127.695 74.442 131.577 C 70.53 135.465 68.444 140.499 68.444 145.939 L 68.444 158.619 L 19.29 158.619 L 19.29 145.939 C 19.29 142.311 22.29 139.341 25.944 139.341 C 29.592 139.341 32.592 142.311 32.592 145.939 L 46.408 145.939 C 46.408 134.679 37.15 125.627 25.944 125.627 C 14.6 125.627 5.474 134.817 5.474 145.939 L 5.474 158.619 L -12.908 158.619 L -12.908 124.853 L -26.73 124.853 L -26.73 158.619 L -39.634 158.619 L -39.634 172.325 L 204.034 172.325 L 196.078 158.619 Z" clip-rule="evenodd" fill-rule="evenodd"/>
    <path id="svg_6" fill="#F9F9F9" d="M 128.544 97.943 L 92.56 97.943 L 73.398 64.827 L 57.494 64.827 L 76.656 97.943 L -12.908 97.943 L -12.908 64.827 L -26.73 64.827 L -26.73 97.943 L -39.634 97.943 L -39.634 111.527 L 136.368 111.527 L 128.544 97.943 Z" clip-rule="evenodd" fill-rule="evenodd"/>
    <path id="svg_7" fill="#F9F9F9" d="M 257.746 219.293 L 226.584 219.293 L 226.98 219.031 L 207.554 185.653 L 191.644 185.653 L 211.202 219.161 L 145.234 219.161 L 145.234 205.709 C 145.234 203.897 145.888 202.215 147.19 201.049 C 148.492 199.753 150.19 199.105 151.882 199.105 C 153.706 199.105 155.404 199.753 156.578 201.049 C 157.88 202.339 158.528 204.021 158.528 205.709 L 172.352 205.709 C 172.352 200.271 170.264 195.223 166.352 191.349 C 162.44 187.467 157.358 185.397 151.882 185.397 C 146.404 185.397 141.322 187.467 137.412 191.349 C 133.5 195.223 131.412 200.271 131.412 205.709 L 131.412 219.161 L 82.266 219.161 L 82.266 205.709 C 82.266 203.897 82.914 202.215 84.222 201.049 C 85.524 199.753 87.214 199.105 88.912 199.105 C 92.56 199.105 95.56 202.083 95.56 205.709 L 109.382 205.709 C 109.382 194.451 100.126 185.397 88.912 185.397 C 83.436 185.397 78.354 187.467 74.442 191.349 C 70.53 195.223 68.444 200.271 68.444 205.709 L 68.444 219.161 L 19.29 219.161 L 19.29 205.709 C 19.29 202.083 22.29 199.105 25.944 199.105 C 29.592 199.105 32.592 202.083 32.592 205.709 L 46.408 205.709 C 46.408 194.451 37.15 185.397 25.944 185.397 C 14.6 185.397 5.474 194.581 5.474 205.709 L 5.474 219.161 L -12.908 219.161 L -12.908 186.301 L -26.73 186.301 L -26.73 219.293 L -39.634 219.293 L -39.634 233.001 L 265.832 233.001 L 257.746 219.293 Z" clip-rule="evenodd" fill-rule="evenodd"/>
    <path id="svg_8" fill="#F9F9F9" d="M 373.13 172.325 L 373.13 158.619 L 212.378 158.619 L 220.328 172.325 L 373.13 172.325 Z" clip-rule="evenodd" fill-rule="evenodd"/>
    <path id="svg_9" fill="#F9F9F9" d="M 346.402 186.301 L 346.402 219.293 L 273.914 219.293 L 281.868 233.001 L 373.13 233.001 L 373.13 219.293 L 360.094 219.293 L 360.094 186.301 L 346.402 186.301 Z" clip-rule="evenodd" fill-rule="evenodd"/>
    <path id="svg_10" fill="#F9F9F9" d="M 360.094 280.093 L 360.094 246.975 L 346.27 246.975 L 346.27 279.961 L 290.208 279.961 L 271.436 247.749 L 255.532 247.749 L 274.304 279.961 L 145.234 279.961 L 145.234 266.509 C 145.234 264.695 145.888 263.013 147.19 261.849 C 148.492 260.553 150.19 259.905 151.882 259.905 C 153.712 259.905 155.404 260.553 156.578 261.849 C 157.88 263.145 158.534 264.827 158.534 266.509 L 172.352 266.509 C 172.352 261.077 170.264 256.029 166.358 252.147 C 162.446 248.265 157.358 246.197 151.882 246.197 C 146.41 246.197 141.322 248.265 137.412 252.147 C 133.5 256.029 131.412 261.077 131.412 266.509 L 131.412 279.961 L 82.266 279.961 L 82.266 266.509 C 82.266 264.695 82.914 263.013 84.222 261.849 C 85.524 260.553 87.214 259.905 88.912 259.905 C 92.56 259.905 95.56 262.883 95.56 266.509 L 109.382 266.509 C 109.382 255.251 100.126 246.197 88.912 246.197 C 83.436 246.197 78.354 248.265 74.442 252.147 C 70.53 256.029 68.444 261.077 68.444 266.509 L 68.444 279.961 L 19.29 279.961 L 19.29 266.509 C 19.29 262.883 22.29 259.905 25.944 259.905 C 27.768 259.905 29.46 260.553 30.636 261.849 C 31.938 263.145 32.592 264.827 32.592 266.509 L 46.414 266.509 C 46.414 261.077 44.326 256.029 40.414 252.147 C 36.502 248.265 31.416 246.197 25.944 246.197 C 14.6 246.197 5.474 255.381 5.474 266.509 L 5.474 279.961 L -13.304 279.961 L -13.304 247.879 L -27.12 247.879 L -27.12 280.093 L -84.484 280.093 L -82.92 293.807 L 411.586 293.807 L 413.15 280.093 L 360.094 280.093 Z" clip-rule="evenodd" fill-rule="evenodd"/>
    <path id="svg_11" fill="#F9F9F9" d="M 55.142 314.243 L 55.142 466.901 L 68.834 474.527 L 68.834 314.243 L 55.142 314.243 Z" clip-rule="evenodd" fill-rule="evenodd"/>
    <path id="svg_12" fill="#F9F9F9" d="M 89.17 314.243 L 89.17 485.657 L 102.994 493.165 L 102.994 314.243 L 89.17 314.243 Z" clip-rule="evenodd" fill-rule="evenodd"/>
    <path id="svg_13" fill="#F9F9F9" d="M 20.988 314.243 L 20.988 448.141 L 34.806 455.773 L 34.806 314.243 L 20.988 314.243 Z" clip-rule="evenodd" fill-rule="evenodd"/>
    <path id="svg_14" fill="#F9F9F9" d="M -13.04 314.243 L -13.04 429.511 L 0.652 437.019 L 0.652 314.243 L -13.04 314.243 Z" clip-rule="evenodd" fill-rule="evenodd"/>
    <path id="svg_15" fill="#F9F9F9" d="M -80.574 314.243 L -70.794 397.815 L -67.536 399.629 L -67.536 314.243 L -80.574 314.243 Z" clip-rule="evenodd" fill-rule="evenodd"/>
    <path id="svg_16" fill="#F9F9F9" d="M 157.358 314.243 L 157.358 523.041 L 164.396 526.791 L 171.176 523.041 L 171.176 314.243 L 157.358 314.243 Z" clip-rule="evenodd" fill-rule="evenodd"/>
    <path id="svg_17" fill="#F9F9F9" d="M -47.2 314.243 L -47.2 410.757 L -33.376 418.389 L -33.376 314.243 L -47.2 314.243 Z" clip-rule="evenodd" fill-rule="evenodd"/>
    <path id="svg_18" fill="#F9F9F9" d="M 123.33 314.243 L 123.33 504.287 L 137.154 511.919 L 137.154 314.243 L 123.33 314.243 Z" clip-rule="evenodd" fill-rule="evenodd"/>
    <path id="svg_19" fill="#F9F9F9" d="M 362.042 314.243 L 362.042 418.389 L 375.866 410.757 L 375.866 314.243 L 362.042 314.243 Z" clip-rule="evenodd" fill-rule="evenodd"/>
    <path id="svg_20" fill="#F9F9F9" d="M 191.518 314.243 L 191.518 511.919 L 205.336 504.417 L 205.336 314.243 L 191.518 314.243 Z" clip-rule="evenodd" fill-rule="evenodd"/>
    <path id="svg_21" fill="#F9F9F9" d="M 327.888 314.243 L 327.888 437.019 L 341.706 429.511 L 341.706 314.243 L 327.888 314.243 Z" clip-rule="evenodd" fill-rule="evenodd"/>
    <path id="svg_22" fill="#F9F9F9" d="M 396.07 314.243 L 396.07 399.629 L 399.46 397.815 L 409.24 314.243 L 396.07 314.243 Z" clip-rule="evenodd" fill-rule="evenodd"/>
    <path id="svg_23" fill="#F9F9F9" d="M 293.86 314.243 L 293.86 455.773 L 307.678 448.265 L 307.678 314.243 L 293.86 314.243 Z" clip-rule="evenodd" fill-rule="evenodd"/>
    <path id="svg_24" fill="#F9F9F9" d="M 225.672 314.243 L 225.672 493.165 L 239.364 485.657 L 239.364 314.243 L 225.672 314.243 Z" clip-rule="evenodd" fill-rule="evenodd"/>
    <path id="svg_25" fill="#F9F9F9" d="M 259.7 314.243 L 259.7 474.527 L 273.524 466.901 L 273.524 314.243 L 259.7 314.243 Z" clip-rule="evenodd" fill-rule="evenodd"/>
  </g>
</svg>