<svg width="912" height="978" xmlns="http://www.w3.org/2000/svg" version="1.1">
 <!-- Generator: Sketch 51.1 (57501) - http://www.bohemiancoding.com/sketch -->
 <title>badge</title>
 <desc>Created with Sketch.</desc>

 <g>
  <title>Layer 1</title>
  <g fill-rule="evenodd" fill="none" id="badge">
   <polygon points="456.9625244140625,0 0,158.6195068359375 65.41900634765625,764.8635864257812 456.9625244140625,978.1475219726562 " fill="#412846" id="Path-2"/>
   <polygon points="455,0 911.9625244140625,158.6195068359375 846.5435180664062,764.8635864257812 455,978.1475219726562 " fill="#4B314F" id="Path-2"/>
   <path fill="#BA2BD2" id="Combined-Shape" d="m683.74804,334.71231l-0.0817,-0.25936c20.86507,23.22279 31.58231,50.798 32.15174,82.72563c0.56942,31.92763 -10.14783,65.60697 -32.39872,100.93512c16.62986,-12.92747 35.83468,-40.83313 57.55139,-83.39271c9.38174,86.25251 -25.47434,151.76783 -104.89399,196.63728c25.35641,-2.33828 59.02146,-19.03217 100.77561,-50.13997c-44.55717,107.27402 -126.48412,163.87315 -245.78087,169.7974c-115.29243,-0.03087 -189.98099,-69.31507 -189.92215,-69.27108c-47.40035,-36.8912 -80.01306,-83.38861 -97.72869,-139.28343c-28.34931,-30.95972 -28.63197,-34.27978 -31.55626,-46.65098c-2.92429,-12.3712 1.84719,-15.82717 10.15182,-27.93253c5.53643,-8.07023 6.84107,-19.67934 3.99653,-34.62002c-7.05774,-9.78765 -11.12211,-25.11679 -12.19311,-45.98743c0,-10.08608 6.7313,-20.72786 20.19389,-31.92534c13.46259,-11.19748 21.72206,-19.80913 24.71435,-25.73817c2.28226,-3.23244 3.16403,-17.24582 2.64532,-42.04015c-0.13936,-24.35291 13.38212,-37.60225 40.56443,-39.74803c40.77347,-3.21866 63.76836,-33.88401 76.57863,-47.82969c8.54018,-9.29713 21.17893,-13.81591 37.12045,-13.90281c22.44299,-1.05194 42.86327,7.55113 60.45474,25.30496c43.81458,-2.26625 88.69541,9.54982 134.17081,35.14806c64.62419,38.38846 99.89288,79.96094 105.80608,124.5078c-6.92682,58.62527 -85.67943,57.09268 -235.91033,-4.61197c-78.61716,22.26885 -117.26755,70.52504 -115.98363,144.76857c-0.05374,68.12821 32.91954,117.63415 98.69307,148.46787c-32.05798,-31.4737 -45.71059,-57.92736 -41.11289,-79.83542c66.6795,78.96665 142.63267,108.48167 227.72664,88.55117c-37.51631,1.30983 -67.23276,-10.76188 -89.59776,-36.39649c57.51736,-1.3979 111.81441,-28.09813 162.94506,-80.37232c-29.51576,23.48733 -60.40115,32.38121 -93.10161,26.78672c88.56753,-69.63118 119.90791,-150.86207 94.02115,-243.69268zm-160.74804,-10.71231c7.1797,0 13,-5.8203 13,-13c0,-7.1797 -5.8203,-13 -13,-13c-7.1797,0 -13,5.8203 -13,13c0,7.1797 5.8203,13 13,13z"/>
  </g>
 </g>
</svg>