<svg width="1327" height="368" viewBox="0 0 1327 368" fill="none" xmlns="http://www.w3.org/2000/svg">
<path d="M348 61.2883L335.434 258.206L215.289 0L348 61.2883ZM264.783 315.913L174.001 367.606L83.2167 315.913L88.3486 285.785H259.657L264.783 315.913ZM12.4376 258.206L0 61.2883L132.711 0L12.4376 258.206Z" fill="url(#paint0_radial_952_16)"/>
<path fill-rule="evenodd" clip-rule="evenodd" d="M261.857 158.738L261.845 158.828C256.685 190.315 236.731 210.22 201.982 218.545C210.575 224.853 220.611 226.562 232.229 223.703C210.534 232.127 191.395 232.44 174.758 224.713C177.684 235.563 184.548 243.389 195.454 248.31C168.424 242.231 150.698 222.629 142.317 189.52C138.038 195.435 138.362 205.296 143.27 219.269C128.634 200.713 125.905 181.206 135.14 160.797C144.82 138.365 162.402 129.377 187.897 133.837C222.506 173.605 244.818 185.218 254.732 168.629C259.069 154.441 254.61 136.988 241.325 116.33C231.786 102.219 220.551 92.3211 207.715 86.7954C205.087 78.9832 200.412 73.5127 193.852 70.6499C189.282 68.4181 185.056 67.9823 181.356 69.5592C180.755 69.8181 180.156 70.0825 179.559 70.3525C173.669 72.994 163.883 77.3818 152.986 73.0481C144.922 69.8414 139.263 71.8974 136.007 79.2153C132.8 86.7194 130.652 90.7942 129.562 91.4398C127.904 92.793 124.377 94.2042 119.011 95.6531C113.647 97.1023 110.282 99.3384 108.917 102.361C106.398 108.768 105.486 113.937 106.18 117.87C104.971 122.75 103.027 126.045 100.352 127.679C99.7652 128.036 99.1738 128.385 98.5783 128.725C95.7751 130.345 94.3722 131.155 93.6694 134.613L93.6121 134.894C92.8168 138.789 92.5535 140.077 96.3801 153.063C93.8819 172.323 96.9151 190.877 105.477 208.646C105.466 208.624 117.448 239.966 150.412 256.303C185.327 271.423 216.414 266.064 243.672 240.225C227.522 243.634 215.637 243.869 208.069 240.979C236.852 238.78 255.685 224.082 264.674 196.904C252.705 206.583 243.437 212.226 236.932 213.745C248.075 206.309 255.698 197.733 259.856 188.084C264.014 178.435 264.68 168.653 261.857 158.738ZM217.922 118.757C215.293 122.312 211.798 130.588 218.853 135.243C225.908 139.899 222.764 134.071 220.311 130.575C217.857 127.08 217.922 118.757 217.922 118.757Z" fill="url(#paint1_radial_952_16)"/>
<path d="M1104.17 292.001L1195.97 164.501L1195.67 206.801L1107.47 82.0008H1174.37L1230.77 163.301L1202.27 163.601L1257.77 82.0008H1321.97L1233.77 204.401V162.401L1326.77 292.001H1258.37L1201.07 206.501H1228.37L1171.97 292.001H1104.17Z" fill="url(#paint2_linear_952_16)"/>
<path d="M909.559 292.001V82.0008H1003.46C1034.06 82.0008 1057.56 89.0008 1073.96 103.001C1090.56 116.801 1098.86 135.701 1098.86 159.701C1098.86 175.501 1095.06 189.201 1087.46 200.801C1079.86 212.201 1069.06 221.001 1055.06 227.201C1041.26 233.201 1024.76 236.201 1005.56 236.201H942.559L968.959 211.301V292.001H909.559ZM1039.46 292.001L987.259 215.501H1050.56L1103.06 292.001H1039.46ZM968.959 217.601L942.559 190.301H1001.96C1014.36 190.301 1023.56 187.601 1029.56 182.201C1035.76 176.801 1038.86 169.301 1038.86 159.701C1038.86 149.901 1035.76 142.301 1029.56 136.901C1023.56 131.501 1014.36 128.801 1001.96 128.801H942.559L968.959 101.501V217.601Z" fill="url(#paint3_linear_952_16)"/>
<path d="M783.699 296.201C767.099 296.201 751.699 293.601 737.499 288.401C723.299 283.001 710.999 275.401 700.599 265.601C690.399 255.801 682.399 244.301 676.599 231.101C670.799 217.701 667.899 203.001 667.899 187.001C667.899 171.001 670.799 156.401 676.599 143.201C682.399 129.801 690.499 118.201 700.899 108.401C711.299 98.6008 723.599 91.1008 737.799 85.9008C752.199 80.5008 767.899 77.8008 784.899 77.8008C804.699 77.8008 822.399 81.1008 837.999 87.7008C853.599 94.3008 866.499 103.801 876.699 116.201L838.899 150.401C831.699 142.601 823.899 136.801 815.499 133.001C807.299 129.001 798.099 127.001 787.899 127.001C778.899 127.001 770.699 128.401 763.299 131.201C755.899 134.001 749.599 138.101 744.399 143.501C739.199 148.701 735.099 155.001 732.099 162.401C729.299 169.601 727.899 177.801 727.899 187.001C727.899 195.801 729.299 203.901 732.099 211.301C735.099 218.701 739.199 225.101 744.399 230.501C749.599 235.701 755.799 239.801 762.999 242.801C770.399 245.601 778.499 247.001 787.299 247.001C796.099 247.001 804.699 245.601 813.099 242.801C821.499 239.801 829.999 234.801 838.599 227.801L871.899 269.501C859.899 278.101 845.999 284.701 830.199 289.301C814.399 293.901 798.899 296.201 783.699 296.201ZM871.899 269.501L819.399 261.701V182.501H871.899V269.501Z" fill="url(#paint4_linear_952_16)"/>
<path d="M437 292.001V82.0008H485.9L601.7 221.801H578.6V82.0008H636.8V292.001H587.9L472.1 152.201H495.2V292.001H437Z" fill="url(#paint5_linear_952_16)"/>
<defs>
<radialGradient id="paint0_radial_952_16" cx="0" cy="0" r="1" gradientUnits="userSpaceOnUse" gradientTransform="translate(174.191 168.056) rotate(90) scale(199.355 188.723)">
<stop stop-color="#AA1BB6"/>
<stop offset="1" stop-color="#452070"/>
</radialGradient>
<radialGradient id="paint1_radial_952_16" cx="0" cy="0" r="1" gradientTransform="matrix(119.999 62.8371 -53.5423 112.149 178.893 178.22)" gradientUnits="userSpaceOnUse">
<stop offset="0.271" stop-color="#B1219B"/>
<stop offset="1" stop-color="#5306A1"/>
</radialGradient>
<linearGradient id="paint2_linear_952_16" x1="437" y1="187" x2="1327" y2="187" gradientUnits="userSpaceOnUse">
<stop stop-color="#AA1BB6"/>
<stop offset="1" stop-color="#452070"/>
</linearGradient>
<linearGradient id="paint3_linear_952_16" x1="437" y1="187" x2="1327" y2="187" gradientUnits="userSpaceOnUse">
<stop stop-color="#AA1BB6"/>
<stop offset="1" stop-color="#452070"/>
</linearGradient>
<linearGradient id="paint4_linear_952_16" x1="437" y1="187" x2="1327" y2="187" gradientUnits="userSpaceOnUse">
<stop stop-color="#AA1BB6"/>
<stop offset="1" stop-color="#452070"/>
</linearGradient>
<linearGradient id="paint5_linear_952_16" x1="437" y1="187" x2="1327" y2="187" gradientUnits="userSpaceOnUse">
<stop stop-color="#AA1BB6"/>
<stop offset="1" stop-color="#452070"/>
</linearGradient>
</defs>
</svg>
