<svg width="512" height="318" xmlns="http://www.w3.org/2000/svg" version="1.1">

 <g>
  <title>Layer 1</title>
  <path id="svg_1" d="m255.68709,204.6397l-64.9392,-101.50786l-0.0978,85.28776l-111.91693,-188.4196l-78.73316,0l0,318.08283l78.10705,0l0,-188.18485l110.76252,179.75188l66.81752,-105.01016zm-64.91962,-122.87381l77.93096,0l0,-81.76589l-77.8527,0l-0.07826,81.76589zm234.26244,106.94717c-22.74225,-29.85934 -65.59598,-22.79925 -78.34183,9.74384c32.40271,-38.77689 58.42984,-2.9213 78.34183,-9.74384zm8.43289,4.16754c3.68744,6.08454 10.95956,8.99018 17.82455,7.12201c10.5069,-2.25009 9.78293,7.68939 25.65088,11.05472c0.51441,-12.49203 -3.62881,-13.77884 -15.96576,-18.48978c-12.38339,-3.77996 -21.75811,-9.28128 -27.39224,-20.17242c-18.45187,-35.37509 -74.1463,-21.54248 -85.4834,12.20911c22.25757,-29.81568 67.85056,-27.63158 85.36597,8.27636zm-132.14804,-52.3779l-32.81201,-51.5757l-77.73528,-0.00003l73.86125,115.6736l-72.08075,113.48224l75.50479,0l32.85111,-50.46048l33.43814,50.46048l75.52432,0l-68.48062,-107.76898c-6.81479,-11.10071 4.56018,-42.35941 23.78147,-54.63798c22.7214,-14.51442 59.24359,-15.83469 75.69155,18.32368c13.52002,17.60931 40.52097,9.90033 40.52097,32.8707c1.07056,20.18618 30.23965,19.55645 30.19015,-0.90003c-1.79736,-117.27328 -147.22171,-159.36264 -210.25509,-65.4675zm196.6568,104.34494c0,0 -6.1828,-3.01315 -2.42615,-8.78509c4.16751,-6.4372 12.40475,-5.6937 16.10272,-13.63742c1.94409,10.91748 -4.3826,26.27295 -13.67657,22.42251z" fill="white"/>
 </g>
</svg>
