<svg viewBox="0 0 289 82" xmlns="http://www.w3.org/2000/svg" id="offering_solutions_logo" preserveAspectRatio="xMinYMid meet">
<path d="m39.902 80.979c-10.66 0-21.317-0.0026-31.977 0.0025-2.5377 0-4.6558-0.8707-6.2521-2.9025-0.91838-1.1712-1.54-2.4581-1.6014-3.9735-0.015349-0.3853-0.04093-0.7706-0.04093-1.1559-0.0025582-6.2082-0.0025582-12.416 0-18.625 0-0.2569 0-0.5137 0.015349-0.7706 0.025582-0.5137 0.2993-0.7783 0.81349-0.786 0.38373-0.0051 0.76745-0.0051 1.1512-0.0051 14.497 0 28.992-0.0026 43.489 0.0025 1.2867 0 2.5633-0.0308 3.7707-0.5342 0.6242-0.262 1.2433-0.5446 1.8393-0.8605 1.3891-0.7372 1.2714-3.0309 0.1458-3.7142-0.5423-0.3287-1.1025-0.7217-1.7011-0.8347-1.3763-0.2569-2.7756-0.4778-4.1724-0.5035-3.7502-0.0668-7.5031-0.0411-11.256-0.0154-2.6528 0.018-5.303-0.131-7.8382-0.9093-5.1061-1.5668-9.2579-4.3614-11.161-9.6578-0.683-1.9008-0.8493-3.9068-0.6191-5.9463 0.5321-4.6902 3.167-7.8983 7.0528-10.249 2.7117-1.6413 5.674-2.512 8.8052-2.7946 1.6935-0.1541 3.3998-0.2491 5.101-0.2517 10.317-0.0231 20.637-0.0103 30.954-0.0128 1.1972 0 1.7941-0.6182 1.7907-1.8546 0-0.2568 0.0077-0.5137-0.0077-0.7705-0.0639-1.0891-0.5525-1.7672-1.6039-2.0498-0.5244-0.1412-1.0924-0.1566-1.6424-0.1566-16.756-0.0077-33.512-0.0052-50.268-0.0052-0.2993 0-0.5986-0.0102-0.8953 0.0103-1.3558 0.0925-2.1054 0.768-2.3049 2.1268-0.0691 0.4623-0.0512 0.9401-0.0512 1.4101v32.626c0 0.2568 0.0051 0.5137 0 0.7705-0.0281 1.1585-0.1714 1.3177-1.3558 1.3229-2.9419 0.0128-5.8838 0.0128-8.8256 0-1.1333-0.0052-1.2688-0.1696-1.2561-1.2432 0.017907-1.7544 0.02814-3.5113 0.02814-5.2656 0-11.69 0-23.379 0.0051163-35.066 0-1.2817 0.030698-2.5454 0.62163-3.7578 1.407-2.8896 3.7016-4.3666 6.861-4.5721 0.25582-0.015411 0.51163-0.0051372 0.76745-0.0051372h62.931c1.3277 0 2.6375 0.069351 3.8679 0.65242 3.0366 1.4384 4.6022 3.8477 4.6252 7.2126 0.0307 4.7518 0.0077 9.5062 0.0077 14.258 0 1.5848 0.0102 3.1696-0.0026 4.7519-0.0102 1.1815-0.1381 1.2971-1.3379 1.3331-0.2993 0.0077-0.5961 0-0.8954 0-14.326 0-28.651 0.0077-42.977-0.0103-1.4633 0-2.901 0.0873-4.2722 0.6087-0.6267 0.2389-1.2662 0.5394-1.7855 0.9556-1.4173 1.1327-1.1845 3.09 0.44 3.8913 1.476 0.727 3.0697 1.0249 4.7044 1.0326 4.3054 0.018 8.6133-0.0231 12.919 0.018 3.4331 0.0308 6.7868 0.5394 9.9282 2.0317 3.1619 1.5027 5.7994 3.632 7.4033 6.7991 1.2791 2.5249 1.7472 5.2321 1.3124 8.091-0.6856 4.5027-3.2822 7.5875-7.0427 9.8479-2.6758 1.6079-5.5921 2.4915-8.6849 2.7612-1.6961 0.149-3.3998 0.2594-5.101 0.262-10.317 0.0231-20.637 0.0103-30.954 0.0128-1.8623 0-1.9723 0.1105-1.9288 1.9445 0.0486 2.0754 0.8442 2.8896 2.8856 2.8896 17.055 0.0051 34.108 0.0051 51.163 0 1.9289 0 2.7219-0.7988 2.7219-2.7227 0.0051-11.217 0.0026-22.436 0.0026-33.654 0-1.2603 0.6455-1.8913 1.9365-1.893 2.6426 0 5.2877-0.0051 7.9303 0 1.5298 0.0051 1.6321 0.1027 1.6321 1.5694 0 13.444-0.0333 26.89 0.0205 40.334 0.0179 4.4283-3.3819 8.0499-7.9815 8.0243-10.616-0.0643-21.233-0.0206-31.849-0.0206v-0.0051z" fill="#fff"></path>
<path d="m238.35 16.118c-0.023 0.4469-0.069 0.8938-0.067 1.3408 5e-3 3.6807 0.018 7.3615 0.028 11.042 0 0.3416 0 0.6858-0.02 1.0274-0.031 0.5111-0.31 0.7808-0.824 0.7808-1.363 0-2.729 0.036-4.09-0.0205-0.837-0.0334-1.016-0.298-1.021-1.2894-0.013-3.1234-5e-3 -6.2494-5e-3 -9.3728 0-2.3964-8e-3 -4.7929 5e-3 -7.192 8e-3 -1.3459 0.11-1.4461 1.473-1.4538 2.515-0.0103 5.03 0.018 7.544-0.0154 0.855-0.0103 1.41 0.298 1.901 1.0172 2.791 4.0866 5.628 8.1449 8.452 12.208 0.233 0.3339 0.507 0.637 0.796 0.9966 0.555-0.4495 0.419-0.9478 0.419-1.387 0-3.6808-0.02-7.3616-0.033-11.042 0-0.2569-0.02-0.5137-2e-3 -0.7706 0.056-0.8194 0.186-0.9838 0.997-0.9992 1.32-0.0282 2.643-0.0308 3.963 0.0052 0.831 0.0231 1.01 0.2388 1.082 1.0993 0.026 0.298 0.01 0.5985 0.01 0.899v15.409c0 0.2568 0.01 0.5137-8e-3 0.7706-0.058 0.8322-0.26 1.0634-1.071 1.1276-0.509 0.0411-1.024 0.0154-1.535 0.0154-2.088 0-4.178-0.0231-6.265 0.0103-0.944 0.0154-1.589-0.3288-2.131-1.1225-2.806-4.1303-5.651-8.2349-8.493-12.339-0.225-0.3237-0.553-0.5754-0.832-0.8631-0.092 0.0385-0.181 0.0745-0.273 0.113v0.0052z" fill="#fff"></path>
<path d="m108.32 10.814c2.259 0 4.518-0.0591 6.774 0.0256 1.09 0.0411 2.206 0.2441 3.247 0.5754 1.317 0.4187 2.197 1.3485 2.589 2.7587 0.347 1.2534 0.504 2.5095 0.498 3.7989-7e-3 1.8827 0.057 3.7681-0.028 5.6483-0.053 1.1841-0.245 2.3785-0.506 3.5369-0.341 1.5052-1.377 2.4889-2.832 2.8306-1.359 0.321-2.771 0.5265-4.165 0.5548-3.663 0.0745-7.329 0.0745-10.992 0-1.394-0.0283-2.804-0.2415-4.1675-0.542-1.5912-0.3519-2.6272-1.4666-2.9316-3.054-0.8058-4.1996-0.7777-8.4224-0.0051-12.627 0.2404-1.3074 1.0948-2.2527 2.2844-2.7407 0.9286-0.3802 1.9568-0.6704 2.9518-0.7115 2.425-0.1002 4.856-0.0334 7.286-0.0334v-0.0231l-3e-3 0.0026zm0.077 5.0729v0.0128c-1.53 0-3.062-0.0462-4.589 0.0129-1.579 0.0591-2.356 0.7603-2.474 2.3554-0.118 1.613-0.102 3.2415-0.051 4.8597 0.033 1.0865 0.647 1.8391 1.729 2.1062 0.491 0.1233 1.003 0.2081 1.507 0.2184 2.041 0.0411 4.083 0.0539 6.124 0.0565 0.809 0 1.62-0.0052 2.42-0.0951 1.553-0.1746 2.129-0.7782 2.446-2.3168 0.345-1.6645 0.199-3.316-0.064-4.9625-0.259-1.6131-0.913-2.1884-2.581-2.2398-1.487-0.0462-2.975-0.0103-4.462-0.0103l-5e-3 0.0026z" fill="#fff"></path>
<path d="m275.41 10.78c1.492 0 2.983 0.0128 4.474-0.0026 1.502-0.0154 2.963 0.2414 4.421 0.5779 1.829 0.4238 2.901 1.5514 3.246 3.3597 0.136 0.7064 0.108 1.4461 0.126 2.173 0.012 0.4983-0.215 0.8143-0.76 0.8117-1.364-0.0026-2.727-0.0026-4.091 0-0.537 0-0.89-0.244-1.028-0.7757-0.223-0.8579-0.885-1.1122-1.65-1.1507-1.32-0.0642-2.64-0.113-3.96-0.1105-1.747 0.0026-3.497 0.0026-5.239 0.1105-1.778 0.1104-2.246 0.6806-2.477 2.4684-0.225 1.7543-0.158 3.4984 0.034 5.245 0.189 1.7158 0.739 2.2141 2.466 2.2655 2.213 0.0642 4.425 0.1361 6.638 0.1515 0.975 0.0077 1.955-0.095 2.929-0.1952 0.901-0.0924 1.379-0.5419 1.499-1.3125 0.141-0.8887-0.066-1.1661-0.99-1.1764-1.747-0.0206-3.494 0-5.241-0.0129-1.292-0.0102-1.379-0.1078-1.4-1.3896-5e-3 -0.3416-5e-3 -0.6858 0-1.0274 0.021-1.292 0.169-1.4538 1.505-1.4589 3.494-0.0129 6.988-0.0103 10.483 0 1.233 0.0025 1.345 0.1053 1.338 1.2997-8e-3 1.6695-0.049 3.3365-0.092 5.0061-0.067 2.5223-2.167 4.2022-4.096 4.5207-4.124 0.6807-8.247 0.3904-12.369 0.4058-1.519 0.0052-3.046-0.2491-4.556-0.4829-2.535-0.393-3.809-2.0856-3.934-4.3717-0.179-3.2415-0.095-6.501-0.015-9.7503 0.028-1.1533 0.514-2.2449 1.233-3.185 0.537-0.7012 1.233-1.2201 2.1-1.3665 1.466-0.2466 2.942-0.4906 4.423-0.5805 1.655-0.0976 3.323-0.0231 4.983-0.0231v-0.0231z" fill="#fff"></path>
<path d="m216.29 22.96c1.642 0.3852 2.175 1.4743 2.292 2.7791 0.108 1.1893 0.064 2.394 0.082 3.5935 8e-3 0.6267-0.309 0.9658-0.931 0.9709-1.323 0.0103-2.645 0.036-3.963-0.0154-0.726-0.0283-0.933-0.3057-0.982-1.0788-0.044-0.7269-0.01-1.4564-0.074-2.1807-0.077-0.8913-0.351-1.2047-1.213-1.4153-0.409-0.1002-0.841-0.1387-1.263-0.1413-2.602-0.0154-5.201-0.0231-7.803-0.0128-1.207 0.0051-1.399 0.2106-1.425 1.4255-0.015 0.7269 0.013 1.4564-7e-3 2.1833-0.029 0.9427-0.215 1.197-1.09 1.2278-1.32 0.0462-2.643 0.0128-3.965 0.0077-0.566-0.0026-0.87-0.2902-0.873-0.8707 0-0.2569-0.01-0.5138-0.01-0.7706v-15.928c0-0.2132-8e-3 -0.429 5e-3 -0.6422 0.056-0.917 0.172-1.0403 1.044-1.1045 0.212-0.0154 0.427-0.0077 0.639-0.0077 5.414 0 10.829-0.0128 16.242 0.0129 0.929 0.0051 1.87 0.1078 2.783 0.2876 1.471 0.2903 2.436 1.2381 2.781 2.6893 0.481 2.0215 0.422 4.0815 0.097 6.1184-0.151 0.9452-0.662 1.7543-1.547 2.2526-0.218 0.1233-0.404 0.3031-0.814 0.6165l-5e-3 0.0026zm-9.626-7.0405v-0.0514c-1.533 0-3.065-0.018-4.597 0.0077-0.898 0.0154-1.026 0.1567-1.054 1.0531-0.026 0.768-0.021 1.5386 0 2.3092 0.028 1.179 0.166 1.3254 1.348 1.3228 2.768 0 5.536-0.0103 8.301-0.0462 1.822-0.0257 2.354-0.6011 2.328-2.4094-2e-3 -0.2131-0.015-0.4289-0.051-0.6395-0.184-1.1071-0.565-1.5026-1.676-1.536-1.529-0.0463-3.064-0.0103-4.597-0.0103h-2e-3z" fill="#fff"></path>
<path d="m181.51 30.319h-8.82c-0.384 0-0.77 0.0052-1.149-0.0462-0.473-0.0642-0.778-0.3288-0.78-0.8502 0-0.2569-0.01-0.5137-0.01-0.7706v-15.92c0-0.2569 7e-3 -0.5137 0.01-0.7706 0-0.6241 0.309-0.9529 0.934-0.9683 0.299-0.0077 0.596-0.0103 0.895-0.0103h17.388c0.212 0 0.427-0.0052 0.639 0.0026 1.098 0.0411 1.284 0.2029 1.331 1.256 0.03 0.6832 0.03 1.369 0 2.0548-0.041 0.9838-0.333 1.2664-1.328 1.3357-0.34 0.0231-0.681 0.0103-1.023 0.0103-3.879 0-7.757-0.0052-11.635 0.0026-1.164 0.0025-1.415 0.208-1.491 1.1096-0.11 1.2766 0.074 1.4872 1.391 1.4897 3.794 0.0078 7.585 0 11.379 0 0.299 0 0.599-0.0154 0.895 0.0078 0.775 0.0565 0.972 0.2234 1.021 1.0145 0.046 0.768 0.046 1.5412 5e-3 2.3092-0.038 0.7397-0.284 0.9555-1.036 1.0248-0.297 0.0283-0.596 0.0103-0.895 0.0103h-10.867c-0.3 0-0.599-0.0128-0.896 0.0077-0.209 0.0154-0.455 0.0154-0.614 0.1285-0.706 0.4983-0.301 1.2534-0.376 1.8956-0.056 0.4829 0.167 0.8476 0.678 0.9221 0.376 0.0565 0.763 0.0668 1.146 0.0668 3.878 0.0051 7.757 0.0025 11.635 0.0025 0.34 0 0.683-0.0077 1.023 0.0052 0.942 0.0411 1.044 0.1258 1.067 1.0248 0.023 0.8117 0.02 1.6259 0 2.4402-0.028 1.0608-0.143 1.1687-1.185 1.2098-0.296 0.0128-0.596 0.0051-0.895 0.0051h-8.437z" fill="#fff"></path>
<path d="m158.04 10.98h8.304c0.34 0 0.683 0 1.021 0.0334 0.494 0.0462 0.785 0.3314 0.793 0.8322 0.018 0.9401 0.026 1.8828 5e-3 2.8229-0.013 0.5676-0.417 0.8245-0.911 0.9118-0.373 0.0642-0.762 0.0565-1.146 0.0565-3.535 0.0026-7.07 0-10.603 0.0026-0.341 0-0.681 0.0026-1.021 0.0231-0.402 0.0231-0.611 0.2569-0.647 0.655-8e-3 0.0848-0.016 0.1695-0.016 0.2569 0.052 2.4427-0.46 2.6148 2.4 2.6328 3.108 0.0205 6.219 0.0051 9.327 0.0051 0.299 0 0.596-0.0026 0.895 0.0077 0.609 0.0257 0.949 0.3288 0.955 0.9581 5e-3 0.7269 0.023 1.4538-3e-3 2.1807-0.041 1.1225-0.235 1.31-1.394 1.3151-3.408 0.0103-6.815 0.0026-10.223 0.0052-1.304 0-1.957 0.6567-1.957 1.97 0 1.1122 0.016 2.2244-5e-3 3.3366-0.02 1.0942-0.212 1.3049-1.245 1.328-1.108 0.0257-2.216 0.0257-3.321 0-1.08-0.0257-1.3-0.2286-1.302-1.274-0.013-5.6021-0.013-11.207 0-16.809 2e-3 -1.107 0.156-1.2406 1.279-1.2457 2.939-0.0129 5.876-0.0052 8.815-0.0052z" fill="#fff"></path>
<path d="m135.3 10.939h8.816c0.834 0 1.033 0.131 1.069 0.9016 0.044 0.9401 0.018 1.8802 0.013 2.8229-3e-3 0.6293-0.351 0.9323-0.957 0.9606-0.34 0.0154-0.68 0.0128-1.021 0.0128h-10.478c-0.299 0-0.596 0.0026-0.895 0.0026-0.535 0-0.724 0.298-0.78 0.804-0.292 2.5454-0.103 2.7766 2.455 2.7638 3.321-0.0154 6.641-0.0437 9.962-0.0771 0.79-0.0077 1.072 0.2055 1.11 1.0351 0.039 0.8117 0.039 1.6259-5e-3 2.4376-0.051 0.9119-0.233 1.0685-1.205 1.0711-3.451 0.0103-6.899 0.0026-10.35 0.0026-0.299 0-0.596-0.0103-0.896 0-0.908 0.0385-1.043 0.1438-1.061 1.048-0.028 1.3253 0 2.6507-0.01 3.9787-0.011 1.4332-0.174 1.5976-1.635 1.6105-1.023 0.0103-2.044 0.0205-3.067-0.0052-1.016-0.0256-1.19-0.2029-1.226-1.1995-0.023-0.6396-5e-3 -1.2843-5e-3 -1.9238v-13.986c0-0.3006-5e-3 -0.5985 3e-3 -0.899 0.036-1.1893 0.143-1.3126 1.345-1.3177 2.94-0.0129 5.879-0.0052 8.816-0.0052v-0.041l2e-3 0.0025z" fill="#fff"></path>
<path d="m117.67 44.529c0.133-1.4256 0.179-2.8409 0.417-4.2228 0.337-1.9521 1.437-2.8357 3.422-2.9975 4.037-0.3262 8.074-0.2877 12.111 0 2.264 0.1618 3.463 1.4153 3.632 3.6654 0.177 2.3476 0.19 4.685 0.018 7.0353-0.153 2.1011-1.235 3.6268-3.389 3.7707-2.837 0.1875-5.672 0.5162-8.527 0.226-1.435-0.1464-2.893-0.1156-4.32-0.3005-1.789-0.2338-2.64-1.0557-2.94-2.8614-0.238-1.4256-0.291-2.882-0.424-4.3178v0.0026zm15.233 0.1156h-0.012c0-0.6396 0.038-1.2818-8e-3 -1.9188-0.077-1.0557-0.537-1.5899-1.591-1.613-2.456-0.054-4.914-0.0231-7.373-0.0077-0.834 0.0051-1.402 0.4392-1.489 1.2817-0.122 1.1815-0.235 2.3759-0.199 3.56 0.043 1.4384 0.586 1.9599 2.033 2.0986 2.239 0.2131 4.485 0.19 6.726 0.0128 0.21-0.0154 0.419-0.0616 0.624-0.1182 0.903-0.244 1.213-0.5779 1.282-1.5026 0.043-0.5933 7e-3 -1.1944 7e-3 -1.7903v-0.0025z" fill="#fff"></path>
<path d="m239.09 44.624c-0.079 1.2792-0.128 2.5634-0.248 3.84-0.182 1.9598-1.581 3.1542-3.044 3.275-2.927 0.2388-5.846 0.5419-8.788 0.2722-1.44-0.131-2.89-0.1438-4.328-0.2928-1.571-0.1618-2.558-1.0634-2.914-2.6199-0.105-0.4572-0.24-0.9222-0.243-1.3845-0.015-2.2192-0.141-4.4539 0.062-6.6552 0.245-2.6739 1.445-3.6628 4.087-3.7732 2.213-0.0925 4.426-0.1901 6.639-0.1875 1.742 0 3.489 0.113 5.229 0.2389 1.806 0.131 3.036 1.3562 3.29 3.1876 0.069 0.5085 0.122 1.0223 0.135 1.5334 0.023 0.8553 5e-3 1.7107 5e-3 2.566h0.118zm-9.58-3.7475c-1.295 0.0744-2.523 0.1335-3.751 0.2183-1.151 0.0796-1.606 0.3622-1.755 1.4615-0.168 1.256-0.202 2.548-0.13 3.8143 0.044 0.786 0.491 1.5001 1.415 1.5746 1.604 0.1284 3.213 0.2466 4.819 0.2825 0.926 0.0206 1.865-0.0847 2.786-0.2183 1.174-0.1695 1.604-0.5779 1.673-1.7287 0.072-1.1866 0.062-2.3887-0.046-3.5728-0.095-1.0763-0.576-1.4924-1.642-1.5977-1.139-0.113-2.285-0.1593-3.369-0.2312v-0.0025z" fill="#fff"></path>
<path d="m260.22 47.68c0.028-0.3596 0.079-0.7192 0.079-1.0788-0.015-2.6944-0.041-5.3914-0.059-8.0859-8e-3 -1.0608 0.087-1.1584 1.167-1.1815 0.724-0.0154 1.448-0.018 2.172 0 0.956 0.0257 1.066 0.1413 1.097 1.1456 0.018 0.6421 3e-3 1.2843 3e-3 1.9264 0 3.2955 5e-3 6.5884 0 9.8839-3e-3 1.3999-0.154 1.5488-1.538 1.5565-1.576 0.0103-3.154-0.0231-4.73 0.0103-0.893 0.0206-1.502-0.3005-2.018-1.0634-1.98-2.9384-4.014-5.8358-6.035-8.746-0.189-0.2748-0.422-0.5188-0.65-0.7988-0.568 0.3442-0.417 0.8528-0.419 1.2894 0 2.3965 0.015 4.793 0.025 7.1895 0 0.2132 3e-3 0.4289 0 0.6421-0.023 1.3023-0.174 1.459-1.489 1.4769-0.639 0.0103-1.279 0.0283-1.916-0.0154-0.78-0.0539-0.921-0.2337-0.972-1.0428-7e-3 -0.1284-2e-3 -0.2569-2e-3 -0.3853 0-3.894-5e-3 -7.7879 0-11.682 0-1.3382 0.046-1.3819 1.353-1.3896 1.704-0.0102 3.41 0.0206 5.114-0.0128 0.749-0.0154 1.274 0.2209 1.711 0.8656 1.944 2.8588 3.924 5.692 5.904 8.5251 0.274 0.3904 0.625 0.7269 0.939 1.0891l0.266-0.1182h-2e-3z" fill="#fff"></path>
<path d="m278.84 40.578c-1.023 0-2.044-0.0103-3.067 0.0051-0.54 0.0077-0.875 0.2774-0.939 0.8451-0.061 0.542 0.077 0.935 0.688 1.0069 0.635 0.0745 1.267 0.1824 1.904 0.2132 2.125 0.1053 4.256 0.1464 6.38 0.2877 0.747 0.0513 1.504 0.2568 2.212 0.5137 1.011 0.3698 1.569 1.1867 1.63 2.2526 0.061 1.066 0.072 2.1396-3e-3 3.203-0.11 1.5283-1.013 2.5455-2.532 2.7792-2.656 0.4059-5.334 0.5471-8.02 0.375-1.358-0.0873-2.719-0.19-4.062-0.3904-2.305-0.3467-2.738-1.8006-2.732-3.7912 0-0.5728 0.35-0.8553 0.897-0.8656 0.809-0.0154 1.62-0.0077 2.428 0 0.466 0.0026 0.87 0.1824 1.016 0.637 0.266 0.8271 0.882 0.935 1.614 0.9298 1.919-0.0128 3.835 0.0103 5.753-0.0103 1.072-0.0128 1.364-0.2722 1.374-1.0788 0.01-0.7192-0.399-1.1096-1.376-1.1712-1.702-0.1079-3.403-0.1696-5.106-0.2389-1.065-0.0437-2.136 0.0051-3.193-0.1105-1.21-0.1335-2.348-0.4983-2.909-1.7646-0.018-0.0385-0.048-0.0745-0.058-0.113-0.387-1.8648-0.604-3.727 0.388-5.4839 0.456-0.8065 1.259-1.1636 2.126-1.2483 3.656-0.3622 7.317-0.4315 10.97-0.0052 1.829 0.2132 3.034 1.2201 2.975 3.4676-0.021 0.8143-0.159 0.9941-0.952 1.0352-0.637 0.0333-1.279-0.0103-1.916 0.0179-0.688 0.0309-1.266-0.1027-1.596-0.7937-0.218-0.4572-0.65-0.5162-1.087-0.5214-0.937-0.0077-1.876 0-2.812 0v0.0231l5e-3 -0.0051z" fill="#fff"></path>
<path d="m103.79 37.021c1.563 0.0874 3.137 0.167 4.707 0.2697 0.423 0.0283 0.852 0.0925 1.257 0.2158 1.575 0.4855 2.458 1.9418 2.228 3.5729-0.075 0.5188-0.361 0.7577-0.85 0.768-0.852 0.0154-1.711 0.0745-2.55-0.0206-0.356-0.0411-0.757-0.3621-0.988-0.6704-0.322-0.4264-0.688-0.6036-1.187-0.6036-1.872 0.0026-3.747-0.0026-5.62 0.0103-0.522 0.0026-1.0282 0.0693-1.2329 0.6909-0.1995 0.6062-0.0307 1.0018 0.5939 1.1508 0.493 0.1181 1.005 0.1823 1.514 0.208 2.167 0.1105 4.336 0.1978 6.505 0.2954 0.425 0.018 0.865-0.0154 1.274 0.0796 2.065 0.4752 2.904 1.1918 2.996 3.2159 0.043 0.9786 0.026 1.9727-0.105 2.9384-0.202 1.4898-0.987 2.3117-2.461 2.5404-2.568 0.3981-5.162 0.5445-7.759 0.3852-1.483-0.0899-2.9749-0.19-4.4407-0.4238-1.9007-0.3031-2.9726-1.9881-2.617-3.8862 0.0947-0.5035 0.3914-0.7424 0.88-0.7501 0.6396-0.0102 1.2791 0.0078 1.9161-0.0102 0.7674-0.0206 1.4223 0.0539 1.7114 0.9683 0.0819 0.2594 0.5752 0.5446 0.8872 0.5523 2.257 0.0488 4.513 0.0308 6.769 0.0257 0.568 0 0.824-0.3571 0.937-0.8708 0.12-0.5497-0.115-0.9478-0.591-1.1379-0.384-0.1541-0.819-0.2209-1.236-0.2388-2.297-0.1028-4.594-0.1542-6.8916-0.2775-0.7546-0.0411-1.5041-0.2209-2.246-0.3852-0.9184-0.203-1.4786-0.84-1.7472-1.703-0.4682-1.5103-0.4759-3.0335 0.0614-4.531 0.4655-1.3048 1.4453-1.9855 2.796-2.0805 1.8244-0.1284 3.6534-0.2004 5.4954-0.298h-6e-3z" fill="#fff"></path>
<path d="m181.54 43.07c0 1.4564 0.01 2.9102-8e-3 4.3666-5e-3 0.4238-0.046 0.8579-0.143 1.2714-0.422 1.7801-1.53 2.8152-3.361 3.0181-2.541 0.2826-5.078 0.5548-7.639 0.2723-1.31-0.1439-2.637-0.167-3.942-0.3365-1.914-0.2491-3.024-1.3896-3.101-3.3109-0.13-3.2467-0.173-6.4985-0.214-9.7503-0.016-1.0762 0.197-1.2406 1.289-1.2663 0.683-0.0154 1.366-0.0257 2.046 0.0051 0.87 0.0386 1.026 0.185 1.036 1.0891 0.024 2.0549-2e-3 4.1097 0.016 6.1646 5e-3 0.6396 0.087 1.2791 0.128 1.9187 0.051 0.8014 0.488 1.292 1.256 1.387 1.264 0.1567 2.537 0.2826 3.809 0.3391 0.716 0.0308 1.44-0.1079 2.159-0.1593 1.683-0.1181 2.208-0.6036 2.307-2.268 0.085-1.4076 0.123-2.8203 0.154-4.2304 0.023-1.0275-0.01-2.0549 8e-3 -3.0823 0.02-1.0609 0.11-1.1379 1.199-1.161 0.64-0.0129 1.279-0.018 1.919 0 1 0.0308 1.115 0.1284 1.131 1.1096 0.023 1.5411 5e-3 3.0823 5e-3 4.6234h-0.056 2e-3z" fill="#fff"></path>
<path d="m198.57 67.019c0.208-0.5471 0.448-1.0865 0.614-1.6439 0.502-1.6773 0.957-3.3699 1.461-5.0472 0.404-1.3485 0.563-1.4513 1.993-1.4564 0.639-0.0026 1.279-0.0077 1.918 0.0205 0.463 0.018 0.791 0.2312 0.937 0.7192 0.603 2.0472 1.212 4.0918 1.847 6.1287 0.143 0.4572 0.394 0.8784 0.726 1.6105 0.371-0.6396 0.627-0.9658 0.763-1.3383 0.468-1.2791 0.895-2.5762 1.34-3.8657 0.279-0.8039 0.519-1.6259 0.86-2.4042 0.138-0.3159 0.475-0.7115 0.767-0.7551 0.79-0.1156 1.609-0.0976 2.412-0.054 0.392 0.0232 0.571 0.334 0.422 0.7526-0.214 0.6036-0.406 1.2124-0.637 1.8109-0.992 2.5891-2.021 5.1654-2.972 7.7673-0.23 0.6293-0.548 0.917-1.187 0.9119-1.195-0.0077-2.387-0.0103-3.582 0.0077-0.557 0.0077-0.864-0.2312-1.007-0.768-0.341-1.2792-0.707-2.5532-1.062-3.8298-0.251-0.9015-0.499-1.8031-0.788-2.8382-0.678 0.6627-0.755 1.4384-0.952 2.1524-0.396 1.441-0.803 2.882-1.148 4.3358-0.172 0.7218-0.566 0.9709-1.272 0.9504-1.151-0.0334-2.302-0.0129-3.453-0.0077-0.525 0-0.862-0.1875-1.054-0.7269-0.473-1.3254-1.011-2.6277-1.504-3.9428-0.66-1.7569-1.31-3.5164-1.95-5.281-0.112-0.3108-0.145-0.6498-0.225-1.0146 0.965-0.5471 1.95-0.4161 2.881-0.2132 0.309 0.0668 0.611 0.5805 0.752 0.953 0.719 1.9161 1.374 3.8554 2.074 5.7793 0.167 0.4572 0.42 0.881 0.635 1.3202 0.128-0.0103 0.256-0.0231 0.384-0.0334h7e-3z" fill="#fff"></path>
<path d="m127.18 70.194c-1.446 0-2.894 0.0385-4.339-0.0103-2.07-0.0668-3.136-1.0814-3.239-3.1748-0.084-1.7055-0.056-3.4187 0-5.1243 0.052-1.5694 0.834-2.8845 2.924-3.0668 3.144-0.2749 6.281-0.3648 9.417 0.0308 1.798 0.2286 2.691 1.0942 2.786 2.8973 0.094 1.8289 0.094 3.6731-5e-3 5.5019-0.1 1.8288-1.223 2.8588-3.075 2.9308-1.487 0.0565-2.978 0.0102-4.467 0.0102v0.0052h-2e-3zm-5e-3 -2.8486c0.933-0.0745 1.867-0.1156 2.793-0.2286 1-0.1207 1.251-0.3544 1.343-1.3742 0.072-0.8014 0.069-1.6233-0.018-2.4247-0.125-1.1636-0.537-1.5874-1.729-1.6362-1.653-0.0693-3.313-0.0282-4.971 0.0052-0.701 0.0154-1.299 0.3955-1.386 1.0942-0.133 1.0454-0.138 2.1165-0.1 3.1721 0.028 0.7424 0.532 1.1225 1.271 1.1765 0.932 0.0667 1.86 0.1438 2.797 0.2183v-0.0026z" fill="#fff"></path>
<path d="m228.4 20.713c0 2.6919 5e-3 5.3838-3e-3 8.0731-5e-3 1.3074-0.187 1.5026-1.45 1.5257-1.149 0.0231-2.298 0.0257-3.446 0-1.023-0.0231-1.261-0.2671-1.274-1.3177-0.023-1.7081-8e-3 -3.4162-8e-3 -5.1268v-11.022c0-0.3827 8e-3 -0.7706 0.067-1.1481 0.076-0.4804 0.383-0.7526 0.882-0.7501 1.405 0.0077 2.809 0 4.211 0.0437 0.796 0.0257 0.975 0.208 1.003 1.0043 0.038 1.0249 0.015 2.0497 0.015 3.0746v5.638l3e-3 0.0051z" fill="#fff"></path>
<path d="m101.94 70.191c-1.277 0-2.5583 0.0591-3.8322-0.0257-0.6575-0.0436-1.338-0.262-1.9366-0.5497-0.8774-0.4186-1.4018-1.7492-1.0744-2.6482 0.0921-0.2517 0.4554-0.5214 0.7265-0.5599 0.5833-0.0873 1.1972-0.0848 1.7831-0.0077 0.289 0.0385 0.6267 0.2671 0.8032 0.5111 0.3658 0.5035 0.8084 0.7064 1.4121 0.6987 1.3633-0.0206 2.7273 0 4.0883-0.0129 0.253 0 0.585 0.0283 0.736-0.113 0.254-0.2337 0.52-0.5908 0.53-0.9041 8e-3 -0.2158-0.371-0.5189-0.642-0.6499-0.248-0.1181-0.583-0.0642-0.88-0.0719-1.576-0.0436-3.154-0.0462-4.7251-0.1438-0.7546-0.0463-1.4991-0.2543-2.2435-0.4187-0.7418-0.1644-1.1716-0.7115-1.3737-1.3896-0.3121-1.0403-0.3351-2.1191-0.0307-3.1671 0.2814-0.9657 0.8723-1.6567 1.9288-1.8211 3.1392-0.4854 6.2752-0.5599 9.3932 0.1156 1.108 0.2389 1.911 1.6054 1.604 2.6893-0.076 0.2697-0.412 0.6165-0.67 0.655-0.668 0.1027-1.358 0.0745-2.036 0.0462-0.177-0.0077-0.432-0.1644-0.507-0.321-0.312-0.6807-0.887-0.7167-1.504-0.7167-1.187 0-2.376-0.0077-3.5634 0.0052-0.2942 0.0025-0.6344-0.0052-0.8646 0.1335-0.2124 0.1285-0.3991 0.4444-0.4221 0.6935-0.0154 0.1619 0.2583 0.447 0.4527 0.5086 0.3991 0.1259 0.8315 0.167 1.2534 0.1927 1.87 0.113 3.74 0.2132 5.61 0.3082 0.898 0.0437 1.655 0.3416 2.198 1.1019 0.754 1.0608 0.662 4.0455-0.21 4.9856-0.504 0.542-1.141 0.8733-1.921 0.8656-1.364-0.0128-2.725-0.0051-4.088-0.0051v0.0103l5e-3 0.0051z" fill="#fff"></path>
<path d="m195.28 37.329c2.387 0 4.773-0.0077 7.158 0.0025 1.394 0.0052 1.506 0.131 1.522 1.5617 0.017 1.4812-0.707 2.2218-2.172 2.2218-0.98 0-1.96-0.0154-2.94 0.0052-1.105 0.0231-1.22 0.1361-1.225 1.2868-0.01 2.5249-2e-3 5.0498-2e-3 7.5748 0 0.3005 5e-3 0.5984-0.011 0.899-0.028 0.6113-0.342 0.9503-0.964 0.958-0.808 0.0077-1.619 0.0283-2.428 0-0.962-0.0334-1.169-0.2465-1.187-1.2586-0.025-1.4538-5e-3 -2.9102-5e-3 -4.364 0-1.1995 5e-3 -2.3965 0-3.596-5e-3 -1.4204-0.079-1.4923-1.542-1.5026-1.152-0.0077-2.303 0.0103-3.451-0.0051-1.341-0.0154-1.441-0.1079-1.433-1.4872 0.013-2.1705-0.409-2.3246 2.29-2.3015 2.13 0.018 4.261 0.0026 6.392 0.0026l-2e-3 0.0026z" fill="#fff"></path>
<path d="m263.15 65.663c1.233 1.0762 1.033 2.3991 1.01 3.6782-0.01 0.5086-0.281 0.7937-0.788 0.8219-0.34 0.0206-0.68 0.018-1.023 0.018-1.207-0.0025-1.606 0.2055-1.576-1.4255 0.021-1.0557-0.322-1.4127-1.353-1.4513-1.489-0.0565-2.983-0.0436-4.474-0.0154-0.814 0.0154-0.949 0.1901-1.021 0.9915-5e-3 0.0436 3e-3 0.0873-2e-3 0.1284-0.09 0.56 0.278 1.4127-0.425 1.5951-0.831 0.2158-1.758 0.0796-2.64 0.0462-0.118-0.0051-0.281-0.3056-0.32-0.4906-0.061-0.2876-0.041-0.5959-0.041-0.8938-2e-3 -2.7818-7e-3 -5.5636 0-8.3479 3e-3 -1.3228 0.095-1.4333 1.343-1.441 3.198-0.0128 6.393 0 9.591-0.0025 1.596 0 2.752 0.4854 2.952 2.9256 0.112 1.3844 0.079 2.7638-1.233 3.8657v-0.0026zm-5.869-3.9967h-0.895c-0.34 0-0.68-0.0051-1.023 0-1.32 0.018-1.463 0.1695-1.443 1.4872 0 0.1284 5e-3 0.2569 8e-3 0.3853 7e-3 0.6267 0.309 0.9452 0.946 0.9375 0.724-0.0077 1.448 0.0052 2.172 0 0.852-0.0102 1.709 0.036 2.551-0.0668 1.036-0.1233 1.304-0.5368 1.22-1.5642-0.067-0.8194-0.399-1.1225-1.364-1.1636-0.721-0.0308-1.448-0.0051-2.172-0.0051v-0.0103z" fill="#fff"></path>
<path d="m281.61 58.866c1.619 0 3.239-0.0052 4.858 0 0.461 0 1.074-0.0925 1.182 0.4854 0.112 0.6062 0.051 1.274-0.097 1.8751-0.041 0.1669-0.665 0.262-1.021 0.2671-2.003 0.0257-4.006 0.0077-6.007 0.0154-0.381 0-0.785-0.018-1.133 0.1028-0.227 0.0796-0.547 0.4212-0.519 0.5959 0.043 0.2748 0.297 0.6087 0.55 0.732 0.281 0.1361 0.665 0.0822 1.005 0.0822 1.791 0.0051 3.579-0.0128 5.37 0.0077 1.294 0.0129 1.865 0.9684 1.333 2.1576-0.215 0.4803-0.632 0.5291-1.067 0.5317-1.448 0.0077-2.899 0.0052-4.346 0.0077-0.681 0-1.364-0.0154-2.044 0.018-0.446 0.0206-0.883 0.1541-0.855 0.7295 0.023 0.4931 0.348 0.7705 0.821 0.8348 0.295 0.0411 0.594 0.0308 0.893 0.0308 1.919 0 3.835-0.0052 5.753 0 1.448 0.0051 2.05 0.8733 1.548 2.268-0.074 0.2055-0.307 0.3956-0.512 0.5035-0.173 0.0899-0.414 0.0616-0.626 0.0616-3.367 0.0026-6.733 0.0103-10.097-0.0025-1.07-0.0052-1.187-0.1208-1.195-1.179-0.018-2.995-0.015-5.9899-3e-3 -8.9849 6e-3 -0.9863 0.136-1.1225 1.108-1.1379 1.704-0.0257 3.408-0.0077 5.114-0.0077l-0.013 0.0052z" fill="#fff"></path>
<path d="m143.28 44.464c0-1.9265-7e-3 -3.8529 3e-3 -5.7793 8e-3 -1.31 0.051-1.3408 1.397-1.3537h0.639c2.574 0.0231 2.443-0.3467 2.436 2.3837-6e-3 2.1832 0 4.3665 0 6.5498 0 1.7287 0.043 1.7723 1.816 1.7749 2.346 0.0026 4.689-0.0077 7.035 0.0026 1.207 0.0051 1.307 0.1156 1.335 1.3177 0.01 0.4289 0.015 0.8579 0 1.2842-0.036 1.0018-0.194 1.1662-1.223 1.1996-0.767 0.0231-1.535 0.0077-2.302 0.0077-3.282 0-6.564 0.0077-9.849-0.0052-1.174-0.0051-1.31-0.1721-1.307-1.3459 5e-3 -2.0112 0-4.025 0-6.0361h0.02z" fill="#fff"></path>
<path d="m223.14 69.922c0.883-1.7081 1.661-3.2236 2.451-4.7339 0.949-1.816 1.942-3.614 2.845-5.4531 0.291-0.5933 0.675-0.8502 1.276-0.8553 1.236-0.0103 2.474-0.0154 3.71 0.0026 0.59 0.0077 1.033 0.2568 1.325 0.8296 1.568 3.0849 3.162 6.1543 4.737 9.234 0.133 0.2595 0.179 0.5626 0.274 0.8734-0.583 0.5959-1.302 0.2953-1.947 0.3544-0.985 0.0925-1.867 0.0129-2.218-1.1841-0.14-0.4777-0.611-0.6832-1.13-0.6807-1.919 0.0026-3.838 0.0077-5.756-0.0025-0.64-0.0026-1.077 0.3031-1.277 0.8759-0.296 0.8476-0.913 1.0531-1.711 1.0017-0.785-0.0514-1.599 0.1181-2.576-0.262h-3e-3zm10.691-4.3203c-0.658-1.3819-1.162-2.5044-1.722-3.596-0.243-0.4752-0.754-0.5163-1.015-0.0668-0.655 1.1276-1.277 2.2834-1.656 3.7116 1.446 0.1258 2.768 0.1541 4.395-0.0488h-2e-3z" fill="#fff"></path>
<path d="m151.99 58.869c1.532 0 3.067-0.0077 4.599 0.0052 0.458 0.0025 1.088-0.0848 1.213 0.452 0.141 0.5959 0.087 1.2715-0.049 1.8751-0.038 0.1695-0.657 0.2851-1.013 0.2902-1.788 0.0309-3.579 0.0155-5.367 0.0155-0.299 0-0.598-0.0155-0.893 0.0128-0.752 0.0693-0.926 0.2491-0.941 0.9247-0.018 0.7526 0.182 1.0325 0.952 1.0505 1.66 0.0386 3.323 0.0154 4.983 0.018 0.34 0 0.693-0.0437 1.018 0.0283 0.269 0.059 0.693 0.2286 0.722 0.4032 0.102 0.6062 0.176 1.2638 0.043 1.8545-0.123 0.5394-0.729 0.4804-1.2 0.4804-1.703 0-3.407-0.0103-5.111 0.0051-1.302 0.0103-1.384 0.1027-1.407 1.3793-0.01 0.5985 0 1.197-0.028 1.7955-0.021 0.4495-0.279 0.6986-0.737 0.714-0.043 0-0.084 0.0026-0.128 0.0026-2.916 0.0462-2.494 0.0514-2.507-2.3297-0.015-2.5249-7e-3 -5.0473 0-7.5722 5e-3 -1.2817 0.113-1.3947 1.382-1.405 1.491-0.0154 2.983-0.0025 4.471-0.0025l-2e-3 0.0025z" fill="#fff"></path>
<path d="m174.58 58.866c1.788 0 3.574-0.0052 5.362 0.0051 0.453 0 1.098-0.1207 1.185 0.4649 0.102 0.6858-0.018 1.4153-0.141 2.1088-0.023 0.1336-0.507 0.2543-0.783 0.2646-0.893 0.0334-1.788 0-2.681 0.0205-1.051 0.0231-1.271 0.2209-1.289 1.292-0.028 1.7954-0.01 3.5883-0.01 5.3837 0 0.3417-6e-3 0.6833-0.013 1.0249-0.01 0.4495-0.213 0.7269-0.688 0.7423-0.044 0-0.085 0.0052-0.128 0.0052-3.124 0.0539-2.771 0.0308-2.776-2.5018 0-1.5386 0.013-3.0772-5e-3 -4.6158-0.013-1.1944-0.151-1.3202-1.323-1.3356-0.808-0.0103-1.616 0.0231-2.425-0.0103-0.936-0.0385-1.105-0.2286-1.151-1.1481-8e-3 -0.1696-8e-3 -0.3417 0-0.5138 0.033-0.9221 0.2-1.1327 1.121-1.1738 0.933-0.0437 1.872-0.0128 2.808-0.0154h2.937v0.0026z" fill="#fff"></path>
<path d="m209.03 44.596c0-2.0061-8e-3 -4.0122 3e-3 -6.0182 7e-3 -1.2098 0.041-1.2329 1.205-1.2458 0.764-0.0077 1.529-0.0231 2.294 0.0052 0.888 0.0308 1.11 0.2517 1.139 1.1635 0.03 0.9812 7e-3 1.9624 7e-3 2.9436 0 2.9025 8e-3 5.805-2e-3 8.7075-5e-3 1.4923-0.21 1.6798-1.714 1.6978-0.509 0.0051-1.021 0.0051-1.53 0-1.315-0.0154-1.392-0.0796-1.399-1.3639-0.013-1.6644-3e-3 -3.3289-3e-3 -4.9933v-0.8964z" fill="#fff"></path>
</svg>
