<svg width="289" height="82" xmlns="http://www.w3.org/2000/svg" preserveAspectRatio="xMinYMid meet"><path fill="#fff" d="M39.902 80.979c-10.66 0-21.317-.0026-31.977.0025-2.5377 0-4.6558-.8707-6.2521-2.9025-.91838-1.1712-1.54-2.4581-1.6014-3.9735-.01535-.3853-.04093-.7706-.04093-1.1559-.00256-6.2082-.00256-12.416 0-18.625 0-.2569 0-.5137.01535-.7706.02558-.5137.2993-.7783.81349-.786.38373-.0051.76745-.0051 1.1512-.0051 14.497 0 28.992-.0026 43.489.0025 1.2867 0 2.5633-.0308 3.7707-.5342.6242-.262 1.2433-.5446 1.8393-.8605 1.3891-.7372 1.2714-3.0309.1458-3.7142-.5423-.3287-1.1025-.7217-1.7011-.8347-1.3763-.2569-2.7756-.4778-4.1724-.5035-3.7502-.0668-7.5031-.0411-11.256-.0154-2.6528.018-5.303-.131-7.8382-.9093-5.1061-1.5668-9.2579-4.3614-11.161-9.6578-.683-1.9008-.8493-3.9068-.6191-5.9463.5321-4.6902 3.167-7.8983 7.0528-10.249 2.7117-1.6413 5.674-2.512 8.8052-2.7946 1.6935-.1541 3.3998-.2491 5.101-.2517 10.317-.0231 20.637-.0103 30.954-.0128 1.1972 0 1.7941-.6182 1.7907-1.8546 0-.2568.0077-.5137-.0077-.7705-.0639-1.0891-.5525-1.7672-1.6039-2.0498-.5244-.1412-1.0924-.1566-1.6424-.1566-16.756-.0077-33.512-.0052-50.268-.0052-.2993 0-.5986-.0102-.8953.0103-1.3558.0925-2.1054.768-2.3049 2.1268-.0691.4623-.0512.9401-.0512 1.4101v32.626c0 .2568.0051.5137 0 .7705-.0281 1.1585-.1714 1.3177-1.3558 1.3229-2.9419.0128-5.8838.0128-8.8256 0-1.1333-.0052-1.2688-.1696-1.2561-1.2432.01791-1.7544.02814-3.5113.02814-5.2656 0-11.69 0-23.379.00512-35.066 0-1.2817.03069-2.5454.62163-3.7578C2.0623 1.6891 4.3569.2121 7.5163.0066c.25582-.01541.51163-.00514.76745-.00514h62.931c1.3277 0 2.6375.06935 3.8679.65242 3.0366 1.4384 4.6022 3.8477 4.6252 7.2126.0307 4.7518.0077 9.5062.0077 14.258 0 1.5848.0102 3.1696-.0026 4.7519-.0102 1.1815-.1381 1.2971-1.3379 1.3331-.2993.0077-.5961 0-.8954 0-14.326 0-28.651.0077-42.977-.0103-1.4633 0-2.901.0873-4.2722.6087-.6267.2389-1.2662.5394-1.7855.9556-1.4173 1.1327-1.1845 3.09.44 3.8913 1.476.727 3.0697 1.0249 4.7044 1.0326 4.3054.018 8.6133-.0231 12.919.018 3.4331.0308 6.7868.5394 9.9282 2.0317 3.1619 1.5027 5.7994 3.632 7.4033 6.7991 1.2791 2.5249 1.7472 5.2321 1.3124 8.091-.6856 4.5027-3.2822 7.5875-7.0427 9.8479-2.6758 1.6079-5.5921 2.4915-8.6849 2.7612-1.6961.149-3.3998.2594-5.101.262-10.317.0231-20.637.0103-30.954.0128-1.8623 0-1.9723.1105-1.9288 1.9445.0486 2.0754.8442 2.8896 2.8856 2.8896 17.055.0051 34.108.0051 51.163 0 1.9289 0 2.7219-.7988 2.7219-2.7227.0051-11.217.0026-22.436.0026-33.654 0-1.2603.6455-1.8913 1.9365-1.893 2.6426 0 5.2877-.0051 7.9303 0 1.5298.0051 1.6321.1027 1.6321 1.5694 0 13.444-.0333 26.89.0205 40.334.0179 4.4283-3.3819 8.0499-7.9815 8.0243-10.616-.0643-21.233-.0206-31.849-.0206v-.0051l-.00085.00152zM238.35 16.118c-.023.4469-.069.8938-.067 1.3408.005 3.6807.018 7.3615.028 11.042 0 .3416 0 .6858-.02 1.0274-.031.5111-.31.7808-.824.7808-1.363 0-2.729.036-4.09-.0205-.837-.0334-1.016-.298-1.021-1.2894-.013-3.1234-.005-6.2494-.005-9.3728 0-2.3964-.008-4.7929.005-7.192.008-1.3459.11-1.4461 1.473-1.4538 2.515-.0103 5.03.018 7.544-.0154.855-.0103 1.41.298 1.901 1.0172 2.791 4.0866 5.628 8.1449 8.452 12.208.233.3339.507.637.796.9966.555-.4495.419-.9478.419-1.387 0-3.6808-.02-7.3616-.033-11.042 0-.2569-.02-.5137-.002-.7706.056-.8194.186-.9838.997-.9992 1.32-.0282 2.643-.0308 3.963.0052.831.0231 1.01.2388 1.082 1.0993.026.298.01.5985.01.899v15.409c0 .2568.01.5137-.008.7706-.058.8322-.26 1.0634-1.071 1.1276-.509.0411-1.024.0154-1.535.0154-2.088 0-4.178-.0231-6.265.0103-.944.0154-1.589-.3288-2.131-1.1225-2.806-4.1303-5.651-8.2349-8.493-12.339-.225-.3237-.553-.5754-.832-.8631-.092.0385-.181.0745-.273.113v.0052-.0001zM108.32 10.814c2.259 0 4.518-.0591 6.774.0256 1.09.0411 2.206.2441 3.247.5754 1.317.4187 2.197 1.3485 2.589 2.7587.347 1.2534.504 2.5095.498 3.7989-.007 1.8827.057 3.7681-.028 5.6483-.053 1.1841-.245 2.3785-.506 3.5369-.341 1.5052-1.377 2.4889-2.832 2.8306-1.359.321-2.771.5265-4.165.5548-3.663.0745-7.329.0745-10.992 0-1.394-.0283-2.804-.2415-4.1675-.542-1.5912-.3519-2.6272-1.4666-2.9316-3.054-.8058-4.1996-.7777-8.4224-.0051-12.627.2404-1.3074 1.0948-2.2527 2.2844-2.7407.9286-.3802 1.9568-.6704 2.9518-.7115 2.425-.1002 4.856-.0334 7.286-.0334v-.0231l-.003.0026v-.0001zm.077 5.0729v.0128c-1.53 0-3.062-.0462-4.589.0129-1.579.0591-2.356.7603-2.474 2.3554-.118 1.613-.102 3.2415-.051 4.8597.033 1.0865.647 1.8391 1.729 2.1062.491.1233 1.003.2081 1.507.2184 2.041.0411 4.083.0539 6.124.0565.809 0 1.62-.0052 2.42-.0951 1.553-.1746 2.129-.7782 2.446-2.3168.345-1.6645.199-3.316-.064-4.9625-.259-1.6131-.913-2.1884-2.581-2.2398-1.487-.0462-2.975-.0103-4.462-.0103l-.005.0026zM275.41 10.78c1.492 0 2.983.0128 4.474-.0026 1.502-.0154 2.963.2414 4.421.5779 1.829.4238 2.901 1.5514 3.246 3.3597.136.7064.108 1.4461.126 2.173.012.4983-.215.8143-.76.8117-1.364-.0026-2.727-.0026-4.091 0-.537 0-.89-.244-1.028-.7757-.223-.8579-.885-1.1122-1.65-1.1507-1.32-.0642-2.64-.113-3.96-.1105-1.747.0026-3.497.0026-5.239.1105-1.778.1104-2.246.6806-2.477 2.4684-.225 1.7543-.158 3.4984.034 5.245.189 1.7158.739 2.2141 2.466 2.2655 2.213.0642 4.425.1361 6.638.1515.975.0077 1.955-.095 2.929-.1952.901-.0924 1.379-.5419 1.499-1.3125.141-.8887-.066-1.1661-.99-1.1764-1.747-.0206-3.494 0-5.241-.0129-1.292-.0102-1.379-.1078-1.4-1.3896-.005-.3416-.005-.6858 0-1.0274.021-1.292.169-1.4538 1.505-1.4589 3.494-.0129 6.988-.0103 10.483 0 1.233.0025 1.345.1053 1.338 1.2997-.008 1.6695-.049 3.3365-.092 5.0061-.067 2.5223-2.167 4.2022-4.096 4.5207-4.124.6807-8.247.3904-12.369.4058-1.519.0052-3.046-.2491-4.556-.4829-2.535-.393-3.809-2.0856-3.934-4.3717-.179-3.2415-.095-6.501-.015-9.7503.028-1.1533.514-2.2449 1.233-3.185.537-.7012 1.233-1.2201 2.1-1.3665 1.466-.2466 2.942-.4906 4.423-.5805 1.655-.0976 3.323-.0231 4.983-.0231V10.78zM216.29 22.96c1.642.3852 2.175 1.4743 2.292 2.7791.108 1.1893.064 2.394.082 3.5935.008.6267-.309.9658-.931.9709-1.323.0103-2.645.036-3.963-.0154-.726-.0283-.933-.3057-.982-1.0788-.044-.7269-.01-1.4564-.074-2.1807-.077-.8913-.351-1.2047-1.213-1.4153-.409-.1002-.841-.1387-1.263-.1413-2.602-.0154-5.201-.0231-7.803-.0128-1.207.0051-1.399.2106-1.425 1.4255-.015.7269.013 1.4564-.007 2.1833-.029.9427-.215 1.197-1.09 1.2278-1.32.0462-2.643.0128-3.965.0077-.566-.0026-.87-.2902-.873-.8707 0-.2569-.01-.5138-.01-.7706v-15.928c0-.2132-.008-.429.005-.6422.056-.917.172-1.0403 1.044-1.1045.212-.0154.427-.0077.639-.0077 5.414 0 10.829-.0128 16.242.0129.929.0051 1.87.1078 2.783.2876 1.471.2903 2.436 1.2381 2.781 2.6893.481 2.0215.422 4.0815.097 6.1184-.151.9452-.662 1.7543-1.547 2.2526-.218.1233-.404.3031-.814.6165l-.005.0026v.0003zm-9.626-7.0405v-.0514c-1.533 0-3.065-.018-4.597.0077-.898.0154-1.026.1567-1.054 1.0531-.026.768-.021 1.5386 0 2.3092.028 1.179.166 1.3254 1.348 1.3228 2.768 0 5.536-.0103 8.301-.0462 1.822-.0257 2.354-.6011 2.328-2.4094-.002-.2131-.015-.4289-.051-.6395-.184-1.1071-.565-1.5026-1.676-1.536-1.529-.0463-3.064-.0103-4.597-.0103h-.002zM181.51 30.319h-8.82c-.384 0-.77.0052-1.149-.0462-.473-.0642-.778-.3288-.78-.8502 0-.2569-.01-.5137-.01-.7706v-15.92c0-.2569.007-.5137.01-.7706 0-.6241.309-.9529.934-.9683.299-.0077.596-.0103.895-.0103h17.388c.212 0 .427-.0052.639.0026 1.098.0411 1.284.2029 1.331 1.256.03.6832.03 1.369 0 2.0548-.041.9838-.333 1.2664-1.328 1.3357-.34.0231-.681.0103-1.023.0103-3.879 0-7.757-.0052-11.635.0026-1.164.0025-1.415.208-1.491 1.1096-.11 1.2766.074 1.4872 1.391 1.4897 3.794.0078 7.585 0 11.379 0 .299 0 .599-.0154.895.0078.775.0565.972.2234 1.021 1.0145.046.768.046 1.5412.005 2.3092-.038.7397-.284.9555-1.036 1.0248-.297.0283-.596.0103-.895.0103h-10.867c-.3 0-.599-.0128-.896.0077-.209.0154-.455.0154-.614.1285-.706.4983-.301 1.2534-.376 1.8956-.056.4829.167.8476.678.9221.376.0565.763.0668 1.146.0668 3.878.0051 7.757.0025 11.635.0025.34 0 .683-.0077 1.023.0052.942.0411 1.044.1258 1.067 1.0248.023.8117.02 1.6259 0 2.4402-.028 1.0608-.143 1.1687-1.185 1.2098-.296.0128-.596.0051-.895.0051h-8.437zM158.04 10.98h8.304c.34 0 .683 0 1.021.0334.494.0462.785.3314.793.8322.018.9401.026 1.8828.005 2.8229-.013.5676-.417.8245-.911.9118-.373.0642-.762.0565-1.146.0565-3.535.0026-7.07 0-10.603.0026-.341 0-.681.0026-1.021.0231-.402.0231-.611.2569-.647.655-.008.0848-.016.1695-.016.2569.052 2.4427-.46 2.6148 2.4 2.6328 3.108.0205 6.219.0051 9.327.0051.299 0 .596-.0026.895.0077.609.0257.949.3288.955.9581.005.7269.023 1.4538-.003 2.1807-.041 1.1225-.235 1.31-1.394 1.3151-3.408.0103-6.815.0026-10.223.0052-1.304 0-1.957.6567-1.957 1.97 0 1.1122.016 2.2244-.005 3.3366-.02 1.0942-.212 1.3049-1.245 1.328-1.108.0257-2.216.0257-3.321 0-1.08-.0257-1.3-.2286-1.302-1.274-.013-5.6021-.013-11.207 0-16.809.002-1.107.156-1.2406 1.279-1.2457 2.939-.0129 5.876-.0052 8.815-.0052v.0002zM135.3 10.939h8.816c.834 0 1.033.131 1.069.9016.044.9401.018 1.8802.013 2.8229-.003.6293-.351.9323-.957.9606-.34.0154-.68.0128-1.021.0128h-10.478c-.299 0-.596.0026-.895.0026-.535 0-.724.298-.78.804-.292 2.5454-.103 2.7766 2.455 2.7638 3.321-.0154 6.641-.0437 9.962-.0771.79-.0077 1.072.2055 1.11 1.0351.039.8117.039 1.6259-.005 2.4376-.051.9119-.233 1.0685-1.205 1.0711-3.451.0103-6.899.0026-10.35.0026-.299 0-.596-.0103-.896 0-.908.0385-1.043.1438-1.061 1.048-.028 1.3253 0 2.6507-.01 3.9787-.011 1.4332-.174 1.5976-1.635 1.6105-1.023.0103-2.044.0205-3.067-.0052-1.016-.0256-1.19-.2029-1.226-1.1995-.023-.6396-.005-1.2843-.005-1.9238v-13.986c0-.3006-.005-.5985.003-.899.036-1.1893.143-1.3126 1.345-1.3177 2.94-.0129 5.879-.0052 8.816-.0052v-.041l.002.0025v.0001zM117.67 44.529c.133-1.4256.179-2.8409.417-4.2228.337-1.9521 1.437-2.8357 3.422-2.9975 4.037-.3262 8.074-.2877 12.111 0 2.264.1618 3.463 1.4153 3.632 3.6654.177 2.3476.19 4.685.018 7.0353-.153 2.1011-1.235 3.6268-3.389 3.7707-2.837.1875-5.672.5162-8.527.226-1.435-.1464-2.893-.1156-4.32-.3005-1.789-.2338-2.64-1.0557-2.94-2.8614-.238-1.4256-.291-2.882-.424-4.3178v.0026zm15.233.1156h-.012c0-.6396.038-1.2818-.008-1.9188-.077-1.0557-.537-1.5899-1.591-1.613-2.456-.054-4.914-.0231-7.373-.0077-.834.0051-1.402.4392-1.489 1.2817-.122 1.1815-.235 2.3759-.199 3.56.043 1.4384.586 1.9599 2.033 2.0986 2.239.2131 4.485.19 6.726.0128.21-.0154.419-.0616.624-.1182.903-.244 1.213-.5779 1.282-1.5026.043-.5933.007-1.1944.007-1.7903v-.0025zM239.09 44.624c-.079 1.2792-.128 2.5634-.248 3.84-.182 1.9598-1.581 3.1542-3.044 3.275-2.927.2388-5.846.5419-8.788.2722-1.44-.131-2.89-.1438-4.328-.2928-1.571-.1618-2.558-1.0634-2.914-2.6199-.105-.4572-.24-.9222-.243-1.3845-.015-2.2192-.141-4.4539.062-6.6552.245-2.6739 1.445-3.6628 4.087-3.7732 2.213-.0925 4.426-.1901 6.639-.1875 1.742 0 3.489.113 5.229.2389 1.806.131 3.036 1.3562 3.29 3.1876.069.5085.122 1.0223.135 1.5334.023.8553.005 1.7107.005 2.566h.118zm-9.58-3.7475c-1.295.0744-2.523.1335-3.751.2183-1.151.0796-1.606.3622-1.755 1.4615-.168 1.256-.202 2.548-.13 3.8143.044.786.491 1.5001 1.415 1.5746 1.604.1284 3.213.2466 4.819.2825.926.0206 1.865-.0847 2.786-.2183 1.174-.1695 1.604-.5779 1.673-1.7287.072-1.1866.062-2.3887-.046-3.5728-.095-1.0763-.576-1.4924-1.642-1.5977-1.139-.113-2.285-.1593-3.369-.2312v-.0025zM260.22 47.68c.028-.3596.079-.7192.079-1.0788-.015-2.6944-.041-5.3914-.059-8.0859-.008-1.0608.087-1.1584 1.167-1.1815.724-.0154 1.448-.018 2.172 0 .956.0257 1.066.1413 1.097 1.1456.018.6421.003 1.2843.003 1.9264 0 3.2955.005 6.5884 0 9.8839-.003 1.3999-.154 1.5488-1.538 1.5565-1.576.0103-3.154-.0231-4.73.0103-.893.0206-1.502-.3005-2.018-1.0634-1.98-2.9384-4.014-5.8358-6.035-8.746-.189-.2748-.422-.5188-.65-.7988-.568.3442-.417.8528-.419 1.2894 0 2.3965.015 4.793.025 7.1895 0 .2132.003.4289 0 .6421-.023 1.3023-.174 1.459-1.489 1.4769-.639.0103-1.279.0283-1.916-.0154-.78-.0539-.921-.2337-.972-1.0428-.007-.1284-.002-.2569-.002-.3853 0-3.894-.005-7.7879 0-11.682 0-1.3382.046-1.3819 1.353-1.3896 1.704-.0102 3.41.0206 5.114-.0128.749-.0154 1.274.2209 1.711.8656 1.944 2.8588 3.924 5.692 5.904 8.5251.274.3904.625.7269.939 1.0891l.266-.1182h-.002v.0001zM278.84 40.578c-1.023 0-2.044-.0103-3.067.0051-.54.0077-.875.2774-.939.8451-.061.542.077.935.688 1.0069.635.0745 1.267.1824 1.904.2132 2.125.1053 4.256.1464 6.38.2877.747.0513 1.504.2568 2.212.5137 1.011.3698 1.569 1.1867 1.63 2.2526.061 1.066.072 2.1396-.003 3.203-.11 1.5283-1.013 2.5455-2.532 2.7792-2.656.4059-5.334.5471-8.02.375-1.358-.0873-2.719-.19-4.062-.3904-2.305-.3467-2.738-1.8006-2.732-3.7912 0-.5728.35-.8553.897-.8656.809-.0154 1.62-.0077 2.428 0 .466.0026.87.1824 1.016.637.266.8271.882.935 1.614.9298 1.919-.0128 3.835.0103 5.753-.0103 1.072-.0128 1.364-.2722 1.374-1.0788.01-.7192-.399-1.1096-1.376-1.1712-1.702-.1079-3.403-.1696-5.106-.2389-1.065-.0437-2.136.0051-3.193-.1105-1.21-.1335-2.348-.4983-2.909-1.7646-.018-.0385-.048-.0745-.058-.113-.387-1.8648-.604-3.727.388-5.4839.456-.8065 1.259-1.1636 2.126-1.2483 3.656-.3622 7.317-.4315 10.97-.0052 1.829.2132 3.034 1.2201 2.975 3.4676-.021.8143-.159.9941-.952 1.0352-.637.0333-1.279-.0103-1.916.0179-.688.0309-1.266-.1027-1.596-.7937-.218-.4572-.65-.5162-1.087-.5214-.937-.0077-1.876 0-2.812 0v.0231l.005-.0051zM103.79 37.021c1.563.0874 3.137.167 4.707.2697.423.0283.852.0925 1.257.2158 1.575.4855 2.458 1.9418 2.228 3.5729-.075.5188-.361.7577-.85.768-.852.0154-1.711.0745-2.55-.0206-.356-.0411-.757-.3621-.988-.6704-.322-.4264-.688-.6036-1.187-.6036-1.872.0026-3.747-.0026-5.62.0103-.522.0026-1.0282.0693-1.2329.6909-.1995.6062-.0307 1.0018.5939 1.1508.493.1181 1.005.1823 1.514.208 2.167.1105 4.336.1978 6.505.2954.425.018.865-.0154 1.274.0796 2.065.4752 2.904 1.1918 2.996 3.2159.043.9786.026 1.9727-.105 2.9384-.202 1.4898-.987 2.3117-2.461 2.5404-2.568.3981-5.162.5445-7.759.3852-1.483-.0899-2.9749-.19-4.4407-.4238-1.9007-.3031-2.9726-1.9881-2.617-3.8862.0947-.5035.3914-.7424.88-.7501.6396-.0102 1.2791.0078 1.9161-.0102.7674-.0206 1.4223.0539 1.7114.9683.0819.2594.5752.5446.8872.5523 2.257.0488 4.513.0308 6.769.0257.568 0 .824-.3571.937-.8708.12-.5497-.115-.9478-.591-1.1379-.384-.1541-.819-.2209-1.236-.2388-2.297-.1028-4.594-.1542-6.8916-.2775-.7546-.0411-1.5041-.2209-2.246-.3852-.9184-.203-1.4786-.84-1.7472-1.703-.4682-1.5103-.4759-3.0335.0614-4.531.4655-1.3048 1.4453-1.9855 2.796-2.0805 1.8244-.1284 3.6534-.2004 5.4954-.298h-.006zM181.54 43.07c0 1.4564.01 2.9102-.008 4.3666-.005.4238-.046.8579-.143 1.2714-.422 1.7801-1.53 2.8152-3.361 3.0181-2.541.2826-5.078.5548-7.639.2723-1.31-.1439-2.637-.167-3.942-.3365-1.914-.2491-3.024-1.3896-3.101-3.3109-.13-3.2467-.173-6.4985-.214-9.7503-.016-1.0762.197-1.2406 1.289-1.2663.683-.0154 1.366-.0257 2.046.0051.87.0386 1.026.185 1.036 1.0891.024 2.0549-.002 4.1097.016 6.1646.005.6396.087 1.2791.128 1.9187.051.8014.488 1.292 1.256 1.387 1.264.1567 2.537.2826 3.809.3391.716.0308 1.44-.1079 2.159-.1593 1.683-.1181 2.208-.6036 2.307-2.268.085-1.4076.123-2.8203.154-4.2304.023-1.0275-.01-2.0549.008-3.0823.02-1.0609.11-1.1379 1.199-1.161.64-.0129 1.279-.018 1.919 0 1 .0308 1.115.1284 1.131 1.1096.023 1.5411.005 3.0823.005 4.6234h-.056.002zM198.57 67.019c.208-.5471.448-1.0865.614-1.6439.502-1.6773.957-3.3699 1.461-5.0472.404-1.3485.563-1.4513 1.993-1.4564.639-.0026 1.279-.0077 1.918.0205.463.018.791.2312.937.7192.603 2.0472 1.212 4.0918 1.847 6.1287.143.4572.394.8784.726 1.6105.371-.6396.627-.9658.763-1.3383.468-1.2791.895-2.5762 1.34-3.8657.279-.8039.519-1.6259.86-2.4042.138-.3159.475-.7115.767-.7551.79-.1156 1.609-.0976 2.412-.054.392.0232.571.334.422.7526-.214.6036-.406 1.2124-.637 1.8109-.992 2.5891-2.021 5.1654-2.972 7.7673-.23.6293-.548.917-1.187.9119-1.195-.0077-2.387-.0103-3.582.0077-.557.0077-.864-.2312-1.007-.768-.341-1.2792-.707-2.5532-1.062-3.8298-.251-.9015-.499-1.8031-.788-2.8382-.678.6627-.755 1.4384-.952 2.1524-.396 1.441-.803 2.882-1.148 4.3358-.172.7218-.566.9709-1.272.9504-1.151-.0334-2.302-.0129-3.453-.0077-.525 0-.862-.1875-1.054-.7269-.473-1.3254-1.011-2.6277-1.504-3.9428-.66-1.7569-1.31-3.5164-1.95-5.281-.112-.3108-.145-.6498-.225-1.0146.965-.5471 1.95-.4161 2.881-.2132.309.0668.611.5805.752.953.719 1.9161 1.374 3.8554 2.074 5.7793.167.4572.42.881.635 1.3202.128-.0103.256-.0231.384-.0334h.007zM127.18 70.194c-1.446 0-2.894.0385-4.339-.0103-2.07-.0668-3.136-1.0814-3.239-3.1748-.084-1.7055-.056-3.4187 0-5.1243.052-1.5694.834-2.8845 2.924-3.0668 3.144-.2749 6.281-.3648 9.417.0308 1.798.2286 2.691 1.0942 2.786 2.8973.094 1.8289.094 3.6731-.005 5.5019-.1 1.8288-1.223 2.8588-3.075 2.9308-1.487.0565-2.978.0102-4.467.0102v.0052h-.002zm-.005-2.8486c.933-.0745 1.867-.1156 2.793-.2286 1-.1207 1.251-.3544 1.343-1.3742.072-.8014.069-1.6233-.018-2.4247-.125-1.1636-.537-1.5874-1.729-1.6362-1.653-.0693-3.313-.0282-4.971.0052-.701.0154-1.299.3955-1.386 1.0942-.133 1.0454-.138 2.1165-.1 3.1721.028.7424.532 1.1225 1.271 1.1765.932.0667 1.86.1438 2.797.2183v-.0026zM228.4 20.713c0 2.6919.005 5.3838-.003 8.0731-.005 1.3074-.187 1.5026-1.45 1.5257-1.149.0231-2.298.0257-3.446 0-1.023-.0231-1.261-.2671-1.274-1.3177-.023-1.7081-.008-3.4162-.008-5.1268v-11.022c0-.3827.008-.7706.067-1.1481.076-.4804.383-.7526.882-.7501 1.405.0077 2.809 0 4.211.0437.796.0257.975.208 1.003 1.0043.038 1.0249.015 2.0497.015 3.0746v5.638l.003.0051v.0002zM101.94 70.191c-1.277 0-2.5583.0591-3.8322-.0257-.6575-.0436-1.338-.262-1.9366-.5497-.8774-.4186-1.4018-1.7492-1.0744-2.6482.0921-.2517.4554-.5214.7265-.5599.5833-.0873 1.1972-.0848 1.7831-.0077.289.0385.6267.2671.8032.5111.3658.5035.8084.7064 1.4121.6987 1.3633-.0206 2.7273 0 4.0883-.0129.253 0 .585.0283.736-.113.254-.2337.52-.5908.53-.9041.008-.2158-.371-.5189-.642-.6499-.248-.1181-.583-.0642-.88-.0719-1.576-.0436-3.154-.0462-4.7251-.1438-.7546-.0463-1.4991-.2543-2.2435-.4187-.7418-.1644-1.1716-.7115-1.3737-1.3896-.3121-1.0403-.3351-2.1191-.0307-3.1671.2814-.9657.8723-1.6567 1.9288-1.8211 3.1392-.4854 6.2752-.5599 9.3932.1156 1.108.2389 1.911 1.6054 1.604 2.6893-.076.2697-.412.6165-.67.655-.668.1027-1.358.0745-2.036.0462-.177-.0077-.432-.1644-.507-.321-.312-.6807-.887-.7167-1.504-.7167-1.187 0-2.376-.0077-3.5634.0052-.2942.0025-.6344-.0052-.8646.1335-.2124.1285-.3991.4444-.4221.6935-.0154.1619.2583.447.4527.5086.3991.1259.8315.167 1.2534.1927 1.87.113 3.74.2132 5.61.3082.898.0437 1.655.3416 2.198 1.1019.754 1.0608.662 4.0455-.21 4.9856-.504.542-1.141.8733-1.921.8656-1.364-.0128-2.725-.0051-4.088-.0051v.0103l.005.0051zM195.28 37.329c2.387 0 4.773-.0077 7.158.0025 1.394.0052 1.506.131 1.522 1.5617.017 1.4812-.707 2.2218-2.172 2.2218-.98 0-1.96-.0154-2.94.0052-1.105.0231-1.22.1361-1.225 1.2868-.01 2.5249-.002 5.0498-.002 7.5748 0 .3005.005.5984-.011.899-.028.6113-.342.9503-.964.958-.808.0077-1.619.0283-2.428 0-.962-.0334-1.169-.2465-1.187-1.2586-.025-1.4538-.005-2.9102-.005-4.364 0-1.1995.005-2.3965 0-3.596-.005-1.4204-.079-1.4923-1.542-1.5026-1.152-.0077-2.303.0103-3.451-.0051-1.341-.0154-1.441-.1079-1.433-1.4872.013-2.1705-.409-2.3246 2.29-2.3015 2.13.018 4.261.0026 6.392.0026l-.002.0026zM263.15 65.663c1.233 1.0762 1.033 2.3991 1.01 3.6782-.01.5086-.281.7937-.788.8219-.34.0206-.68.018-1.023.018-1.207-.0025-1.606.2055-1.576-1.4255.021-1.0557-.322-1.4127-1.353-1.4513-1.489-.0565-2.983-.0436-4.474-.0154-.814.0154-.949.1901-1.021.9915-.005.0436.003.0873-.002.1284-.09.56.278 1.4127-.425 1.5951-.831.2158-1.758.0796-2.64.0462-.118-.0051-.281-.3056-.32-.4906-.061-.2876-.041-.5959-.041-.8938-.002-2.7818-.007-5.5636 0-8.3479.003-1.3228.095-1.4333 1.343-1.441 3.198-.0128 6.393 0 9.591-.0025 1.596 0 2.752.4854 2.952 2.9256.112 1.3844.079 2.7638-1.233 3.8657v-.0026zm-5.869-3.9967h-.895c-.34 0-.68-.0051-1.023 0-1.32.018-1.463.1695-1.443 1.4872 0 .1284.005.2569.008.3853.007.6267.309.9452.946.9375.724-.0077 1.448.0052 2.172 0 .852-.0102 1.709.036 2.551-.0668 1.036-.1233 1.304-.5368 1.22-1.5642-.067-.8194-.399-1.1225-1.364-1.1636-.721-.0308-1.448-.0051-2.172-.0051v-.0103zM281.61 58.866c1.619 0 3.239-.0052 4.858 0 .461 0 1.074-.0925 1.182.4854.112.6062.051 1.274-.097 1.8751-.041.1669-.665.262-1.021.2671-2.003.0257-4.006.0077-6.007.0154-.381 0-.785-.018-1.133.1028-.227.0796-.547.4212-.519.5959.043.2748.297.6087.55.732.281.1361.665.0822 1.005.0822 1.791.0051 3.579-.0128 5.37.0077 1.294.0129 1.865.9684 1.333 2.1576-.215.4803-.632.5291-1.067.5317-1.448.0077-2.899.0052-4.346.0077-.681 0-1.364-.0154-2.044.018-.446.0206-.883.1541-.855.7295.023.4931.348.7705.821.8348.295.0411.594.0308.893.0308 1.919 0 3.835-.0052 5.753 0 1.448.0051 2.05.8733 1.548 2.268-.074.2055-.307.3956-.512.5035-.173.0899-.414.0616-.626.0616-3.367.0026-6.733.0103-10.097-.0025-1.07-.0052-1.187-.1208-1.195-1.179-.018-2.995-.015-5.9899-.003-8.9849.006-.9863.136-1.1225 1.108-1.1379 1.704-.0257 3.408-.0077 5.114-.0077l-.013.0052zM143.28 44.464c0-1.9265-.007-3.8529.003-5.7793.008-1.31.051-1.3408 1.397-1.3537h.639c2.574.0231 2.443-.3467 2.436 2.3837-.006 2.1832 0 4.3665 0 6.5498 0 1.7287.043 1.7723 1.816 1.7749 2.346.0026 4.689-.0077 7.035.0026 1.207.0051 1.307.1156 1.335 1.3177.01.4289.015.8579 0 1.2842-.036 1.0018-.194 1.1662-1.223 1.1996-.767.0231-1.535.0077-2.302.0077-3.282 0-6.564.0077-9.849-.0052-1.174-.0051-1.31-.1721-1.307-1.3459.005-2.0112 0-4.025 0-6.0361h.02zM223.14 69.922c.883-1.7081 1.661-3.2236 2.451-4.7339.949-1.816 1.942-3.614 2.845-5.4531.291-.5933.675-.8502 1.276-.8553 1.236-.0103 2.474-.0154 3.71.0026.59.0077 1.033.2568 1.325.8296 1.568 3.0849 3.162 6.1543 4.737 9.234.133.2595.179.5626.274.8734-.583.5959-1.302.2953-1.947.3544-.985.0925-1.867.0129-2.218-1.1841-.14-.4777-.611-.6832-1.13-.6807-1.919.0026-3.838.0077-5.756-.0025-.64-.0026-1.077.3031-1.277.8759-.296.8476-.913 1.0531-1.711 1.0017-.785-.0514-1.599.1181-2.576-.262h-.003zm10.691-4.3203c-.658-1.3819-1.162-2.5044-1.722-3.596-.243-.4752-.754-.5163-1.015-.0668-.655 1.1276-1.277 2.2834-1.656 3.7116 1.446.1258 2.768.1541 4.395-.0488h-.002zM151.99 58.869c1.532 0 3.067-.0077 4.599.0052.458.0025 1.088-.0848 1.213.452.141.5959.087 1.2715-.049 1.8751-.038.1695-.657.2851-1.013.2902-1.788.0309-3.579.0155-5.367.0155-.299 0-.598-.0155-.893.0128-.752.0693-.926.2491-.941.9247-.018.7526.182 1.0325.952 1.0505 1.66.0386 3.323.0154 4.983.018.34 0 .693-.0437 1.018.0283.269.059.693.2286.722.4032.102.6062.176 1.2638.043 1.8545-.123.5394-.729.4804-1.2.4804-1.703 0-3.407-.0103-5.111.0051-1.302.0103-1.384.1027-1.407 1.3793-.01.5985 0 1.197-.028 1.7955-.021.4495-.279.6986-.737.714-.043 0-.084.0026-.128.0026-2.916.0462-2.494.0514-2.507-2.3297-.015-2.5249-.007-5.0473 0-7.5722.005-1.2817.113-1.3947 1.382-1.405 1.491-.0154 2.983-.0025 4.471-.0025l-.002.0025zM174.58 58.866c1.788 0 3.574-.0052 5.362.0051.453 0 1.098-.1207 1.185.4649.102.6858-.018 1.4153-.141 2.1088-.023.1336-.507.2543-.783.2646-.893.0334-1.788 0-2.681.0205-1.051.0231-1.271.2209-1.289 1.292-.028 1.7954-.01 3.5883-.01 5.3837 0 .3417-.006.6833-.013 1.0249-.01.4495-.213.7269-.688.7423-.044 0-.085.0052-.128.0052-3.124.0539-2.771.0308-2.776-2.5018 0-1.5386.013-3.0772-.005-4.6158-.013-1.1944-.151-1.3202-1.323-1.3356-.808-.0103-1.616.0231-2.425-.0103-.936-.0385-1.105-.2286-1.151-1.1481-.008-.1696-.008-.3417 0-.5138.033-.9221.2-1.1327 1.121-1.1738.933-.0437 1.872-.0128 2.808-.0154h2.937v.0026zM209.03 44.596c0-2.0061-.008-4.0122.003-6.0182.007-1.2098.041-1.2329 1.205-1.2458.764-.0077 1.529-.0231 2.294.0052.888.0308 1.11.2517 1.139 1.1635.03.9812.007 1.9624.007 2.9436 0 2.9025.008 5.805-.002 8.7075-.005 1.4923-.21 1.6798-1.714 1.6978-.509.0051-1.021.0051-1.53 0-1.315-.0154-1.392-.0796-1.399-1.3639-.013-1.6644-.003-3.3289-.003-4.9933v-.8964z"/></svg>