<svg width="1521" height="878" xmlns="http://www.w3.org/2000/svg" clip-rule="evenodd" version="1.1">

 <g>
  <title>Layer 1</title>
  <g id="svg_3">
   <path id="svg_4" d="m736.03772,0.54349c44.95,-2.507 88.62,3.659 131,18.5c69.45,31.45 116.61,83.284 141.5,155.5c16.6,53.064 16.6,106.064 0,159c-10.39,18.111 -25.89,25.277 -46.5,21.5c-18.31,-6.807 -27.97,-19.974 -29,-39.5c2.69,-17.287 5.19,-34.62 7.5,-52c1.49,-75.204 -31.01,-130.037 -97.5,-164.5c-77.77,-32.316 -148.1,-20.65 -211,35c-51.45,53.968 -65.62,116.468 -42.5,187.5c24.96,55.409 66.46,92.242 124.5,110.5c48.69,10.67 95.36,4.67 140,-18c-35.2,-27.904 -53.87,-64.404 -56,-109.5c2.74,-44.804 20.07,-82.804 52,-114c1.31,0.813 2.48,1.813 3.5,3c14.88,21.258 29.38,42.758 43.5,64.5c-17.07,21.649 -18.57,44.482 -4.5,68.5c6.47,9.103 13.97,17.27 22.5,24.5c24.51,16.42 48.84,33.086 73,50c27.33,22.491 45.17,50.991 53.5,85.5c0.5,10.995 0.67,21.995 0.5,33c-28.67,0 -57.33,0 -86,0c-1.19,-20.899 -11.19,-35.732 -30,-44.5c-9.51,-2.208 -18.85,-1.541 -28,2c-12.95,5.806 -25.61,12.139 -38,19c-89.21,37.58 -174.21,29.91 -255,-23c-70.69,-53.13 -108.02,-124.13 -112,-213c2.04,-83.407 35.7,-150.741 101,-202c41.81,-32.77 89.14,-51.937 142,-57.5z" fill="#449ffc"/>
  </g>
  <g id="svg_5">
   <path id="svg_6" d="m1332.03772,710.54349c13.82,1 27.82,1.33 42,1c0,14 0,28 0,42c-14,0 -28,0 -42,0c0,40.33 0,80.67 0,121c-19,0 -38,0 -57,0c0,-40.33 0,-80.67 0,-121c-8,0 -16,0 -24,0c0,-14.33 0,-28.67 0,-43c8,0 16,0 24,0c-0.17,-11.67 0,-23.34 0.5,-35c1.99,-21.15 11.15,-38.32 27.5,-51.5c10.65,-7.46 22.48,-10.96 35.5,-10.5c8.9,0.1 17.74,0.93 26.5,2.5c7.65,2.61 15.32,5.11 23,7.5c-3.21,14.52 -6.88,28.85 -11,43c-10.25,-4.42 -20.92,-5.92 -32,-4.5c-6.6,2.67 -10.76,7.5 -12.5,14.5c-0.5,11.33 -0.67,22.66 -0.5,34z" fill="#5a6c70"/>
  </g>
  <g id="svg_7">
   <path id="svg_8" d="m905.03772,621.54349c38.22,-1.78 73.56,7.39 106,27.5c-8.37,15.91 -16.87,31.75 -25.5,47.5c-22.74,-15.69 -47.9,-23.52 -75.5,-23.5c-9.83,0.99 -17,5.83 -21.5,14.5c-1.91,9.68 1.26,17.18 9.5,22.5c6.09,3.25 12.42,5.92 19,8c24.17,5.61 47.5,13.61 70,24c26.46,17.46 36.63,41.96 30.5,73.5c-7.21,31.54 -26.71,50.71 -58.5,57.5c-48.64,8.87 -94.31,0.87 -137,-24c-1.83,-0.9 -3.16,-2.23 -4,-4c7.94,-16.72 16.28,-33.22 25,-49.5c29.18,21.63 61.85,30.8 98,27.5c11.52,-3.21 16.36,-10.71 14.5,-22.5c-4.97,-8.25 -12.14,-13.75 -21.5,-16.5c-16.95,-5.49 -33.95,-10.82 -51,-16c-16.14,-5.32 -30.31,-13.82 -42.5,-25.5c-9.09,-12.46 -13.26,-26.46 -12.5,-42c0.8,-29.44 13.8,-51.61 39,-66.5c12.1,-6.31 24.76,-10.48 38,-12.5z" fill="#5a6b70"/>
  </g>
  <g id="svg_9">
   <path id="svg_10" d="m103.03772,622.54349c59.954,-3.28 102.12,22.38 126.5,77c17.342,47.94 10.842,92.27 -19.5,133c12.851,13.68 25.518,27.52 38,41.5c-18.333,0.67 -36.667,0.67 -55,0c-4.616,-4.74 -9.116,-9.57 -13.5,-14.5c-56.093,29.23 -105.76,20.89 -149,-25c-28.206,-36.02 -36.873,-76.36 -26,-121c15.177,-49.68 48.01,-80.02 98.5,-91z" fill="#5a6b70"/>
  </g>
  <g id="svg_11">
   <path id="svg_12" d="m584.03772,622.54349c61.46,-2.2 103.62,25.13 126.5,82c16.52,52.74 6.02,99.24 -31.5,139.5c-40.78,35.74 -85.78,42.07 -135,19c-38,-23.14 -59.5,-56.97 -64.5,-101.5c-3.37,-50.76 15.47,-90.92 56.5,-120.5c14.86,-9.45 30.86,-15.61 48,-18.5z" fill="#5a6b70"/>
  </g>
  <g id="svg_13">
   <path id="svg_14" d="m274.03772,623.54349c37.335,-0.17 74.668,0 112,0.5c34.52,4.68 58.35,23.18 71.5,55.5c10.98,35.91 3.48,67.41 -22.5,94.5c-9.89,8.61 -21.22,14.61 -34,18c-22.973,1.39 -45.973,1.89 -69,1.5c0,27 0,54 0,81c-19.333,0 -38.667,0 -58,0c0,-83.67 0,-167.33 0,-251z" fill="#5a6b70"/>
  </g>
  <g id="svg_15">
   <path id="svg_16" d="m1469.03772,630.54349c1,19.16 1.33,38.49 1,58c12.51,-0.33 24.84,0 37,1c-12.67,0 -25.33,0 -38,0c0,-19.67 0,-39.33 0,-59z" fill="#cad0d1"/>
  </g>
  <g id="svg_17">
   <path id="svg_18" d="m1413.03772,630.54349c18.67,0 37.33,0 56,0c0,19.67 0,39.33 0,59c12.67,0 25.33,0 38,0c0,14 0,28 0,42c-12.67,0 -25.33,0 -38,0c-0.33,27.84 0,55.51 1,83c3.13,9.74 9.79,13.57 20,11.5c6.55,-1.13 12.88,-2.96 19,-5.5c0.67,0.33 1.33,0.67 2,1c3.46,13.97 6.79,27.97 10,42c-24.83,13.4 -51.17,17.23 -79,11.5c-18.66,-7.48 -28.33,-21.32 -29,-41.5c0,-34 0,-68 0,-102c-8,0 -16,0 -24,0c0,-14 0,-28 0,-42c8,0 16,0 24,0c0,-19.67 0,-39.33 0,-59z" fill="#5a6b70"/>
  </g>
  <g id="svg_19">
   <path id="svg_20" d="m1413.03772,630.54349c0,19.67 0,39.33 0,59c-8,0 -16,0 -24,0c7.48,-0.99 15.15,-1.33 23,-1c-0.33,-19.51 0,-38.84 1,-58z" fill="#c2c9ca"/>
  </g>
  <g id="svg_21">
   <path id="svg_22" d="m111.03772,673.54349c31.719,-0.78 53.052,13.72 64,43.5c6.747,21.86 6.58,43.7 -0.5,65.5c-0.885,2.5 -2.052,4.83 -3.5,7c-4.186,-4.35 -8.186,-8.85 -12,-13.5c-18.333,-0.67 -36.667,-0.67 -55,0c13,14.33 26,28.67 39,43c-34.809,12.35 -60.309,1.85 -76.5,-31.5c-12.515,-32.34 -9.515,-63 9,-92c9.332,-11.57 21.165,-18.91 35.5,-22z" fill="#0f0f11"/>
  </g>
  <g id="svg_23">
   <path id="svg_24" d="m586.03772,674.54349c33.67,-3.34 56.34,10.83 68,42.5c9.78,30.73 5.95,59.56 -11.5,86.5c-18.58,21.27 -41.08,26.77 -67.5,16.5c-20.04,-11.75 -31.88,-29.25 -35.5,-52.5c-4.52,-24.75 -0.18,-47.75 13,-69c8.58,-11.77 19.75,-19.77 33.5,-24z" fill="#0f0f11"/>
  </g>
  <g id="svg_25">
   <path id="svg_26" d="m332.03772,674.54349c16.67,-0.17 33.337,0 50,0.5c15.27,5.5 22.6,16.5 22,33c0.47,8.71 -1.37,16.88 -5.5,24.5c-3.9,5.37 -9.07,8.87 -15.5,10.5c-16.997,0.5 -33.997,0.67 -51,0.5c0,-23 0,-46 0,-69z" fill="#0f0f11"/>
  </g>
  <g id="svg_27">
   <path id="svg_28" d="m1123.03772,685.54349c35.66,-3.51 65.83,7.49 90.5,33c24.53,32.21 29.2,67.21 14,105c-19.07,36.69 -49.4,54.69 -91,54c-36.27,1.03 -64.61,-13.3 -85,-43c-15.31,-29.33 -17.65,-59.66 -7,-91c10.65,-24.65 28.48,-41.82 53.5,-51.5c8.26,-2.98 16.59,-5.15 25,-6.5z" fill="#5a6b70"/>
  </g>
  <g id="svg_29">
   <path id="svg_30" d="m1332.03772,710.54349c14.33,0 28.67,0 43,0c0.33,14.51 0,28.84 -1,43c0,-14 0,-28 0,-42c-14.18,0.33 -28.18,0 -42,-1z" fill="#808e91"/>
  </g>
  <g id="svg_31">
   <path id="svg_32" d="m1389.03772,731.54349c8,0 16,0 24,0c0,34 0,68 0,102c-1,-33.5 -1.33,-67.16 -1,-101c-7.85,0.33 -15.52,-0.01 -23,-1z" fill="#c1c9ca"/>
  </g>
  <g id="svg_33">
   <path id="svg_34" d="m1129.03772,733.54349c25.61,-1.55 41.44,10.12 47.5,35c3.4,18.04 -0.26,34.38 -11,49c-16.11,15.09 -33.61,16.92 -52.5,5.5c-8.87,-7.54 -14.37,-17.04 -16.5,-28.5c-4.06,-19.81 0.78,-36.98 14.5,-51.5c5.65,-3.99 11.65,-7.16 18,-9.5z" fill="#0f0f11"/>
  </g>
  <g id="svg_35">
   <path id="svg_36" d="m1507.03772,731.54349c-12.16,1 -24.49,1.33 -37,1c0,27.33 0,54.67 0,82c-1,-27.49 -1.33,-55.16 -1,-83c12.67,0 25.33,0 38,0z" fill="#c7cece"/>
  </g>
 </g>
</svg>
