<svg width="454" height="105" xmlns="http://www.w3.org/2000/svg" xml:space="preserve" version="1.1">

 <g>
  <title>Layer 1</title>
  <g id="svg_1">
   <path id="svg_2" fill="#46a5a5" d="m352.3,15c-0.8,0.2 -1.5,0.6 -1.9,1.2c-0.4,0.6 -0.6,1.4 -0.6,2.5c0,0.8 0.1,1.5 0.3,2s0.6,1 1,1.3c0.5,0.3 1.1,0.6 2,0.8l4.1,1c0.7,0.2 1.2,0.4 1.7,0.6c0.4,0.2 0.6,0.7 0.6,1.3c0,0.5 -0.1,0.9 -0.4,1.2c-0.2,0.3 -0.7,0.4 -1.3,0.5s-1.4,0.1 -2.5,0.1l-1.8,0c-0.6,0 -1.2,0 -1.7,0s-1,0 -1.5,-0.1l-0.2,2c1.3,0.2 2.4,0.3 3.5,0.4c1.1,0 1.9,0.1 2.4,0.1c1.4,0 2.6,-0.1 3.5,-0.3c0.9,-0.2 1.6,-0.6 2.1,-1.2c0.4,-0.6 0.7,-1.5 0.7,-2.7c0,-1.3 -0.3,-2.2 -0.8,-2.7c-0.6,-0.6 -1.4,-1 -2.6,-1.3l-4.1,-1c-0.7,-0.2 -1.2,-0.3 -1.6,-0.6c-0.3,-0.2 -0.5,-0.7 -0.5,-1.4c0,-0.6 0.1,-1 0.3,-1.2s0.6,-0.4 1.1,-0.4c0.5,-0.1 1.2,-0.1 2.1,-0.1c0.9,0 1.8,0 2.8,0c0.9,0 1.9,0.1 2.8,0.1l0.2,-2c-0.6,-0.1 -1.3,-0.2 -2,-0.2c-0.7,-0.1 -1.5,-0.1 -2.2,-0.1s-1.4,-0.1 -2.1,-0.1c-1.4,0 -2.5,0.1 -3.4,0.3m-15,0c-0.8,0.2 -1.5,0.6 -1.9,1.2c-0.4,0.6 -0.6,1.4 -0.6,2.5c0,0.8 0.1,1.5 0.3,2s0.6,1 1,1.3c0.5,0.3 1.1,0.6 2,0.8l4.1,1c0.7,0.2 1.2,0.4 1.7,0.6c0.4,0.2 0.6,0.7 0.6,1.3c0,0.5 -0.1,0.9 -0.4,1.2c-0.2,0.3 -0.7,0.4 -1.3,0.5s-1.4,0.1 -2.5,0.1l-1.8,0c-0.6,0 -1.2,0 -1.7,0s-1,0 -1.5,-0.1l-0.2,2c1.3,0.2 2.4,0.3 3.5,0.4s1.9,0.1 2.4,0.1c1.4,0 2.6,-0.1 3.5,-0.3c0.9,-0.2 1.6,-0.6 2.1,-1.2c0.4,-0.6 0.7,-1.5 0.7,-2.7c0,-1.3 -0.3,-2.2 -0.8,-2.7c-0.6,-0.6 -1.4,-1 -2.6,-1.3l-4.1,-1c-0.7,-0.2 -1.2,-0.3 -1.6,-0.6c-0.3,-0.2 -0.5,-0.7 -0.5,-1.4c0,-0.6 0.1,-1 0.3,-1.2s0.6,-0.4 1.1,-0.4c0.5,-0.1 1.2,-0.1 2.1,-0.1c0.9,0 1.8,0 2.8,0c0.9,0 1.9,0.1 2.8,0.1l0.2,-2c-0.6,-0.1 -1.3,-0.2 -2,-0.2c-0.7,-0.1 -1.5,-0.1 -2.2,-0.1s-1.4,-0.1 -2.1,-0.1c-1.4,0 -2.5,0.1 -3.4,0.3m-7.9,-6.1c-0.6,0 -0.9,0.3 -0.9,0.9l0,1.7c0,0.6 0.3,0.9 0.9,0.9l1.3,0c0.6,0 0.9,-0.3 0.9,-0.9l0,-1.7c0,-0.6 -0.3,-0.9 -0.9,-0.9l-1.3,0zm-0.7,20.7l2.8,0l0,-14.5l-2.8,0l0,14.5zm-5.9,-14.5l-2.8,10.5c-0.1,0.4 -0.2,0.8 -0.2,1.1c-0.1,0.4 -0.1,0.7 -0.2,1.1l-0.5,0c-0.1,-0.4 -0.2,-0.8 -0.2,-1.1c-0.1,-0.4 -0.2,-0.7 -0.2,-1.1l-2.2,-9.5c-0.1,-0.3 -0.2,-0.5 -0.4,-0.7c-0.2,-0.2 -0.4,-0.3 -0.7,-0.3l-2.4,0c-0.3,0 -0.5,0.1 -0.7,0.3s-0.3,0.4 -0.3,0.6l-2.3,9.6c-0.1,0.4 -0.2,0.8 -0.3,1.1c-0.1,0.4 -0.2,0.7 -0.3,1.1l-0.4,0c-0.1,-0.4 -0.1,-0.8 -0.2,-1.1c-0.1,-0.4 -0.2,-0.7 -0.2,-1.1l-2.8,-10.5l-3,0l4.1,13.7c0.1,0.2 0.2,0.4 0.4,0.6c0.2,0.1 0.4,0.2 0.7,0.2l2.4,0c0.3,0 0.5,-0.1 0.7,-0.3c0.2,-0.2 0.3,-0.4 0.4,-0.6l2.2,-9.6c0.1,-0.4 0.2,-0.8 0.3,-1.1c0.1,-0.4 0.2,-0.8 0.2,-1.2l0.4,0c0.1,0.4 0.2,0.8 0.3,1.2c0.1,0.4 0.1,0.8 0.2,1.1l2.2,9.6c0,0.3 0.2,0.5 0.4,0.6c0.2,0.2 0.4,0.3 0.7,0.3l2.5,0c0.3,0 0.5,-0.1 0.7,-0.2s0.3,-0.3 0.4,-0.6l4.1,-13.7l-3,0zm-32.6,-0.1c-0.8,0.2 -1.5,0.6 -1.9,1.2c-0.4,0.6 -0.6,1.4 -0.6,2.5c0,0.8 0.1,1.5 0.3,2c0.2,0.5 0.6,1 1,1.3c0.5,0.3 1.1,0.6 2,0.8l4.1,1c0.7,0.2 1.2,0.4 1.7,0.6c0.4,0.2 0.6,0.7 0.6,1.3c0,0.5 -0.1,0.9 -0.4,1.2c-0.2,0.3 -0.7,0.4 -1.3,0.5c-0.6,0.1 -1.4,0.1 -2.5,0.1l-1.8,0c-0.6,0 -1.2,0 -1.7,0s-1,0 -1.5,-0.1l-0.2,2c1.3,0.2 2.4,0.3 3.5,0.4c1.1,0 1.9,0.1 2.4,0.1c1.4,0 2.6,-0.1 3.5,-0.3c0.9,-0.2 1.6,-0.6 2.1,-1.2c0.4,-0.6 0.7,-1.5 0.7,-2.7c0,-1.3 -0.3,-2.2 -0.8,-2.7c-0.6,-0.6 -1.4,-1 -2.6,-1.3l-4.1,-1c-0.7,-0.2 -1.2,-0.3 -1.6,-0.6c-0.3,-0.2 -0.5,-0.7 -0.5,-1.4c0,-0.6 0.1,-1 0.3,-1.2c0.2,-0.2 0.6,-0.4 1.1,-0.4c0.5,-0.1 1.2,-0.1 2.1,-0.1s1.8,0 2.8,0c0.9,0 1.9,0.1 2.8,0.1l0.2,-2c-0.6,-0.1 -1.3,-0.2 -2,-0.2c-0.7,-0.1 -1.5,-0.1 -2.2,-0.1s-1.4,-0.1 -2.1,-0.1c-1.4,0 -2.5,0.1 -3.4,0.3" class="st0"/>
   <g id="svg_3">
    <path id="svg_4" fill="#46a5a5" d="m305.6,44.4c-1,0 -2,0.2 -3,0.7c-0.9,0.4 -1.8,1 -2.8,1.9c-0.2,-0.6 -0.4,-1.2 -0.8,-1.6c-0.7,-0.7 -1.6,-1 -2.9,-1c-1.1,0 -2.1,0.2 -3,0.7c-0.9,0.4 -1.9,1.1 -2.8,1.9l-0.2,-2.3l-2.4,0l0,14.5l2.9,0l0,-10.4c0.6,-0.4 1.2,-0.8 1.7,-1.1c0.5,-0.3 1,-0.6 1.5,-0.7c0.4,-0.1 0.9,-0.2 1.4,-0.2c0.7,0 1.3,0.2 1.6,0.6c0.4,0.4 0.5,1 0.5,1.9l0,10.1l2.8,0l0,-10.4c0.6,-0.4 1.2,-0.8 1.6,-1.1c0.5,-0.3 1,-0.6 1.5,-0.7c0.4,-0.2 0.9,-0.2 1.4,-0.2c0.8,0 1.3,0.2 1.6,0.6c0.3,0.4 0.5,1 0.5,1.8l0,10.1l2.9,0l0,-10.9c0,-1.3 -0.3,-2.3 -1,-3c-0.7,-0.9 -1.7,-1.2 -3,-1.2z" class="st0"/>
    <path id="svg_5" fill="#46a5a5" d="m335.4,45.1c-1,0.5 -2,1.1 -3,1.9l-0.3,-2.3l-2.2,0l0,14.5l2.9,0l0,-10.4c1.1,-0.5 2,-0.9 2.8,-1.2c0.8,-0.3 1.7,-0.5 2.5,-0.5l0.9,0l0.3,-2.7l-0.7,0c-1,0 -2.1,0.2 -3.2,0.7z" class="st0"/>
    <path id="svg_6" fill="#46a5a5" d="m349.4,51.7c-0.2,-0.2 -0.4,-0.4 -0.5,-0.5l0,-0.1c0.1,-0.1 0.3,-0.3 0.5,-0.5s0.4,-0.4 0.5,-0.6l4.4,-5.3l-3.3,0l-4.4,5.3l-1.9,0c0,-0.2 0.1,-0.5 0.1,-0.7c0.1,-0.5 0.1,-1.1 0.1,-1.8l0,-9.1l-2.9,0l0,20.9l2.9,0l0,-4.9c0,-0.5 0,-1.1 -0.1,-1.6c0,-0.2 0,-0.4 -0.1,-0.7l1.9,0l4.8,7.2l3.3,0l-4.9,-6.9c-0.1,-0.3 -0.2,-0.5 -0.4,-0.7z" class="st0"/>
    <path id="svg_7" fill="#46a5a5" d="m451,57.1c-0.9,0.1 -1.8,0.1 -2.5,0.1c-1.1,0 -1.9,-0.1 -2.6,-0.4s-1.1,-0.8 -1.4,-1.6c-0.2,-0.5 -0.3,-1.1 -0.4,-1.9l6.4,0c1.3,0 2.3,-0.4 2.8,-1.1c0.6,-0.7 0.9,-1.7 0.8,-3c0,-1.6 -0.5,-2.8 -1.5,-3.6c-1,-0.8 -2.6,-1.2 -4.9,-1.2c-1.6,0 -2.9,0.2 -3.9,0.7s-1.8,1.3 -2.2,2.4c-0.5,1.1 -0.7,2.6 -0.7,4.5c0,1.8 0.2,3.3 0.7,4.4s1.2,1.9 2.3,2.5c1,0.5 2.4,0.8 4.1,0.8c0.6,0 1.3,0 2,-0.1s1.4,-0.2 2.1,-0.3c0.7,-0.1 1.3,-0.3 1.7,-0.5l-0.3,-1.9c-0.7,0.1 -1.5,0.2 -2.5,0.2zm-5.4,-10c0.6,-0.3 1.4,-0.4 2.4,-0.4c1.2,0 2.1,0.2 2.6,0.6s0.8,1 0.8,1.9c0,0.5 -0.1,1 -0.3,1.4s-0.6,0.6 -1.3,0.6l-5.7,0c0,-1.1 0.1,-1.9 0.3,-2.5c0.2,-0.8 0.6,-1.3 1.2,-1.6z" class="st0"/>
    <path id="svg_8" fill="#46a5a5" d="m323.5,44.8c-0.8,-0.3 -1.7,-0.4 -2.8,-0.4c-0.7,0 -1.5,0 -2.4,0.1s-1.7,0.1 -2.5,0.2s-1.6,0.2 -2.2,0.3l0.3,2.1c1.1,-0.1 2.2,-0.2 3.4,-0.2c1.1,-0.1 2.1,-0.1 2.8,-0.1c1.1,0 1.9,0.2 2.2,0.6c0.4,0.4 0.6,1 0.6,1.8l0,1.2l-5.9,0c-1.3,0 -2.3,0.3 -3,1c-0.7,0.6 -1.1,1.5 -1.1,2.7l0,1.6c0,0.9 0.2,1.6 0.6,2.2s0.9,1.1 1.6,1.4s1.4,0.5 2.3,0.5c0.8,0 1.6,-0.1 2.2,-0.4c0.7,-0.2 1.3,-0.5 1.9,-0.9c0.6,-0.4 1,-0.7 1.4,-1.1c0.1,-0.1 0.2,-0.2 0.3,-0.3l0.3,2.4l2.3,0l0,-10.1c0,-1.2 -0.2,-2.2 -0.6,-2.9c-0.4,-0.9 -0.9,-1.4 -1.7,-1.7zm-1.6,11.1c-0.7,0.4 -1.4,0.7 -2.1,1c-0.7,0.2 -1.3,0.3 -1.9,0.3c-0.8,0 -1.3,-0.2 -1.7,-0.5c-0.3,-0.3 -0.5,-0.8 -0.5,-1.6l0,-0.9c0,-0.6 0.1,-1 0.4,-1.4c0.3,-0.3 0.7,-0.5 1.4,-0.5l5.3,0l0,2.8c-0.2,0.3 -0.5,0.6 -0.9,0.8z" class="st0"/>
    <path id="svg_9" fill="#46a5a5" d="m436.9,57.1c-0.6,0 -1.1,0.1 -1.5,0.1s-0.9,0 -1.2,0c-1.1,0 -2,-0.1 -2.6,-0.4s-1.1,-0.8 -1.4,-1.6s-0.4,-1.8 -0.4,-3.2c0,-1.3 0.1,-2.4 0.4,-3.2c0.3,-0.8 0.7,-1.3 1.4,-1.6c0.6,-0.3 1.5,-0.4 2.6,-0.4c0.5,0 1.1,0 1.9,0c0.7,0 1.4,0.1 2.1,0.1l0.4,-1.8c-0.5,-0.2 -1,-0.3 -1.6,-0.4s-1.2,-0.2 -1.7,-0.2s-1,-0.1 -1.5,-0.1c-1.7,0 -3.1,0.2 -4.1,0.7s-1.8,1.3 -2.2,2.4c-0.5,1.1 -0.7,2.6 -0.7,4.5s0.2,3.4 0.7,4.5s1.2,1.9 2.2,2.4s2.4,0.7 4.1,0.7c0.9,0 1.8,-0.1 2.7,-0.2s1.7,-0.3 2.4,-0.6l-0.3,-1.9c-0.6,0.1 -1.1,0.1 -1.7,0.2z" class="st0"/>
    <path id="svg_10" fill="#46a5a5" d="m393.2,44.4c-0.7,0 -1.4,0.1 -2.2,0.3c-0.8,0.2 -1.5,0.6 -2.1,1s-1.2,0.8 -1.6,1.3l-0.2,-2.3l-2.4,0l0,20.5l2.9,0l0,-4.1c0,-0.6 0,-1.2 0,-1.7c0,-0.4 -0.1,-0.9 -0.1,-1.3c0.8,0.5 1.6,0.9 2.5,1.1c0.9,0.3 1.9,0.4 2.8,0.4c1.3,0 2.3,-0.2 3.1,-0.7s1.4,-1.3 1.8,-2.4c0.4,-1.1 0.6,-2.6 0.6,-4.5c0,-2.5 -0.4,-4.4 -1.2,-5.7c-0.9,-1.3 -2.1,-1.9 -3.9,-1.9zm1.7,10.9c-0.2,0.8 -0.6,1.3 -1.1,1.5c-0.5,0.3 -1.1,0.4 -1.9,0.4c-0.8,0 -1.5,-0.1 -2.2,-0.2c-0.7,-0.2 -1.4,-0.4 -2.2,-0.6l0,-7.5c0.9,-0.7 1.7,-1.2 2.4,-1.6c0.7,-0.3 1.5,-0.5 2.2,-0.5s1.3,0.2 1.8,0.5c0.4,0.3 0.8,0.9 1,1.6c0.2,0.8 0.3,1.8 0.3,3.2s-0.1,2.4 -0.3,3.2z" class="st0"/>
    <path id="svg_11" fill="#46a5a5" d="m368.5,52.2c0.6,-0.7 0.9,-1.7 0.8,-3c0,-1.6 -0.5,-2.8 -1.5,-3.6c-1,-0.8 -2.6,-1.2 -4.9,-1.2c-1.6,0 -2.9,0.2 -3.9,0.7s-1.8,1.3 -2.2,2.4c-0.5,1.1 -0.7,2.6 -0.7,4.5c0,1.8 0.2,3.3 0.7,4.4s1.2,1.9 2.3,2.5c1,0.5 2.4,0.8 4.1,0.8c0.6,0 1.3,0 2,-0.1s1.4,-0.2 2.1,-0.3c0.7,-0.1 1.3,-0.3 1.7,-0.5l-0.3,-1.9c-0.8,0.1 -1.6,0.2 -2.6,0.3s-1.8,0.1 -2.5,0.1c-1.1,0 -1.9,-0.1 -2.6,-0.4c-0.6,-0.3 -1.1,-0.8 -1.4,-1.6c-0.2,-0.5 -0.3,-1.1 -0.4,-1.9l6.4,0c1.3,-0.2 2.3,-0.5 2.9,-1.2zm-9.4,-1c0,-1.1 0.1,-1.9 0.3,-2.5c0.2,-0.7 0.6,-1.3 1.2,-1.5c0.6,-0.3 1.4,-0.4 2.4,-0.4c1.2,0 2.1,0.2 2.6,0.6s0.8,1 0.8,1.9c0,0.5 -0.1,1 -0.3,1.4s-0.6,0.6 -1.3,0.6l-5.7,0l0,-0.1z" class="st0"/>
    <path id="svg_12" fill="#46a5a5" d="m406.6,57c-0.6,0 -1.1,-0.2 -1.4,-0.5c-0.3,-0.3 -0.5,-0.8 -0.5,-1.4l0,-16.7l-2.9,0l0,17.4c0,1.2 0.3,2.1 1,2.8c0.7,0.6 1.6,1 2.7,1c0.3,0 0.6,0 0.9,0c0.4,0 0.7,-0.1 1.1,-0.1c0.3,-0.1 0.6,-0.1 0.8,-0.2l-0.3,-2.1l-1.4,0l0,-0.2l0,0z" class="st0"/>
    <path id="svg_13" fill="#46a5a5" d="m377.2,40.5l-2.9,0l0,4.3l-2.6,0.1l0,2l2.6,0l0,8.7c0,1.3 0.3,2.2 1,2.9c0.7,0.7 1.6,1 2.8,1c0.3,0 0.6,0 1,0s0.9,-0.1 1.3,-0.1c0.4,-0.1 0.8,-0.1 1.1,-0.2l-0.3,-2.1l-2.1,0c-0.7,0 -1.2,-0.1 -1.5,-0.4s-0.4,-0.8 -0.4,-1.4l0,-8.3l4.5,0l0,-2.1l-4.5,0l0,-4.4z" class="st0"/>
    <path id="svg_14" fill="#46a5a5" d="m420.9,44.8c-0.8,-0.3 -1.7,-0.4 -2.8,-0.4c-0.7,0 -1.5,0 -2.4,0.1s-1.7,0.1 -2.5,0.2s-1.6,0.2 -2.2,0.3l0.3,2.1c1.1,-0.1 2.2,-0.2 3.4,-0.2s2.1,-0.1 2.8,-0.1c1.1,0 1.9,0.2 2.2,0.6c0.4,0.4 0.6,1 0.6,1.8l0,1.2l-5.9,0c-1.3,0 -2.3,0.3 -3,1c-0.7,0.6 -1.1,1.5 -1.1,2.7l0,1.6c0,0.9 0.2,1.6 0.6,2.2c0.4,0.6 0.9,1.1 1.6,1.4c0.7,0.3 1.4,0.5 2.3,0.5c0.8,0 1.6,-0.1 2.2,-0.4c0.7,-0.2 1.3,-0.5 1.9,-0.9c0.6,-0.4 1,-0.7 1.4,-1.1c0.1,-0.1 0.2,-0.2 0.3,-0.3l0.3,2.4l2.3,0l0,-10.1c0,-1.2 -0.2,-2.2 -0.6,-2.9c-0.3,-0.9 -0.9,-1.4 -1.7,-1.7zm-1.5,11.1c-0.7,0.4 -1.4,0.7 -2.1,1c-0.7,0.2 -1.3,0.3 -1.9,0.3c-0.8,0 -1.3,-0.2 -1.7,-0.5c-0.3,-0.3 -0.5,-0.8 -0.5,-1.6l0,-0.9c0,-0.6 0.1,-1 0.4,-1.4c0.3,-0.3 0.7,-0.5 1.4,-0.5l5.3,0l0,2.8c-0.3,0.3 -0.6,0.6 -0.9,0.8z" class="st0"/>
   </g>
   <g id="svg_15">
    <path id="svg_16" fill="#46a5a5" d="m294,74c-1.6,0 -2.9,0.2 -3.8,0.5s-1.6,0.8 -2,1.5s-0.6,1.6 -0.6,2.7s0.2,1.9 0.6,2.6c0.3,0.5 0.8,0.9 1.4,1.2c-0.3,0.2 -0.5,0.4 -0.7,0.7c-0.2,0.4 -0.4,0.8 -0.5,1.3c-0.1,0.4 0,0.9 0.1,1.3s0.4,0.8 0.8,1.2c0,0 0.1,0 0.1,0.1c-0.4,0.2 -0.8,0.5 -1.2,0.7c-0.4,0.3 -0.8,0.7 -0.9,1.2c-0.2,0.4 -0.3,1 -0.3,1.6c0,0.8 0.1,1.5 0.4,2.1c0.2,0.6 0.6,1 1.2,1.4c0.5,0.3 1.3,0.6 2.2,0.7c0.9,0.1 2.1,0.2 3.4,0.2c1.7,0 3.1,-0.1 4.2,-0.4c1,-0.3 1.8,-0.7 2.2,-1.4c0.4,-0.7 0.7,-1.6 0.7,-2.7c0,-1.2 -0.3,-2.2 -0.8,-2.8c-0.6,-0.7 -1.5,-1.1 -2.9,-1.3l-5.4,-0.8c-0.6,-0.1 -1,-0.3 -1.2,-0.7c-0.2,-0.3 -0.2,-0.7 -0.1,-1.1c0.1,-0.2 0.2,-0.4 0.3,-0.6c0.8,0.2 1.8,0.3 2.9,0.3c1.6,0 2.8,-0.2 3.8,-0.5c0.9,-0.3 1.6,-0.8 2,-1.5s0.6,-1.6 0.6,-2.6c0,-1.1 -0.2,-1.9 -0.6,-2.6l2.1,-0.2l0.1,-1.5l-4.7,0c-1,-0.5 -2.1,-0.6 -3.4,-0.6zm3.4,14.5c0.4,0.1 0.6,0.3 0.7,0.6c0.1,0.2 0.2,0.6 0.2,1.1c0,0.6 -0.1,1.1 -0.4,1.4c-0.2,0.3 -0.7,0.6 -1.3,0.7c-0.6,0.1 -1.5,0.2 -2.6,0.2s-2,-0.1 -2.7,-0.2c-0.6,-0.1 -1.1,-0.3 -1.3,-0.7c-0.2,-0.3 -0.4,-0.8 -0.4,-1.5c0,-0.4 0.1,-0.8 0.2,-1.1s0.3,-0.6 0.6,-0.9c0.2,-0.2 0.4,-0.4 0.6,-0.6l4.7,0.6c0.9,0.2 1.4,0.3 1.7,0.4zm-0.6,-7.9c-0.5,0.4 -1.5,0.6 -2.9,0.6s-2.4,-0.2 -2.9,-0.6s-0.8,-1.1 -0.8,-2s0.3,-1.6 0.8,-2s1.5,-0.6 2.9,-0.6s2.3,0.2 2.9,0.6c0.5,0.4 0.8,1 0.8,2c0,0.9 -0.3,1.6 -0.8,2z" class="st0"/>
    <path id="svg_17" fill="#46a5a5" d="m362.8,75.9c-0.8,-1.3 -2.1,-2 -3.8,-2c-0.7,0 -1.5,0.1 -2.2,0.3c-0.8,0.2 -1.5,0.6 -2.1,1s-1.2,0.8 -1.6,1.3l-0.2,-2.3l-2.4,0l0,20.6l2.9,0l0,-4.1c0,-0.6 0,-1.2 0,-1.7c0,-0.4 -0.1,-0.9 -0.1,-1.3c0.8,0.5 1.6,0.9 2.5,1.1c0.9,0.3 1.9,0.4 2.8,0.4c1.3,0 2.3,-0.2 3.1,-0.7s1.4,-1.3 1.8,-2.4s0.6,-2.6 0.6,-4.5c-0.1,-2.4 -0.5,-4.3 -1.3,-5.7zm-2.1,9c-0.2,0.8 -0.6,1.3 -1.1,1.5c-0.5,0.3 -1.1,0.4 -1.9,0.4c-0.8,0 -1.5,-0.1 -2.2,-0.2c-0.7,-0.2 -1.4,-0.3 -2.2,-0.6l0,-7.5c0.9,-0.7 1.7,-1.2 2.4,-1.6c0.7,-0.3 1.5,-0.5 2.2,-0.5s1.3,0.2 1.8,0.5c0.4,0.3 0.8,0.9 1,1.6c0.2,0.8 0.3,1.8 0.3,3.2c0,1.4 -0.1,2.4 -0.3,3.2z" class="st0"/>
    <path id="svg_18" fill="#46a5a5" d="m343.4,84.9c-1,0.6 -1.8,1.1 -2.5,1.4c-0.8,0.4 -1.5,0.5 -2.3,0.5s-1.4,-0.2 -1.7,-0.5c-0.3,-0.4 -0.5,-1 -0.5,-1.8l0,-10.1l-2.9,0l0,10.9c0,2.7 1.3,4 4,4c1.1,0 2.2,-0.2 3.2,-0.7c1,-0.4 2,-1 3,-1.8l0.2,2.1l2.3,0l0,-14.5l-2.9,0l0,10.5l0.1,0z" class="st0"/>
    <path id="svg_19" fill="#46a5a5" d="m310.4,74.7c-1,0.5 -2,1.1 -3,1.9l-0.3,-2.3l-2.2,0l0,14.5l2.9,0l0,-10.5c1.1,-0.5 2,-0.9 2.8,-1.2c0.8,-0.3 1.7,-0.5 2.5,-0.5l0.9,0l0.3,-2.7l-0.7,0c-1.1,0.1 -2.2,0.3 -3.2,0.8z" class="st0"/>
    <path id="svg_20" fill="#46a5a5" d="m327.2,74.7c-1,-0.5 -2.4,-0.7 -4.1,-0.7c-1.7,0 -3,0.2 -4.1,0.7s-1.8,1.3 -2.2,2.4c-0.5,1.1 -0.7,2.6 -0.7,4.5s0.2,3.4 0.7,4.5s1.2,1.9 2.2,2.4c1,0.5 2.4,0.7 4.1,0.7s3.1,-0.2 4.1,-0.7s1.8,-1.3 2.2,-2.4s0.7,-2.6 0.7,-4.5c0,-1.8 -0.2,-3.3 -0.7,-4.5c-0.5,-1.1 -1.2,-1.9 -2.2,-2.4zm-0.5,10.1c-0.2,0.8 -0.7,1.3 -1.2,1.6c-0.6,0.3 -1.4,0.5 -2.4,0.5s-1.8,-0.2 -2.4,-0.5c-0.6,-0.3 -1,-0.8 -1.2,-1.6c-0.2,-0.8 -0.4,-1.8 -0.4,-3.2c0,-1.4 0.1,-2.4 0.4,-3.2c0.2,-0.8 0.6,-1.3 1.2,-1.6c0.6,-0.3 1.4,-0.5 2.4,-0.5s1.8,0.2 2.4,0.5c0.6,0.3 1,0.9 1.2,1.6c0.2,0.8 0.4,1.8 0.4,3.2c-0.1,1.4 -0.2,2.5 -0.4,3.2z" class="st0"/>
   </g>
  </g>
  <rect id="svg_21" fill="#46a5a5" height="105" width="1.7" class="st0" y="0" x="266.1"/>
  <g id="svg_22">
   <path id="svg_23" fill="#46a5a5" d="m161.6,73.2l0,-36.2c0,-14.8 -12,-26.9 -26.8,-26.9c-8.4,0 -15.9,3.9 -20.8,10c-4.9,-6.1 -12.4,-10 -20.8,-10c-14.8,0 -26.8,12.1 -26.8,26.9l0,36.2l11.9,0l0,-36.2c0,-8.2 6.7,-14.9 14.9,-14.9s14.9,6.7 14.9,14.9l0,36.4c8.5,0 11.9,-2.6 11.9,-9l0,-27.3c0,-8.2 6.7,-14.9 14.9,-14.9s14.9,6.7 14.9,14.9l0,36.2l11.8,0l0,-0.1l0,0z" class="st0"/>
   <path id="svg_24" fill="#46a5a5" d="m235.5,69.2l0,-26.9c0,-16 -11.5,-29.3 -26.8,-31.8c-1.4,-0.3 -3.1,-0.5 -5.1,-0.5l0,0l0,0c-1,0 -2,0.1 -3,0.1c-17,1.5 -28.4,14.9 -28.4,31.3c0,17.4 14.1,30.3 31.5,30.3c3.7,0 7.4,-1 10.9,-2.3c0,0 -0.8,-3.2 -2.8,-7.6c-1.6,-3.6 -3,-2.4 -8.1,-2.4c-10.8,0 -19.5,-7.2 -19.5,-18c0,-5.6 2.4,-10.7 6.3,-14.2l0,0c3.7,-3.2 8.4,-5.2 13.2,-5.2c11,0 20,9.2 20,20.2l0,27c0,12.6 -9,20.1 -20,20.1c-5.9,0 -11.2,-2.6 -14.9,-6.6c-0.5,-0.5 -0.9,-1.1 -1.3,-1.6l-10.1,6.6c5.8,8.3 15.6,13.6 26.5,13.6c18.8,0.1 31.6,-12.9 31.6,-32.1" class="st0"/>
   <path id="svg_25" fill="#46a5a5" d="m53.7,45.5c-1.6,-2.2 -4.2,-4.1 -7.3,-5.5c-5.6,-2.5 -14.6,-3.3 -18.6,-3.9c-6.4,-1 -15.3,-1 -14.7,-7.7c0.6,-5.9 8.3,-8.3 19.6,-7.3c4.8,0.4 10.8,2.8 10.8,2.8c2.5,0.9 3.8,1.5 5.8,2.5c3.2,-6.6 4.9,-9.9 4.9,-9.9l0,0c-1.9,-1 -3.7,-1.9 -5.6,-2.8c-1.9,-0.9 -4.6,-1.8 -7.8,-2.6c-0.6,-0.1 -3.6,-0.8 -7.4,-1.1c-7.6,-0.5 -15.5,0.3 -21.3,3.4c-3,1.6 -5.4,3.7 -7.2,6c0,0.1 -0.1,0.2 -0.2,0.3c-2.4,3.2 -3.6,7.2 -3,11.3c0.7,5.6 3.3,9.4 9.1,12.3c5.1,2.5 10.9,3 17.8,3.8c7.4,0.9 16.4,2.1 16.3,8.1c-0.1,4.9 -7.7,8.4 -19.7,7.7c-9.8,-0.5 -15.8,-6.7 -17,-8c-2.7,2.5 -5.4,5 -8.2,7.4c0.9,1.2 1.9,2.3 3,3.3c5.2,4.6 12.8,7.7 21.2,8.4c7.6,0.7 16.1,-0.5 21.9,-3.6c6.5,-3.4 9.8,-8.2 10.3,-14.7c0.2,-3.4 -0.8,-7.6 -2.7,-10.2" class="st0"/>
  </g>
 </g>
</svg>
